<?xml version="1.0" encoding="us-ascii" standalone="no"?><svg xmlns="http://www.w3.org/2000/svg" xmlns:xlink="http://www.w3.org/1999/xlink" contentStyleType="text/css" height="729px" preserveAspectRatio="none" style="width:950px;height:729px;background:#FFFFFF;" version="1.1" viewBox="0 0 950 729" width="950px" zoomAndPan="magnify"><defs/><g><line style="stroke:#181818;stroke-width:0.5;stroke-dasharray:5.0,5.0;" x1="24" x2="24" y1="81.2969" y2="648.5547"/><line style="stroke:#181818;stroke-width:0.5;stroke-dasharray:5.0,5.0;" x1="256" x2="256" y1="81.2969" y2="648.5547"/><line style="stroke:#181818;stroke-width:0.5;stroke-dasharray:5.0,5.0;" x1="609" x2="609" y1="81.2969" y2="648.5547"/><line style="stroke:#181818;stroke-width:0.5;stroke-dasharray:5.0,5.0;" x1="730" x2="730" y1="81.2969" y2="648.5547"/><line style="stroke:#181818;stroke-width:0.5;stroke-dasharray:5.0,5.0;" x1="826" x2="826" y1="81.2969" y2="648.5547"/><line style="stroke:#181818;stroke-width:0.5;stroke-dasharray:5.0,5.0;" x1="915" x2="915" y1="81.2969" y2="648.5547"/><text fill="#000000" font-family="sans-serif" font-size="14" lengthAdjust="spacing" textLength="32" x="5" y="77.9951">User</text><ellipse cx="24" cy="13.5" fill="#E2E2F0" rx="8" ry="8" style="stroke:#181818;stroke-width:0.5;"/><path d="M24,21.5 L24,48.5 M11,29.5 L37,29.5 M24,48.5 L11,63.5 M24,48.5 L37,63.5 " fill="none" style="stroke:#181818;stroke-width:0.5;"/><text fill="#000000" font-family="sans-serif" font-size="14" lengthAdjust="spacing" textLength="32" x="5" y="660.5498">User</text><ellipse cx="24" cy="672.3516" fill="#E2E2F0" rx="8" ry="8" style="stroke:#181818;stroke-width:0.5;"/><path d="M24,680.3516 L24,707.3516 M11,688.3516 L37,688.3516 M24,707.3516 L11,722.3516 M24,707.3516 L37,722.3516 " fill="none" style="stroke:#181818;stroke-width:0.5;"/><rect fill="#E2E2F0" height="30.2969" rx="2.5" ry="2.5" style="stroke:#181818;stroke-width:0.5;" width="128" x="192" y="50"/><text fill="#000000" font-family="sans-serif" font-size="14" lengthAdjust="spacing" textLength="114" x="199" y="69.9951">Retrieval System</text><rect fill="#E2E2F0" height="30.2969" rx="2.5" ry="2.5" style="stroke:#181818;stroke-width:0.5;" width="128" x="192" y="647.5547"/><text fill="#000000" font-family="sans-serif" font-size="14" lengthAdjust="spacing" textLength="114" x="199" y="667.5498">Retrieval System</text><rect fill="#E2E2F0" height="30.2969" rx="2.5" ry="2.5" style="stroke:#181818;stroke-width:0.5;" width="172" x="523" y="50"/><text fill="#000000" font-family="sans-serif" font-size="14" lengthAdjust="spacing" textLength="158" x="530" y="69.9951">OpenAI Embedding API</text><rect fill="#E2E2F0" height="30.2969" rx="2.5" ry="2.5" style="stroke:#181818;stroke-width:0.5;" width="172" x="523" y="647.5547"/><text fill="#000000" font-family="sans-serif" font-size="14" lengthAdjust="spacing" textLength="158" x="530" y="667.5498">OpenAI Embedding API</text><rect fill="#E2E2F0" height="30.2969" rx="2.5" ry="2.5" style="stroke:#181818;stroke-width:0.5;" width="50" x="705" y="50"/><text fill="#000000" font-family="sans-serif" font-size="14" lengthAdjust="spacing" textLength="36" x="712" y="69.9951">Book</text><rect fill="#E2E2F0" height="30.2969" rx="2.5" ry="2.5" style="stroke:#181818;stroke-width:0.5;" width="50" x="705" y="647.5547"/><text fill="#000000" font-family="sans-serif" font-size="14" lengthAdjust="spacing" textLength="36" x="712" y="667.5498">Book</text><rect fill="#E2E2F0" height="30.2969" rx="2.5" ry="2.5" style="stroke:#181818;stroke-width:0.5;" width="122" x="765" y="50"/><text fill="#000000" font-family="sans-serif" font-size="14" lengthAdjust="spacing" textLength="108" x="772" y="69.9951">OpenAI GPT API</text><rect fill="#E2E2F0" height="30.2969" rx="2.5" ry="2.5" style="stroke:#181818;stroke-width:0.5;" width="122" x="765" y="647.5547"/><text fill="#000000" font-family="sans-serif" font-size="14" lengthAdjust="spacing" textLength="108" x="772" y="667.5498">OpenAI GPT API</text><text fill="#000000" font-family="sans-serif" font-size="14" lengthAdjust="spacing" textLength="21" x="901.5" y="77.9951">DB</text><path d="M897,29 C897,19 915,19 915,19 C915,19 933,19 933,29 L933,55 C933,65 915,65 915,65 C915,65 897,65 897,55 L897,29 " fill="#E2E2F0" style="stroke:#181818;stroke-width:1.5;"/><path d="M897,29 C897,39 915,39 915,39 C915,39 933,39 933,29 " fill="none" style="stroke:#181818;stroke-width:1.5;"/><text fill="#000000" font-family="sans-serif" font-size="14" lengthAdjust="spacing" textLength="21" x="901.5" y="660.5498">DB</text><path d="M897,673.8516 C897,663.8516 915,663.8516 915,663.8516 C915,663.8516 933,663.8516 933,673.8516 L933,699.8516 C933,709.8516 915,709.8516 915,709.8516 C915,709.8516 897,709.8516 897,699.8516 L897,673.8516 " fill="#E2E2F0" style="stroke:#181818;stroke-width:1.5;"/><path d="M897,673.8516 C897,683.8516 915,683.8516 915,683.8516 C915,683.8516 933,683.8516 933,673.8516 " fill="none" style="stroke:#181818;stroke-width:1.5;"/><polygon fill="#181818" points="244,108.4297,254,112.4297,244,116.4297,248,112.4297" style="stroke:#181818;stroke-width:1.0;"/><line style="stroke:#181818;stroke-width:1.0;" x1="24" x2="250" y1="112.4297" y2="112.4297"/><text fill="#000000" font-family="sans-serif" font-size="13" lengthAdjust="spacing" textLength="156" x="31" y="107.3638">Starts Chunking Process</text><polygon fill="#181818" points="718,137.5625,728,141.5625,718,145.5625,722,141.5625" style="stroke:#181818;stroke-width:1.0;"/><line style="stroke:#181818;stroke-width:1.0;" x1="256" x2="724" y1="141.5625" y2="141.5625"/><text fill="#000000" font-family="sans-serif" font-size="13" lengthAdjust="spacing" textLength="159" x="263" y="136.4966">Reads Source Document</text><line style="stroke:#181818;stroke-width:1.0;" x1="256" x2="298" y1="170.6953" y2="170.6953"/><line style="stroke:#181818;stroke-width:1.0;" x1="298" x2="298" y1="170.6953" y2="183.6953"/><line style="stroke:#181818;stroke-width:1.0;" x1="257" x2="298" y1="183.6953" y2="183.6953"/><polygon fill="#181818" points="267,179.6953,257,183.6953,267,187.6953,263,183.6953" style="stroke:#181818;stroke-width:1.0;"/><text fill="#000000" font-family="sans-serif" font-size="13" lengthAdjust="spacing" textLength="216" x="263" y="165.6294">Segments Document into Chunks</text><polygon fill="#181818" points="597,208.8281,607,212.8281,597,216.8281,601,212.8281" style="stroke:#181818;stroke-width:1.0;"/><line style="stroke:#181818;stroke-width:1.0;" x1="256" x2="603" y1="212.8281" y2="212.8281"/><text fill="#000000" font-family="sans-serif" font-size="13" lengthAdjust="spacing" textLength="189" x="263" y="207.7622">Converts Chunks into Vectors</text><polygon fill="#181818" points="267,237.9609,257,241.9609,267,245.9609,263,241.9609" style="stroke:#181818;stroke-width:1.0;"/><line style="stroke:#181818;stroke-width:1.0;" x1="261" x2="608" y1="241.9609" y2="241.9609"/><text fill="#000000" font-family="sans-serif" font-size="13" lengthAdjust="spacing" textLength="102" x="273" y="236.895">Returns Vectors</text><polygon fill="#181818" points="903,267.0938,913,271.0938,903,275.0938,907,271.0938" style="stroke:#181818;stroke-width:1.0;"/><line style="stroke:#181818;stroke-width:1.0;" x1="256" x2="909" y1="271.0938" y2="271.0938"/><text fill="#000000" font-family="sans-serif" font-size="13" lengthAdjust="spacing" textLength="133" x="263" y="266.0278">Stores Vectors in DB</text><polygon fill="#181818" points="244,296.2266,254,300.2266,244,304.2266,248,300.2266" style="stroke:#181818;stroke-width:1.0;"/><line style="stroke:#181818;stroke-width:1.0;" x1="24" x2="250" y1="300.2266" y2="300.2266"/><text fill="#000000" font-family="sans-serif" font-size="13" lengthAdjust="spacing" textLength="92" x="31" y="295.1606">Poses a Query</text><polygon fill="#181818" points="597,325.3594,607,329.3594,597,333.3594,601,329.3594" style="stroke:#181818;stroke-width:1.0;"/><line style="stroke:#181818;stroke-width:1.0;" x1="256" x2="603" y1="329.3594" y2="329.3594"/><text fill="#000000" font-family="sans-serif" font-size="13" lengthAdjust="spacing" textLength="173" x="263" y="324.2935">Converts Query into Vector</text><polygon fill="#181818" points="267,354.4922,257,358.4922,267,362.4922,263,358.4922" style="stroke:#181818;stroke-width:1.0;"/><line style="stroke:#181818;stroke-width:1.0;" x1="261" x2="608" y1="358.4922" y2="358.4922"/><text fill="#000000" font-family="sans-serif" font-size="13" lengthAdjust="spacing" textLength="137" x="273" y="353.4263">Returns Query Vector</text><polygon fill="#181818" points="903,383.625,913,387.625,903,391.625,907,387.625" style="stroke:#181818;stroke-width:1.0;"/><line style="stroke:#181818;stroke-width:1.0;" x1="256" x2="909" y1="387.625" y2="387.625"/><text fill="#000000" font-family="sans-serif" font-size="13" lengthAdjust="spacing" textLength="156" x="263" y="382.5591">Retrieves Chunk Vectors</text><polygon fill="#181818" points="267,412.7578,257,416.7578,267,420.7578,263,416.7578" style="stroke:#181818;stroke-width:1.0;"/><line style="stroke:#181818;stroke-width:1.0;" x1="261" x2="914" y1="416.7578" y2="416.7578"/><text fill="#000000" font-family="sans-serif" font-size="13" lengthAdjust="spacing" textLength="146" x="273" y="411.6919">Returns Chunk Vectors</text><line style="stroke:#181818;stroke-width:1.0;" x1="256" x2="298" y1="445.8906" y2="445.8906"/><line style="stroke:#181818;stroke-width:1.0;" x1="298" x2="298" y1="445.8906" y2="458.8906"/><line style="stroke:#181818;stroke-width:1.0;" x1="257" x2="298" y1="458.8906" y2="458.8906"/><polygon fill="#181818" points="267,454.8906,257,458.8906,267,462.8906,263,458.8906" style="stroke:#181818;stroke-width:1.0;"/><text fill="#000000" font-family="sans-serif" font-size="13" lengthAdjust="spacing" textLength="198" x="263" y="440.8247">Computes Similarity of Vectors</text><line style="stroke:#181818;stroke-width:1.0;" x1="256" x2="298" y1="488.0234" y2="488.0234"/><line style="stroke:#181818;stroke-width:1.0;" x1="298" x2="298" y1="488.0234" y2="501.0234"/><line style="stroke:#181818;stroke-width:1.0;" x1="257" x2="298" y1="501.0234" y2="501.0234"/><polygon fill="#181818" points="267,497.0234,257,501.0234,267,505.0234,263,501.0234" style="stroke:#181818;stroke-width:1.0;"/><text fill="#000000" font-family="sans-serif" font-size="13" lengthAdjust="spacing" textLength="150" x="263" y="482.9575">Selects Relevant Chunk</text><line style="stroke:#181818;stroke-width:1.0;" x1="256" x2="298" y1="530.1563" y2="530.1563"/><line style="stroke:#181818;stroke-width:1.0;" x1="298" x2="298" y1="530.1563" y2="543.1563"/><line style="stroke:#181818;stroke-width:1.0;" x1="257" x2="298" y1="543.1563" y2="543.1563"/><polygon fill="#181818" points="267,539.1563,257,543.1563,267,547.1563,263,543.1563" style="stroke:#181818;stroke-width:1.0;"/><text fill="#000000" font-family="sans-serif" font-size="13" lengthAdjust="spacing" textLength="339" x="263" y="525.0903">Constructs a Prompt from Query and Relevant Chunk</text><polygon fill="#181818" points="814,568.2891,824,572.2891,814,576.2891,818,572.2891" style="stroke:#181818;stroke-width:1.0;"/><line style="stroke:#181818;stroke-width:1.0;" x1="256" x2="820" y1="572.2891" y2="572.2891"/><text fill="#000000" font-family="sans-serif" font-size="13" lengthAdjust="spacing" textLength="91" x="263" y="567.2231">Sends Prompt</text><polygon fill="#181818" points="267,597.4219,257,601.4219,267,605.4219,263,601.4219" style="stroke:#181818;stroke-width:1.0;"/><line style="stroke:#181818;stroke-width:1.0;stroke-dasharray:2.0,2.0;" x1="261" x2="825" y1="601.4219" y2="601.4219"/><text fill="#000000" font-family="sans-serif" font-size="13" lengthAdjust="spacing" textLength="187" x="273" y="596.356">Returns Generated Response</text><polygon fill="#181818" points="35,626.5547,25,630.5547,35,634.5547,31,630.5547" style="stroke:#181818;stroke-width:1.0;"/><line style="stroke:#181818;stroke-width:1.0;" x1="29" x2="255" y1="630.5547" y2="630.5547"/><text fill="#000000" font-family="sans-serif" font-size="13" lengthAdjust="spacing" textLength="208" x="41" y="625.4888">Returns Response to User Query</text><!--SRC=[VLB1Ri8m3BtdAwpT-O4U9b6O4EAmhjbs3wrX4JIfuWI9lv-JXdPbR2T7Vi_FptPKuws33q8dUkMyRdIlZ8Ud6htJU55da5Vos3s18gZbdFJQerbkuQNROzjgSuHbjKt4CJFdbzQU4bxk7WfjglTHWj-YLLxj5I6iIo6YHrWyimaefETgWjLNCAVOjtAsGIB163FA7HGrgfP0sk0QBhTDwD3uZDUo08d7cA4H0ssy7HHlEjDSnSgQ2uujQI1_ObmUYOcNnNbvmHaQ2OFSkWJkomaS4TRvDLjbYGaAtWAwwpzE4lxJoDy-1cfcJMRoZJ5FDTfbx4vWZazRNDck3vu5fExqMJdjhs0F3uWIpvpZ7yJn4a-U56TAXhmBaQFYERlUmu53zgvC-xWsVfaeR_ZQGvc8gSNT01iqw9J7g48zzy9SdpO_yMuey5OJbDf_0m00]--></g></svg>