<?plantuml 1.2026.1?><svg xmlns="http://www.w3.org/2000/svg" xmlns:xlink="http://www.w3.org/1999/xlink" contentStyleType="text/css" data-diagram-type="DESCRIPTION" height="490px" preserveAspectRatio="none" style="width:450px;height:490px;background:#FFFFFF;" version="1.1" viewBox="0 0 450 490" width="450px" zoomAndPan="magnify"><defs/><g><!--cluster TOOL--><g class="cluster" data-qualified-name="TOOL" data-source-line="6" id="ent0002"><path d="M236,254.4754 L266.8828,254.4754 A10.5,10.5 0 0 1 273.8828,261.4754 L280.8828,274.4754 L436,274.4754 A7,7 0 0 1 443,281.4754 L443,475.9754 A7,7 0 0 1 436,482.9754 L236,482.9754 A7,7 0 0 1 229,475.9754 L229,261.4754 A7,7 0 0 1 236,254.4754" fill="#E7E9EE" style="stroke:#000000;stroke-width:1;"/><line style="stroke:#000000;stroke-width:1;" x1="229" x2="280.8828" y1="274.4754" y2="274.4754"/><text fill="#000000" font-family="Helvetica" font-size="14" font-weight="bold" lengthAdjust="spacing" textLength="38.8828" x="233" y="267.2557">TOOL</text></g><!--cluster AGENT--><g class="cluster" data-qualified-name="AGENT" data-source-line="16" id="ent0007"><path d="M18,134.9754 L59,134.9754 A10.5,10.5 0 0 1 66,141.9754 L73,154.9754 L198,154.9754 A7,7 0 0 1 205,161.9754 L205,350.9754 A7,7 0 0 1 198,357.9754 L18,357.9754 A7,7 0 0 1 11,350.9754 L11,141.9754 A7,7 0 0 1 18,134.9754" fill="#DAF6F9" style="stroke:#000000;stroke-width:1;"/><line style="stroke:#000000;stroke-width:1;" x1="11" x2="73" y1="154.9754" y2="154.9754"/><text fill="#000000" font-family="Helvetica" font-size="14" font-weight="bold" lengthAdjust="spacing" textLength="49" x="15" y="147.7557">AGENT</text></g><!--entity tool--><g class="entity" data-qualified-name="TOOL.tool" data-source-line="7" id="ent0003"><rect fill="#6E7B9A" height="34" rx="7" ry="7" style="stroke:#000000;stroke-width:1;" width="85.3447" x="269.33" y="287.4754"/><text fill="#000000" font-family="Helvetica" font-size="14" lengthAdjust="spacing" textLength="65.3447" x="279.33" y="308.2557">API / MCP</text></g><g class="entity" data-qualified-name="TOOL.GMN4" data-source-line="9" id="ent0005"><path d="M244.56,411.9754 L244.56,459.9754 A7,7 0 0 0 251.56,466.9754 L420.4316,466.9754 A7,7 0 0 0 427.4316,459.9754 L427.4316,414.9754 L417.4316,404.9754 L334.38,404.9754 L315.04,321.8754 L326.38,404.9754 L251.56,404.9754 A7,7 0 0 0 244.56,411.9754" fill="#FFFFFF" style="stroke:#000000;stroke-width:1;"/><path d="M417.4316,404.9754 L417.4316,411.4754 A3.5,3.5 0 0 0 420.9316,414.9754 L427.4316,414.9754 L417.4316,404.9754" fill="#FFFFFF" style="stroke:#000000;stroke-width:1;"/><text fill="#000000" font-family="Helvetica" font-size="13" font-weight="bold" lengthAdjust="spacing" textLength="82.3608" x="250.56" y="419.9857">Deterministic</text><text fill="#000000" font-family="Helvetica" font-size="13" lengthAdjust="spacing" textLength="139.0835" x="250.56" y="432.9857">Same call = same result</text><text fill="#000000" font-family="Helvetica" font-size="13" lengthAdjust="spacing" textLength="117.7998" x="250.56" y="445.9857">Idempotent, testable</text><text fill="#000000" font-family="Helvetica" font-size="13" lengthAdjust="spacing" textLength="161.8716" x="250.56" y="458.9857">Executes, does not interpret</text></g><!--entity agent--><g class="entity" data-qualified-name="AGENT.agent" data-source-line="17" id="ent0008"><polygon fill="#00D2DD" points="176.59,179.9754,158.29,167.9754,121.71,167.9754,103.41,179.9754,121.71,191.9754,158.29,191.9754,176.59,179.9754" style="stroke:#000000;stroke-width:1;"/><text fill="#000000" font-family="Helvetica" font-size="14" lengthAdjust="spacing" textLength="36.5859" x="121.703" y="183.7557">Agent</text></g><g class="entity" data-qualified-name="AGENT.GMN9" data-source-line="19" id="ent0010"><path d="M26.68,273.9754 L26.68,334.9754 A7,7 0 0 0 33.68,341.9754 L182.3216,341.9754 A7,7 0 0 0 189.3216,334.9754 L189.3216,276.9754 L179.3216,266.9754 L121.61,266.9754 L137.05,192.2754 L113.61,266.9754 L33.68,266.9754 A7,7 0 0 0 26.68,273.9754" fill="#FFFFFF" style="stroke:#000000;stroke-width:1;"/><path d="M179.3216,266.9754 L179.3216,273.4754 A3.5,3.5 0 0 0 182.8216,276.9754 L189.3216,276.9754 L179.3216,266.9754" fill="#FFFFFF" style="stroke:#000000;stroke-width:1;"/><text fill="#000000" font-family="Helvetica" font-size="13" font-weight="bold" lengthAdjust="spacing" textLength="110.5127" x="32.68" y="281.9857">Non-deterministic</text><text fill="#000000" font-family="Helvetica" font-size="13" lengthAdjust="spacing" textLength="131.5171" x="32.68" y="294.9857">Decides autonomously</text><text fill="#000000" font-family="Helvetica" font-size="13" lengthAdjust="spacing" textLength="73.0044" x="32.68" y="307.9857">Based on an</text><text fill="#000000" font-family="Helvetica" font-size="13" font-weight="bold" lengthAdjust="spacing" textLength="54.8755" x="109.2962" y="307.9857">intention</text><text fill="#000000" font-family="Helvetica" font-size="13" lengthAdjust="spacing" textLength="91.7998" x="32.68" y="320.9857">Depending on a</text><text fill="#000000" font-family="Helvetica" font-size="13" font-weight="bold" lengthAdjust="spacing" textLength="46.23" x="128.0916" y="320.9857">context</text><text fill="#000000" font-family="Helvetica" font-size="13" lengthAdjust="spacing" textLength="91.0317" x="32.68" y="333.9857">Statistical result</text></g><!--entity ctx--><g class="entity" data-qualified-name="ctx" data-source-line="27" id="ent0012"><path d="M103.9687,24.4456 C106.458,17.43 110.1576,17.2581 115.3527,21.7746 C118.7059,14.0748 123.2821,13.5761 128.5078,20.0348 C130.0267,13.157 134.9464,11.0026 140.2486,16.423 C145.6773,11.6421 150.0456,11 153.1228,18.8246 C159.3957,12.3321 164.4974,14.4494 167.0025,22.4364 C171.335,17.311 177.2847,18.6496 179.0225,25.1248 C190.5308,29.7013 188.5296,39.2586 180.8519,45.5531 C189.5174,51.4081 189.2468,61.814 179.4803,66.4598 C176.4508,73.335 170.229,74.634 165.2309,68.6394 C163.4198,75.1736 158.9156,77.372 153.0419,73.3146 C151.072,78.7989 145.6775,80.8289 141.3806,75.9274 C135.3748,80.9254 131.5947,79.0686 128.3756,72.7304 C123.1025,76.9214 118.1931,75.1765 116.233,68.8906 C111.3218,74.7313 105.2812,73.8147 103.3219,66.0827 C93.6315,61.3246 90.7648,55.2124 99.4804,46.7895 C89.3195,38.896 93.007,28.0962 103.9687,24.4456" fill="#FFFFFF" style="stroke:#000000;stroke-width:1;"/><text fill="#000000" font-family="Helvetica" font-size="14" lengthAdjust="spacing" textLength="61.4824" x="109.26" y="41.7557">Execution</text><text fill="#000000" font-family="Helvetica" font-size="14" lengthAdjust="spacing" textLength="45.1377" x="109.26" y="55.7557">context</text></g><!--link ctx to agent--><g class="link" data-entity-1="ent0012" data-entity-2="ent0008" data-link-type="dependency" data-source-line="28" id="lnk13"><path d="M140,74.1854 C140,103.3054 140,141.3054 140,161.7754" fill="none" id="ctx-to-agent" style="stroke:#000000;stroke-width:1;stroke-dasharray:7,7;"/><polygon fill="#000000" points="140,167.7754,144,158.7754,140,162.7754,136,158.7754,140,167.7754" style="stroke:#000000;stroke-width:1;"/><text fill="#000000" font-family="Helvetica" font-size="13" lengthAdjust="spacing" textLength="31.8018" x="141" y="114.9857">feeds</text></g><!--link agent to tool--><g class="link" data-entity-1="ent0008" data-entity-2="ent0003" data-link-type="dependency" data-source-line="30" id="lnk14"><path d="M155.87,192.2754 C186.39,214.0154 248.493,258.2444 283.983,283.5244" fill="none" id="agent-to-tool" style="stroke:#000000;stroke-width:1;"/><polygon fill="#000000" points="288.87,287.0054,283.8603,278.5259,284.7975,284.1045,279.2189,285.0418,288.87,287.0054" style="stroke:#000000;stroke-width:1;"/><text fill="#000000" font-family="Helvetica" font-size="13" lengthAdjust="spacing" textLength="27.46" x="216.7" y="232.9857">uses</text></g><?plantuml-src RL7HQXj137pVhr3jDnEdQIa93ZJWvCvje7L2aiU-oBloPScUTDpgYalflrUtTbf3Ut2mgncDPhHlz9bQWYvXP9TV8dVOOmiRz2zDBmE76qdImtHLlYD6e2qEILV2kaPJ-4pfEsdqUCHvs0lqJ3sy--1SPwhO44oUxkw-J61QNzIBkeQV3g0dhyXDCd1vVmjluUlD_GGmWueac9xN5zUBfV5Ob60ZgjA2R0jgLO3Ph2AbleqSixcOpKhrSNJcCINu27ayzvJDTC5k0xMTgR6UW59Mt2GgGBqZFrZb189G7YT2PDFkUXexYKDnuNuT1Lf-gjTFbgXQhivNYvBecNRO21lMs8oI1SSJJC_EglTLzM-O0X_Ih8NduJ-9Al8nc2iSL5XQ6NBwKO1hp1J0vY5R-sYODGh_QUlCT-IcC8pWxTrefwzxKjGo1TFV5Hq7zKc609FzQaps6ny4IYwlEsS_d9vU7J9UmfOePEVsr_dyQl-Gbp1aokut?></g></svg>