<?plantuml 1.2026.1?><svg xmlns="http://www.w3.org/2000/svg" xmlns:xlink="http://www.w3.org/1999/xlink" contentStyleType="text/css" data-diagram-type="DESCRIPTION" height="337px" preserveAspectRatio="none" style="width:1150px;height:337px;background:#FFFFFF;" version="1.1" viewBox="0 0 1150 337" width="1150px" zoomAndPan="magnify"><defs/><g><!--cluster sa1--><g class="cluster" data-qualified-name="sa1" data-source-line="8" id="ent0003"><rect fill="#DAF6F9" height="113" rx="7" ry="7" style="stroke:#000000;stroke-width:1;" width="241" x="341.78" y="101"/><text fill="#000000" font-family="Helvetica" font-size="14" font-weight="bold" lengthAdjust="spacing" textLength="82.4414" x="421.0593" y="113.7803">Sub-agent A</text><text fill="#000000" font-family="Helvetica" font-size="14" font-style="italic" font-weight="bold" lengthAdjust="spacing" textLength="98.793" x="412.8835" y="127.7803">adapted model</text></g><!--cluster sa2--><g class="cluster" data-qualified-name="sa2" data-source-line="12" id="ent0005"><rect fill="#DAF6F9" height="113" rx="7" ry="7" style="stroke:#000000;stroke-width:1;" width="241" x="622.78" y="101"/><text fill="#000000" font-family="Helvetica" font-size="14" font-weight="bold" lengthAdjust="spacing" textLength="82.4414" x="702.0593" y="113.7803">Sub-agent B</text><text fill="#000000" font-family="Helvetica" font-size="14" font-style="italic" font-weight="bold" lengthAdjust="spacing" textLength="98.793" x="693.8835" y="127.7803">adapted model</text></g><!--cluster sa3--><g class="cluster" data-qualified-name="sa3" data-source-line="16" id="ent0007"><rect fill="#DAF6F9" height="113" rx="7" ry="7" style="stroke:#000000;stroke-width:1;" width="241" x="903.78" y="101"/><text fill="#000000" font-family="Helvetica" font-size="14" font-weight="bold" lengthAdjust="spacing" textLength="82.4414" x="983.0593" y="113.7803">Sub-agent C</text><text fill="#000000" font-family="Helvetica" font-size="14" font-style="italic" font-weight="bold" lengthAdjust="spacing" textLength="98.793" x="974.8835" y="127.7803">adapted model</text></g><!--entity t1--><g class="entity" data-qualified-name="sa1.t1" data-source-line="9" id="ent0004"><rect fill="#6E7B9A" height="34" rx="7" ry="7" style="stroke:#000000;stroke-width:1;" width="173.3027" x="366.13" y="156"/><text fill="#FFFFFF" font-family="Helvetica" font-size="14" lengthAdjust="spacing" textLength="153.3027" x="376.13" y="176.7803">Tools &#183; Structured output</text></g><!--entity t2--><g class="entity" data-qualified-name="sa2.t2" data-source-line="13" id="ent0006"><rect fill="#6E7B9A" height="34" rx="7" ry="7" style="stroke:#000000;stroke-width:1;" width="173.3027" x="647.13" y="156"/><text fill="#FFFFFF" font-family="Helvetica" font-size="14" lengthAdjust="spacing" textLength="153.3027" x="657.13" y="176.7803">Tools &#183; Structured output</text></g><!--entity t3--><g class="entity" data-qualified-name="sa3.t3" data-source-line="17" id="ent0008"><rect fill="#6E7B9A" height="34" rx="7" ry="7" style="stroke:#000000;stroke-width:1;" width="173.3027" x="928.13" y="156"/><text fill="#FFFFFF" font-family="Helvetica" font-size="14" lengthAdjust="spacing" textLength="153.3027" x="938.13" y="176.7803">Tools &#183; Structured output</text></g><!--entity orch--><g class="entity" data-qualified-name="orch" data-source-line="6" id="ent0002"><rect fill="#0E2356" height="34" rx="7" ry="7" style="stroke:#000000;stroke-width:1;" width="223.082" x="543.24" y="12"/><text fill="#FFFFFF" font-family="Helvetica" font-size="14" font-weight="bold" lengthAdjust="spacing" textLength="84.8066" x="553.24" y="32.7803">Orchestrator</text><text fill="#FFFFFF" font-family="Helvetica" font-size="14" lengthAdjust="spacing" textLength="114.3857" x="641.9363" y="32.7803">(code, not prompt)</text></g><!--entity rev--><g class="entity" data-qualified-name="rev" data-source-line="20" id="ent0009"><rect fill="#00D2DD" height="48" rx="7" ry="7" style="stroke:#000000;stroke-width:1;" width="145.3164" x="762.12" y="283"/><text fill="#000000" font-family="Helvetica" font-size="14" font-weight="bold" lengthAdjust="spacing" textLength="61.4824" x="772.12" y="303.7803">Reviewer</text><text fill="#000000" font-family="Helvetica" font-size="14" lengthAdjust="spacing" textLength="125.3164" x="772.12" y="317.7803">typed feedback loop</text></g><!--entity state--><g class="entity" data-qualified-name="state" data-source-line="22" id="ent0010"><rect fill="#E7E9EE" height="34" rx="7" ry="7" style="stroke:#000000;stroke-width:1;" width="305.5645" x="12" y="156"/><text fill="#000000" font-family="Helvetica" font-size="14" lengthAdjust="spacing" textLength="285.5645" x="22" y="176.7803">Typed shared state &#183; Metrics &#183; Prompt caching</text></g><!--link orch to sa1--><g class="link" data-entity-1="ent0002" data-entity-2="ent0003" data-link-type="dependency" data-source-line="24" id="lnk11"><path d="M645.61,46.29 C635.265,64.65 617.945,95.39 603.0225,121.8763 C595.5613,135.1194 588.6994,147.2991 583.6084,156.3361 C583.4493,156.6185 583.292,156.8978 583.1364,157.174 C583.0586,157.3121 585.9261,152.2219 585.8492,152.3584" fill="none" id="orch-to-sa1" style="stroke:#0E2356;stroke-width:1;"/><polygon fill="#0E2356" points="582.9043,157.586,590.8067,151.7079,585.3584,153.2297,583.8366,147.7814,582.9043,157.586" style="stroke:#0E2356;stroke-width:1;"/></g><!--link orch to sa2--><g class="link" data-entity-1="ent0002" data-entity-2="ent0005" data-link-type="dependency" data-source-line="25" id="lnk12"><path d="M766.79,43.99 C792.82,52.18 818.3,65 836.78,85 C840.0337,88.5188 842.7781,92.4611 845.0888,96.6728 C845.6664,97.7258 846.217,98.7955 846.7416,99.8797 C846.8728,100.1508 844.4549,94.9904 844.5828,95.2632" fill="none" id="orch-to-sa2" style="stroke:#0E2356;stroke-width:1;"/><polygon fill="#0E2356" points="847.1302,100.6956,846.9306,90.8487,845.0074,96.1686,839.6875,94.2453,847.1302,100.6956" style="stroke:#0E2356;stroke-width:1;"/></g><!--link orch to sa3--><g class="link" data-entity-1="ent0002" data-entity-2="ent0007" data-link-type="dependency" data-source-line="26" id="lnk13"><path d="M766.67,36.55 C895.34,45.11 1092.23,61.81 1117.78,85 C1121.3863,88.2725 1124.3927,92.0569 1126.8922,96.1776 C1127.5171,97.2078 1128.1104,98.259 1128.6734,99.3285 C1128.9549,99.8632 1126.5868,95.0155 1126.8534,95.5591" fill="none" id="orch-to-sa3" style="stroke:#0E2356;stroke-width:1;"/><polygon fill="#0E2356" points="1129.4954,100.9461,1129.1238,91.1043,1127.2937,96.4569,1121.9411,94.6269,1129.4954,100.9461" style="stroke:#0E2356;stroke-width:1;"/></g><!--reverse link sa1 to rev--><g class="link" data-entity-1="ent0003" data-entity-2="ent0009" data-link-type="dependency" data-source-line="28" id="lnk15"><path d="M585.9707,192.9283 C586.9922,194.5565 585.6813,192.3865 586.8625,194.1889 C589.2249,197.7936 591.8991,201.7094 594.8538,205.7875 C606.6725,222.1 622.98,241.01 641.78,253 C677.82,275.98 723.78,289.11 761.81,296.56" fill="none" id="sa1-backto-rev" style="stroke:#00D2DD;stroke-width:2;stroke-dasharray:7,7;"/><polygon fill="#00D2DD" points="582.8059,187.8308,584.1548,197.5869,585.4433,192.0787,590.9514,193.3672,582.8059,187.8308" style="stroke:#00D2DD;stroke-width:2;"/><text fill="#000000" font-family="Helvetica" font-size="13" lengthAdjust="spacing" textLength="52.7617" x="642.78" y="249.0103">feedback</text></g><!--link sa1 to rev--><g class="link" data-entity-1="ent0003" data-entity-2="ent0009" data-link-type="dependency" data-source-line="32" id="lnk20"><path d="M582.7814,185.8365 C582.8373,185.9131 582.8935,185.9898 582.9499,186.0669 C583.1756,186.375 583.4056,186.6871 583.6396,187.003 C584.1078,187.6349 584.5925,188.2821 585.0935,188.9426 C587.0972,191.5847 589.3594,194.4412 591.85,197.395 C601.8125,209.21 615.43,222.58 630.78,230 C658.58,243.44 670.21,229.14 699.78,238 C734.47,248.39 765.8003,264.3288 792.1003,279.5888" fill="none" id="sa1-to-rev" style="stroke:#6E7B9A;stroke-width:1;"/><polygon fill="#6E7B9A" points="797.29,282.6,791.513,274.6234,792.9653,280.0907,787.498,281.543,797.29,282.6" style="stroke:#6E7B9A;stroke-width:1;"/></g><!--reverse link sa2 to rev--><g class="link" data-entity-1="ent0005" data-entity-2="ent0009" data-link-type="dependency" data-source-line="29" id="lnk17"><path d="M845.6702,219.4827 C842.9835,225.3249 841.5925,225.8325 836.78,230 C822.09,242.73 806.21,223.05 793.78,238 C782.33,251.78 793.08,269.1 806.44,282.81" fill="none" id="sa2-backto-rev" style="stroke:#00D2DD;stroke-width:2;stroke-dasharray:7,7;"/><polygon fill="#00D2DD" points="848.1247,214.0077,840.793,220.5838,846.0793,218.5702,848.093,223.8565,848.1247,214.0077" style="stroke:#00D2DD;stroke-width:2;"/><text fill="#000000" font-family="Helvetica" font-size="13" lengthAdjust="spacing" textLength="52.7617" x="794.78" y="249.0103">feedback</text></g><!--link sa2 to rev--><g class="link" data-entity-1="ent0005" data-entity-2="ent0009" data-link-type="dependency" data-source-line="33" id="lnk21"><path d="M855.7725,214.0195 C855.592,218.2053 855.3432,222.5359 855.0067,226.915 C854.3338,235.6731 853.31,244.625 851.78,253 C849.98,262.89 848.7592,267.8086 845.6692,276.9086" fill="none" id="sa2-to-rev" style="stroke:#6E7B9A;stroke-width:1;"/><polygon fill="#6E7B9A" points="843.74,282.59,850.4214,275.354,845.3476,277.8555,842.8462,272.7818,843.74,282.59" style="stroke:#6E7B9A;stroke-width:1;"/></g><!--reverse link sa3 to rev--><g class="link" data-entity-1="ent0007" data-entity-2="ent0009" data-link-type="dependency" data-source-line="30" id="lnk19"><path d="M1127.0793,219.5668 C1126.9961,219.7489 1129.2532,214.734 1129.1681,214.9152 C1126.4463,220.7138 1122.7625,226.04 1117.78,230 C1103.8,241.12 1055.25,234.25 1037.78,238 C988,248.69 933.36,267.41 893.32,282.51" fill="none" id="sa3-backto-rev" style="stroke:#00D2DD;stroke-width:2;stroke-dasharray:7,7;"/><polygon fill="#00D2DD" points="1129.5446,214.0967,1122.1999,220.6583,1127.4901,218.6551,1129.4933,223.9454,1129.5446,214.0967" style="stroke:#00D2DD;stroke-width:2;"/><text fill="#000000" font-family="Helvetica" font-size="13" lengthAdjust="spacing" textLength="52.7617" x="1038.78" y="249.0103">feedback</text></g><!--link sa3 to rev--><g class="link" data-entity-1="ent0007" data-entity-2="ent0009" data-link-type="dependency" data-source-line="34" id="lnk22"><path d="M1126.3865,214.0749 C1126.3307,214.2117 1126.2747,214.3486 1126.2184,214.4855 C1126.1058,214.7592 1125.9921,215.0331 1125.8772,215.3071 C1125.6475,215.855 1125.4133,216.4031 1125.1744,216.9511 C1124.6967,218.0471 1124.2006,219.1426 1123.6853,220.2347 C1121.6241,224.603 1119.2573,228.9164 1116.5441,232.9872 C1111.1175,241.1288 1104.305,248.3 1095.78,253 C1037.58,285.1 968.4249,297.3117 913.7249,302.3317" fill="none" id="sa3-to-rev" style="stroke:#6E7B9A;stroke-width:1;"/><polygon fill="#6E7B9A" points="907.75,302.88,917.0779,306.0408,912.7291,302.4231,916.3468,298.0742,907.75,302.88" style="stroke:#6E7B9A;stroke-width:1;"/></g><!--link orch to state--><?plantuml-src dPBFJXin4CRlVeefkRGhGc2t3GfLAmMoKI_z8-0670Pxo5hPs9OzcxIg-bozzydgzKArI5qXyFNxvflVUEOLLxGXS3Lg8y9Q6uSUDt2BShtojZ7gpDRMmsYPNi-Xw0wRcfVMy1UC2P-etX9hYJtFUHVW3NauUYk49ybeLZN1NfPzzRAYm1xP-Yo3rz8gsWTZ6Pot6yTlzW03sEY2qM6P5--cxvc-yyckqaoFiYwQsp6ko33ChyraWWeTau9D3AmdanGJy0X6Y_bokfp1Jm7GgxwqjWxmvpTSi6yaDpwMsePTmwcIO-6qF3wTpVljVmq0d0u3v2y5o9y3S3OCKBmKe7WQ8ClEQQjfHt6LruP_k1XnHwJQEuBQMfUIF6tZBWyN-MBngFeo-KE5RUV0oDJIV2RsMYQmR-aYGAAij5bryoJRg3mkPsKfHBgJyTNzfTmekpFZZ-tQ1vLyK2bQk2qSNDspxdEbvTfG21_ocyOTf5mu-JVWq-xyMUwYxnPjhmZPRU01CcQ8DdP0AFulF4nSQQN8T4htaU8l?></g></svg>