<?plantuml 1.2026.1?><svg xmlns="http://www.w3.org/2000/svg" xmlns:xlink="http://www.w3.org/1999/xlink" contentStyleType="text/css" data-diagram-type="DESCRIPTION" height="337px" preserveAspectRatio="none" style="width:1141px;height:337px;background:#FFFFFF;" version="1.1" viewBox="0 0 1141 337" width="1141px" zoomAndPan="magnify"><defs/><g><!--cluster sa1--><g class="cluster" data-qualified-name="sa1" data-source-line="8" id="ent0003"><rect fill="#DAF6F9" height="113" rx="7" ry="7" style="stroke:#000000;stroke-width:1;" width="237" x="344.35" y="101"/><text fill="#000000" font-family="Helvetica" font-size="14" font-weight="bold" lengthAdjust="spacing" textLength="90.2275" x="417.7362" y="113.7803">Sous-agent A</text><text fill="#000000" font-family="Helvetica" font-size="14" font-style="italic" font-weight="bold" lengthAdjust="spacing" textLength="98.0273" x="413.8363" y="127.7803">mod&#232;le adapt&#233;</text></g><!--cluster sa2--><g class="cluster" data-qualified-name="sa2" data-source-line="12" id="ent0005"><rect fill="#DAF6F9" height="113" rx="7" ry="7" style="stroke:#000000;stroke-width:1;" width="237" x="621.35" y="101"/><text fill="#000000" font-family="Helvetica" font-size="14" font-weight="bold" lengthAdjust="spacing" textLength="90.2275" x="694.7362" y="113.7803">Sous-agent B</text><text fill="#000000" font-family="Helvetica" font-size="14" font-style="italic" font-weight="bold" lengthAdjust="spacing" textLength="98.0273" x="690.8363" y="127.7803">mod&#232;le adapt&#233;</text></g><!--cluster sa3--><g class="cluster" data-qualified-name="sa3" data-source-line="16" id="ent0007"><rect fill="#DAF6F9" height="113" rx="7" ry="7" style="stroke:#000000;stroke-width:1;" width="237" x="898.35" y="101"/><text fill="#000000" font-family="Helvetica" font-size="14" font-weight="bold" lengthAdjust="spacing" textLength="90.2275" x="971.7362" y="113.7803">Sous-agent C</text><text fill="#000000" font-family="Helvetica" font-size="14" font-style="italic" font-weight="bold" lengthAdjust="spacing" textLength="98.0273" x="967.8363" y="127.7803">mod&#232;le adapt&#233;</text></g><!--entity t1--><g class="entity" data-qualified-name="sa1.t1" data-source-line="9" id="ent0004"><rect fill="#6E7B9A" height="34" rx="7" ry="7" style="stroke:#000000;stroke-width:1;" width="170.165" x="368.27" y="156"/><text fill="#FFFFFF" font-family="Helvetica" font-size="14" lengthAdjust="spacing" textLength="150.165" x="378.27" y="176.7803">Outils &#183; Sortie structur&#233;e</text></g><!--entity t2--><g class="entity" data-qualified-name="sa2.t2" data-source-line="13" id="ent0006"><rect fill="#6E7B9A" height="34" rx="7" ry="7" style="stroke:#000000;stroke-width:1;" width="170.165" x="645.27" y="156"/><text fill="#FFFFFF" font-family="Helvetica" font-size="14" lengthAdjust="spacing" textLength="150.165" x="655.27" y="176.7803">Outils &#183; Sortie structur&#233;e</text></g><!--entity t3--><g class="entity" data-qualified-name="sa3.t3" data-source-line="17" id="ent0008"><rect fill="#6E7B9A" height="34" rx="7" ry="7" style="stroke:#000000;stroke-width:1;" width="170.165" x="922.27" y="156"/><text fill="#FFFFFF" font-family="Helvetica" font-size="14" lengthAdjust="spacing" textLength="150.165" x="932.27" y="176.7803">Outils &#183; Sortie structur&#233;e</text></g><!--entity orch--><g class="entity" data-qualified-name="orch" data-source-line="6" id="ent0002"><rect fill="#0E2356" height="34" rx="7" ry="7" style="stroke:#000000;stroke-width:1;" width="233.9785" x="535.36" y="12"/><text fill="#FFFFFF" font-family="Helvetica" font-size="14" font-weight="bold" lengthAdjust="spacing" textLength="92.5928" x="545.36" y="32.7803">Orchestrateur</text><text fill="#FFFFFF" font-family="Helvetica" font-size="14" lengthAdjust="spacing" textLength="117.4961" x="641.8424" y="32.7803">(code, pas prompt)</text></g><!--entity rev--><g class="entity" data-qualified-name="rev" data-source-line="20" id="ent0009"><rect fill="#00D2DD" height="48" rx="7" ry="7" style="stroke:#000000;stroke-width:1;" width="179.5645" x="739.57" y="283"/><text fill="#000000" font-family="Helvetica" font-size="14" font-weight="bold" lengthAdjust="spacing" textLength="61.4824" x="749.57" y="303.7803">Reviewer</text><text fill="#000000" font-family="Helvetica" font-size="14" lengthAdjust="spacing" textLength="159.5645" x="749.57" y="317.7803">boucle de feedback typ&#233;e</text></g><!--entity state--><g class="entity" data-qualified-name="state" data-source-line="22" id="ent0010"><rect fill="#E7E9EE" height="34" rx="7" ry="7" style="stroke:#000000;stroke-width:1;" width="308.7021" x="12" y="156"/><text fill="#000000" font-family="Helvetica" font-size="14" lengthAdjust="spacing" textLength="288.7021" x="22" y="176.7803">&#201;tat partag&#233; typ&#233; &#183; M&#233;triques &#183; Prompt caching</text></g><!--link orch to sa1--><g class="link" data-entity-1="ent0002" data-entity-2="ent0003" data-link-type="dependency" data-source-line="24" id="lnk11"><path d="M643.29,46.29 C633.075,64.65 615.9725,95.39 601.2375,121.8763 C593.87,135.1194 587.0944,147.2991 582.0675,156.3361 C581.9104,156.6185 581.755,156.8978 581.6014,157.174 C581.5246,157.3121 584.3648,152.2061 584.2889,152.3426" fill="none" id="orch-to-sa1" style="stroke:#0E2356;stroke-width:1;"/><polygon fill="#0E2356" points="581.3722,157.586,589.2428,151.6653,583.8028,153.2165,582.2516,147.7765,581.3722,157.586" style="stroke:#0E2356;stroke-width:1;"/></g><!--link orch to sa2--><g class="link" data-entity-1="ent0002" data-entity-2="ent0005" data-link-type="dependency" data-source-line="25" id="lnk12"><path d="M768.58,46.37 C792.05,54.58 814.62,66.82 831.35,85 C834.595,88.5263 837.3327,92.4742 839.6383,96.6901 C840.2147,97.744 840.7641,98.8147 841.2876,99.8998 C841.4185,100.171 839.006,95.0082 839.1337,95.2812" fill="none" id="orch-to-sa2" style="stroke:#0E2356;stroke-width:1;"/><polygon fill="#0E2356" points="841.6755,100.7162,841.4861,90.8692,839.5573,96.187,834.2394,94.2583,841.6755,100.7162" style="stroke:#0E2356;stroke-width:1;"/></g><!--link orch to sa3--><g class="link" data-entity-1="ent0002" data-entity-2="ent0007" data-link-type="dependency" data-source-line="26" id="lnk13"><path d="M769.59,37.14 C896.33,45.95 1083.66,62.55 1108.35,85 C1111.9538,88.2763 1114.9583,92.0634 1117.4565,96.1862 C1118.0811,97.2169 1118.674,98.2686 1119.2367,99.3385 C1119.518,99.8735 1117.1516,95.0251 1117.4181,95.5688" fill="none" id="orch-to-sa3" style="stroke:#0E2356;stroke-width:1;"/><polygon fill="#0E2356" points="1120.0583,100.9567,1119.6899,91.1147,1117.8581,96.4668,1112.506,94.635,1120.0583,100.9567" style="stroke:#0E2356;stroke-width:1;"/></g><!--reverse link sa1 to rev--><g class="link" data-entity-1="ent0003" data-entity-2="ent0009" data-link-type="dependency" data-source-line="28" id="lnk15"><path d="M584.4389,193.9005 C585.3998,195.5287 583.575,192.3865 584.689,194.1889 C586.917,197.7936 589.4447,201.7094 592.2462,205.7875 C603.4525,222.1 619.04,241.01 637.35,253 C667.73,272.89 705.49,285.38 739.46,293.19" fill="none" id="sa1-backto-rev" style="stroke:#00D2DD;stroke-width:2;stroke-dasharray:7,7;"/><polygon fill="#00D2DD" points="581.3958,188.7295,582.5132,198.5148,583.9317,193.0387,589.4078,194.4572,581.3958,188.7295" style="stroke:#00D2DD;stroke-width:2;"/><text fill="#000000" font-family="Helvetica" font-size="13" lengthAdjust="spacing" textLength="52.7617" x="638.35" y="249.0103">feedback</text></g><!--link sa1 to rev--><g class="link" data-entity-1="ent0003" data-entity-2="ent0009" data-link-type="dependency" data-source-line="32" id="lnk20"><path d="M581.36,185.8151 C581.4159,185.8915 581.4721,185.9681 581.5286,186.0451 C581.7545,186.3527 581.9846,186.6645 582.2189,186.98 C582.6875,187.611 583.1727,188.2574 583.674,188.9171 C585.6794,191.556 587.9431,194.4097 590.435,197.3612 C600.4025,209.1675 614.02,222.54 629.35,230 C655.92,242.93 667.08,229.41 695.35,238 C729.8,248.47 760.8586,264.3846 786.9586,279.6246" fill="none" id="sa1-to-rev" style="stroke:#6E7B9A;stroke-width:1;"/><polygon fill="#6E7B9A" points="792.14,282.65,786.3849,274.6576,787.8222,280.1288,782.351,281.5661,792.14,282.65" style="stroke:#6E7B9A;stroke-width:1;"/></g><!--reverse link sa2 to rev--><g class="link" data-entity-1="ent0005" data-entity-2="ent0009" data-link-type="dependency" data-source-line="29" id="lnk17"><path d="M840.2393,219.483 C837.5534,225.3251 836.1625,225.8325 831.35,230 C816.66,242.73 800.78,223.05 788.35,238 C776.9,251.78 787.65,269.1 801.01,282.81" fill="none" id="sa2-backto-rev" style="stroke:#00D2DD;stroke-width:2;stroke-dasharray:7,7;"/><polygon fill="#00D2DD" points="842.6932,214.0077,835.3622,220.5847,840.6483,218.5704,842.6626,223.8565,842.6932,214.0077" style="stroke:#00D2DD;stroke-width:2;"/><text fill="#000000" font-family="Helvetica" font-size="13" lengthAdjust="spacing" textLength="52.7617" x="789.35" y="249.0103">feedback</text></g><!--link sa2 to rev--><g class="link" data-entity-1="ent0005" data-entity-2="ent0009" data-link-type="dependency" data-source-line="33" id="lnk21"><path d="M850.3381,214.0195 C850.1575,218.2053 849.9088,222.5359 849.5725,226.915 C848.9,235.6731 847.8775,244.625 846.35,253 C844.55,262.89 843.3292,267.8086 840.2392,276.9086" fill="none" id="sa2-to-rev" style="stroke:#6E7B9A;stroke-width:1;"/><polygon fill="#6E7B9A" points="838.31,282.59,844.9914,275.354,839.9176,277.8555,837.4162,272.7818,838.31,282.59" style="stroke:#6E7B9A;stroke-width:1;"/></g><!--reverse link sa3 to rev--><g class="link" data-entity-1="ent0007" data-entity-2="ent0009" data-link-type="dependency" data-source-line="30" id="lnk19"><path d="M1117.6458,219.5572 C1117.5626,219.7393 1119.8188,214.7241 1119.7337,214.9053 C1117.0125,220.7056 1113.33,226.035 1108.35,230 C1094.55,240.99 1046.59,234.25 1029.35,238 C980.26,248.69 926.43,267.41 887,282.51" fill="none" id="sa3-backto-rev" style="stroke:#00D2DD;stroke-width:2;stroke-dasharray:7,7;"/><polygon fill="#00D2DD" points="1120.1101,214.0866,1112.7666,220.6496,1118.0565,218.6454,1120.0607,223.9354,1120.1101,214.0866" style="stroke:#00D2DD;stroke-width:2;"/><text fill="#000000" font-family="Helvetica" font-size="13" lengthAdjust="spacing" textLength="52.7617" x="1030.35" y="249.0103">feedback</text></g><!--link sa3 to rev--><g class="link" data-entity-1="ent0007" data-entity-2="ent0009" data-link-type="dependency" data-source-line="34" id="lnk22"><path d="M1117.2202,214.3397 C1117.1109,214.6131 1117.0005,214.8866 1116.8889,215.1602 C1116.6658,215.7073 1116.4381,216.2547 1116.2059,216.8021 C1115.7415,217.8968 1115.2587,218.9913 1114.7569,220.0827 C1112.7499,224.4481 1110.439,228.7632 1107.782,232.8423 C1102.4681,241.0006 1095.77,248.215 1087.35,253 C1036.26,282.03 977.4204,294.5818 925.5404,300.5718" fill="none" id="sa3-to-rev" style="stroke:#6E7B9A;stroke-width:1;"/><polygon fill="#6E7B9A" points="919.58,301.26,928.9794,304.2013,924.547,300.6865,928.0618,296.2541,919.58,301.26" style="stroke:#6E7B9A;stroke-width:1;"/></g><!--link orch to state--><?plantuml-src dPBDJkCm58NtVeeBtK14AIH3KK4pKg6fPiEFO0aiZ7r9hAPsSAxR6OruW7cJwHEmdxmOJa9Ha2W8iefopZt-RdpMACKfGfvnfLanKJhdba_Xbej9OetJyjXana9dN3yjXyGxxZ8Q6qsdt2Vyn6o6f0HlUIwQ0AlHmkutnYmAuZh94DQ3uCoA50kodD3P880DOIHkGSuBoAsPvhIv3lxTU1jqTk8mskiV4lwYWtcg25-5NHfNT7c2cc1uhNkzgP7bFozmoNCg5xrUdLJmNUYCXkF-U01_640huCoHoWhu_mYNnf92y5nEaBFb0kjPygFzUFzeC6mpFAoYE7gF8lmwHVWfYkFtAAAlKqGVKmJ11SuKpj7VxBM-DKxuhnBX3b5MtGBwdI_pBCxy1U-Cmj7eLKRvbpZvFbZYIRbe9Ygiat91Ljqxh27Fwww0u29LEccMytC8dNW_7iGnOtM3kbVF7RgHPgwxFwesh5J2bKfK4SvW--ePU8jI9IOQY-9xUEFoxJeN3bxs_DWTVieTjTsiEij3DfUnXFGPh8fT8KHl2ykDKoKbwaPfVYHx0W00?></g></svg>