<?plantuml 1.2026.1?><svg xmlns="http://www.w3.org/2000/svg" xmlns:xlink="http://www.w3.org/1999/xlink" contentStyleType="text/css" data-diagram-type="DESCRIPTION" height="685px" preserveAspectRatio="none" style="width:748px;height:685px;background:#FFFFFF;" version="1.1" viewBox="0 0 748 685" width="748px" zoomAndPan="magnify"><defs/><g><!--cluster AI-PRODUCT--><g class="cluster" data-qualified-name="AI-PRODUCT" data-source-line="6" id="ent0002"><path d="M18,11 L97.8828,11 A10.5,10.5 0 0 1 104.8828,18 L111.8828,31 L446,31 A7,7 0 0 1 453,38 L453,572 A7,7 0 0 1 446,579 L18,579 A7,7 0 0 1 11,572 L11,18 A7,7 0 0 1 18,11" fill="#E7E9EE" style="stroke:#000000;stroke-width:1;"/><line style="stroke:#000000;stroke-width:1;" x1="11" x2="111.8828" y1="31" y2="31"/><text fill="#000000" font-family="Helvetica" font-size="14" font-weight="bold" lengthAdjust="spacing" textLength="87.8828" x="15" y="23.7803">AI-PRODUCT</text></g><!--cluster product--><g class="cluster" data-qualified-name="AI-PRODUCT.product" data-source-line="8" id="ent0004"><rect fill="#B7BDCC" height="359" rx="7" ry="7" style="stroke:#000000;stroke-width:1;" width="166" x="43" y="188"/><text fill="#000000" font-family="Helvetica" font-size="14" font-weight="bold" lengthAdjust="spacing" textLength="98.7725" x="76.6138" y="200.7803">Digital product</text></g><!--cluster AI-AS-A-PRODUCT (Agent)--><g class="cluster" data-qualified-name="AI-AS-A-PRODUCT .Agent." data-source-line="22" id="ent0014"><path d="M484,31.5 L655.6416,31.5 A10.5,10.5 0 0 1 662.6416,38.5 L669.6416,51.5 L734,51.5 A7,7 0 0 1 741,58.5 L741,671 A7,7 0 0 1 734,678 L484,678 A7,7 0 0 1 477,671 L477,38.5 A7,7 0 0 1 484,31.5" fill="#DAF6F9" style="stroke:#000000;stroke-width:1;"/><line style="stroke:#000000;stroke-width:1;" x1="477" x2="669.6416" y1="51.5" y2="51.5"/><text fill="#000000" font-family="Helvetica" font-size="14" font-weight="bold" lengthAdjust="spacing" textLength="179.6416" x="481" y="44.2803">AI-AS-A-PRODUCT (Agent)</text></g><!--entity user1--><g class="entity" data-qualified-name="AI-PRODUCT.user1" data-source-line="7" id="ent0003"><ellipse cx="122" cy="53" fill="#FFFFFF" rx="8" ry="8" style="stroke:#000000;stroke-width:1;"/><path d="M122,61 L122,88 M109,69 L135,69 M122,88 L109,103 M122,88 L135,103" fill="none" style="stroke:#000000;stroke-width:1;"/><text fill="#000000" font-family="Helvetica" font-size="14" lengthAdjust="spacing" textLength="24.9102" x="108.3828" y="115.7803">End</text><text fill="#000000" font-family="Helvetica" font-size="14" lengthAdjust="spacing" textLength="27.2344" x="108.3828" y="129.7803">user</text></g><g class="entity" data-qualified-name="AI-PRODUCT.GMN11" data-source-line="17" id="ent0012"><path d="M233.09,373 L233.09,395 A7,7 0 0 0 240.09,402 L429.9088,402 A7,7 0 0 0 436.9088,395 L436.9088,376 L426.9088,366 L240.09,366 A7,7 0 0 0 233.09,373" fill="#FFFFFF" style="stroke:#000000;stroke-width:1;"/><path d="M426.9088,366 L426.9088,372.5 A3.5,3.5 0 0 0 430.4088,376 L436.9088,376 L426.9088,366" fill="#FFFFFF" style="stroke:#000000;stroke-width:1;"/><text fill="#000000" font-family="Helvetica" font-size="13" lengthAdjust="spacing" textLength="43.3545" x="239.09" y="381.0103">AI is an</text><text fill="#000000" font-family="Helvetica" font-size="13" font-weight="bold" lengthAdjust="spacing" textLength="91.7554" x="286.0563" y="381.0103">internal means</text><text fill="#000000" font-family="Helvetica" font-size="13" lengthAdjust="spacing" textLength="182.8188" x="239.09" y="394.0103">The user consumes the product</text></g><!--entity ui--><g class="entity" data-qualified-name="AI-PRODUCT.product.ui" data-source-line="9" id="ent0005"><rect fill="#FFFFFF" height="34" rx="7" ry="7" style="stroke:#000000;stroke-width:1;" width="65.1172" x="89.44" y="229"/><text fill="#000000" font-family="Helvetica" font-size="14" lengthAdjust="spacing" textLength="45.1172" x="99.44" y="249.7803">UI / UX</text></g><!--entity biz--><g class="entity" data-qualified-name="AI-PRODUCT.product.biz" data-source-line="10" id="ent0006"><rect fill="#FFFFFF" height="34" rx="7" ry="7" style="stroke:#000000;stroke-width:1;" width="109.4893" x="67.26" y="367"/><text fill="#000000" font-family="Helvetica" font-size="14" lengthAdjust="spacing" textLength="89.4893" x="77.26" y="387.7803">Business logic</text></g><!--entity ia1--><g class="entity" data-qualified-name="AI-PRODUCT.product.ia1" data-source-line="11" id="ent0007"><polygon fill="#3E4F78" points="173.37,504,147.68,485,96.32,485,70.63,504,96.32,523,147.68,523,173.37,504" style="stroke:#000000;stroke-width:1;"/><text fill="#000000" font-family="Helvetica" font-size="14" lengthAdjust="spacing" textLength="13.2275" x="96.3126" y="500.7803">AI</text><text fill="#000000" font-family="Helvetica" font-size="14" lengthAdjust="spacing" textLength="51.3652" x="96.3126" y="514.7803">(hidden)</text></g><!--entity consumer--><g class="entity" data-qualified-name="AI-AS-A-PRODUCT .Agent..consumer" data-source-line="23" id="ent0015"><rect fill="#FFFFFF" height="48" rx="7" ry="7" style="stroke:#000000;stroke-width:1;" width="132.8066" x="542.6" y="64.5"/><text fill="#000000" font-family="Helvetica" font-size="14" lengthAdjust="spacing" textLength="112.8066" x="552.6" y="85.2803">Consumer system</text><text fill="#000000" font-family="Helvetica" font-size="14" lengthAdjust="spacing" textLength="107.3926" x="552.6" y="99.2803">(human or agent)</text></g><!--entity iface--><g class="entity" data-qualified-name="AI-AS-A-PRODUCT .Agent..iface" data-source-line="24" id="ent0016"><rect fill="#B7BDCC" height="48" rx="7" ry="7" style="stroke:#000000;stroke-width:1;" width="94.7031" x="561.65" y="222"/><text fill="#000000" font-family="Helvetica" font-size="14" lengthAdjust="spacing" textLength="74.7031" x="571.65" y="242.7803">UI / Chatbot</text><text fill="#000000" font-family="Helvetica" font-size="14" lengthAdjust="spacing" textLength="30.3447" x="571.65" y="256.7803">/ API</text></g><!--entity agent--><g class="entity" data-qualified-name="AI-AS-A-PRODUCT .Agent..agent" data-source-line="25" id="ent0017"><polygon fill="#00D2DD" points="718.74,384,663.87,358,554.13,358,499.26,384,554.13,410,663.87,410,718.74,384" style="stroke:#000000;stroke-width:1;"/><text fill="#000000" font-family="Helvetica" font-size="14" font-weight="bold" lengthAdjust="spacing" textLength="39.6621" x="554.1287" y="373.7803">Agent</text><text fill="#000000" font-family="Helvetica" font-size="14" lengthAdjust="spacing" textLength="109.7373" x="554.1287" y="387.7803">Exposed decision</text><text fill="#000000" font-family="Helvetica" font-size="14" lengthAdjust="spacing" textLength="58.3652" x="554.1287" y="401.7803">capability</text></g><!--entity tools--><g class="entity" data-qualified-name="AI-AS-A-PRODUCT .Agent..tools" data-source-line="26" id="ent0018"><rect fill="#FFFFFF" height="34" rx="7" ry="7" style="stroke:#000000;stroke-width:1;" width="95.4688" x="561.27" y="487"/><text fill="#000000" font-family="Helvetica" font-size="14" lengthAdjust="spacing" textLength="75.4688" x="571.27" y="507.7803">Tools / APIs</text></g><g class="entity" data-qualified-name="AI-AS-A-PRODUCT .Agent..GMN22" data-source-line="31" id="ent0023"><path d="M493.36,633 L493.36,655 A7,7 0 0 0 500.36,662 L717.6325,662 A7,7 0 0 0 724.6325,655 L724.6325,636 L714.6325,626 L613,626 L609,521.37 L605,626 L500.36,626 A7,7 0 0 0 493.36,633" fill="#FFFFFF" style="stroke:#000000;stroke-width:1;"/><path d="M714.6325,626 L714.6325,632.5 A3.5,3.5 0 0 0 718.1325,636 L724.6325,636 L714.6325,626" fill="#FFFFFF" style="stroke:#000000;stroke-width:1;"/><text fill="#000000" font-family="Helvetica" font-size="13" lengthAdjust="spacing" textLength="46.9663" x="499.36" y="641.0103">AI is the</text><text fill="#000000" font-family="Helvetica" font-size="13" font-weight="bold" lengthAdjust="spacing" textLength="127.8735" x="549.9381" y="641.0103">contractual interface</text><text fill="#000000" font-family="Helvetica" font-size="13" lengthAdjust="spacing" textLength="210.2725" x="499.36" y="654.0103">The consumer invokes the capability</text></g><!--link user1 to ui--><g class="link" data-entity-1="ent0003" data-entity-2="ent0005" data-link-type="dependency" data-source-line="13" id="lnk8"><path d="M122,133.23 C122,165.03 122,200.29 122,222.72" fill="none" id="user1-to-ui" style="stroke:#000000;stroke-width:1;"/><polygon fill="#000000" points="122,228.72,126,219.72,122,223.72,118,219.72,122,228.72" style="stroke:#000000;stroke-width:1;"/></g><!--link ui to biz--><g class="link" data-entity-1="ent0005" data-entity-2="ent0006" data-link-type="dependency" data-source-line="14" id="lnk9"><path d="M122,263.4 C122,289.54 122,334.36 122,360.54" fill="none" id="ui-to-biz" style="stroke:#000000;stroke-width:1;"/><polygon fill="#000000" points="122,366.54,126,357.54,122,361.54,118,357.54,122,366.54" style="stroke:#000000;stroke-width:1;"/></g><!--link biz to ia1--><g class="link" data-entity-1="ent0006" data-entity-2="ent0007" data-link-type="dependency" data-source-line="15" id="lnk10"><path d="M122,401.41 C122,423.32 122,456.01 122,478.8" fill="none" id="biz-to-ia1" style="stroke:#000000;stroke-width:1;"/><polygon fill="#000000" points="122,484.8,126,475.8,122,479.8,118,475.8,122,484.8" style="stroke:#000000;stroke-width:1;"/></g><!--link product to GMN11--><g class="link" data-entity-1="ent0004" data-entity-2="ent0012" data-link-type="association" data-source-line="17" id="lnk13"><path d="M209.0881,255.2051 C209.1894,255.3079 209.2915,255.4115 209.3945,255.516 C209.6005,255.7251 209.8097,255.9374 210.0222,256.153 C211.722,257.8781 213.6291,259.8137 215.7147,261.9303 C224.0569,270.3969 235.2538,281.7613 247.4575,294.1475 C271.865,318.92 300.3,347.78 317.98,365.72" fill="none" id="product-GMN11" style="stroke:#000000;stroke-width:1;stroke-dasharray:7,7;"/></g><!--link consumer to iface--><g class="link" data-entity-1="ent0015" data-entity-2="ent0016" data-link-type="dependency" data-source-line="27" id="lnk19"><path d="M609,112.78 C609,142.09 609,186.17 609,215.56" fill="none" id="consumer-to-iface" style="stroke:#000000;stroke-width:1;"/><polygon fill="#000000" points="609,221.56,613,212.56,609,216.56,605,212.56,609,221.56" style="stroke:#000000;stroke-width:1;"/></g><!--link iface to agent--><g class="link" data-entity-1="ent0016" data-entity-2="ent0017" data-link-type="dependency" data-source-line="28" id="lnk20"><path d="M609,270.38 C609,294.68 609,326.6 609,351.62" fill="none" id="iface-to-agent" style="stroke:#000000;stroke-width:1;"/><polygon fill="#000000" points="609,357.62,613,348.62,609,352.62,605,348.62,609,357.62" style="stroke:#000000;stroke-width:1;"/><text fill="#000000" font-family="Helvetica" font-size="13" lengthAdjust="spacing" textLength="44.0781" x="645.2295" y="311.0103">invokes</text><text fill="#000000" font-family="Helvetica" font-size="13" lengthAdjust="spacing" textLength="114.5371" x="610" y="324.0103">(intention + context)</text></g><!--link agent to tools--><g class="link" data-entity-1="ent0017" data-entity-2="ent0018" data-link-type="dependency" data-source-line="29" id="lnk21"><path d="M609,410.31 C609,433.47 609,461.05 609,480.79" fill="none" id="agent-to-tools" style="stroke:#000000;stroke-width:1;"/><polygon fill="#000000" points="609,486.79,613,477.79,609,481.79,605,477.79,609,486.79" style="stroke:#000000;stroke-width:1;"/><text fill="#000000" font-family="Helvetica" font-size="13" lengthAdjust="spacing" textLength="27.46" x="610" y="451.0103">uses</text></g><?plantuml-src PLB1Rfj04Btp5LDpIQYin6rKDprKme1LNzeejQKUV5d36AyCisXtYP9M-VVE3dQBMoJGiZlptfltzeq_O8lGDKfJv8wQEcLL2pjL7cjhUgeoqnWByLAUKKM5UzKtVcd8VrMCy0MR9_IwLAEQnm704bgOtKLHnwYgHfYag-d3uxTyawqd41Vpuhueu5S4e4hFP9E2gYtr3kq4b8EmcF6XnT8hgXlkptMjlMgWiwRgIozbfpN4Y_aYppB1ksZQhE06DZy6JFtlwQ9tcj0vQ4ojIodQwPzITS1dLHiAihTqTT1LXNGj5LhD87vVt2td7xdobLyH2zFfvu6Yrx8UaFWhVzp5VsGymivuRrem-xDy8KnNe1qeWYJHvD4IZzgY8fSaShu-e111QSZrBJhW54S8I9N0Hw-NdgVVf-dPUBXAQoJFSyHvkloml1V3HePa0xO5z-8yjc7olcLD790wTR839mKs-j_gxA0ypxUb6qWVLeDVUrNYEQ5ev6oIY9easLBnt1c75L-mKZjjQ4kbwjHEDzg_28YmGtnxcx_ByqlUjJ6D0-5pKkl31jUSPGx-1nMyEQW9EmFa9z3qP8xeUDRWEtccXxUXsUEplmuNL0f3Yo1p2-VWBjCSHHXYIPBGR_bgznoZv1buHr7-4NUYbxQ_Gry6-Xi0?></g></svg>