<?plantuml 1.2026.1?><svg xmlns="http://www.w3.org/2000/svg" xmlns:xlink="http://www.w3.org/1999/xlink" contentStyleType="text/css" data-diagram-type="STATE" height="336px" preserveAspectRatio="none" style="width:813px;height:336px;background:#FFFFFF;" version="1.1" viewBox="0 0 813 336" width="813px" zoomAndPan="magnify"><title>**PROCESSUS M&#201;TIER** &#8212; traitement d'une commande complexe</title><defs/><g><g class="title" data-source-line="14"><text fill="#000000" font-family="Helvetica" font-size="22" font-weight="bold" lengthAdjust="spacing" textLength="227.3691" x="71.474" y="31.9404">PROCESSUS M&#201;TIER</text><text fill="#000000" font-family="Helvetica" font-size="22" font-weight="bold" lengthAdjust="spacing" textLength="428.2266" x="304.9554" y="31.9404">&#8212; traitement d'une commande complexe</text></g><rect fill="#E7E9EE" height="40" rx="7" ry="7" style="stroke:#000000;stroke-width:1;" width="57.6953" x="12" y="168"/><text fill="#000000" font-family="Helvetica" font-size="11" font-weight="bold" lengthAdjust="spacing" textLength="7.9438" x="17" y="185.4702">H</text><text fill="#000000" font-family="Helvetica" font-size="11" lengthAdjust="spacing" textLength="47.6953" x="17" y="196.4702">Demande</text><rect fill="#00D2DD" height="40" rx="7" ry="7" style="stroke:#000000;stroke-width:1;" width="82.1553" x="130.7" y="168"/><text fill="#000000" font-family="Helvetica" font-size="11" font-weight="bold" lengthAdjust="spacing" textLength="7.9438" x="135.7" y="185.4702">A</text><text fill="#000000" font-family="Helvetica" font-size="11" lengthAdjust="spacing" textLength="3.0562" x="143.6438" y="185.4702">&#160;</text><text fill="#000000" font-family="Helvetica" font-size="11" font-style="italic" lengthAdjust="spacing" textLength="42.7969" x="146.7" y="185.4702">Logistics</text><text fill="#000000" font-family="Helvetica" font-size="11" lengthAdjust="spacing" textLength="72.1553" x="135.7" y="196.4702">Replanification</text><rect fill="#E7E9EE" height="40" rx="7" ry="7" style="stroke:#000000;stroke-width:1;" width="79.0991" x="273.85" y="55"/><text fill="#000000" font-family="Helvetica" font-size="11" font-weight="bold" lengthAdjust="spacing" textLength="7.9438" x="278.85" y="72.4702">H</text><text fill="#000000" font-family="Helvetica" font-size="11" lengthAdjust="spacing" textLength="69.0991" x="278.85" y="83.4702">Validation VIP</text><rect fill="#00D2DD" height="40" rx="7" ry="7" style="stroke:#000000;stroke-width:1;" width="108.4146" x="413.95" y="168"/><text fill="#000000" font-family="Helvetica" font-size="11" font-weight="bold" lengthAdjust="spacing" textLength="7.9438" x="418.95" y="185.4702">A</text><text fill="#000000" font-family="Helvetica" font-size="11" lengthAdjust="spacing" textLength="3.0562" x="426.8938" y="185.4702">&#160;</text><text fill="#000000" font-family="Helvetica" font-size="11" font-style="italic" lengthAdjust="spacing" textLength="87.4146" x="429.95" y="185.4702">Customer Service</text><text fill="#000000" font-family="Helvetica" font-size="11" lengthAdjust="spacing" textLength="66.0215" x="418.95" y="196.4702">Dossier client</text><rect fill="#00D2DD" height="40" rx="7" ry="7" style="stroke:#000000;stroke-width:1;" width="54.623" x="604.36" y="130"/><text fill="#000000" font-family="Helvetica" font-size="11" font-weight="bold" lengthAdjust="spacing" textLength="7.9438" x="609.36" y="147.4702">A</text><text fill="#000000" font-family="Helvetica" font-size="11" lengthAdjust="spacing" textLength="3.0562" x="617.3038" y="147.4702">&#160;</text><text fill="#000000" font-family="Helvetica" font-size="11" font-style="italic" lengthAdjust="spacing" textLength="33.623" x="620.36" y="147.4702">Pricing</text><text fill="#000000" font-family="Helvetica" font-size="11" lengthAdjust="spacing" textLength="22" x="609.36" y="158.4702">Tarif</text><rect fill="#E7E9EE" height="40" rx="7" ry="7" style="stroke:#000000;stroke-width:1;" width="87.666" x="719.99" y="97"/><text fill="#000000" font-family="Helvetica" font-size="11" font-weight="bold" lengthAdjust="spacing" textLength="7.9438" x="724.99" y="114.4702">H</text><text fill="#000000" font-family="Helvetica" font-size="11" lengthAdjust="spacing" textLength="77.666" x="724.99" y="125.4702">Validation finale</text><rect fill="#DAF6F9" height="40" rx="7" ry="7" style="stroke:#000000;stroke-width:1;" width="66.2461" x="280.28" y="130"/><text fill="#000000" font-family="Helvetica" font-size="11" font-weight="bold" lengthAdjust="spacing" textLength="7.9438" x="285.28" y="152.9702">A</text><text fill="#000000" font-family="Helvetica" font-size="11" lengthAdjust="spacing" textLength="3.0562" x="293.2238" y="152.9702">&#160;</text><text fill="#000000" font-family="Helvetica" font-size="11" font-style="italic" lengthAdjust="spacing" textLength="45.2461" x="296.28" y="152.9702">Inventory</text><rect fill="#DAF6F9" height="40" rx="7" ry="7" style="stroke:#000000;stroke-width:1;" width="62.5723" x="282.11" y="205"/><text fill="#000000" font-family="Helvetica" font-size="11" font-weight="bold" lengthAdjust="spacing" textLength="7.9438" x="287.11" y="227.9702">A</text><text fill="#000000" font-family="Helvetica" font-size="11" lengthAdjust="spacing" textLength="3.0562" x="295.0538" y="227.9702">&#160;</text><text fill="#000000" font-family="Helvetica" font-size="11" font-style="italic" lengthAdjust="spacing" textLength="41.5723" x="298.11" y="227.9702">Weather</text><rect fill="#DAF6F9" height="40" rx="7" ry="7" style="stroke:#000000;stroke-width:1;" width="50" x="606.68" y="205"/><text fill="#000000" font-family="Helvetica" font-size="11" font-weight="bold" lengthAdjust="spacing" textLength="7.9438" x="613.6546" y="227.9702">A</text><text fill="#000000" font-family="Helvetica" font-size="11" lengthAdjust="spacing" textLength="3.0562" x="621.5985" y="227.9702">&#160;</text><text fill="#000000" font-family="Helvetica" font-size="11" font-style="italic" lengthAdjust="spacing" textLength="25.0508" x="624.6546" y="227.9702">CRM</text><rect fill="#DAF6F9" height="40" rx="7" ry="7" style="stroke:#000000;stroke-width:1;" width="63.7969" x="731.92" y="172"/><text fill="#000000" font-family="Helvetica" font-size="11" font-weight="bold" lengthAdjust="spacing" textLength="7.9438" x="736.92" y="194.9702">A</text><text fill="#000000" font-family="Helvetica" font-size="11" lengthAdjust="spacing" textLength="3.0562" x="744.8638" y="194.9702">&#160;</text><text fill="#000000" font-family="Helvetica" font-size="11" font-style="italic" lengthAdjust="spacing" textLength="42.7969" x="747.92" y="194.9702">Capacity</text><!--link h1 to a1--><g class="link" data-entity-1="ent0002" data-entity-2="ent0003" data-link-type="dependency" data-source-line="28" id="lnk2"><path d="M70.14,188 C87.78,188 104.77,188 124.32,188" fill="none" id="h1-to-a1" style="stroke:#0E2356;stroke-width:2;"/><polygon fill="#0E2356" points="130.32,188,121.32,184,125.32,188,121.32,192,130.32,188" style="stroke:#0E2356;stroke-width:2;"/></g><!--link a1 to h2--><g class="link" data-entity-1="ent0003" data-entity-2="ent0004" data-link-type="dependency" data-source-line="29" id="lnk3"><path d="M194.73,167.64 C208.32,155.28 226.28,139.36 242.85,126 C255.91,115.47 265.9809,107.9059 278.6609,98.7759" fill="none" id="a1-to-h2" style="stroke:#0E2356;stroke-width:2;"/><polygon fill="#0E2356" points="283.53,95.27,273.889,97.2828,279.4724,98.1916,278.5636,103.775,283.53,95.27" style="stroke:#0E2356;stroke-width:2;"/></g><!--link h2 to a2--><g class="link" data-entity-1="ent0004" data-entity-2="ent0005" data-link-type="dependency" data-source-line="30" id="lnk4"><path d="M342.06,95.46 C369.75,115.94 407.2668,143.6911 434.8768,164.1211" fill="none" id="h2-to-a2" style="stroke:#0E2356;stroke-width:2;"/><polygon fill="#0E2356" points="439.7,167.69,434.8445,159.1212,435.6807,164.7159,430.086,165.5521,439.7,167.69" style="stroke:#0E2356;stroke-width:2;"/></g><!--link a2 to a3--><g class="link" data-entity-1="ent0005" data-entity-2="ent0006" data-link-type="dependency" data-source-line="31" id="lnk5"><path d="M522.49,175.45 C549.87,169.01 576.1889,162.8117 598.2889,157.6217" fill="none" id="a2-to-a3" style="stroke:#00D2DD;stroke-width:2;"/><polygon fill="#00D2DD" points="604.13,156.25,594.4539,154.4135,599.2624,157.3931,596.2829,162.2017,604.13,156.25" style="stroke:#00D2DD;stroke-width:2;"/><text fill="#000000" font-family="Helvetica" font-size="11" lengthAdjust="spacing" textLength="20.7915" x="553.36" y="159.8502">A2A</text></g><!--link a3 to h3--><g class="link" data-entity-1="ent0006" data-entity-2="ent0007" data-link-type="dependency" data-source-line="32" id="lnk6"><path d="M659.33,143.24 C676.65,138.85 693.8242,134.4951 713.7342,129.4451" fill="none" id="a3-to-h3" style="stroke:#0E2356;stroke-width:2;"/><polygon fill="#0E2356" points="719.55,127.97,709.8428,126.3055,714.7035,129.1993,711.8097,134.0599,719.55,127.97" style="stroke:#0E2356;stroke-width:2;"/></g><!--link a1 to ctx1--><g class="link" data-entity-1="ent0003" data-entity-2="ent0008" data-link-type="dependency" data-source-line="34" id="lnk7"><path d="M213.16,189.04 C234.42,184.93 254.5347,179.8203 274.4647,172.2103" fill="none" id="a1-to-ctx1" style="stroke:#6E7B9A;stroke-width:1;stroke-dasharray:7,7;"/><polygon fill="#6E7B9A" points="280.07,170.07,270.2352,169.5436,275.3989,171.8536,273.089,177.0173,280.07,170.07" style="stroke:#6E7B9A;stroke-width:1;"/></g><!--link ctx1 to a1--><g class="link" data-entity-1="ent0008" data-entity-2="ent0003" data-link-type="dependency" data-source-line="35" id="lnk8"><path d="M280.19,147.51 C258.02,151.1 234.264,156.9326 211.834,165.3926" fill="none" id="ctx1-to-a1" style="stroke:#6E7B9A;stroke-width:1;stroke-dasharray:7,7;"/><polygon fill="#6E7B9A" points="206.22,167.51,216.0526,168.0765,210.8983,165.7455,213.2293,160.5912,206.22,167.51" style="stroke:#6E7B9A;stroke-width:1;"/></g><!--link a1 to ctx2--><g class="link" data-entity-1="ent0003" data-entity-2="ent0009" data-link-type="dependency" data-source-line="37" id="lnk9"><path d="M206.57,208.39 C229.49,216.83 253.6143,223.8038 275.8343,227.0838" fill="none" id="a1-to-ctx2" style="stroke:#6E7B9A;stroke-width:1;stroke-dasharray:7,7;"/><polygon fill="#6E7B9A" points="281.77,227.96,273.4506,222.6886,276.8236,227.2298,272.2824,230.6028,281.77,227.96" style="stroke:#6E7B9A;stroke-width:1;"/></g><!--link ctx2 to a1--><g class="link" data-entity-1="ent0009" data-entity-2="ent0003" data-link-type="dependency" data-source-line="38" id="lnk10"><path d="M281.87,205.84 C261.71,198.13 240.9686,191.8484 219.0586,187.7684" fill="none" id="ctx2-to-a1" style="stroke:#6E7B9A;stroke-width:1;stroke-dasharray:7,7;"/><polygon fill="#6E7B9A" points="213.16,186.67,221.2756,192.25,218.0755,187.5853,222.7402,184.3852,213.16,186.67" style="stroke:#6E7B9A;stroke-width:1;"/></g><!--link a2 to ctx3--><g class="link" data-entity-1="ent0005" data-entity-2="ent0010" data-link-type="dependency" data-source-line="40" id="lnk11"><path d="M508.26,208.39 C538.88,218.14 574.5286,226.6277 600.4886,228.6777" fill="none" id="a2-to-ctx3" style="stroke:#6E7B9A;stroke-width:1;stroke-dasharray:7,7;"/><polygon fill="#6E7B9A" points="606.47,229.15,597.8128,224.4539,601.4855,228.7564,597.183,232.4291,606.47,229.15" style="stroke:#6E7B9A;stroke-width:1;"/></g><!--link ctx3 to a2--><g class="link" data-entity-1="ent0010" data-entity-2="ent0005" data-link-type="dependency" data-source-line="41" id="lnk12"><path d="M606.32,209.71 C584.19,201.34 556.6988,193.8219 528.3988,188.8319" fill="none" id="ctx3-to-a2" style="stroke:#6E7B9A;stroke-width:1;stroke-dasharray:7,7;"/><polygon fill="#6E7B9A" points="522.49,187.79,530.6587,193.292,527.414,188.6582,532.0479,185.4136,522.49,187.79" style="stroke:#6E7B9A;stroke-width:1;"/></g><!--link a3 to ctx4--><g class="link" data-entity-1="ent0006" data-entity-2="ent0011" data-link-type="dependency" data-source-line="43" id="lnk13"><path d="M659.33,169.43 C680.3,179.06 703.6884,187.4555 725.7584,192.0955" fill="none" id="a3-to-ctx4" style="stroke:#6E7B9A;stroke-width:1;stroke-dasharray:7,7;"/><polygon fill="#6E7B9A" points="731.63,193.33,723.6455,187.5639,726.737,192.3013,721.9996,195.3927,731.63,193.33" style="stroke:#6E7B9A;stroke-width:1;"/></g><!--link ctx4 to a3--><g class="link" data-entity-1="ent0011" data-entity-2="ent0006" data-link-type="dependency" data-source-line="44" id="lnk14"><path d="M733.94,171.56 C711.65,161.6 686.9382,152.9203 665.2282,148.8703" fill="none" id="ctx4-to-a3" style="stroke:#6E7B9A;stroke-width:1;stroke-dasharray:7,7;"/><polygon fill="#6E7B9A" points="659.33,147.77,667.4438,153.3526,664.2452,148.6869,668.9109,145.4883,659.33,147.77" style="stroke:#6E7B9A;stroke-width:1;"/></g><!--link a1 to ctx4--><g class="link" data-entity-1="ent0003" data-entity-2="ent0011" data-link-type="dependency" data-source-line="46" id="lnk15"><path d="M185.68,208.43 C207.56,240.24 255.16,298 312.4,298 C312.4,298 312.4,298 632.68,298 C686.29,298 726.7591,248.2438 747.1391,217.4438" fill="none" id="a1-to-ctx4" style="stroke:#6E7B9A;stroke-width:1;stroke-dasharray:7,7;"/><polygon fill="#6E7B9A" points="750.45,212.44,742.1478,217.7384,747.6909,216.6098,748.8194,222.1529,750.45,212.44" style="stroke:#6E7B9A;stroke-width:1;"/></g><g class="caption" data-source-line="48"><text fill="#000000" font-family="Helvetica" font-size="14" lengthAdjust="spacing" textLength="563.4521" x="120.6019" y="319.7803">La valeur na&#238;t du maillage : les agents &#233;changent du contexte pour enrichir leurs d&#233;cisions.</text></g><?plantuml-src XLFDRjD04BxlKmpj0SbgIME7La42AIIEMgc5AYdbG3aCwuczwdfjxQwZ58J4bJilmOMNo9lm94msLHkrSV5fvVb-PhwTVUOBAWbgZSe8TwrCZHPB-8BoEhTLOx9XfIiBk-FmRI0occ6Z_RWo_XsomZ7fENabSJjcghuITBj2Q9fvy1LObHSUCcL9UbKPKQYCWChQtp3DIQlgy7j3RR9knngoqErj59n7J_1D06mwVHV2Awy9ekXyydwOJgSVfd2s_7bnaawY2Fx--0NUel8ylk56dZU6G5PbYIOBXrhJWjW_YEz4qN4KNPaHXVeEe8EY2xlfKTfFqtlGW9KxdTCgLuwpS9tEbPaGXslKZADPJHIeoDI3Wr4y6ZtGlqIjie23ovFpjKtSPZDidAzAJcDATguahTn6bNEAVqcjUAorMVpOR2rmRfLK9b_nBj2gsHgU_B-tcJAeRrD8xjfxA7zYvjn3PMywdG2LVi5pZmRZmt7_8VOZ8M-YlKV6RSZXvEmUbRIYi4Qf_8Prxmug-ERsF-qUf77oyd3F5qfU6tBkTVnv_mrVZS0doaKi-4BQsR70TJaa-AYSm2iOn0F1XtQBHDosS9WUlUqFzZ9q1MMhqYf14MBSLkNMdo368gJQIepRY8a8GMybnk9sb6t4dWYnRoK-EMDF28dX_SCfmfnNhR5WSFc7tsa39IgjCIUEKXFlQyvBvc3vMnPeyl2M6tw_njE25wAkc4g65xrG5bP23ZB6AiVgxeNu1m00?></g></svg>