<?plantuml 1.2026.1?><svg xmlns="http://www.w3.org/2000/svg" xmlns:xlink="http://www.w3.org/1999/xlink" contentStyleType="text/css" data-diagram-type="STATE" height="336px" preserveAspectRatio="none" style="width:791px;height:336px;background:#FFFFFF;" version="1.1" viewBox="0 0 791 336" width="791px" zoomAndPan="magnify"><title>**BUSINESS PROCESS** &#8212; complex order processing</title><defs/><g><g class="title" data-source-line="14"><text fill="#000000" font-family="Helvetica" font-size="22" font-weight="bold" lengthAdjust="spacing" textLength="226.166" x="123.2736" y="31.9404">BUSINESS PROCESS</text><text fill="#000000" font-family="Helvetica" font-size="22" font-weight="bold" lengthAdjust="spacing" textLength="303.1982" x="355.5519" y="31.9404">&#8212; complex order processing</text></g><rect fill="#E7E9EE" height="40" rx="7" ry="7" style="stroke:#000000;stroke-width:1;" width="50.9707" x="12" y="168"/><text fill="#000000" font-family="Helvetica" font-size="11" font-weight="bold" lengthAdjust="spacing" textLength="7.9438" x="17" y="185.4702">H</text><text fill="#000000" font-family="Helvetica" font-size="11" lengthAdjust="spacing" textLength="40.9707" x="17" y="196.4702">Request</text><rect fill="#00D2DD" height="40" rx="7" ry="7" style="stroke:#000000;stroke-width:1;" width="76.6553" x="123.97" y="168"/><text fill="#000000" font-family="Helvetica" font-size="11" font-weight="bold" lengthAdjust="spacing" textLength="7.9438" x="128.97" y="185.4702">A</text><text fill="#000000" font-family="Helvetica" font-size="11" lengthAdjust="spacing" textLength="3.0562" x="136.9138" y="185.4702">&#160;</text><text fill="#000000" font-family="Helvetica" font-size="11" font-style="italic" lengthAdjust="spacing" textLength="42.7969" x="139.97" y="185.4702">Logistics</text><text fill="#000000" font-family="Helvetica" font-size="11" lengthAdjust="spacing" textLength="66.6553" x="128.97" y="196.4702">Rescheduling</text><rect fill="#E7E9EE" height="40" rx="7" ry="7" style="stroke:#000000;stroke-width:1;" width="77.2622" x="261.63" y="55"/><text fill="#000000" font-family="Helvetica" font-size="11" font-weight="bold" lengthAdjust="spacing" textLength="7.9438" x="266.63" y="72.4702">H</text><text fill="#000000" font-family="Helvetica" font-size="11" lengthAdjust="spacing" textLength="67.2622" x="266.63" y="83.4702">VIP validation</text><rect fill="#00D2DD" height="40" rx="7" ry="7" style="stroke:#000000;stroke-width:1;" width="108.4146" x="399.89" y="168"/><text fill="#000000" font-family="Helvetica" font-size="11" font-weight="bold" lengthAdjust="spacing" textLength="7.9438" x="404.89" y="185.4702">A</text><text fill="#000000" font-family="Helvetica" font-size="11" lengthAdjust="spacing" textLength="3.0562" x="412.8338" y="185.4702">&#160;</text><text fill="#000000" font-family="Helvetica" font-size="11" font-style="italic" lengthAdjust="spacing" textLength="87.4146" x="415.89" y="185.4702">Customer Service</text><text fill="#000000" font-family="Helvetica" font-size="11" lengthAdjust="spacing" textLength="64.7969" x="404.89" y="196.4702">Customer file</text><rect fill="#00D2DD" height="40" rx="7" ry="7" style="stroke:#000000;stroke-width:1;" width="54.623" x="590.3" y="130"/><text fill="#000000" font-family="Helvetica" font-size="11" font-weight="bold" lengthAdjust="spacing" textLength="7.9438" x="595.3" y="147.4702">A</text><text fill="#000000" font-family="Helvetica" font-size="11" lengthAdjust="spacing" textLength="3.0562" x="603.2438" y="147.4702">&#160;</text><text fill="#000000" font-family="Helvetica" font-size="11" font-style="italic" lengthAdjust="spacing" textLength="33.623" x="606.3" y="147.4702">Pricing</text><text fill="#000000" font-family="Helvetica" font-size="11" lengthAdjust="spacing" textLength="33.623" x="595.3" y="158.4702">Pricing</text><rect fill="#E7E9EE" height="40" rx="7" ry="7" style="stroke:#000000;stroke-width:1;" width="79.0938" x="705.93" y="97"/><text fill="#000000" font-family="Helvetica" font-size="11" font-weight="bold" lengthAdjust="spacing" textLength="7.9438" x="710.93" y="114.4702">H</text><text fill="#000000" font-family="Helvetica" font-size="11" lengthAdjust="spacing" textLength="69.0938" x="710.93" y="125.4702">Final approval</text><rect fill="#DAF6F9" height="40" rx="7" ry="7" style="stroke:#000000;stroke-width:1;" width="66.2461" x="267.13" y="130"/><text fill="#000000" font-family="Helvetica" font-size="11" font-weight="bold" lengthAdjust="spacing" textLength="7.9438" x="272.13" y="152.9702">A</text><text fill="#000000" font-family="Helvetica" font-size="11" lengthAdjust="spacing" textLength="3.0562" x="280.0738" y="152.9702">&#160;</text><text fill="#000000" font-family="Helvetica" font-size="11" font-style="italic" lengthAdjust="spacing" textLength="45.2461" x="283.13" y="152.9702">Inventory</text><rect fill="#DAF6F9" height="40" rx="7" ry="7" style="stroke:#000000;stroke-width:1;" width="62.5723" x="268.97" y="205"/><text fill="#000000" font-family="Helvetica" font-size="11" font-weight="bold" lengthAdjust="spacing" textLength="7.9438" x="273.97" y="227.9702">A</text><text fill="#000000" font-family="Helvetica" font-size="11" lengthAdjust="spacing" textLength="3.0562" x="281.9138" y="227.9702">&#160;</text><text fill="#000000" font-family="Helvetica" font-size="11" font-style="italic" lengthAdjust="spacing" textLength="41.5723" x="284.97" y="227.9702">Weather</text><rect fill="#DAF6F9" height="40" rx="7" ry="7" style="stroke:#000000;stroke-width:1;" width="50" x="592.61" y="205"/><text fill="#000000" font-family="Helvetica" font-size="11" font-weight="bold" lengthAdjust="spacing" textLength="7.9438" x="599.5846" y="227.9702">A</text><text fill="#000000" font-family="Helvetica" font-size="11" lengthAdjust="spacing" textLength="3.0562" x="607.5285" y="227.9702">&#160;</text><text fill="#000000" font-family="Helvetica" font-size="11" font-style="italic" lengthAdjust="spacing" textLength="25.0508" x="610.5846" y="227.9702">CRM</text><rect fill="#DAF6F9" height="40" rx="7" ry="7" style="stroke:#000000;stroke-width:1;" width="63.7969" x="713.57" y="172"/><text fill="#000000" font-family="Helvetica" font-size="11" font-weight="bold" lengthAdjust="spacing" textLength="7.9438" x="718.57" y="194.9702">A</text><text fill="#000000" font-family="Helvetica" font-size="11" lengthAdjust="spacing" textLength="3.0562" x="726.5138" y="194.9702">&#160;</text><text fill="#000000" font-family="Helvetica" font-size="11" font-style="italic" lengthAdjust="spacing" textLength="42.7969" x="729.57" y="194.9702">Capacity</text><!--link h1 to a1--><g class="link" data-entity-1="ent0002" data-entity-2="ent0003" data-link-type="dependency" data-source-line="28" id="lnk2"><path d="M63.34,188 C80.72,188 98.25,188 117.89,188" fill="none" id="h1-to-a1" style="stroke:#0E2356;stroke-width:2;"/><polygon fill="#0E2356" points="123.89,188,114.89,184,118.89,188,114.89,192,123.89,188" style="stroke:#0E2356;stroke-width:2;"/></g><!--link a1 to h2--><g class="link" data-entity-1="ent0003" data-entity-2="ent0004" data-link-type="dependency" data-source-line="29" id="lnk3"><path d="M184.31,167.59 C197.34,155.2 214.59,139.28 230.63,126 C243.32,115.49 253.0604,108.043 265.5104,98.973" fill="none" id="a1-to-h2" style="stroke:#0E2356;stroke-width:2;"/><polygon fill="#0E2356" points="270.36,95.44,260.7304,97.5064,266.3187,98.3841,265.441,103.9725,270.36,95.44" style="stroke:#0E2356;stroke-width:2;"/></g><!--link h2 to a2--><g class="link" data-entity-1="ent0004" data-entity-2="ent0005" data-link-type="dependency" data-source-line="30" id="lnk4"><path d="M328.75,95.46 C356.27,115.94 393.5474,143.6769 420.9874,164.1069" fill="none" id="h2-to-a2" style="stroke:#0E2356;stroke-width:2;"/><polygon fill="#0E2356" points="425.8,167.69,420.9699,159.1069,421.7895,164.704,416.1923,165.5237,425.8,167.69" style="stroke:#0E2356;stroke-width:2;"/></g><!--link a2 to a3--><g class="link" data-entity-1="ent0005" data-entity-2="ent0006" data-link-type="dependency" data-source-line="31" id="lnk5"><path d="M508.43,175.45 C535.81,169.01 562.1289,162.8117 584.2289,157.6217" fill="none" id="a2-to-a3" style="stroke:#00D2DD;stroke-width:2;"/><polygon fill="#00D2DD" points="590.07,156.25,580.3939,154.4135,585.2024,157.3931,582.2229,162.2017,590.07,156.25" style="stroke:#00D2DD;stroke-width:2;"/><text fill="#000000" font-family="Helvetica" font-size="11" lengthAdjust="spacing" textLength="20.7915" x="539.3" y="159.8502">A2A</text></g><!--link a3 to h3--><g class="link" data-entity-1="ent0006" data-entity-2="ent0007" data-link-type="dependency" data-source-line="32" id="lnk6"><path d="M645.31,143 C662.91,138.39 680.4559,133.7806 700.0759,128.6406" fill="none" id="a3-to-h3" style="stroke:#0E2356;stroke-width:2;"/><polygon fill="#0E2356" points="705.88,127.12,696.1601,125.5314,701.0432,128.3871,698.1875,133.2702,705.88,127.12" style="stroke:#0E2356;stroke-width:2;"/></g><!--link a1 to ctx1--><g class="link" data-entity-1="ent0003" data-entity-2="ent0008" data-link-type="dependency" data-source-line="34" id="lnk7"><path d="M200.81,189.39 C221.56,185.41 241.4967,180.2814 261.3567,172.5714" fill="none" id="a1-to-ctx1" style="stroke:#6E7B9A;stroke-width:1;stroke-dasharray:7,7;"/><polygon fill="#6E7B9A" points="266.95,170.4,257.1124,169.9283,262.2889,172.2095,260.0077,177.386,266.95,170.4" style="stroke:#6E7B9A;stroke-width:1;"/></g><!--link ctx1 to a1--><g class="link" data-entity-1="ent0008" data-entity-2="ent0003" data-link-type="dependency" data-source-line="35" id="lnk8"><path d="M266.96,147.66 C245.49,151.33 222.9849,157.0027 201.4549,165.3427" fill="none" id="ctx1-to-a1" style="stroke:#6E7B9A;stroke-width:1;stroke-dasharray:7,7;"/><polygon fill="#6E7B9A" points="195.86,167.51,205.6972,167.989,200.5224,165.7039,202.8075,160.5292,195.86,167.51" style="stroke:#6E7B9A;stroke-width:1;"/></g><!--link a1 to ctx2--><g class="link" data-entity-1="ent0003" data-entity-2="ent0009" data-link-type="dependency" data-source-line="37" id="lnk9"><path d="M196.21,208.39 C218.21,216.71 241.0417,223.5352 262.5817,226.8952" fill="none" id="a1-to-ctx2" style="stroke:#6E7B9A;stroke-width:1;stroke-dasharray:7,7;"/><polygon fill="#6E7B9A" points="268.51,227.82,260.234,222.4807,263.5697,227.0494,259.001,230.3851,268.51,227.82" style="stroke:#6E7B9A;stroke-width:1;"/></g><!--link ctx2 to a1--><g class="link" data-entity-1="ent0009" data-entity-2="ent0003" data-link-type="dependency" data-source-line="38" id="lnk10"><path d="M268.73,205.53 C248.64,197.71 228.0906,191.3574 206.7106,187.4174" fill="none" id="ctx2-to-a1" style="stroke:#6E7B9A;stroke-width:1;stroke-dasharray:7,7;"/><polygon fill="#6E7B9A" points="200.81,186.33,208.936,191.8949,205.7272,187.2362,210.3859,184.0273,200.81,186.33" style="stroke:#6E7B9A;stroke-width:1;"/></g><!--link a2 to ctx3--><g class="link" data-entity-1="ent0005" data-entity-2="ent0010" data-link-type="dependency" data-source-line="40" id="lnk11"><path d="M494.19,208.39 C524.82,218.14 560.4686,226.6277 586.4286,228.6777" fill="none" id="a2-to-ctx3" style="stroke:#6E7B9A;stroke-width:1;stroke-dasharray:7,7;"/><polygon fill="#6E7B9A" points="592.41,229.15,583.7528,224.4539,587.4255,228.7564,583.123,232.4291,592.41,229.15" style="stroke:#6E7B9A;stroke-width:1;"/></g><!--link ctx3 to a2--><g class="link" data-entity-1="ent0010" data-entity-2="ent0005" data-link-type="dependency" data-source-line="41" id="lnk12"><path d="M592.26,209.71 C570.13,201.34 542.6388,193.8219 514.3388,188.8319" fill="none" id="ctx3-to-a2" style="stroke:#6E7B9A;stroke-width:1;stroke-dasharray:7,7;"/><polygon fill="#6E7B9A" points="508.43,187.79,516.5987,193.292,513.354,188.6582,517.9879,185.4136,508.43,187.79" style="stroke:#6E7B9A;stroke-width:1;"/></g><!--link a3 to ctx4--><g class="link" data-entity-1="ent0006" data-entity-2="ent0011" data-link-type="dependency" data-source-line="43" id="lnk13"><path d="M645.31,169.87 C665.22,179.21 686.6232,187.1769 707.5232,191.8269" fill="none" id="a3-to-ctx4" style="stroke:#6E7B9A;stroke-width:1;stroke-dasharray:7,7;"/><polygon fill="#6E7B9A" points="713.38,193.13,705.4635,187.2709,708.4993,192.0441,703.7261,195.0799,713.38,193.13" style="stroke:#6E7B9A;stroke-width:1;"/></g><!--link ctx4 to a3--><g class="link" data-entity-1="ent0011" data-entity-2="ent0006" data-link-type="dependency" data-source-line="44" id="lnk14"><path d="M716.51,171.54 C695.27,161.73 672.1153,153.2675 651.1953,149.1175" fill="none" id="ctx4-to-a3" style="stroke:#6E7B9A;stroke-width:1;stroke-dasharray:7,7;"/><polygon fill="#6E7B9A" points="645.31,147.95,653.3596,153.6248,650.2144,148.9229,654.9163,145.7777,645.31,147.95" style="stroke:#6E7B9A;stroke-width:1;"/></g><!--link a1 to ctx4--><g class="link" data-entity-1="ent0003" data-entity-2="ent0011" data-link-type="dependency" data-source-line="46" id="lnk15"><path d="M175.74,208.43 C196.85,240.24 242.94,298 299.26,298 C299.26,298 299.26,298 618.61,298 C671.18,298 709.9928,248.3109 729.4728,217.5109" fill="none" id="a1-to-ctx4" style="stroke:#6E7B9A;stroke-width:1;stroke-dasharray:7,7;"/><polygon fill="#6E7B9A" points="732.68,212.44,724.4886,217.9082,730.0074,216.6657,731.2498,222.1845,732.68,212.44" style="stroke:#6E7B9A;stroke-width:1;"/></g><g class="caption" data-source-line="48"><text fill="#000000" font-family="Helvetica" font-size="14" lengthAdjust="spacing" textLength="505.832" x="138.0959" y="319.7803">Value emerges from the mesh: agents exchange context to enrich their decisions.</text></g><?plantuml-src VLJDZjem4BxxAQRBBTfj8A6iMAcLM0XQf7QBGDqUsXvSPqWi4Zkr7SIsgjI7w1FsIJf9422Ma4iYp_VdySIlN8evGf5ngPXTIrLmmtFupiKwCRfKyLXdsa1dMZz7Y1XNlCpSL2lto4dX0RCDEYduUSnI_aJezHZBSEN0QJ0oIHt4qg1mKYkMoXW1yy8z4yqA8ujw-KXjqSGn2Wtq-aS5wxX3-CK0Zfr-C-Qaon0yx_xJSlOOBPSmNtmSqzlpuD-Vlo1qNcIu1MrYaYoC5cYjL0cPrefNdlVWUL_L0d-KQDqLS0jf3phHRJICeWDeH7g-_rudqb83hEzN52jIZCkCv6eU9rwtEmacanFnfzaSDZoJCQ_sstW4RHxZqZgTKzWbceqKM5djrrOomyOhUEdLyET62afKqNQV3I5i2JULYcV02-eDPMp2XVjmf-epjK7bj7ds_Hegt9PsFHbD1zFXAVOpSfeySq06RSZnuiC15RQYUC65T4VM_JsKqQ7TVEbqeo1yCxXsgHHhHIVzDlXsyuuEXl4BvJHWT1pjx83nfbotxqKvX3iO1ID67-qM8Tj564ItzyFHTSmjpKvLgZh8wZQUgrBq2yI0rLrj9GPjn93LZJvB3DXkA-U8VLQt_IpnuXxxZ0bU_-_mnBEokWVG96XXPNGED2UGeqtlW2SqNnPmArAk4gGVM3dSrjS9AfhdjC9AGnU8a9RKx6ls7m00?></g></svg>