<?plantuml 1.2026.1?><svg xmlns="http://www.w3.org/2000/svg" xmlns:xlink="http://www.w3.org/1999/xlink" contentStyleType="text/css" data-diagram-type="DESCRIPTION" height="259px" preserveAspectRatio="none" style="width:110px;height:259px;background:#FFFFFF;" version="1.1" viewBox="0 0 110 259" width="110px" zoomAndPan="magnify"><defs/><g><!--entity f--><g class="entity" data-qualified-name="f" data-source-line="8" id="ent0002"><rect fill="#E7E9EE" height="34" rx="7" ry="7" style="stroke:#000000;stroke-width:1;" width="87.6484" x="14.36" y="12"/><text fill="#000000" font-family="Helvetica" font-size="14" font-weight="bold" lengthAdjust="spacing" textLength="67.6484" x="24.36" y="32.7803">Fondation</text></g><!--entity p--><g class="entity" data-qualified-name="p" data-source-line="9" id="ent0003"><rect fill="#B7BDCC" height="34" rx="7" ry="7" style="stroke:#000000;stroke-width:1;" width="92.3584" x="12" y="81"/><text fill="#000000" font-family="Helvetica" font-size="14" font-weight="bold" lengthAdjust="spacing" textLength="72.3584" x="22" y="101.7803">Plateforme</text></g><!--entity d--><g class="entity" data-qualified-name="d" data-source-line="10" id="ent0004"><rect fill="#DAF6F9" height="34" rx="7" ry="7" style="stroke:#000000;stroke-width:1;" width="86.9102" x="14.72" y="150"/><text fill="#000000" font-family="Helvetica" font-size="14" font-weight="bold" lengthAdjust="spacing" textLength="66.9102" x="24.72" y="170.7803">Domaines</text></g><!--entity m--><g class="entity" data-qualified-name="m" data-source-line="11" id="ent0005"><rect fill="#00D2DD" height="34" rx="7" ry="7" style="stroke:#000000;stroke-width:1;" width="75.2412" x="20.56" y="219"/><text fill="#000000" font-family="Helvetica" font-size="14" font-weight="bold" lengthAdjust="spacing" textLength="55.2412" x="30.56" y="239.7803">Maillage</text></g><!--link f to p--><g class="link" data-entity-1="ent0002" data-entity-2="ent0003" data-link-type="dependency" data-source-line="13" id="lnk6"><path d="M58.18,46.38 C58.18,57.84 58.18,63.29 58.18,74.75" fill="none" id="f-to-p" style="stroke:#0E2356;stroke-width:2;"/><polygon fill="#0E2356" points="58.18,80.75,62.18,71.75,58.18,75.75,54.18,71.75,58.18,80.75" style="stroke:#0E2356;stroke-width:2;"/></g><!--link p to d--><g class="link" data-entity-1="ent0003" data-entity-2="ent0004" data-link-type="dependency" data-source-line="14" id="lnk7"><path d="M58.18,115.38 C58.18,126.84 58.18,132.29 58.18,143.75" fill="none" id="p-to-d" style="stroke:#0E2356;stroke-width:2;"/><polygon fill="#0E2356" points="58.18,149.75,62.18,140.75,58.18,144.75,54.18,140.75,58.18,149.75" style="stroke:#0E2356;stroke-width:2;"/></g><!--link d to m--><g class="link" data-entity-1="ent0004" data-entity-2="ent0005" data-link-type="dependency" data-source-line="15" id="lnk8"><path d="M58.18,184.38 C58.18,195.84 58.18,201.29 58.18,212.75" fill="none" id="d-to-m" style="stroke:#0E2356;stroke-width:2;"/><polygon fill="#0E2356" points="58.18,218.75,62.18,209.75,58.18,213.75,54.18,209.75,58.18,218.75" style="stroke:#0E2356;stroke-width:2;"/></g><?plantuml-src XSyzQyCm483XNR_Y6csc0TTj4p8qa5WoNLfArvBXQfriONqXA_tzTT8KuYat7SV32tUNUt84qQBnR1oCZvZGmJUsGvV2qQiws920D-Uv4eeq7crkWi_lE1LUoVvGDYrUcS-_GFAKuE69CKiwGmwGJDTdK2PHcqtmZ9qMz9qbM1J5b5HukXV50d043LokvKRAEVkmc4c7vEZY8l3zUY_gUkv4SDDlD5wK0YvspQhPpDKR6ckn-syvu6KfAY4Oqx3yugMi7fzNzxatxJ2rnfVgS7vYkON8uWsXcBeX7Fi5?></g></svg>