<?xml version="1.0" encoding="UTF-8" standalone="no"?>
<!DOCTYPE svg PUBLIC "-//W3C//DTD SVG 1.1//EN"
 "http://www.w3.org/Graphics/SVG/1.1/DTD/svg11.dtd">
<!-- Generated by graphviz version 2.44.1 (20200629.0846)
 -->
<!-- Pages: 1 -->
<svg width="307pt" height="55pt"
 viewBox="0.00 0.00 307.00 55.00" xmlns="http://www.w3.org/2000/svg" xmlns:xlink="http://www.w3.org/1999/xlink">
<g id="graph0" class="graph" transform="scale(1 1) rotate(0) translate(4 51)">
<polygon fill="white" stroke="transparent" points="-4,4 -4,-51 303,-51 303,4 -4,4"/>
<!-- node1 -->
<g id="node1" class="node">
<title>node1</title>
<polygon fill="none" stroke="black" points="0,-5.5 0,-41.5 62,-41.5 62,-5.5 0,-5.5"/>
<text text-anchor="middle" x="31" y="-19.8" font-family="Times,serif" font-size="14.00">subject1</text>
</g>
<!-- node2 -->
<g id="node2" class="node">
<title>node2</title>
<polygon fill="none" stroke="black" points="148,-0.5 148,-46.5 299,-46.5 299,-0.5 148,-0.5"/>
<text text-anchor="middle" x="223.5" y="-31.3" font-family="Times,serif" font-size="14.00">object1</text>
<polyline fill="none" stroke="black" points="148,-23.5 299,-23.5 "/>
<text text-anchor="middle" x="195.5" y="-8.3" font-family="Times,serif" font-size="14.00">otherPredicate</text>
<polyline fill="none" stroke="black" points="243,-0.5 243,-23.5 "/>
<text text-anchor="middle" x="271" y="-8.3" font-family="Times,serif" font-size="14.00">object2</text>
</g>
<!-- node1&#45;&gt;node2 -->
<g id="edge1" class="edge">
<title>node1&#45;&gt;node2</title>
<path fill="none" stroke="black" d="M62.19,-23.5C82.56,-23.5 110.54,-23.5 137.43,-23.5"/>
<polygon fill="black" stroke="black" points="137.66,-27 147.66,-23.5 137.66,-20 137.66,-27"/>
<text text-anchor="middle" x="105" y="-27.3" font-family="Times,serif" font-size="14.00">predicate</text>
</g>
</g>
</svg>
