<?plantuml 1.2026.1?><svg xmlns="http://www.w3.org/2000/svg" xmlns:xlink="http://www.w3.org/1999/xlink" contentStyleType="text/css" data-diagram-type="DESCRIPTION" height="685px" preserveAspectRatio="none" style="width:784px;height:685px;background:#FFFFFF;" version="1.1" viewBox="0 0 784 685" width="784px" zoomAndPan="magnify"><defs/><g><!--cluster IA-PRODUCT--><g class="cluster" data-qualified-name="IA-PRODUCT" data-source-line="6" id="ent0002"><path d="M18,11 L97.8828,11 A10.5,10.5 0 0 1 104.8828,18 L111.8828,31 L454,31 A7,7 0 0 1 461,38 L461,572 A7,7 0 0 1 454,579 L18,579 A7,7 0 0 1 11,572 L11,18 A7,7 0 0 1 18,11" fill="#E7E9EE" style="stroke:#000000;stroke-width:1;"/><line style="stroke:#000000;stroke-width:1;" x1="11" x2="111.8828" y1="31" y2="31"/><text fill="#000000" font-family="Helvetica" font-size="14" font-weight="bold" lengthAdjust="spacing" textLength="87.8828" x="15" y="23.7803">IA-PRODUCT</text></g><!--cluster product--><g class="cluster" data-qualified-name="IA-PRODUCT.product" data-source-line="8" id="ent0004"><rect fill="#B7BDCC" height="359" rx="7" ry="7" style="stroke:#000000;stroke-width:1;" width="168" x="43" y="188"/><text fill="#000000" font-family="Helvetica" font-size="14" font-weight="bold" lengthAdjust="spacing" textLength="124.4482" x="64.7759" y="200.7803">Produit num&#233;rique</text></g><!--cluster IA-AS-A-PRODUCT (Agent)--><g class="cluster" data-qualified-name="IA-AS-A-PRODUCT .Agent." data-source-line="22" id="ent0014"><path d="M492,31.5 L663.6416,31.5 A10.5,10.5 0 0 1 670.6416,38.5 L677.6416,51.5 L770,51.5 A7,7 0 0 1 777,58.5 L777,671 A7,7 0 0 1 770,678 L492,678 A7,7 0 0 1 485,671 L485,38.5 A7,7 0 0 1 492,31.5" fill="#DAF6F9" style="stroke:#000000;stroke-width:1;"/><line style="stroke:#000000;stroke-width:1;" x1="485" x2="677.6416" y1="51.5" y2="51.5"/><text fill="#000000" font-family="Helvetica" font-size="14" font-weight="bold" lengthAdjust="spacing" textLength="179.6416" x="489" y="44.2803">IA-AS-A-PRODUCT (Agent)</text></g><!--entity user1--><g class="entity" data-qualified-name="IA-PRODUCT.user1" data-source-line="7" id="ent0003"><ellipse cx="123.0006" cy="53" fill="#FFFFFF" rx="8" ry="8" style="stroke:#000000;stroke-width:1;"/><path d="M123.0006,61 L123.0006,88 M110.0006,69 L136.0006,69 M123.0006,88 L110.0006,103 M123.0006,88 L136.0006,103" fill="none" style="stroke:#000000;stroke-width:1;"/><text fill="#000000" font-family="Helvetica" font-size="14" lengthAdjust="spacing" textLength="62.2412" x="91.88" y="115.7803">Utilisateur</text><text fill="#000000" font-family="Helvetica" font-size="14" lengthAdjust="spacing" textLength="25.6826" x="91.88" y="129.7803">final</text></g><g class="entity" data-qualified-name="IA-PRODUCT.GMN11" data-source-line="17" id="ent0012"><path d="M234.69,373 L234.69,395 A7,7 0 0 0 241.69,402 L438.3199,402 A7,7 0 0 0 445.3199,395 L445.3199,376 L435.3199,366 L241.69,366 A7,7 0 0 0 234.69,373" fill="#FFFFFF" style="stroke:#000000;stroke-width:1;"/><path d="M435.3199,366 L435.3199,372.5 A3.5,3.5 0 0 0 438.8199,376 L445.3199,376 L435.3199,366" fill="#FFFFFF" style="stroke:#000000;stroke-width:1;"/><text fill="#000000" font-family="Helvetica" font-size="13" lengthAdjust="spacing" textLength="61.02" x="240.69" y="381.0103">L'IA est un</text><text fill="#000000" font-family="Helvetica" font-size="13" font-weight="bold" lengthAdjust="spacing" textLength="88.8545" x="305.3218" y="381.0103">moyen interne</text><text fill="#000000" font-family="Helvetica" font-size="13" lengthAdjust="spacing" textLength="189.6299" x="240.69" y="394.0103">L'utilisateur consomme le produit</text></g><!--entity ui--><g class="entity" data-qualified-name="IA-PRODUCT.product.ui" data-source-line="9" id="ent0005"><rect fill="#FFFFFF" height="34" rx="7" ry="7" style="stroke:#000000;stroke-width:1;" width="65.1172" x="90.44" y="229"/><text fill="#000000" font-family="Helvetica" font-size="14" lengthAdjust="spacing" textLength="45.1172" x="100.44" y="249.7803">UI / UX</text></g><!--entity biz--><g class="entity" data-qualified-name="IA-PRODUCT.product.biz" data-source-line="10" id="ent0006"><rect fill="#FFFFFF" height="34" rx="7" ry="7" style="stroke:#000000;stroke-width:1;" width="112.6133" x="66.69" y="367"/><text fill="#000000" font-family="Helvetica" font-size="14" lengthAdjust="spacing" textLength="92.6133" x="76.69" y="387.7803">Logique m&#233;tier</text></g><!--entity ia1--><g class="entity" data-qualified-name="IA-PRODUCT.product.ia1" data-source-line="11" id="ent0007"><polygon fill="#3E4F78" points="177.47,504,150.23,485,95.77,485,68.53,504,95.77,523,150.23,523,177.47,504" style="stroke:#000000;stroke-width:1;"/><text fill="#000000" font-family="Helvetica" font-size="14" lengthAdjust="spacing" textLength="13.2275" x="95.7644" y="500.7803">IA</text><text fill="#000000" font-family="Helvetica" font-size="14" lengthAdjust="spacing" textLength="54.4688" x="95.7644" y="514.7803">(cach&#233;e)</text></g><!--entity consumer--><g class="entity" data-qualified-name="IA-AS-A-PRODUCT .Agent..consumer" data-source-line="23" id="ent0015"><rect fill="#FFFFFF" height="48" rx="7" ry="7" style="stroke:#000000;stroke-width:1;" width="170.9443" x="545.53" y="64.5"/><text fill="#000000" font-family="Helvetica" font-size="14" lengthAdjust="spacing" textLength="150.9443" x="555.53" y="85.2803">Syst&#232;me consommateur</text><text fill="#000000" font-family="Helvetica" font-size="14" lengthAdjust="spacing" textLength="113.627" x="555.53" y="99.2803">(humain ou agent)</text></g><!--entity iface--><g class="entity" data-qualified-name="IA-AS-A-PRODUCT .Agent..iface" data-source-line="24" id="ent0016"><rect fill="#B7BDCC" height="48" rx="7" ry="7" style="stroke:#000000;stroke-width:1;" width="94.7031" x="583.65" y="222"/><text fill="#000000" font-family="Helvetica" font-size="14" lengthAdjust="spacing" textLength="74.7031" x="593.65" y="242.7803">UI / Chatbot</text><text fill="#000000" font-family="Helvetica" font-size="14" lengthAdjust="spacing" textLength="30.3447" x="593.65" y="256.7803">/ API</text></g><!--entity agent--><g class="entity" data-qualified-name="IA-AS-A-PRODUCT .Agent..agent" data-source-line="25" id="ent0017"><polygon fill="#00D2DD" points="760.97,384,695.99,358,566.01,358,501.03,384,566.01,410,695.99,410,760.97,384" style="stroke:#000000;stroke-width:1;"/><text fill="#000000" font-family="Helvetica" font-size="14" font-weight="bold" lengthAdjust="spacing" textLength="39.6621" x="566.0158" y="373.7803">Agent</text><text fill="#000000" font-family="Helvetica" font-size="14" lengthAdjust="spacing" textLength="129.9717" x="566.0158" y="387.7803">Capacit&#233; de d&#233;cision</text><text fill="#000000" font-family="Helvetica" font-size="14" lengthAdjust="spacing" textLength="52.9307" x="566.0158" y="401.7803">expos&#233;e</text></g><!--entity tools--><g class="entity" data-qualified-name="IA-AS-A-PRODUCT .Agent..tools" data-source-line="26" id="ent0018"><rect fill="#FFFFFF" height="34" rx="7" ry="7" style="stroke:#000000;stroke-width:1;" width="97.0205" x="582.49" y="487"/><text fill="#000000" font-family="Helvetica" font-size="14" lengthAdjust="spacing" textLength="77.0205" x="592.49" y="507.7803">Outils / APIs</text></g><g class="entity" data-qualified-name="IA-AS-A-PRODUCT .Agent..GMN22" data-source-line="31" id="ent0023"><path d="M511.02,633 L511.02,655 A7,7 0 0 0 518.02,662 L743.9824,662 A7,7 0 0 0 750.9824,655 L750.9824,636 L740.9824,626 L635,626 L631,521.37 L627,626 L518.02,626 A7,7 0 0 0 511.02,633" fill="#FFFFFF" style="stroke:#000000;stroke-width:1;"/><path d="M740.9824,626 L740.9824,632.5 A3.5,3.5 0 0 0 744.4824,636 L750.9824,636 L740.9824,626" fill="#FFFFFF" style="stroke:#000000;stroke-width:1;"/><text fill="#000000" font-family="Helvetica" font-size="13" lengthAdjust="spacing" textLength="51.9302" x="517.02" y="641.0103">L'IA est l'</text><text fill="#000000" font-family="Helvetica" font-size="13" font-weight="bold" lengthAdjust="spacing" textLength="138.7153" x="568.9502" y="641.0103">interface contractuelle</text><text fill="#000000" font-family="Helvetica" font-size="13" lengthAdjust="spacing" textLength="218.9624" x="517.02" y="654.0103">Le consommateur invoque la capacit&#233;</text></g><!--link user1 to ui--><g class="link" data-entity-1="ent0003" data-entity-2="ent0005" data-link-type="dependency" data-source-line="13" id="lnk8"><path d="M123,133.23 C123,165.03 123,200.29 123,222.72" fill="none" id="user1-to-ui" style="stroke:#000000;stroke-width:1;"/><polygon fill="#000000" points="123,228.72,127,219.72,123,223.72,119,219.72,123,228.72" style="stroke:#000000;stroke-width:1;"/></g><!--link ui to biz--><g class="link" data-entity-1="ent0005" data-entity-2="ent0006" data-link-type="dependency" data-source-line="14" id="lnk9"><path d="M123,263.4 C123,289.54 123,334.36 123,360.54" fill="none" id="ui-to-biz" style="stroke:#000000;stroke-width:1;"/><polygon fill="#000000" points="123,366.54,127,357.54,123,361.54,119,357.54,123,366.54" style="stroke:#000000;stroke-width:1;"/></g><!--link biz to ia1--><g class="link" data-entity-1="ent0006" data-entity-2="ent0007" data-link-type="dependency" data-source-line="15" id="lnk10"><path d="M123,401.41 C123,423.32 123,456.01 123,478.8" fill="none" id="biz-to-ia1" style="stroke:#000000;stroke-width:1;"/><polygon fill="#000000" points="123,484.8,127,475.8,123,479.8,119,475.8,123,484.8" style="stroke:#000000;stroke-width:1;"/></g><!--link product to GMN11--><g class="link" data-entity-1="ent0004" data-entity-2="ent0012" data-link-type="association" data-source-line="17" id="lnk13"><path d="M211.2672,255.2051 C211.3708,255.3079 211.4752,255.4115 211.5805,255.516 C211.7911,255.7251 212.005,255.9374 212.2223,256.153 C213.9602,257.8781 215.9102,259.8137 218.0425,261.9303 C226.5719,270.3969 238.02,281.7613 250.4975,294.1475 C275.4525,318.92 304.525,347.78 322.6,365.72" fill="none" id="product-GMN11" style="stroke:#000000;stroke-width:1;stroke-dasharray:7,7;"/></g><!--link consumer to iface--><g class="link" data-entity-1="ent0015" data-entity-2="ent0016" data-link-type="dependency" data-source-line="27" id="lnk19"><path d="M631,112.78 C631,142.09 631,186.17 631,215.56" fill="none" id="consumer-to-iface" style="stroke:#000000;stroke-width:1;"/><polygon fill="#000000" points="631,221.56,635,212.56,631,216.56,627,212.56,631,221.56" style="stroke:#000000;stroke-width:1;"/></g><!--link iface to agent--><g class="link" data-entity-1="ent0016" data-entity-2="ent0017" data-link-type="dependency" data-source-line="28" id="lnk20"><path d="M631,270.38 C631,294.68 631,326.6 631,351.62" fill="none" id="iface-to-agent" style="stroke:#000000;stroke-width:1;"/><polygon fill="#000000" points="631,357.62,635,348.62,631,352.62,627,348.62,631,357.62" style="stroke:#000000;stroke-width:1;"/><text fill="#000000" font-family="Helvetica" font-size="13" lengthAdjust="spacing" textLength="45.5381" x="670.1145" y="311.0103">invoque</text><text fill="#000000" font-family="Helvetica" font-size="13" lengthAdjust="spacing" textLength="121.7671" x="632" y="324.0103">(intention + contexte)</text></g><!--link agent to tools--><g class="link" data-entity-1="ent0017" data-entity-2="ent0018" data-link-type="dependency" data-source-line="29" id="lnk21"><path d="M631,410.31 C631,433.47 631,461.05 631,480.79" fill="none" id="agent-to-tools" style="stroke:#000000;stroke-width:1;"/><polygon fill="#000000" points="631,486.79,635,477.79,631,481.79,627,477.79,631,486.79" style="stroke:#000000;stroke-width:1;"/><text fill="#000000" font-family="Helvetica" font-size="13" lengthAdjust="spacing" textLength="33.2363" x="632" y="451.0103">utilise</text></g><?plantuml-src PLD1Rjim4Bph5Llh44U5aRWDwgQ70efaemQ2naXge0TVQ7aj4w58bLe6Jelyftw7FzObPQTMAq22ICtExCvGRsY35KAjXDHHyoXrBQoeO2cAnz8QfrUPKSP2F0dN2MA5Q-4KJOochu8Plg1wGfA5EC7SjmHMeuNXLHJLp2fAXDuq7Spkx_9vzgq7yNWqlXwFuLS480fYiTwSf9AD87HseTTI2zK3qO1hq0uPPR4WeKl5H3DhLauIQ5VjTrR-S1YGjTyk2EARqKsUPO6xKpUVmWNClxUqyj-ljwRqLC2S9D46r5B-3B0DRaLfj9zXeVk5A3Rx7Pu7Y1H3YD-FhoQZZmnzuJjq38F1vrR4oV3UKl4phBYALzeGmj8GcGhC-ZX0KBmzcwQ03O7Ja2ILUKODKXEohKboGBY_Za5XT6CgZeH7gLj_68Lw5KIYbsuEwSFWDGpefoLgucdYF9ryc5m7uqwCUNXkQF-RgGyQXuZw6rVn-G7ZG1m8s0wFSHNQw7_diuqW7dQXBo2TJLlprgB0Os3HYSz94ffAaeNE17SkQR_ZqmUh_QwGZJHweN5RcuPZ24IX0uWlB_DtUTxLllCsDH14cm0cOrJ3e6ElRIA-5TviM_8xBUSdjlt9yC7WYNq0cbWTtlfYmYtXkJ_10Ubh0ZNNjD5WD-DkiEeiIKAYGT3JMVuJ72hrcd3NycCZe0GKHrEw8Vy1?></g></svg>