<?xml version="1.0" encoding="UTF-8" standalone="no"?>
<!DOCTYPE svg PUBLIC "-//W3C//DTD SVG 1.1//EN"
 "http://www.w3.org/Graphics/SVG/1.1/DTD/svg11.dtd">
<!-- Generated by graphviz version 2.44.1 (20200629.0846)
 -->
<!-- Pages: 1 -->
<svg width="184pt" height="52pt"
 viewBox="0.00 0.00 184.00 52.00" xmlns="http://www.w3.org/2000/svg" xmlns:xlink="http://www.w3.org/1999/xlink">
<g id="graph0" class="graph" transform="scale(1 1) rotate(0) translate(4 48)">
<polygon fill="white" stroke="transparent" points="-4,4 -4,-48 180,-48 180,4 -4,4"/>
<!-- Peter Gabriel -->
<g id="node1" class="node">
<title>Peter Gabriel</title>
<polygon fill="none" stroke="black" points="8,-22 8,-40 78,-40 78,-22 8,-22"/>
<text text-anchor="start" x="25.5" y="-28.2" font-family="Arial" font-size="11.00" fill="darkgrey">Person</text>
<polygon fill="none" stroke="black" points="8,-4 8,-22 78,-22 78,-4 8,-4"/>
<text text-anchor="start" x="11" y="-10.2" font-family="Arial" font-size="11.00" fill="darkblue">Peter Gabriel</text>
</g>
<!-- So -->
<g id="node2" class="node">
<title>So</title>
<polygon fill="none" stroke="black" points="131,-22 131,-40 168,-40 168,-22 131,-22"/>
<text text-anchor="start" x="134" y="-28.2" font-family="Arial" font-size="11.00" fill="darkgrey">Album</text>
<polygon fill="none" stroke="black" points="131,-4 131,-22 168,-22 168,-4 131,-4"/>
<text text-anchor="start" x="142.5" y="-10.2" font-family="Arial" font-size="11.00" fill="darkblue">So</text>
</g>
<!-- Peter Gabriel&#45;&#45;So -->
<g id="edge1" class="edge">
<title>Peter Gabriel&#45;&#45;So</title>
<path fill="none" stroke="black" d="M86,-22C98.07,-22 110.88,-22 121.7,-22"/>
</g>
</g>
</svg>
