<?xml version="1.0" encoding="UTF-8" standalone="no"?>
<!DOCTYPE svg PUBLIC "-//W3C//DTD SVG 1.1//EN"
 "http://www.w3.org/Graphics/SVG/1.1/DTD/svg11.dtd">
<!-- Generated by graphviz version 2.44.1 (20200629.0846)
 -->
<!-- Pages: 1 -->
<svg width="186pt" height="114pt"
 viewBox="0.00 0.00 186.00 114.00" xmlns="http://www.w3.org/2000/svg" xmlns:xlink="http://www.w3.org/1999/xlink">
<g id="graph0" class="graph" transform="scale(1 1) rotate(0) translate(4 110)">
<polygon fill="white" stroke="transparent" points="-4,4 -4,-110 182,-110 182,4 -4,4"/>
<!-- Peter Gabriel -->
<g id="node1" class="node">
<title>Peter Gabriel</title>
<polygon fill="none" stroke="black" points="9,-84 9,-102 79,-102 79,-84 9,-84"/>
<text text-anchor="start" x="26.5" y="-90.2" font-family="Arial" font-size="11.00" fill="darkgrey">Person</text>
<polygon fill="none" stroke="black" points="9,-66 9,-84 79,-84 79,-66 9,-66"/>
<text text-anchor="start" x="12" y="-72.2" font-family="Arial" font-size="11.00" fill="darkblue">Peter Gabriel</text>
</g>
<!-- So -->
<g id="node3" class="node">
<title>So</title>
<polygon fill="none" stroke="black" points="133,-53 133,-71 170,-71 170,-53 133,-53"/>
<text text-anchor="start" x="136" y="-59.2" font-family="Arial" font-size="11.00" fill="darkgrey">Album</text>
<polygon fill="none" stroke="black" points="133,-35 133,-53 170,-53 170,-35 133,-35"/>
<text text-anchor="start" x="144.5" y="-41.2" font-family="Arial" font-size="11.00" fill="darkblue">So</text>
</g>
<!-- Peter Gabriel&#45;&#45;So -->
<g id="edge2" class="edge">
<title>Peter Gabriel&#45;&#45;So</title>
<path fill="none" stroke="black" d="M87.1,-71.57C99.54,-67.9 112.79,-63.99 123.9,-60.7"/>
</g>
<!-- Daniel Lanois -->
<g id="node2" class="node">
<title>Daniel Lanois</title>
<polygon fill="none" stroke="black" points="8,-22 8,-40 80,-40 80,-22 8,-22"/>
<text text-anchor="start" x="26.5" y="-28.2" font-family="Arial" font-size="11.00" fill="darkgrey">Person</text>
<polygon fill="none" stroke="black" points="8,-4 8,-22 80,-22 80,-4 8,-4"/>
<text text-anchor="start" x="11" y="-10.2" font-family="Arial" font-size="11.00" fill="darkblue">Daniel Lanois</text>
</g>
<!-- Daniel Lanois&#45;&#45;So -->
<g id="edge1" class="edge">
<title>Daniel Lanois&#45;&#45;So</title>
<path fill="none" stroke="black" d="M88.01,-34.7C100.13,-38.28 112.95,-42.06 123.76,-45.25"/>
</g>
</g>
</svg>
