<?xml version="1.0" encoding="UTF-8" standalone="no"?>
<!DOCTYPE svg PUBLIC "-//W3C//DTD SVG 1.1//EN"
 "http://www.w3.org/Graphics/SVG/1.1/DTD/svg11.dtd">
<!-- Generated by graphviz version 2.44.1 (20200629.0846)
 -->
<!-- Pages: 1 -->
<svg width="157pt" height="131pt"
 viewBox="0.00 0.00 156.55 131.00" xmlns="http://www.w3.org/2000/svg" xmlns:xlink="http://www.w3.org/1999/xlink">
<g id="graph0" class="graph" transform="scale(1 1) rotate(0) translate(4 127)">
<polygon fill="white" stroke="transparent" points="-4,4 -4,-127 152.55,-127 152.55,4 -4,4"/>
<!-- Peter Gabriel -->
<g id="node1" class="node">
<title>Peter Gabriel</title>
<ellipse fill="none" stroke="black" cx="63.55" cy="-105" rx="57.69" ry="18"/>
<text text-anchor="middle" x="63.55" y="-101.3" font-family="Times,serif" font-size="14.00">Peter Gabriel</text>
</g>
<!-- Artist -->
<g id="node2" class="node">
<title>Artist</title>
<ellipse fill="none" stroke="black" cx="30.55" cy="-18" rx="30.59" ry="18"/>
<text text-anchor="middle" x="30.55" y="-14.3" font-family="Times,serif" font-size="14.00">Artist</text>
</g>
<!-- Peter Gabriel&#45;&gt;Artist -->
<g id="edge1" class="edge">
<title>Peter Gabriel&#45;&gt;Artist</title>
<path fill="none" stroke="black" d="M53.28,-86.93C50.2,-81.34 46.99,-75.02 44.55,-69 41.57,-61.65 38.98,-53.44 36.87,-45.84"/>
<polygon fill="black" stroke="black" points="40.21,-44.77 34.3,-35.98 33.44,-46.54 40.21,-44.77"/>
</g>
<!-- So -->
<g id="node3" class="node">
<title>So</title>
<ellipse fill="none" stroke="black" cx="107.55" cy="-18" rx="27" ry="18"/>
<text text-anchor="middle" x="107.55" y="-14.3" font-family="Times,serif" font-size="14.00">So</text>
</g>
<!-- Peter Gabriel&#45;&gt;So -->
<g id="edge2" class="edge">
<title>Peter Gabriel&#45;&gt;So</title>
<path fill="none" stroke="black" d="M60.44,-86.96C59.42,-76.88 59.6,-64.14 64.55,-54 67.85,-47.22 73.17,-41.31 78.95,-36.37"/>
<polygon fill="black" stroke="black" points="81.14,-39.1 86.97,-30.26 76.9,-33.53 81.14,-39.1"/>
<text text-anchor="middle" x="76.05" y="-57.8" font-family="Times,serif" font-size="14.00">sing</text>
</g>
<!-- Peter Gabriel&#45;&gt;So -->
<g id="edge3" class="edge">
<title>Peter Gabriel&#45;&gt;So</title>
<path fill="none" stroke="black" d="M76.05,-87.38C80.01,-81.72 84.21,-75.24 87.55,-69 91.58,-61.46 95.28,-52.93 98.37,-45.08"/>
<polygon fill="black" stroke="black" points="101.68,-46.22 101.94,-35.62 95.14,-43.74 101.68,-46.22"/>
<text text-anchor="middle" x="121.55" y="-57.8" font-family="Times,serif" font-size="14.00">composer</text>
</g>
</g>
</svg>
