<?xml version="1.0" encoding="UTF-8" standalone="no"?>
<!DOCTYPE svg PUBLIC "-//W3C//DTD SVG 1.1//EN"
 "http://www.w3.org/Graphics/SVG/1.1/DTD/svg11.dtd">
<!-- Generated by graphviz version 2.36.0 (20140111.2315)
 -->
<!-- Title: G Pages: 1 -->
<svg width="1771pt" height="396pt"
 viewBox="0.00 0.00 1771.00 396.00" xmlns="http://www.w3.org/2000/svg" xmlns:xlink="http://www.w3.org/1999/xlink">
<g id="graph0" class="graph" transform="scale(1 1) rotate(0) translate(4 392)">
<title>G</title>
<polygon fill="white" stroke="none" points="-4,4 -4,-392 1767,-392 1767,4 -4,4"/>
<!-- topology_template -->
<g id="node1" class="node"><title>topology_template</title>
<ellipse fill="none" stroke="black" cx="847" cy="-282" rx="77.0154" ry="18"/>
<text text-anchor="middle" x="847" y="-278.3" font-family="Times,serif" font-size="14.00">topology_template</text>
</g>
<!-- database_name -->
<g id="node2" class="node"><title>database_name</title>
<ellipse fill="none" stroke="black" cx="649" cy="-194" rx="64.4914" ry="18"/>
<text text-anchor="middle" x="649" y="-190.3" font-family="Times,serif" font-size="14.00">database_name</text>
</g>
<!-- topology_template&#45;&gt;database_name -->
<g id="edge1" class="edge"><title>topology_template&#45;&gt;database_name</title>
<path fill="none" stroke="black" d="M819.717,-265.017C810.419,-259.291 800.084,-252.613 791,-246 782.075,-239.503 781.748,-235.182 772,-230 760.223,-223.74 732.406,-215.646 706.2,-208.819"/>
<polygon fill="black" stroke="black" points="706.829,-205.367 696.273,-206.271 705.088,-212.147 706.829,-205.367"/>
<text text-anchor="middle" x="805" y="-234.3" font-family="Times,serif" font-size="14.00">input</text>
</g>
<!-- database_user -->
<g id="node3" class="node"><title>database_user</title>
<ellipse fill="none" stroke="black" cx="506" cy="-194" rx="59.1941" ry="18"/>
<text text-anchor="middle" x="506" y="-190.3" font-family="Times,serif" font-size="14.00">database_user</text>
</g>
<!-- topology_template&#45;&gt;database_user -->
<g id="edge2" class="edge"><title>topology_template&#45;&gt;database_user</title>
<path fill="none" stroke="black" d="M788.145,-270.224C760.898,-264.418 728.354,-256.308 700,-246 685.056,-240.567 683.056,-235.114 668,-230 628.136,-216.461 616.119,-221.039 575,-212 570.08,-210.919 564.975,-209.75 559.868,-208.549"/>
<polygon fill="black" stroke="black" points="560.633,-205.133 550.094,-206.214 559.007,-211.942 560.633,-205.133"/>
<text text-anchor="middle" x="714" y="-234.3" font-family="Times,serif" font-size="14.00">input</text>
</g>
<!-- database_password -->
<g id="node4" class="node"><title>database_password</title>
<ellipse fill="none" stroke="black" cx="1013" cy="-194" rx="78.4642" ry="18"/>
<text text-anchor="middle" x="1013" y="-190.3" font-family="Times,serif" font-size="14.00">database_password</text>
</g>
<!-- topology_template&#45;&gt;database_password -->
<g id="edge3" class="edge"><title>topology_template&#45;&gt;database_password</title>
<path fill="none" stroke="black" d="M877.447,-265.226C904.474,-251.224 944.13,-230.68 973.574,-215.426"/>
<polygon fill="black" stroke="black" points="975.477,-218.382 982.746,-210.674 972.257,-212.166 975.477,-218.382"/>
<text text-anchor="middle" x="959" y="-234.3" font-family="Times,serif" font-size="14.00">input</text>
</g>
<!-- database_port -->
<g id="node5" class="node"><title>database_port</title>
<ellipse fill="none" stroke="black" cx="792" cy="-194" rx="59.1941" ry="18"/>
<text text-anchor="middle" x="792" y="-190.3" font-family="Times,serif" font-size="14.00">database_port</text>
</g>
<!-- topology_template&#45;&gt;database_port -->
<g id="edge4" class="edge"><title>topology_template&#45;&gt;database_port</title>
<path fill="none" stroke="black" d="M840.366,-263.819C836.076,-253.61 829.997,-240.624 823,-230 820.639,-226.416 817.932,-222.819 815.121,-219.367"/>
<polygon fill="black" stroke="black" points="817.662,-216.955 808.489,-211.653 812.354,-221.518 817.662,-216.955"/>
<text text-anchor="middle" x="846" y="-234.3" font-family="Times,serif" font-size="14.00">input</text>
</g>
<!-- mysql_rootpw -->
<g id="node6" class="node"><title>mysql_rootpw</title>
<ellipse fill="none" stroke="black" cx="1264" cy="-106" rx="61.6163" ry="18"/>
<text text-anchor="middle" x="1264" y="-102.3" font-family="Times,serif" font-size="14.00">mysql_rootpw</text>
</g>
<!-- topology_template&#45;&gt;mysql_rootpw -->
<g id="edge5" class="edge"><title>topology_template&#45;&gt;mysql_rootpw</title>
<path fill="none" stroke="black" d="M902.579,-269.457C912.994,-267.488 923.81,-265.574 934,-264 968.924,-258.607 1063.2,-266.476 1092,-246 1133.8,-216.282 1102.81,-175.08 1142,-142 1157.63,-128.808 1177.96,-120.581 1197.54,-115.453"/>
<polygon fill="black" stroke="black" points="1198.45,-118.834 1207.36,-113.11 1196.82,-112.025 1198.45,-118.834"/>
<text text-anchor="middle" x="1135" y="-190.3" font-family="Times,serif" font-size="14.00">input</text>
</g>
<!-- mysql_port -->
<g id="node7" class="node"><title>mysql_port</title>
<ellipse fill="none" stroke="black" cx="942" cy="-106" rx="51.0191" ry="18"/>
<text text-anchor="middle" x="942" y="-102.3" font-family="Times,serif" font-size="14.00">mysql_port</text>
</g>
<!-- topology_template&#45;&gt;mysql_port -->
<g id="edge6" class="edge"><title>topology_template&#45;&gt;mysql_port</title>
<path fill="none" stroke="black" d="M855.341,-263.929C858.11,-258.234 861.201,-251.85 864,-246 878.847,-214.975 880.233,-206.031 897,-176 905.384,-160.984 915.82,-144.851 924.531,-131.963"/>
<polygon fill="black" stroke="black" points="927.486,-133.843 930.24,-123.612 921.707,-129.892 927.486,-133.843"/>
<text text-anchor="middle" x="911" y="-190.3" font-family="Times,serif" font-size="14.00">input</text>
</g>
<!-- my_db -->
<g id="node8" class="node"><title>my_db</title>
<ellipse fill="none" stroke="black" cx="649" cy="-370" rx="35.6194" ry="18"/>
<text text-anchor="middle" x="649" y="-366.3" font-family="Times,serif" font-size="14.00">my_db</text>
</g>
<!-- tosca.nodes.Database.MySQL -->
<g id="node9" class="node"><title>tosca.nodes.Database.MySQL</title>
<ellipse fill="none" stroke="black" cx="301" cy="-282" rx="117.935" ry="18"/>
<text text-anchor="middle" x="301" y="-278.3" font-family="Times,serif" font-size="14.00">tosca.nodes.Database.MySQL</text>
</g>
<!-- my_db&#45;&gt;tosca.nodes.Database.MySQL -->
<g id="edge7" class="edge"><title>my_db&#45;&gt;tosca.nodes.Database.MySQL</title>
<path fill="none" stroke="black" d="M615.209,-364.57C575.707,-359.029 508.533,-348.482 452,-334 418.164,-325.332 380.983,-312.813 351.982,-302.347"/>
<polygon fill="black" stroke="black" points="353.072,-299.019 342.478,-298.885 350.676,-305.596 353.072,-299.019"/>
<text text-anchor="middle" x="464" y="-322.3" font-family="Times,serif" font-size="14.00">type</text>
</g>
<!-- name -->
<g id="node10" class="node"><title>name</title>
<ellipse fill="none" stroke="black" cx="636" cy="-282" rx="30.3206" ry="18"/>
<text text-anchor="middle" x="636" y="-278.3" font-family="Times,serif" font-size="14.00">name</text>
</g>
<!-- my_db&#45;&gt;name -->
<g id="edge8" class="edge"><title>my_db&#45;&gt;name</title>
<path fill="none" stroke="black" d="M646.432,-352.009C644.615,-339.995 642.143,-323.641 640.062,-309.869"/>
<polygon fill="black" stroke="black" points="643.518,-309.32 638.563,-299.956 636.597,-310.366 643.518,-309.32"/>
<text text-anchor="middle" x="667" y="-322.3" font-family="Times,serif" font-size="14.00">property</text>
</g>
<!-- user -->
<g id="node11" class="node"><title>user</title>
<ellipse fill="none" stroke="black" cx="464" cy="-282" rx="27" ry="18"/>
<text text-anchor="middle" x="464" y="-278.3" font-family="Times,serif" font-size="14.00">user</text>
</g>
<!-- my_db&#45;&gt;user -->
<g id="edge10" class="edge"><title>my_db&#45;&gt;user</title>
<path fill="none" stroke="black" d="M613.404,-368.821C579.675,-366.962 529.094,-359.619 494,-334 485.379,-327.707 478.814,-318.12 474.056,-308.951"/>
<polygon fill="black" stroke="black" points="477.141,-307.285 469.742,-299.702 470.797,-310.244 477.141,-307.285"/>
<text text-anchor="middle" x="517" y="-322.3" font-family="Times,serif" font-size="14.00">property</text>
</g>
<!-- password -->
<g id="node12" class="node"><title>password</title>
<ellipse fill="none" stroke="black" cx="1089" cy="-282" rx="44.2946" ry="18"/>
<text text-anchor="middle" x="1089" y="-278.3" font-family="Times,serif" font-size="14.00">password</text>
</g>
<!-- my_db&#45;&gt;password -->
<g id="edge12" class="edge"><title>my_db&#45;&gt;password</title>
<path fill="none" stroke="black" d="M683.832,-366.068C735.063,-361.388 833.58,-350.984 916,-334 970.292,-322.812 982.934,-316.023 1036,-300 1039.29,-299.006 1042.69,-297.96 1046.11,-296.896"/>
<polygon fill="black" stroke="black" points="1047.21,-300.219 1055.69,-293.876 1045.1,-293.543 1047.21,-300.219"/>
<text text-anchor="middle" x="1002" y="-322.3" font-family="Times,serif" font-size="14.00">property</text>
</g>
<!-- dbport -->
<g id="node13" class="node"><title>dbport</title>
<ellipse fill="none" stroke="black" cx="718" cy="-282" rx="33.1991" ry="18"/>
<text text-anchor="middle" x="718" y="-278.3" font-family="Times,serif" font-size="14.00">dbport</text>
</g>
<!-- my_db&#45;&gt;dbport -->
<g id="edge14" class="edge"><title>my_db&#45;&gt;dbport</title>
<path fill="none" stroke="black" d="M670.493,-355.47C678.604,-349.601 687.446,-342.192 694,-334 699.8,-326.751 704.597,-317.87 708.339,-309.563"/>
<polygon fill="black" stroke="black" points="711.622,-310.783 712.242,-300.206 705.162,-308.087 711.622,-310.783"/>
<text text-anchor="middle" x="727" y="-322.3" font-family="Times,serif" font-size="14.00">property</text>
</g>
<!-- db_content -->
<g id="node14" class="node"><title>db_content</title>
<ellipse fill="none" stroke="black" cx="188" cy="-106" rx="50.0684" ry="18"/>
<text text-anchor="middle" x="188" y="-102.3" font-family="Times,serif" font-size="14.00">db_content</text>
</g>
<!-- my_db&#45;&gt;db_content -->
<g id="edge16" class="edge"><title>my_db&#45;&gt;db_content</title>
<path fill="none" stroke="black" d="M613.31,-369.549C512.785,-370.256 230.903,-366.192 174,-300 133.738,-253.166 158.523,-174.065 175.694,-133.194"/>
<polygon fill="black" stroke="black" points="178.956,-134.469 179.745,-123.904 172.54,-131.671 178.956,-134.469"/>
<text text-anchor="middle" x="172.5" y="-234.3" font-family="Times,serif" font-size="14.00">artifact</text>
</g>
<!-- Standard -->
<g id="node17" class="node"><title>Standard</title>
<ellipse fill="none" stroke="black" cx="985" cy="-282" rx="42.3701" ry="18"/>
<text text-anchor="middle" x="985" y="-278.3" font-family="Times,serif" font-size="14.00">Standard</text>
</g>
<!-- my_db&#45;&gt;Standard -->
<g id="edge19" class="edge"><title>my_db&#45;&gt;Standard</title>
<path fill="none" stroke="black" d="M681.155,-362.043C734.021,-350.414 842.469,-325.754 933,-300 936.392,-299.035 939.893,-297.993 943.401,-296.915"/>
<polygon fill="black" stroke="black" points="944.734,-300.165 953.22,-293.822 942.63,-293.489 944.734,-300.165"/>
<text text-anchor="middle" x="888" y="-322.3" font-family="Times,serif" font-size="14.00">interface</text>
</g>
<!-- create -->
<g id="node18" class="node"><title>create</title>
<ellipse fill="none" stroke="black" cx="541" cy="-282" rx="31.2735" ry="18"/>
<text text-anchor="middle" x="541" y="-278.3" font-family="Times,serif" font-size="14.00">create</text>
</g>
<!-- my_db&#45;&gt;create -->
<g id="edge20" class="edge"><title>my_db&#45;&gt;create</title>
<path fill="none" stroke="black" d="M614.679,-365.323C593.294,-361.207 566.911,-352.485 551,-334 545.454,-327.557 542.636,-318.948 541.289,-310.641"/>
<polygon fill="black" stroke="black" points="544.749,-310.069 540.275,-300.465 537.784,-310.763 544.749,-310.069"/>
<text text-anchor="middle" x="594.5" y="-322.3" font-family="Times,serif" font-size="14.00">interface_create</text>
</g>
<!-- mysql -->
<g id="node19" class="node"><title>mysql</title>
<ellipse fill="none" stroke="black" cx="1357" cy="-282" rx="32.2457" ry="18"/>
<text text-anchor="middle" x="1357" y="-278.3" font-family="Times,serif" font-size="14.00">mysql</text>
</g>
<!-- my_db&#45;&gt;mysql -->
<g id="edge21" class="edge"><title>my_db&#45;&gt;mysql</title>
<path fill="none" stroke="black" d="M683.918,-366.517C750.952,-361.587 902.266,-349.674 1029,-334 1133.08,-321.129 1254.92,-300.787 1316.69,-290.098"/>
<polygon fill="black" stroke="black" points="1317.54,-293.504 1326.79,-288.344 1316.34,-286.607 1317.54,-293.504"/>
<text text-anchor="middle" x="1160" y="-322.3" font-family="Times,serif" font-size="14.00">requires</text>
</g>
<!-- name&#45;&gt;database_name -->
<g id="edge9" class="edge"><title>name&#45;&gt;database_name</title>
<path fill="none" stroke="black" d="M635.545,-263.881C635.56,-253.925 636.06,-241.175 638,-230 638.464,-227.327 639.078,-224.575 639.779,-221.843"/>
<polygon fill="black" stroke="black" points="643.146,-222.802 642.59,-212.222 636.426,-220.839 643.146,-222.802"/>
<text text-anchor="middle" x="653" y="-234.3" font-family="Times,serif" font-size="14.00">value</text>
</g>
<!-- user&#45;&gt;database_user -->
<g id="edge11" class="edge"><title>user&#45;&gt;database_user</title>
<path fill="none" stroke="black" d="M444.607,-269.455C430.235,-259.374 414.636,-244.178 424,-230 430.074,-220.803 439.113,-214.015 448.997,-209.007"/>
<polygon fill="black" stroke="black" points="450.537,-212.152 458.251,-204.89 447.692,-205.757 450.537,-212.152"/>
<text text-anchor="middle" x="439" y="-234.3" font-family="Times,serif" font-size="14.00">value</text>
</g>
<!-- password&#45;&gt;database_password -->
<g id="edge13" class="edge"><title>password&#45;&gt;database_password</title>
<path fill="none" stroke="black" d="M1074.7,-264.824C1063.39,-252.015 1047.39,-233.919 1034.53,-219.359"/>
<polygon fill="black" stroke="black" points="1036.99,-216.866 1027.75,-211.69 1031.75,-221.501 1036.99,-216.866"/>
<text text-anchor="middle" x="1073" y="-234.3" font-family="Times,serif" font-size="14.00">value</text>
</g>
<!-- dbport&#45;&gt;database_port -->
<g id="edge15" class="edge"><title>dbport&#45;&gt;database_port</title>
<path fill="none" stroke="black" d="M723.402,-264.125C727.373,-253.533 733.553,-240.029 742,-230 746.211,-225.001 751.295,-220.378 756.588,-216.242"/>
<polygon fill="black" stroke="black" points="758.94,-218.86 764.981,-210.156 754.831,-213.192 758.94,-218.86"/>
<text text-anchor="middle" x="757" y="-234.3" font-family="Times,serif" font-size="14.00">value</text>
</g>
<!-- files/my_db_content.txt -->
<g id="node15" class="node"><title>files/my_db_content.txt</title>
<ellipse fill="none" stroke="black" cx="94" cy="-18" rx="94.338" ry="18"/>
<text text-anchor="middle" x="94" y="-14.3" font-family="Times,serif" font-size="14.00">files/my_db_content.txt</text>
</g>
<!-- db_content&#45;&gt;files/my_db_content.txt -->
<g id="edge17" class="edge"><title>db_content&#45;&gt;files/my_db_content.txt</title>
<path fill="none" stroke="black" d="M170.319,-88.8241C156.06,-75.778 135.805,-57.2472 119.745,-42.554"/>
<polygon fill="black" stroke="black" points="121.983,-39.8579 112.243,-35.69 117.258,-45.0225 121.983,-39.8579"/>
<text text-anchor="middle" x="159.5" y="-58.3" font-family="Times,serif" font-size="14.00">file</text>
</g>
<!-- tosca.artifacts.File -->
<g id="node16" class="node"><title>tosca.artifacts.File</title>
<ellipse fill="none" stroke="black" cx="282" cy="-18" rx="75.0904" ry="18"/>
<text text-anchor="middle" x="282" y="-14.3" font-family="Times,serif" font-size="14.00">tosca.artifacts.File</text>
</g>
<!-- db_content&#45;&gt;tosca.artifacts.File -->
<g id="edge18" class="edge"><title>db_content&#45;&gt;tosca.artifacts.File</title>
<path fill="none" stroke="black" d="M205.681,-88.8241C219.94,-75.778 240.195,-57.2472 256.255,-42.554"/>
<polygon fill="black" stroke="black" points="258.742,-45.0225 263.757,-35.69 254.017,-39.8579 258.742,-45.0225"/>
<text text-anchor="middle" x="256" y="-58.3" font-family="Times,serif" font-size="14.00">type</text>
</g>
<!-- db_create.sh -->
<g id="node20" class="node"><title>db_create.sh</title>
<ellipse fill="none" stroke="black" cx="373" cy="-194" rx="55.3682" ry="18"/>
<text text-anchor="middle" x="373" y="-190.3" font-family="Times,serif" font-size="14.00">db_create.sh</text>
</g>
<!-- create&#45;&gt;db_create.sh -->
<g id="edge22" class="edge"><title>create&#45;&gt;db_create.sh</title>
<path fill="none" stroke="black" d="M533.198,-264.41C527.057,-253.101 517.459,-238.66 505,-230 479.33,-212.156 467.219,-220.013 437,-212 432.875,-210.906 428.6,-209.772 424.305,-208.632"/>
<polygon fill="black" stroke="black" points="424.875,-205.162 414.312,-205.979 423.079,-211.928 424.875,-205.162"/>
<text text-anchor="middle" x="564.5" y="-234.3" font-family="Times,serif" font-size="14.00">implementation</text>
</g>
<!-- db_data -->
<g id="node21" class="node"><title>db_data</title>
<ellipse fill="none" stroke="black" cx="245" cy="-194" rx="38.0212" ry="18"/>
<text text-anchor="middle" x="245" y="-190.3" font-family="Times,serif" font-size="14.00">db_data</text>
</g>
<!-- create&#45;&gt;db_data -->
<g id="edge23" class="edge"><title>create&#45;&gt;db_data</title>
<path fill="none" stroke="black" d="M516.975,-270.265C503.614,-263.898 486.924,-255.275 473,-246 463.812,-239.88 464.117,-234.418 454,-230 394.487,-204.013 372.751,-224.364 309,-212 301.706,-210.585 294.017,-208.802 286.596,-206.925"/>
<polygon fill="black" stroke="black" points="287.266,-203.483 276.705,-204.335 285.492,-210.254 287.266,-203.483"/>
<text text-anchor="middle" x="487" y="-234.3" font-family="Times,serif" font-size="14.00">input</text>
</g>
<!-- tosca.nodes.DBMS.MySQL -->
<g id="node22" class="node"><title>tosca.nodes.DBMS.MySQL</title>
<ellipse fill="none" stroke="black" cx="1357" cy="-194" rx="111.21" ry="18"/>
<text text-anchor="middle" x="1357" y="-190.3" font-family="Times,serif" font-size="14.00">tosca.nodes.DBMS.MySQL</text>
</g>
<!-- mysql&#45;&gt;tosca.nodes.DBMS.MySQL -->
<g id="edge25" class="edge"><title>mysql&#45;&gt;tosca.nodes.DBMS.MySQL</title>
<path fill="none" stroke="black" d="M1357,-263.597C1357,-251.746 1357,-235.817 1357,-222.292"/>
<polygon fill="black" stroke="black" points="1360.5,-222.084 1357,-212.084 1353.5,-222.084 1360.5,-222.084"/>
<text text-anchor="middle" x="1369" y="-234.3" font-family="Times,serif" font-size="14.00">type</text>
</g>
<!-- root_password -->
<g id="node23" class="node"><title>root_password</title>
<ellipse fill="none" stroke="black" cx="1549" cy="-194" rx="62.0922" ry="18"/>
<text text-anchor="middle" x="1549" y="-190.3" font-family="Times,serif" font-size="14.00">root_password</text>
</g>
<!-- mysql&#45;&gt;root_password -->
<g id="edge26" class="edge"><title>mysql&#45;&gt;root_password</title>
<path fill="none" stroke="black" d="M1381.32,-270.108C1412.95,-255.941 1468.69,-230.972 1507.17,-213.735"/>
<polygon fill="black" stroke="black" points="1508.86,-216.813 1516.56,-209.531 1506,-210.425 1508.86,-216.813"/>
<text text-anchor="middle" x="1494" y="-234.3" font-family="Times,serif" font-size="14.00">property</text>
</g>
<!-- port -->
<g id="node24" class="node"><title>port</title>
<ellipse fill="none" stroke="black" cx="1201" cy="-194" rx="27" ry="18"/>
<text text-anchor="middle" x="1201" y="-190.3" font-family="Times,serif" font-size="14.00">port</text>
</g>
<!-- mysql&#45;&gt;port -->
<g id="edge28" class="edge"><title>mysql&#45;&gt;port</title>
<path fill="none" stroke="black" d="M1334.65,-268.678C1307.16,-253.526 1260.44,-227.768 1230.16,-211.073"/>
<polygon fill="black" stroke="black" points="1231.77,-207.967 1221.32,-206.204 1228.39,-214.097 1231.77,-207.967"/>
<text text-anchor="middle" x="1316" y="-234.3" font-family="Times,serif" font-size="14.00">property</text>
</g>
<!-- db_server -->
<g id="node25" class="node"><title>db_server</title>
<ellipse fill="none" stroke="black" cx="1675" cy="-194" rx="45.244" ry="18"/>
<text text-anchor="middle" x="1675" y="-190.3" font-family="Times,serif" font-size="14.00">db_server</text>
</g>
<!-- mysql&#45;&gt;db_server -->
<g id="edge30" class="edge"><title>mysql&#45;&gt;db_server</title>
<path fill="none" stroke="black" d="M1387.16,-275.59C1420.24,-269.419 1474.78,-258.545 1521,-246 1559.51,-235.549 1602.56,-221.046 1633.33,-210.177"/>
<polygon fill="black" stroke="black" points="1634.62,-213.434 1642.87,-206.786 1632.27,-206.838 1634.62,-213.434"/>
<text text-anchor="middle" x="1595" y="-234.3" font-family="Times,serif" font-size="14.00">requires</text>
</g>
<!-- db_data&#45;&gt;db_content -->
<g id="edge24" class="edge"><title>db_data&#45;&gt;db_content</title>
<path fill="none" stroke="black" d="M234.01,-176.418C225.705,-163.888 214.161,-146.471 204.714,-132.218"/>
<polygon fill="black" stroke="black" points="207.593,-130.226 199.151,-123.824 201.758,-134.093 207.593,-130.226"/>
<text text-anchor="middle" x="237" y="-146.3" font-family="Times,serif" font-size="14.00">value</text>
</g>
<!-- root_password&#45;&gt;mysql_rootpw -->
<g id="edge27" class="edge"><title>root_password&#45;&gt;mysql_rootpw</title>
<path fill="none" stroke="black" d="M1507.56,-180.495C1456.69,-165.145 1370.43,-139.114 1315.39,-122.507"/>
<polygon fill="black" stroke="black" points="1316.08,-119.058 1305.49,-119.52 1314.05,-125.76 1316.08,-119.058"/>
<text text-anchor="middle" x="1448" y="-146.3" font-family="Times,serif" font-size="14.00">value</text>
</g>
<!-- port&#45;&gt;mysql_port -->
<g id="edge29" class="edge"><title>port&#45;&gt;mysql_port</title>
<path fill="none" stroke="black" d="M1179.01,-183.471C1172.9,-180.935 1166.23,-178.271 1160,-176 1102.27,-154.941 1034.65,-134.122 990.208,-120.952"/>
<polygon fill="black" stroke="black" points="991.118,-117.571 980.537,-118.098 989.137,-124.285 991.118,-117.571"/>
<text text-anchor="middle" x="1122" y="-146.3" font-family="Times,serif" font-size="14.00">value</text>
</g>
<!-- tosca.nodes.Compute -->
<g id="node26" class="node"><title>tosca.nodes.Compute</title>
<ellipse fill="none" stroke="black" cx="1675" cy="-106" rx="87.1385" ry="18"/>
<text text-anchor="middle" x="1675" y="-102.3" font-family="Times,serif" font-size="14.00">tosca.nodes.Compute</text>
</g>
<!-- db_server&#45;&gt;tosca.nodes.Compute -->
<g id="edge31" class="edge"><title>db_server&#45;&gt;tosca.nodes.Compute</title>
<path fill="none" stroke="black" d="M1675,-175.597C1675,-163.746 1675,-147.817 1675,-134.292"/>
<polygon fill="black" stroke="black" points="1678.5,-134.084 1675,-124.084 1671.5,-134.084 1678.5,-134.084"/>
<text text-anchor="middle" x="1687" y="-146.3" font-family="Times,serif" font-size="14.00">type</text>
</g>
</g>
</svg>
