<?plantuml 1.2026.1?><svg xmlns="http://www.w3.org/2000/svg" xmlns:xlink="http://www.w3.org/1999/xlink" contentStyleType="text/css" data-diagram-type="DESCRIPTION" height="206px" preserveAspectRatio="none" style="width:2128px;height:206px;background:#FFFFFF;" version="1.1" viewBox="0 0 2128 206" width="2128px" zoomAndPan="magnify"><defs/><g><!--entity AUTHOR--><g class="entity" data-qualified-name="AUTHOR" data-source-line="20" id="ent0002"><ellipse cx="45.4468" cy="20.23" fill="#EAF4FB" rx="8" ry="8" style="stroke:#0E2356;stroke-width:0.5;"/><path d="M45.4468,28.23 L45.4468,55.23 M32.4468,36.23 L58.4468,36.23 M45.4468,55.23 L32.4468,70.23 M45.4468,55.23 L58.4468,70.23" fill="none" style="stroke:#0E2356;stroke-width:0.5;"/><text fill="#000000" font-family="monospace" font-size="14" lengthAdjust="spacing" textLength="78.8936" x="6" y="85.2652">Skill&#160;Author</text></g><!--entity REPO--><g class="entity" data-qualified-name="REPO" data-source-line="21" id="ent0003"><rect fill="#EAF4FB" height="52.9766" rx="2.5" ry="2.5" style="stroke:#0E2356;stroke-width:0.5;" width="124.4189" x="197.89" y="23.49"/><text fill="#000000" font-family="monospace" font-size="14" lengthAdjust="spacing" textLength="104.4189" x="207.89" y="47.0252">Skill&#160;Repository</text><text fill="#000000" font-family="monospace" font-size="14" lengthAdjust="spacing" textLength="27.1182" x="207.89" y="63.5134">(git)</text></g><!--entity G1--><g class="entity" data-qualified-name="G1" data-source-line="22" id="ent0004"><rect fill="#FFE9D6" height="85.9531" rx="2.5" ry="2.5" style="stroke:#0E2356;stroke-width:0.5;" width="153.8887" x="456.03" y="7"/><text fill="#000000" font-family="monospace" font-size="14" lengthAdjust="spacing" textLength="110.2842" x="466.03" y="30.5352">Gate&#160;1&#160;-&#160;Publish</text><text fill="#000000" font-family="monospace" font-size="14" lengthAdjust="spacing" textLength="4.4297" x="466.03" y="47.0234">&#160;</text><text fill="#000000" font-family="monospace" font-size="14" lengthAdjust="spacing" textLength="71.2578" x="466.03" y="63.5117">Skill&#160;Linter</text><text fill="#000000" font-family="monospace" font-size="14" lengthAdjust="spacing" textLength="133.8887" x="466.03" y="80">POST&#160;/validate_skill</text></g><!--entity REG--><g class="entity" data-qualified-name="REG" data-source-line="23" id="ent0005"><path d="M812.63,28.99 C812.63,18.99 870.191,18.99 870.191,18.99 C870.191,18.99 927.7521,18.99 927.7521,28.99 L927.7521,70.9666 C927.7521,80.9666 870.191,80.9666 870.191,80.9666 C870.191,80.9666 812.63,80.9666 812.63,70.9666 L812.63,28.99" fill="#EAF4FB" style="stroke:#0E2356;stroke-width:0.5;"/><path d="M812.63,28.99 C812.63,38.99 870.191,38.99 870.191,38.99 C870.191,38.99 927.7521,38.99 927.7521,28.99" fill="none" style="stroke:#0E2356;stroke-width:0.5;"/><text fill="#000000" font-family="monospace" font-size="14" lengthAdjust="spacing" textLength="87.1377" x="822.63" y="56.5252">Skill&#160;Registry</text><text fill="#000000" font-family="monospace" font-size="14" lengthAdjust="spacing" textLength="95.1221" x="822.63" y="73.0134">(authoritative)</text></g><!--entity G2--><g class="entity" data-qualified-name="G2" data-source-line="24" id="ent0006"><rect fill="#FFE9D6" height="85.9531" rx="2.5" ry="2.5" style="stroke:#0E2356;stroke-width:0.5;" width="122.0469" x="1068.42" y="7"/><text fill="#000000" font-family="monospace" font-size="14" lengthAdjust="spacing" textLength="102.0469" x="1078.42" y="30.5352">Gate&#160;2&#160;-&#160;Install</text><text fill="#000000" font-family="monospace" font-size="14" lengthAdjust="spacing" textLength="4.4297" x="1078.42" y="47.0234">&#160;</text><text fill="#000000" font-family="monospace" font-size="14" lengthAdjust="spacing" textLength="91.2461" x="1078.42" y="63.5117">hash&#160;check&#160;+</text><text fill="#000000" font-family="monospace" font-size="14" lengthAdjust="spacing" textLength="79.7139" x="1078.42" y="80">revalidation</text></g><!--entity LOCAL--><g class="entity" data-qualified-name="LOCAL" data-source-line="25" id="ent0007"><rect fill="#EAF4FB" height="52.9766" rx="2.5" ry="2.5" style="stroke:#0E2356;stroke-width:0.5;" width="142.3564" x="1355.13" y="23.49"/><text fill="#000000" font-family="monospace" font-size="14" lengthAdjust="spacing" textLength="97.959" x="1365.13" y="47.0252">.claude/skills/</text><text fill="#000000" font-family="monospace" font-size="14" lengthAdjust="spacing" textLength="122.3564" x="1365.13" y="63.5134">(installed,&#160;pinned)</text></g><!--entity G3--><g class="entity" data-qualified-name="G3" data-source-line="26" id="ent0008"><rect fill="#FFE9D6" height="85.9531" rx="2.5" ry="2.5" style="stroke:#0E2356;stroke-width:0.5;" width="139.916" x="1674.86" y="7"/><text fill="#000000" font-family="monospace" font-size="14" lengthAdjust="spacing" textLength="117.5098" x="1684.86" y="30.5352">Gate&#160;3&#160;-&#160;Runtime</text><text fill="#000000" font-family="monospace" font-size="14" lengthAdjust="spacing" textLength="4.4297" x="1684.86" y="47.0234">&#160;</text><text fill="#000000" font-family="monospace" font-size="14" lengthAdjust="spacing" textLength="71.5996" x="1684.86" y="63.5117">Plan&#160;Linter</text><text fill="#000000" font-family="monospace" font-size="14" lengthAdjust="spacing" textLength="119.916" x="1684.86" y="80">ADR&#160;+&#160;SKILL.rego</text></g><!--entity TOOL--><g class="entity" data-qualified-name="TOOL" data-source-line="27" id="ent0009"><rect fill="#EAF4FB" height="52.9766" rx="2.5" ry="2.5" style="stroke:#0E2356;stroke-width:0.5;" width="161.0938" x="1961.14" y="23.49"/><text fill="#000000" font-family="monospace" font-size="14" lengthAdjust="spacing" textLength="73.835" x="1971.14" y="47.0252">Smart&#160;Tool</text><text fill="#000000" font-family="monospace" font-size="14" lengthAdjust="spacing" textLength="141.0938" x="1971.14" y="63.5134">(JWT&#160;verified&#160;in-tool)</text></g><g class="entity" data-qualified-name="GMN17" data-source-line="38" id="ent0018"><path d="M450.31,128.36 L450.31,199.6022 A0,0 0 0 0 450.31,199.6022 L615.6303,199.6022 A0,0 0 0 0 615.6303,199.6022 L615.6303,138.36 L605.6303,128.36 L536.97,128.36 L532.97,93.21 L528.97,128.36 L450.31,128.36 A0,0 0 0 0 450.31,128.36" fill="#FFFBE6" style="stroke:#F0A000;stroke-width:0.5;"/><path d="M605.6303,128.36 L605.6303,138.36 L615.6303,138.36 L605.6303,128.36" fill="#FFFBE6" style="stroke:#F0A000;stroke-width:0.5;"/><text fill="#000000" font-family="monospace" font-size="13" lengthAdjust="spacing" textLength="144.3203" x="456.31" y="145.9284">catches:&#160;bad&#160;structure,</text><text fill="#000000" font-family="monospace" font-size="13" lengthAdjust="spacing" textLength="122.3447" x="456.31" y="161.2389">wrong&#160;security&#160;tier,</text><text fill="#000000" font-family="monospace" font-size="13" lengthAdjust="spacing" textLength="119.0566" x="456.31" y="176.5495">missing&#160;SKILL.rego</text><text fill="#000000" font-family="monospace" font-size="13" lengthAdjust="spacing" textLength="66.752" x="456.31" y="191.86">(tier&#160;&gt;=&#160;1)</text></g><g class="entity" data-qualified-name="GMN20" data-source-line="45" id="ent0021"><path d="M1058.75,128.36 L1058.75,199.6022 A0,0 0 0 0 1058.75,199.6022 L1200.127,199.6022 A0,0 0 0 0 1200.127,199.6022 L1200.127,138.36 L1190.127,128.36 L1133.44,128.36 L1129.44,93.21 L1125.44,128.36 L1058.75,128.36 A0,0 0 0 0 1058.75,128.36" fill="#FFFBE6" style="stroke:#F0A000;stroke-width:0.5;"/><path d="M1190.127,128.36 L1190.127,138.36 L1200.127,138.36 L1190.127,128.36" fill="#FFFBE6" style="stroke:#F0A000;stroke-width:0.5;"/><text fill="#000000" font-family="monospace" font-size="13" lengthAdjust="spacing" textLength="120.377" x="1064.75" y="145.9284">catches:&#160;tampering</text><text fill="#000000" font-family="monospace" font-size="13" lengthAdjust="spacing" textLength="117.7998" x="1064.75" y="161.2389">(content&#160;hash)&#160;and</text><text fill="#000000" font-family="monospace" font-size="13" lengthAdjust="spacing" textLength="68.1484" x="1064.75" y="176.5495">policy&#160;drift</text><text fill="#000000" font-family="monospace" font-size="13" lengthAdjust="spacing" textLength="82.4751" x="1064.75" y="191.86">(revalidation)</text></g><g class="entity" data-qualified-name="GMN23" data-source-line="52" id="ent0024"><path d="M1660.49,128.01 L1660.49,183.9416 A0,0 0 0 0 1660.49,183.9416 L1829.1428,183.9416 A0,0 0 0 0 1829.1428,183.9416 L1829.1428,138.01 L1819.1428,128.01 L1748.81,128.01 L1744.81,93.16 L1740.81,128.01 L1660.49,128.01 A0,0 0 0 0 1660.49,128.01" fill="#FFFBE6" style="stroke:#F0A000;stroke-width:0.5;"/><path d="M1819.1428,128.01 L1819.1428,138.01 L1829.1428,138.01 L1819.1428,128.01" fill="#FFFBE6" style="stroke:#F0A000;stroke-width:0.5;"/><text fill="#000000" font-family="monospace" font-size="13" lengthAdjust="spacing" textLength="147.6528" x="1666.49" y="145.5784">catches:&#160;plans&#160;violating</text><text fill="#000000" font-family="monospace" font-size="13" lengthAdjust="spacing" textLength="134.291" x="1666.49" y="160.8889">ADR&#160;invariants&#160;or&#160;the</text><text fill="#000000" font-family="monospace" font-size="13" lengthAdjust="spacing" textLength="144.3647" x="1666.49" y="176.1995">skill's&#160;companion&#160;rules</text></g><!--link AUTHOR to REPO--><g class="link" data-entity-1="ent0002" data-entity-2="ent0003" data-link-type="dependency" data-source-line="29" id="lnk10"><path d="M84.96,49.98 C116.32,49.98 155.18,49.98 191.52,49.98" fill="none" id="AUTHOR-to-REPO" style="stroke:#0E2356;stroke-width:1;"/><polygon fill="#0E2356" points="197.52,49.98,188.52,45.98,192.52,49.98,188.52,53.98,197.52,49.98" style="stroke:#0E2356;stroke-width:1;"/><text fill="#000000" font-family="monospace" font-size="13" lengthAdjust="spacing" textLength="51.7842" x="115.89" y="46.5484">git&#160;push</text></g><!--link REPO to G1--><g class="link" data-entity-1="ent0003" data-entity-2="ent0004" data-link-type="dependency" data-source-line="30" id="lnk11"><path d="M322.57,49.98 C362.06,49.98 407.65,49.98 449.75,49.98" fill="none" id="REPO-to-G1" style="stroke:#0E2356;stroke-width:1;"/><polygon fill="#0E2356" points="455.75,49.98,446.75,45.98,450.75,49.98,446.75,53.98,455.75,49.98" style="stroke:#0E2356;stroke-width:1;"/><text fill="#000000" font-family="monospace" font-size="13" lengthAdjust="spacing" textLength="66.1934" x="353.31" y="46.5484">CI&#160;triggers</text></g><!--link G1 to REG--><g class="link" data-entity-1="ent0004" data-entity-2="ent0005" data-link-type="dependency" data-source-line="31" id="lnk12"><path d="M610.04,49.98 C671.47,49.98 750.56,49.98 806.23,49.98" fill="none" id="G1-to-REG" style="stroke:#0E2356;stroke-width:1;"/><polygon fill="#0E2356" points="812.23,49.98,803.23,45.98,807.23,49.98,803.23,53.98,812.23,49.98" style="stroke:#0E2356;stroke-width:1;"/><text fill="#000000" font-family="monospace" font-size="13" lengthAdjust="spacing" textLength="77.4795" x="675.8863" y="31.5484">SKILL_VALID</text><text fill="#000000" font-family="monospace" font-size="13" lengthAdjust="spacing" textLength="135.9922" x="646.63" y="46.8589">+&#160;tier&#160;+&#160;content&#160;hash</text></g><!--link REG to G2--><g class="link" data-entity-1="ent0005" data-entity-2="ent0006" data-link-type="dependency" data-source-line="32" id="lnk13"><path d="M927.97,49.98 C969.54,49.98 1019.87,49.98 1062.23,49.98" fill="none" id="REG-to-G2" style="stroke:#0E2356;stroke-width:1;"/><polygon fill="#0E2356" points="1068.23,49.98,1059.23,45.98,1063.23,49.98,1059.23,53.98,1068.23,49.98" style="stroke:#0E2356;stroke-width:1;"/><text fill="#000000" font-family="monospace" font-size="13" lengthAdjust="spacing" textLength="69.6211" x="958.75" y="46.5484">apm&#160;install</text></g><!--link G2 to LOCAL--><g class="link" data-entity-1="ent0006" data-entity-2="ent0007" data-link-type="dependency" data-source-line="33" id="lnk14"><path d="M1190.83,49.98 C1238.34,49.98 1298.65,49.98 1348.63,49.98" fill="none" id="G2-to-LOCAL" style="stroke:#0E2356;stroke-width:1;"/><polygon fill="#0E2356" points="1354.63,49.98,1345.63,45.98,1349.63,49.98,1345.63,53.98,1354.63,49.98" style="stroke:#0E2356;stroke-width:1;"/><text fill="#000000" font-family="monospace" font-size="13" lengthAdjust="spacing" textLength="93.3423" x="1231.13" y="46.5484">pinned&#160;version</text></g><!--link LOCAL to G3--><g class="link" data-entity-1="ent0007" data-entity-2="ent0008" data-link-type="dependency" data-source-line="34" id="lnk15"><path d="M1497.95,49.98 C1550.6,49.98 1616.15,49.98 1668.48,49.98" fill="none" id="LOCAL-to-G3" style="stroke:#0E2356;stroke-width:1;"/><polygon fill="#0E2356" points="1674.48,49.98,1665.48,45.98,1669.48,49.98,1665.48,53.98,1674.48,49.98" style="stroke:#0E2356;stroke-width:1;"/><text fill="#000000" font-family="monospace" font-size="13" lengthAdjust="spacing" textLength="101.48" x="1528.49" y="31.5484">/skill&#160;invocation</text><text fill="#000000" font-family="monospace" font-size="13" lengthAdjust="spacing" textLength="99.9819" x="1529.239" y="46.8589">-&gt;&#160;lock_in_plan</text></g><!--link G3 to TOOL--><g class="link" data-entity-1="ent0008" data-entity-2="ent0009" data-link-type="dependency" data-source-line="35" id="lnk16"><path d="M1814.95,49.98 C1858.61,49.98 1909.18,49.98 1954.77,49.98" fill="none" id="G3-to-TOOL" style="stroke:#0E2356;stroke-width:1;"/><polygon fill="#0E2356" points="1960.77,49.98,1951.77,45.98,1955.77,49.98,1951.77,53.98,1960.77,49.98" style="stroke:#0E2356;stroke-width:1;"/><text fill="#000000" font-family="monospace" font-size="13" lengthAdjust="spacing" textLength="60.3091" x="1865.453" y="31.5484">capability</text><text fill="#000000" font-family="monospace" font-size="13" lengthAdjust="spacing" textLength="70.9351" x="1860.14" y="46.8589">ticket&#160;(JWT)</text></g><?plantuml-src XLLHRnev47xthnYr3qsKfY7GHhr8Lua4bgQ70WBkxWKfCjvXry9hh-nP8lxzZRr9kcsuzf6PR-RxvfjPymvM9GAL7X4AIHZ0RI7ij35Gk3rwAwr2S1Oa16qBWs3q5jL16HI2SRQMNbQGurOsXZ9dwLvM29MpBjHIOGUpaMfNUDVO_DOPv-6nrDJDArVLpgAb9HsOnwCY6HaxaA7txh6jVjiRzmUVhZh9s-Vwcv-8tew7sSVivYZK-Hpz_tMSSoDPuAj-sUVi9ikE07_erXlrHwCEwDxHaLPPTZE--XdLxPFrXhrUhsk28kT_FsCB--Ly8qbo8mF-ljaByaW_ON1BG0wyBag2NCVDQMU5a542l5ccSnesL3h_1cI0uT-hhxE5U5duCsI1jGkQQmvhUr9eEatenNW-ws8dVAPm2USmRpP6Xt9jrxQjdsfBwDTsFbkku68lZSuP-v3EERMQN4R7nt-ChaJ-DD5txa87IimoATKaIU_nMSFabOG-IxYpWQGnKK8fGmcgHBM3ixNr-4JFHhJK_HVgJgCFoiWcnuiaCLmmkMuxOluUQcqjvgs0wUnsE7qbOS0I5eqbNM6KC3VIlfWm72tW39P_tKsd7pmMhbKnEAPYMKbFi7AE1pdvzkyA-CFNMuqvQ7jE76urh6QpgH3jyk3y_4lQ35m3Rmhg9fGY_Ou9zlaQRk-0-2GAz45me2sOS29fUlXdEBqRhUqPa4RFIXM_7L5Dz554O6hKPxoiAtYoHN0WnfCTd6ejYdf3lBWsd0e7d6rjvTgzKsaJQyifuzJkGTk7cjqIZ8lmE1eNA5dBZJQQ-0n8gnqIH3zEXR3yMSB64Raglf2JIm6C9jvtkEQNBGU-dKPHu_4zPnwzimK4L0sVqI5D6CEL3l4HxIo5WoTf_Yz_mkMfG9j3P7hDr-_oaQngtf0jOddNjrEGDkTWxOnM1yXvYnGntMly5SkWonBz2R3Npd1TueednMPAhwKb_gVm_CU174yslmlf1PUMES0t1iDtely0?></g></svg>