<?plantuml 1.2026.1?><svg xmlns="http://www.w3.org/2000/svg" xmlns:xlink="http://www.w3.org/1999/xlink" contentStyleType="text/css" data-diagram-type="DESCRIPTION" height="525px" preserveAspectRatio="none" style="width:1554px;height:525px;background:#FFFFFF;" version="1.1" viewBox="0 0 1554 525" width="1554px" zoomAndPan="magnify"><defs/><g><!--cluster REPOS--><g class="cluster" data-qualified-name="REPOS" data-source-line="16" id="ent0002"><path d="M8.5,6 L247.2744,6 A3.75,3.75 0 0 1 249.7744,8.5 L256.7744,28.4883 L351.5,28.4883 A2.5,2.5 0 0 1 354,30.9883 L354,515.5 A2.5,2.5 0 0 1 351.5,518 L8.5,518 A2.5,2.5 0 0 1 6,515.5 L6,8.5 A2.5,2.5 0 0 1 8.5,6" fill="#F8FBFF" style="stroke:#00D2DD;stroke-width:1.5;"/><line style="stroke:#00D2DD;stroke-width:1.5;" x1="6" x2="256.7744" y1="28.4883" y2="28.4883"/><text fill="#000000" font-family="monospace" font-size="14" font-weight="bold" lengthAdjust="spacing" textLength="237.7744" x="10" y="21.5352">Skill&#160;Repositories&#160;(decentralized)</text></g><!--cluster P1--><g class="cluster" data-qualified-name="REPOS.P1" data-source-line="18" id="ent0003"><path d="M32.5,49 L318.0322,49 A3.75,3.75 0 0 1 320.5322,51.5 L327.5322,71.4883 L327.5,71.4883 A2.5,2.5 0 0 1 330,73.9883 L330,237.5 A2.5,2.5 0 0 1 327.5,240 L32.5,240 A2.5,2.5 0 0 1 30,237.5 L30,51.5 A2.5,2.5 0 0 1 32.5,49" fill="#F8FBFF" style="stroke:#00D2DD;stroke-width:1.5;"/><line style="stroke:#00D2DD;stroke-width:1.5;" x1="30" x2="327.5322" y1="71.4883" y2="71.4883"/><text fill="#000000" font-family="monospace" font-size="14" font-weight="bold" lengthAdjust="spacing" textLength="284.5322" x="34" y="64.5352">github.com/acme-corp/platform-skills</text></g><!--cluster P2--><g class="cluster" data-qualified-name="REPOS.P2" data-source-line="23" id="ent0006"><path d="M37.5,264 L312.5322,264 A3.75,3.75 0 0 1 315.0322,266.5 L322.0322,286.4883 L322.5,286.4883 A2.5,2.5 0 0 1 325,288.9883 L325,364.5 A2.5,2.5 0 0 1 322.5,367 L37.5,367 A2.5,2.5 0 0 1 35,364.5 L35,266.5 A2.5,2.5 0 0 1 37.5,264" fill="#F8FBFF" style="stroke:#00D2DD;stroke-width:1.5;"/><line style="stroke:#00D2DD;stroke-width:1.5;" x1="35" x2="322.0322" y1="286.4883" y2="286.4883"/><text fill="#000000" font-family="monospace" font-size="14" font-weight="bold" lengthAdjust="spacing" textLength="274.0322" x="39" y="279.5352">github.com/acme-corp/devops-skills</text></g><!--cluster P3--><g class="cluster" data-qualified-name="REPOS.P3" data-source-line="27" id="ent0008"><path d="M39.5,391 L310.7656,391 A3.75,3.75 0 0 1 313.2656,393.5 L320.2656,413.4883 L320.5,413.4883 A2.5,2.5 0 0 1 323,415.9883 L323,491.5 A2.5,2.5 0 0 1 320.5,494 L39.5,494 A2.5,2.5 0 0 1 37,491.5 L37,393.5 A2.5,2.5 0 0 1 39.5,391" fill="#F8FBFF" style="stroke:#00D2DD;stroke-width:1.5;"/><line style="stroke:#00D2DD;stroke-width:1.5;" x1="37" x2="320.2656" y1="413.4883" y2="413.4883"/><text fill="#000000" font-family="monospace" font-size="14" font-weight="bold" lengthAdjust="spacing" textLength="270.2656" x="41" y="406.5352">github.com/community-org/ai-skills</text></g><!--cluster REG--><g class="cluster" data-qualified-name="REG" data-source-line="35" id="ent0011"><path d="M981.61,46 L1185.2887,46 A3.75,3.75 0 0 1 1187.7887,48.5 L1194.7887,68.4883 L1241.38,68.4883 A2.5,2.5 0 0 1 1243.88,70.9883 L1243.88,450.5 A2.5,2.5 0 0 1 1241.38,453 L981.61,453 A2.5,2.5 0 0 1 979.11,450.5 L979.11,48.5 A2.5,2.5 0 0 1 981.61,46" fill="#F8FBFF" style="stroke:#00D2DD;stroke-width:1.5;"/><line style="stroke:#00D2DD;stroke-width:1.5;" x1="979.11" x2="1194.7887" y1="68.4883" y2="68.4883"/><text fill="#000000" font-family="monospace" font-size="14" font-weight="bold" lengthAdjust="spacing" textLength="202.6787" x="983.11" y="61.5352">Skill&#160;Registry&#160;(authoritative)</text></g><!--entity S1--><g class="entity" data-qualified-name="REPOS.P1.S1" data-source-line="19" id="ent0004"><rect fill="#EAF4FB" height="52.9766" rx="2.5" ry="2.5" style="stroke:#0E2356;stroke-width:0.5;" width="172.8721" x="93.06" y="83.51"/><text fill="#000000" font-family="monospace" font-size="14" lengthAdjust="spacing" textLength="111.7334" x="103.06" y="107.0452">patch-payment/</text><text fill="#000000" font-family="monospace" font-size="14" lengthAdjust="spacing" textLength="152.8721" x="103.06" y="123.5334">SKILL.md&#160;+&#160;SKILL.rego</text></g><!--entity S2--><g class="entity" data-qualified-name="REPOS.P1.S2" data-source-line="20" id="ent0005"><rect fill="#EAF4FB" height="52.9766" rx="2.5" ry="2.5" style="stroke:#0E2356;stroke-width:0.5;" width="172.8721" x="93.06" y="171.51"/><text fill="#000000" font-family="monospace" font-size="14" lengthAdjust="spacing" textLength="85.4082" x="103.06" y="195.0452">db-migrate/</text><text fill="#000000" font-family="monospace" font-size="14" lengthAdjust="spacing" textLength="152.8721" x="103.06" y="211.5334">SKILL.md&#160;+&#160;SKILL.rego</text></g><!--entity S3--><g class="entity" data-qualified-name="REPOS.P2.S3" data-source-line="24" id="ent0007"><rect fill="#EAF4FB" height="52.9766" rx="2.5" ry="2.5" style="stroke:#0E2356;stroke-width:0.5;" width="172.8721" x="93.06" y="298.51"/><text fill="#000000" font-family="monospace" font-size="14" lengthAdjust="spacing" textLength="107.7549" x="103.06" y="322.0452">deploy-service/</text><text fill="#000000" font-family="monospace" font-size="14" lengthAdjust="spacing" textLength="152.8721" x="103.06" y="338.5334">SKILL.md&#160;+&#160;SKILL.rego</text></g><!--entity S4--><g class="entity" data-qualified-name="REPOS.P3.S4" data-source-line="28" id="ent0009"><rect fill="#EAF4FB" height="52.9766" rx="2.5" ry="2.5" style="stroke:#0E2356;stroke-width:0.5;" width="131.583" x="113.71" y="425.51"/><text fill="#000000" font-family="monospace" font-size="14" lengthAdjust="spacing" textLength="105.2803" x="123.71" y="449.0452">summarize-pr/</text><text fill="#000000" font-family="monospace" font-size="14" lengthAdjust="spacing" textLength="111.583" x="123.71" y="465.5334">SKILL.md&#160;(tier&#160;0)</text></g><!--entity IDX--><g class="entity" data-qualified-name="REG.IDX" data-source-line="36" id="ent0012"><rect fill="#EAF4FB" height="36.4883" rx="2.5" ry="2.5" style="stroke:#0E2356;stroke-width:0.5;" width="187.1318" x="1017.93" y="392.76"/><text fill="#000000" font-family="monospace" font-size="14" lengthAdjust="spacing" textLength="167.1318" x="1027.93" y="416.2952">registry.acme.com/skills</text></g><!--entity R1--><g class="entity" data-qualified-name="REG.R1" data-source-line="37" id="ent0013"><rect fill="#EAF4FB" height="36.4883" rx="2.5" ry="2.5" style="stroke:#0E2356;stroke-width:0.5;" width="216.7793" x="1003.11" y="108.76"/><text fill="#000000" font-family="monospace" font-size="14" lengthAdjust="spacing" textLength="196.7793" x="1013.11" y="132.2952">patch-payment@1.2.0&#160;&#160;tier&#160;1</text></g><!--entity R2--><g class="entity" data-qualified-name="REG.R2" data-source-line="38" id="ent0014"><rect fill="#EAF4FB" height="36.4883" rx="2.5" ry="2.5" style="stroke:#0E2356;stroke-width:0.5;" width="203.7432" x="1009.62" y="179.76"/><text fill="#000000" font-family="monospace" font-size="14" lengthAdjust="spacing" textLength="183.7432" x="1019.62" y="203.2952">db-migrate@3.0.0&#160;&#160;&#160;&#160;&#160;tier&#160;1</text></g><!--entity R3--><g class="entity" data-qualified-name="REG.R3" data-source-line="39" id="ent0015"><rect fill="#EAF4FB" height="36.4883" rx="2.5" ry="2.5" style="stroke:#0E2356;stroke-width:0.5;" width="208.3711" x="1007.31" y="250.76"/><text fill="#000000" font-family="monospace" font-size="14" lengthAdjust="spacing" textLength="188.3711" x="1017.31" y="274.2952">deploy-service@2.1.0&#160;tier&#160;2</text></g><!--entity R4--><g class="entity" data-qualified-name="REG.R4" data-source-line="40" id="ent0016"><rect fill="#EAF4FB" height="36.4883" rx="2.5" ry="2.5" style="stroke:#0E2356;stroke-width:0.5;" width="214.7559" x="1004.12" y="321.76"/><text fill="#000000" font-family="monospace" font-size="14" lengthAdjust="spacing" textLength="194.7559" x="1014.12" y="345.2952">summarize-pr@0.8.0&#160;&#160;&#160;tier&#160;0</text></g><!--entity GATE--><g class="entity" data-qualified-name="GATE" data-source-line="33" id="ent0010"><rect fill="#EAF4FB" height="217.8594" rx="2.5" ry="2.5" style="stroke:#0E2356;stroke-width:0.5;" width="176.1055" x="582" y="153.07"/><text fill="#000000" font-family="monospace" font-size="14" lengthAdjust="spacing" textLength="74.2314" x="592" y="176.6052">Policy&#160;Gate</text><text fill="#000000" font-family="monospace" font-size="14" lengthAdjust="spacing" textLength="4.4297" x="592" y="193.0934">&#160;</text><text fill="#000000" font-family="monospace" font-size="14" lengthAdjust="spacing" textLength="133.8887" x="592" y="209.5817">POST&#160;/validate_skill</text><text fill="#000000" font-family="monospace" font-size="14" lengthAdjust="spacing" textLength="4.4297" x="592" y="226.07">&#160;</text><text fill="#000000" font-family="monospace" font-size="14" lengthAdjust="spacing" textLength="50.5791" x="592" y="242.5583">checks:</text><text fill="#000000" font-family="monospace" font-size="14" lengthAdjust="spacing" textLength="129.5684" x="600.8594" y="259.0466">name&#160;/&#160;description</text><text fill="#000000" font-family="monospace" font-size="14" lengthAdjust="spacing" textLength="80.3633" x="600.8594" y="275.5348">security&#160;tier</text><text fill="#000000" font-family="monospace" font-size="14" lengthAdjust="spacing" textLength="147.2461" x="600.8594" y="292.0231">SKILL.rego&#160;(tier&#160;&gt;=&#160;1)</text><text fill="#000000" font-family="monospace" font-size="14" lengthAdjust="spacing" textLength="125.8154" x="600.8594" y="308.5114">dependency&#160;graph</text><text fill="#000000" font-family="monospace" font-size="14" lengthAdjust="spacing" textLength="4.4297" x="592" y="324.9997">&#160;</text><text fill="#000000" font-family="monospace" font-size="14" lengthAdjust="spacing" textLength="112.0684" x="592" y="341.488">SKILL_REJECTED:</text><text fill="#000000" font-family="monospace" font-size="14" lengthAdjust="spacing" textLength="125.1523" x="592" y="357.9763">stays&#160;in&#160;repository</text></g><g class="entity" data-qualified-name="GMN17" data-source-line="44" id="ent0018"><path d="M1298.88,14.41 L1298.88,131.5838 L1547.9449,131.5838 L1547.9449,24.41 L1537.9449,14.41 L1298.88,14.41" fill="#FFFBE6" style="stroke:#F0A000;stroke-width:0.5;"/><path d="M1537.9449,14.41 L1537.9449,24.41 L1547.9449,24.41 L1537.9449,14.41" fill="#FFFBE6" style="stroke:#F0A000;stroke-width:1;"/><text fill="#000000" font-family="monospace" font-size="13" lengthAdjust="spacing" textLength="122.4971" x="1304.88" y="31.9784">Dependency&#160;graph:</text><text fill="#000000" font-family="monospace" font-size="13" lengthAdjust="spacing" textLength="137.2871" x="1304.88" y="47.2889">deploy-service@2.1.0</text><text fill="#000000" font-family="monospace" font-size="13" lengthAdjust="spacing" textLength="190.144" x="1313.1066" y="62.5995">requires&#160;db-migrate&#160;&gt;=&#160;3.0.0</text><text fill="#000000" font-family="monospace" font-size="13" lengthAdjust="spacing" textLength="4.1133" x="1304.88" y="77.91">&#160;</text><text fill="#000000" font-family="monospace" font-size="13" lengthAdjust="spacing" textLength="228.0649" x="1304.88" y="93.2205">Consumers&#160;install&#160;from&#160;the&#160;registry:</text><text fill="#000000" font-family="monospace" font-size="13" lengthAdjust="spacing" textLength="170.6694" x="1313.1066" y="108.5311">apm&#160;install&#160;patch-payment</text><text fill="#000000" font-family="monospace" font-size="13" lengthAdjust="spacing" textLength="204.75" x="1304.88" y="123.8416">Never&#160;directly&#160;from&#160;a&#160;repository.</text></g><!--link REG to GMN17--><g class="link" data-entity-1="ent0011" data-entity-2="ent0018" data-link-type="association" data-source-line="44" id="lnk19"><path d="M1244.162,73 C1244.8331,73 1245.5049,73 1246.1772,73 C1247.5218,73 1248.8686,73 1250.2172,73 C1255.6115,73 1261.034,73 1266.4581,73 C1277.3064,73 1288.1612,73 1298.81,73" fill="none" id="REG-GMN17" style="stroke:#0E2356;stroke-width:1;stroke-dasharray:7,7;"/></g><!--link S1 to GATE--><g class="link" data-entity-1="ent0004" data-entity-2="ent0010" data-link-type="dependency" data-source-line="53" id="lnk20"><path d="M266.27,128.9 C342.41,146.71 456.14,175.88 552,211 C561.68,214.55 566.1482,216.2145 576.0782,220.2845" fill="none" id="S1-to-GATE" style="stroke:#0E2356;stroke-width:1;"/><polygon fill="#0E2356" points="581.63,222.56,574.8193,215.4456,577.0035,220.6638,571.7854,222.8479,581.63,222.56" style="stroke:#0E2356;stroke-width:1;"/></g><!--link S2 to GATE--><g class="link" data-entity-1="ent0005" data-entity-2="ent0010" data-link-type="dependency" data-source-line="54" id="lnk21"><path d="M266.16,209.22 C354.82,220.84 486.6608,238.1107 575.9008,249.8007" fill="none" id="S2-to-GATE" style="stroke:#0E2356;stroke-width:1;"/><polygon fill="#0E2356" points="581.85,250.58,573.4458,245.4449,576.8924,249.9306,572.4067,253.3771,581.85,250.58" style="stroke:#0E2356;stroke-width:1;"/></g><!--link S3 to GATE--><g class="link" data-entity-1="ent0007" data-entity-2="ent0010" data-link-type="dependency" data-source-line="55" id="lnk22"><path d="M266.16,313.95 C354.82,302.52 486.6592,285.5169 575.8992,274.0169" fill="none" id="S3-to-GATE" style="stroke:#0E2356;stroke-width:1;"/><polygon fill="#0E2356" points="581.85,273.25,572.4126,270.4331,576.891,273.889,573.435,278.3675,581.85,273.25" style="stroke:#0E2356;stroke-width:1;"/></g><!--link S4 to GATE--><g class="link" data-entity-1="ent0009" data-entity-2="ent0010" data-link-type="dependency" data-source-line="56" id="lnk23"><path d="M245.48,431.51 C320.35,407.3 446.59,364.66 552,320 C561.71,315.89 566.3284,313.899 576.2584,309.239" fill="none" id="S4-to-GATE" style="stroke:#0E2356;stroke-width:1;"/><polygon fill="#0E2356" points="581.69,306.69,571.8432,306.8924,577.1636,308.8142,575.2419,314.1346,581.69,306.69" style="stroke:#0E2356;stroke-width:1;"/><text fill="#000000" font-family="monospace" font-size="13" lengthAdjust="spacing" textLength="144.0601" x="407" y="316.5684">git&#160;push&#160;-&gt;&#160;CI&#160;triggers</text></g><!--link GATE to R1--><g class="link" data-entity-1="ent0010" data-entity-2="ent0013" data-link-type="dependency" data-source-line="58" id="lnk24"><path d="M758.48,213.41 C768.32,208.86 778.32,204.6 788.11,201 C857.75,175.34 933.3563,157.8545 996.9863,145.7145" fill="none" id="GATE-to-R1" style="stroke:#0E2356;stroke-width:1;"/><polygon fill="#0E2356" points="1002.88,144.59,993.2898,142.3476,997.9686,145.5271,994.7891,150.2058,1002.88,144.59" style="stroke:#0E2356;stroke-width:1;"/></g><!--link GATE to R2--><g class="link" data-entity-1="ent0010" data-entity-2="ent0014" data-link-type="dependency" data-source-line="59" id="lnk25"><path d="M758.5,244.15 C768.47,242.31 778.5,240.55 788.11,239 C861.91,227.07 939.7204,217.2049 1003.3604,209.7849" fill="none" id="GATE-to-R2" style="stroke:#0E2356;stroke-width:1;"/><polygon fill="#0E2356" points="1009.32,209.09,999.9173,206.1592,1004.3536,209.669,1000.8438,214.1054,1009.32,209.09" style="stroke:#0E2356;stroke-width:1;"/></g><!--link GATE to R3--><g class="link" data-entity-1="ent0010" data-entity-2="ent0015" data-link-type="dependency" data-source-line="60" id="lnk26"><path d="M758.4,263.39 C829.98,264.53 925.4608,266.0548 1001.0908,267.2548" fill="none" id="GATE-to-R3" style="stroke:#0E2356;stroke-width:1;"/><polygon fill="#0E2356" points="1007.09,267.35,998.1546,263.2077,1002.0906,267.2707,998.0277,271.2067,1007.09,267.35" style="stroke:#0E2356;stroke-width:1;"/></g><!--link GATE to R4--><g class="link" data-entity-1="ent0010" data-entity-2="ent0016" data-link-type="dependency" data-source-line="61" id="lnk27"><path d="M758.42,284.58 C768.4,286.88 778.46,289.08 788.11,291 C859.59,305.26 934.7666,316.7482 997.7566,325.4582" fill="none" id="GATE-to-R4" style="stroke:#0E2356;stroke-width:1;"/><polygon fill="#0E2356" points="1003.7,326.28,995.3327,321.0849,998.7471,325.5951,994.2369,329.0095,1003.7,326.28" style="stroke:#0E2356;stroke-width:1;"/><text fill="#000000" font-family="monospace" font-size="13" lengthAdjust="spacing" textLength="165.458" x="789.11" y="287.5684">SKILL_VALID&#160;-&gt;&#160;promoted</text></g><?plantuml-src XLJlJzim4FsUl-847mQQagPfXr2b8VehY0qnHD4qYKx896vYDR4zsodAfltlEpkKfgK3L2hNVdVl_DwTFy0jbK8p8rGDAntWpunfe-e1c9n28fJzuWcLfY85f7Z6U6AOu9wdbunBeaW9ALsGgZ2nuEQQb1HAmOMM9A4jp2D9bfaI5K_7eX0Add9cskU9AANWb9kPgGiAYYQ6yAneGuPAYQSc-Z2SHhrF9wt3yJf-j4DqE1t6_NYq5ofKIjN_CjvW8fBHL_dYqtWKntk0Mzd2IJIPj43Nmkn95SUZwSakgfqd3eTX67fUGHS6Z035ijoW3rOVvu9ioE5WjcH5iR6JKGr7AKtmceeKx3TDZm-0QBYTtdoRmH_F0tW9pPZ9gyS0BUYGfAG-sYuxiY1c8LJfQvjOk-2RBaO2_jrBOfBSbwGkaQ0pvxElbrTNGPd2HsYMYcRYfusPTPk8zD4lMQQ8eM_38uJ_VR-ybAw4r5l5HUlYKYeBKVkQgXLBtg7hlKM7_sN5cQbzeR8EOLjqlJMThigIA9JObwfDTcGOLH0UDqJzXWW_BwqE1pUYO4aD5wZAdCyvMdC7dHNwbUBEWsEp-qbEawKUp3a0jmFMmP7JYMBIze3TrJIf5DO9bj9kRAxvNCRPP-WUsnCKX_AKSgH5DsHkyplqm-tqotHyDvqWZpQari0upk7wUN2NlXZUJVVqNFDcm16fJ8wjPuXXAxhkjmkdqxrwHWNMGwTk8wPJvtBomzljglDk40KXk2j1ry5kRI-rEkcy5uGM0jkeo7lL1ETHq4MaGqKDoZg_vTrv69owR8rl3Qfl7UCubi-Z9nRsIXWwsT5nu3bjNt6w7b7qLuKpgs5JktN4bM-RRomuLaALrHorHr4NIfJk3LxhDd29Y2nV85jguUarNM7TpTjGr4q6qd8myB1Wi7Vnl5aNVF-iyNCMjTQzrhh_ieO1u5Y0h7GEk3M-18DoP5Ymvxbp2qHtDkkejUwrrdrCrRJRz-7LvSHcarWe5fLw_m00?></g></svg>