<?plantuml 1.2026.1?><svg xmlns="http://www.w3.org/2000/svg" xmlns:xlink="http://www.w3.org/1999/xlink" contentStyleType="text/css" data-diagram-type="DESCRIPTION" height="628px" preserveAspectRatio="none" style="width:1380px;height:628px;background:#FFFFFF;" version="1.1" viewBox="0 0 1380 628" width="1380px" zoomAndPan="magnify"><defs/><g><!--cluster REPOS--><g class="cluster" data-qualified-name="REPOS" data-source-line="16" id="ent0002"><path d="M8.5,85.97 L247.2744,85.97 A3.75,3.75 0 0 1 249.7744,88.47 L256.7744,108.4583 L367.5,108.4583 A2.5,2.5 0 0 1 370,110.9583 L370,619.47 A2.5,2.5 0 0 1 367.5,621.97 L8.5,621.97 A2.5,2.5 0 0 1 6,619.47 L6,88.47 A2.5,2.5 0 0 1 8.5,85.97" fill="#F8FBFF" style="stroke:#00D2DD;stroke-width:1.5;"/><line style="stroke:#00D2DD;stroke-width:1.5;" x1="6" x2="256.7744" y1="108.4583" y2="108.4583"/><text fill="#000000" font-family="monospace" font-size="14" font-weight="bold" lengthAdjust="spacing" textLength="237.7744" x="10" y="101.5052">Skill&#160;Repositories&#160;(decentralized)</text></g><!--cluster P1--><g class="cluster" data-qualified-name="REPOS.P1" data-source-line="18" id="ent0003"><path d="M40.5,144.97 L326.0322,144.97 A3.75,3.75 0 0 1 328.5322,147.47 L335.5322,167.4583 L335.5,167.4583 A2.5,2.5 0 0 1 338,169.9583 L338,333.47 A2.5,2.5 0 0 1 335.5,335.97 L40.5,335.97 A2.5,2.5 0 0 1 38,333.47 L38,147.47 A2.5,2.5 0 0 1 40.5,144.97" fill="#F8FBFF" style="stroke:#00D2DD;stroke-width:1.5;"/><line style="stroke:#00D2DD;stroke-width:1.5;" x1="38" x2="335.5322" y1="167.4583" y2="167.4583"/><text fill="#000000" font-family="monospace" font-size="14" font-weight="bold" lengthAdjust="spacing" textLength="284.5322" x="42" y="160.5052">github.com/acme-corp/platform-skills</text></g><!--cluster P2--><g class="cluster" data-qualified-name="REPOS.P2" data-source-line="23" id="ent0006"><path d="M45.5,359.97 L320.5322,359.97 A3.75,3.75 0 0 1 323.0322,362.47 L330.0322,382.4583 L330.5,382.4583 A2.5,2.5 0 0 1 333,384.9583 L333,460.47 A2.5,2.5 0 0 1 330.5,462.97 L45.5,462.97 A2.5,2.5 0 0 1 43,460.47 L43,362.47 A2.5,2.5 0 0 1 45.5,359.97" fill="#F8FBFF" style="stroke:#00D2DD;stroke-width:1.5;"/><line style="stroke:#00D2DD;stroke-width:1.5;" x1="43" x2="330.0322" y1="382.4583" y2="382.4583"/><text fill="#000000" font-family="monospace" font-size="14" font-weight="bold" lengthAdjust="spacing" textLength="274.0322" x="47" y="375.5052">github.com/acme-corp/devops-skills</text></g><!--cluster P3--><g class="cluster" data-qualified-name="REPOS.P3" data-source-line="27" id="ent0008"><path d="M47.5,486.97 L318.7656,486.97 A3.75,3.75 0 0 1 321.2656,489.47 L328.2656,509.4583 L328.5,509.4583 A2.5,2.5 0 0 1 331,511.9583 L331,587.47 A2.5,2.5 0 0 1 328.5,589.97 L47.5,589.97 A2.5,2.5 0 0 1 45,587.47 L45,489.47 A2.5,2.5 0 0 1 47.5,486.97" fill="#F8FBFF" style="stroke:#00D2DD;stroke-width:1.5;"/><line style="stroke:#00D2DD;stroke-width:1.5;" x1="45" x2="328.2656" y1="509.4583" y2="509.4583"/><text fill="#000000" font-family="monospace" font-size="14" font-weight="bold" lengthAdjust="spacing" textLength="270.2656" x="49" y="502.5052">github.com/community-org/ai-skills</text></g><!--cluster REG--><g class="cluster" data-qualified-name="REG" data-source-line="46" id="ent0014"><path d="M807.46,146.97 L1011.1387,146.97 A3.75,3.75 0 0 1 1013.6387,149.47 L1020.6387,169.4583 L1067.23,169.4583 A2.5,2.5 0 0 1 1069.73,171.9583 L1069.73,551.47 A2.5,2.5 0 0 1 1067.23,553.97 L807.46,553.97 A2.5,2.5 0 0 1 804.96,551.47 L804.96,149.47 A2.5,2.5 0 0 1 807.46,146.97" fill="#F8FBFF" style="stroke:#00D2DD;stroke-width:1.5;"/><line style="stroke:#00D2DD;stroke-width:1.5;" x1="804.96" x2="1020.6387" y1="169.4583" y2="169.4583"/><text fill="#000000" font-family="monospace" font-size="14" font-weight="bold" lengthAdjust="spacing" textLength="202.6787" x="808.96" y="162.5052">Skill&#160;Registry&#160;(authoritative)</text></g><!--entity S1--><g class="entity" data-qualified-name="REPOS.P1.S1" data-source-line="19" id="ent0004"><rect fill="#EAF4FB" height="52.9766" rx="2.5" ry="2.5" style="stroke:#0E2356;stroke-width:0.5;" width="172.8721" x="101.06" y="179.48"/><text fill="#000000" font-family="monospace" font-size="14" lengthAdjust="spacing" textLength="111.7334" x="111.06" y="203.0152">patch-payment/</text><text fill="#000000" font-family="monospace" font-size="14" lengthAdjust="spacing" textLength="152.8721" x="111.06" y="219.5034">SKILL.md&#160;+&#160;SKILL.rego</text></g><!--entity S2--><g class="entity" data-qualified-name="REPOS.P1.S2" data-source-line="20" id="ent0005"><rect fill="#EAF4FB" height="52.9766" rx="2.5" ry="2.5" style="stroke:#0E2356;stroke-width:0.5;" width="172.8721" x="101.06" y="267.48"/><text fill="#000000" font-family="monospace" font-size="14" lengthAdjust="spacing" textLength="85.4082" x="111.06" y="291.0152">db-migrate/</text><text fill="#000000" font-family="monospace" font-size="14" lengthAdjust="spacing" textLength="152.8721" x="111.06" y="307.5034">SKILL.md&#160;+&#160;SKILL.rego</text></g><!--entity S3--><g class="entity" data-qualified-name="REPOS.P2.S3" data-source-line="24" id="ent0007"><rect fill="#EAF4FB" height="52.9766" rx="2.5" ry="2.5" style="stroke:#0E2356;stroke-width:0.5;" width="172.8721" x="101.06" y="394.48"/><text fill="#000000" font-family="monospace" font-size="14" lengthAdjust="spacing" textLength="107.7549" x="111.06" y="418.0152">deploy-service/</text><text fill="#000000" font-family="monospace" font-size="14" lengthAdjust="spacing" textLength="152.8721" x="111.06" y="434.5034">SKILL.md&#160;+&#160;SKILL.rego</text></g><!--entity S4--><g class="entity" data-qualified-name="REPOS.P3.S4" data-source-line="28" id="ent0009"><rect fill="#EAF4FB" height="52.9766" rx="2.5" ry="2.5" style="stroke:#0E2356;stroke-width:0.5;" width="131.583" x="121.71" y="521.48"/><text fill="#000000" font-family="monospace" font-size="14" lengthAdjust="spacing" textLength="105.2803" x="131.71" y="545.0152">summarize-pr/</text><text fill="#000000" font-family="monospace" font-size="14" lengthAdjust="spacing" textLength="111.583" x="131.71" y="561.5034">SKILL.md&#160;(tier&#160;0)</text></g><!--entity IDX--><g class="entity" data-qualified-name="REG.IDX" data-source-line="47" id="ent0015"><rect fill="#EAF4FB" height="36.4883" rx="2.5" ry="2.5" style="stroke:#0E2356;stroke-width:0.5;" width="187.1318" x="843.78" y="493.73"/><text fill="#000000" font-family="monospace" font-size="14" lengthAdjust="spacing" textLength="167.1318" x="853.78" y="517.2652">registry.acme.com/skills</text></g><!--entity R1--><g class="entity" data-qualified-name="REG.R1" data-source-line="48" id="ent0016"><rect fill="#EAF4FB" height="36.4883" rx="2.5" ry="2.5" style="stroke:#0E2356;stroke-width:0.5;" width="216.7793" x="828.96" y="209.73"/><text fill="#000000" font-family="monospace" font-size="14" lengthAdjust="spacing" textLength="196.7793" x="838.96" y="233.2652">patch-payment@1.2.0&#160;&#160;tier&#160;1</text></g><!--entity R2--><g class="entity" data-qualified-name="REG.R2" data-source-line="49" id="ent0017"><rect fill="#EAF4FB" height="36.4883" rx="2.5" ry="2.5" style="stroke:#0E2356;stroke-width:0.5;" width="203.7432" x="835.47" y="280.73"/><text fill="#000000" font-family="monospace" font-size="14" lengthAdjust="spacing" textLength="183.7432" x="845.47" y="304.2652">db-migrate@3.0.0&#160;&#160;&#160;&#160;&#160;tier&#160;1</text></g><!--entity R3--><g class="entity" data-qualified-name="REG.R3" data-source-line="50" id="ent0018"><rect fill="#EAF4FB" height="36.4883" rx="2.5" ry="2.5" style="stroke:#0E2356;stroke-width:0.5;" width="208.3711" x="833.16" y="351.73"/><text fill="#000000" font-family="monospace" font-size="14" lengthAdjust="spacing" textLength="188.3711" x="843.16" y="375.2652">deploy-service@2.1.0&#160;tier&#160;2</text></g><!--entity R4--><g class="entity" data-qualified-name="REG.R4" data-source-line="51" id="ent0019"><rect fill="#EAF4FB" height="36.4883" rx="2.5" ry="2.5" style="stroke:#0E2356;stroke-width:0.5;" width="214.7559" x="829.97" y="422.73"/><text fill="#000000" font-family="monospace" font-size="14" lengthAdjust="spacing" textLength="194.7559" x="839.97" y="446.2652">summarize-pr@0.8.0&#160;&#160;&#160;tier&#160;0</text></g><!--entity GATE--><g class="entity" data-qualified-name="GATE" data-source-line="33" id="ent0010"><rect fill="#EAF4FB" height="52.9766" rx="2.5" ry="2.5" style="stroke:#0E2356;stroke-width:0.5;" width="153.8887" x="512.03" y="308.48"/><text fill="#000000" font-family="monospace" font-size="14" lengthAdjust="spacing" textLength="74.2314" x="522.03" y="332.0152">Policy&#160;Gate</text><text fill="#000000" font-family="monospace" font-size="14" lengthAdjust="spacing" textLength="133.8887" x="522.03" y="348.5034">POST&#160;/validate_skill</text></g><g class="entity" data-qualified-name="GMN11" data-source-line="36" id="ent0012"><path d="M506,396.73 L506,529.2144 A0,0 0 0 0 506,529.2144 L671.9551,529.2144 A0,0 0 0 0 671.9551,529.2144 L671.9551,406.73 L661.9551,396.73 L592.98,396.73 L588.98,361.88 L584.98,396.73 L506,396.73 A0,0 0 0 0 506,396.73" fill="#FFFBE6" style="stroke:#F0A000;stroke-width:0.5;"/><path d="M661.9551,396.73 L661.9551,406.73 L671.9551,406.73 L661.9551,396.73" fill="#FFFBE6" style="stroke:#F0A000;stroke-width:0.5;"/><text fill="#000000" font-family="monospace" font-size="13" lengthAdjust="spacing" textLength="46.9663" x="512" y="414.2984">checks:</text><text fill="#000000" font-family="monospace" font-size="13" lengthAdjust="spacing" textLength="120.3135" x="520.2266" y="429.6089">name&#160;/&#160;description</text><text fill="#000000" font-family="monospace" font-size="13" lengthAdjust="spacing" textLength="74.623" x="520.2266" y="444.9195">security&#160;tier</text><text fill="#000000" font-family="monospace" font-size="13" lengthAdjust="spacing" textLength="136.7285" x="520.2266" y="460.23">SKILL.rego&#160;(tier&#160;&gt;=&#160;1)</text><text fill="#000000" font-family="monospace" font-size="13" lengthAdjust="spacing" textLength="116.8286" x="520.2266" y="475.5405">dependency&#160;graph</text><text fill="#000000" font-family="monospace" font-size="13" lengthAdjust="spacing" textLength="4.1133" x="512" y="490.8511">&#160;</text><text fill="#000000" font-family="monospace" font-size="13" lengthAdjust="spacing" textLength="104.0635" x="512" y="506.1616">SKILL_REJECTED:</text><text fill="#000000" font-family="monospace" font-size="13" lengthAdjust="spacing" textLength="116.2129" x="512" y="521.4722">stays&#160;in&#160;repository</text></g><g class="entity" data-qualified-name="GMN20" data-source-line="55" id="ent0021"><path d="M1124.73,115.38 L1124.73,232.5538 L1373.7949,232.5538 L1373.7949,125.38 L1363.7949,115.38 L1124.73,115.38" fill="#FFFBE6" style="stroke:#F0A000;stroke-width:0.5;"/><path d="M1363.7949,115.38 L1363.7949,125.38 L1373.7949,125.38 L1363.7949,115.38" fill="#FFFBE6" style="stroke:#F0A000;stroke-width:1;"/><text fill="#000000" font-family="monospace" font-size="13" lengthAdjust="spacing" textLength="122.4971" x="1130.73" y="132.9484">Dependency&#160;graph:</text><text fill="#000000" font-family="monospace" font-size="13" lengthAdjust="spacing" textLength="137.2871" x="1130.73" y="148.2589">deploy-service@2.1.0</text><text fill="#000000" font-family="monospace" font-size="13" lengthAdjust="spacing" textLength="190.144" x="1138.9566" y="163.5695">requires&#160;db-migrate&#160;&gt;=&#160;3.0.0</text><text fill="#000000" font-family="monospace" font-size="13" lengthAdjust="spacing" textLength="4.1133" x="1130.73" y="178.88">&#160;</text><text fill="#000000" font-family="monospace" font-size="13" lengthAdjust="spacing" textLength="228.0649" x="1130.73" y="194.1905">Consumers&#160;install&#160;from&#160;the&#160;registry:</text><text fill="#000000" font-family="monospace" font-size="13" lengthAdjust="spacing" textLength="170.6694" x="1138.9566" y="209.5011">apm&#160;install&#160;patch-payment</text><text fill="#000000" font-family="monospace" font-size="13" lengthAdjust="spacing" textLength="204.75" x="1130.73" y="224.8116">Never&#160;directly&#160;from&#160;a&#160;repository.</text></g><g class="entity" data-qualified-name="GMN31" data-source-line="75" id="ent0032"><path d="M104.97,6 L104.97,61.9316 L270.0301,61.9316 L270.0301,16 L260.0301,6 L104.97,6" fill="#FFFBE6" style="stroke:#F0A000;stroke-width:0.5;"/><path d="M260.0301,6 L260.0301,16 L270.0301,16 L260.0301,6" fill="#FFFBE6" style="stroke:#F0A000;stroke-width:1;"/><text fill="#000000" font-family="monospace" font-size="13" lengthAdjust="spacing" textLength="144.0601" x="110.97" y="23.5684">git&#160;push&#160;-&gt;&#160;CI&#160;triggers</text><text fill="#000000" font-family="monospace" font-size="13" lengthAdjust="spacing" textLength="124.3252" x="110.97" y="38.8789">POST&#160;/validate_skill</text><text fill="#000000" font-family="monospace" font-size="13" lengthAdjust="spacing" textLength="85.1348" x="110.97" y="54.1895">for&#160;every&#160;skill</text></g><!--link REG to GMN20--><g class="link" data-entity-1="ent0014" data-entity-2="ent0021" data-link-type="association" data-source-line="55" id="lnk22"><path d="M1070.012,173.97 C1070.6831,173.97 1071.3549,173.97 1072.0272,173.97 C1073.3718,173.97 1074.7186,173.97 1076.0672,173.97 C1081.4615,173.97 1086.884,173.97 1092.3081,173.97 C1103.1564,173.97 1114.0113,173.97 1124.66,173.97" fill="none" id="REG-GMN20" style="stroke:#0E2356;stroke-width:1;stroke-dasharray:7,7;"/></g><!--link S1 to GATE--><g class="link" data-entity-1="ent0004" data-entity-2="ent0010" data-link-type="dependency" data-source-line="64" id="lnk23"><path d="M273.96,221.52 C309.06,228.81 349.86,238.44 386,249.97 C436.38,266.04 486.1448,287.2219 526.0848,305.5119" fill="none" id="S1-to-GATE" style="stroke:#0E2356;stroke-width:1;"/><polygon fill="#0E2356" points="531.54,308.01,525.0226,300.626,526.994,305.9282,521.6918,307.8996,531.54,308.01" style="stroke:#0E2356;stroke-width:1;"/><text fill="#000000" font-family="monospace" font-size="13" lengthAdjust="spacing" textLength="12.7397" x="463" y="275.6884">CI</text></g><!--link S2 to GATE--><g class="link" data-entity-1="ent0005" data-entity-2="ent0010" data-link-type="dependency" data-source-line="65" id="lnk24"><path d="M274.2,302.77 C344.81,310.01 438.0514,319.5768 505.8914,326.5468" fill="none" id="S2-to-GATE" style="stroke:#0E2356;stroke-width:1;"/><polygon fill="#0E2356" points="511.86,327.16,503.3159,322.2611,506.8862,326.649,502.4983,330.2192,511.86,327.16" style="stroke:#0E2356;stroke-width:1;"/><text fill="#000000" font-family="monospace" font-size="13" lengthAdjust="spacing" textLength="12.7397" x="463" y="319.4184">CI</text></g><!--link S3 to GATE--><g class="link" data-entity-1="ent0007" data-entity-2="ent0010" data-link-type="dependency" data-source-line="66" id="lnk25"><path d="M274.2,402.52 C344.81,387.32 438.1543,367.2224 505.9943,352.6224" fill="none" id="S3-to-GATE" style="stroke:#0E2356;stroke-width:1;"/><polygon fill="#0E2356" points="511.86,351.36,502.2199,349.3431,506.9719,352.412,503.903,357.164,511.86,351.36" style="stroke:#0E2356;stroke-width:1;"/><text fill="#000000" font-family="monospace" font-size="13" lengthAdjust="spacing" textLength="12.7397" x="463" y="356.9484">CI</text></g><!--link S4 to GATE--><g class="link" data-entity-1="ent0009" data-entity-2="ent0010" data-link-type="dependency" data-source-line="67" id="lnk26"><path d="M253.68,523.82 C292.96,508.32 343.45,486.69 386,462.97 C442.86,431.27 450.56,413.09 506,378.97 C515.49,373.13 520.5568,370.1208 530.5868,364.6308" fill="none" id="S4-to-GATE" style="stroke:#0E2356;stroke-width:1;"/><polygon fill="#0E2356" points="535.85,361.75,526.0347,362.5625,531.464,364.1507,529.8758,369.58,535.85,361.75" style="stroke:#0E2356;stroke-width:1;"/><text fill="#000000" font-family="monospace" font-size="13" lengthAdjust="spacing" textLength="12.7397" x="463" y="396.0584">CI</text></g><!--link GATE to R1--><g class="link" data-entity-1="ent0010" data-entity-2="ent0016" data-link-type="dependency" data-source-line="69" id="lnk27"><path d="M656.63,307.99 C671.48,302.19 687.2,296.24 701.96,290.97 C740.21,277.31 749.83,273.89 788.96,262.97 C809.47,257.24 825.9242,253.024 846.8142,248.034" fill="none" id="GATE-to-R1" style="stroke:#0E2356;stroke-width:1;"/><polygon fill="#0E2356" points="852.65,246.64,842.9669,244.8405,847.7868,247.8017,844.8256,252.6215,852.65,246.64" style="stroke:#0E2356;stroke-width:1;"/><text fill="#000000" font-family="monospace" font-size="13" lengthAdjust="spacing" textLength="77.4795" x="702.96" y="262.0284">SKILL_VALID</text></g><!--link GATE to R2--><g class="link" data-entity-1="ent0010" data-entity-2="ent0017" data-link-type="dependency" data-source-line="70" id="lnk28"><path d="M666.42,327.03 C716.02,321.87 775.2521,315.7102 829.1421,310.1102" fill="none" id="GATE-to-R2" style="stroke:#0E2356;stroke-width:1;"/><polygon fill="#0E2356" points="835.11,309.49,825.7448,306.4417,830.1368,310.0068,826.5716,314.3988,835.11,309.49" style="stroke:#0E2356;stroke-width:1;"/><text fill="#000000" font-family="monospace" font-size="13" lengthAdjust="spacing" textLength="77.4795" x="702.96" y="312.4584">SKILL_VALID</text></g><!--link GATE to R3--><g class="link" data-entity-1="ent0010" data-entity-2="ent0018" data-link-type="dependency" data-source-line="71" id="lnk29"><path d="M666.35,356.38 C678.19,359.03 690.34,361.36 701.96,362.97 C744.5,368.85 785.7906,370.9949 826.6806,371.5749" fill="none" id="GATE-to-R3" style="stroke:#0E2356;stroke-width:1;"/><polygon fill="#0E2356" points="832.68,371.66,823.7376,367.5328,827.6805,371.5891,823.6242,375.532,832.68,371.66" style="stroke:#0E2356;stroke-width:1;"/><text fill="#000000" font-family="monospace" font-size="13" lengthAdjust="spacing" textLength="77.4795" x="702.96" y="359.5384">SKILL_VALID</text></g><!--link GATE to R4--><g class="link" data-entity-1="ent0010" data-entity-2="ent0019" data-link-type="dependency" data-source-line="72" id="lnk30"><path d="M640.11,361.88 C669.71,377.76 701.51,394.81 701.96,394.97 C742.57,409.47 782.9602,418.7437 823.6202,425.8737" fill="none" id="GATE-to-R4" style="stroke:#0E2356;stroke-width:1;"/><polygon fill="#0E2356" points="829.53,426.91,821.3561,421.4156,824.6051,426.0464,819.9744,429.2954,829.53,426.91" style="stroke:#0E2356;stroke-width:1;"/><text fill="#000000" font-family="monospace" font-size="13" lengthAdjust="spacing" textLength="77.4795" x="702.96" y="391.5384">SKILL_VALID</text></g><!--link REPOS to GMN31--><g class="link" data-entity-1="ent0002" data-entity-2="ent0032" data-link-type="association" data-source-line="75" id="lnk33"><path d="M187.5,85.8722 C187.5,85.8068 187.5,85.7415 187.5,85.6761 C187.5,85.1531 187.5,84.6302 187.5,84.1072 C187.5,83.0612 187.5,82.0153 187.5,80.9693 C187.5,78.8774 187.5,76.7855 187.5,74.6934 C187.5,70.5094 187.5,66.325 187.5,62.14" fill="none" id="REPOS-GMN31" style="stroke:#0E2356;stroke-width:1;stroke-dasharray:7,7;"/></g><?plantuml-src XLHjQzim4FxkNt5q7zOox3XEDaPXfMaIbsobAqaPWtKCrLPiKLlI93d56_llEqbBwtXf6v9WtpttekUvqsjOKYaqCqAriD4HlXPC6zKUWoafP4BPFvvHQHfIGOu-nZF310y2VSUu98hKaDCrQIgJ2cukIKsX5bneIJBQmToIxAvGek7vL5H2mNt9JDUVYLeAJhbPcRQYe6Xc22-gBcIYbBZtqQ_YUJ9w-wxZd6xZptg5NiqdwJWzsmiLAgVggOnNc8WKzBzywVlqB4tt07UonRDaDkk0BeNPaofDp-Rl-gXkdZIUn74S11LT6p0252jAWpfOVfmAqXU7WzKTgwf7EHdLS9ZJ38-fICL-qVpe08Y6vVpgymf-1m70GsZ1JDdSHYZ1W6Gr3L5sEP0LCMkXwb3RnDe5Nmqn4l3pJHAJbQ4aROq51ZTyzMbnSH7LERm1_wXe8RxRcDNGH-ItOSqAHGnz7fuW_C_BxULq8wJUQIxPDfTJMOasr5HjMFP2kT5pvV1NDvoPDXIg612sKswqBQURkYOAAGwbwXOxD8mgY8zyeR4lXD-7KOU3Ar6nh8LpPEM6ep3NCDYWMZc-_t2rNAdpoVKy23ZE1jmAOqGDOksD05b9ipjzx3hXTla6k8uwKqow-R1cJRD6uI70zkCiZoJyQ_Ba0moFd0kvepod7Bj2iMHfgN7m7ylvn_dqUZwpjRGXhGR6SK-trqU0OM1xt3EJ_aw1GzAO4aVJ4CCsT3kFvux7R-eVAh8QE_OzsOwznUnhq9-wqs6KH36uKy7GmPPsrZgJTZgAOWk1NLGI_3SafqaqHAH39Hvb9sD7szCuUk-oULqzQcmLTTBurKHby4WOEkiHQMdRLzEnhkZF1dTQmsFlLXFNlbLWAZXsGfNb7Bb7KjSAny3UqLlU_0WGMJz0TjX2xoNTOD_-xgXQdu5q58mw4gw648OdRiZW6AQBO9Nq3QE-OTmp1ExHsfP3jFWf-ZAvMCmwdkH9p-X9pxZdwQ-6k-FmmBZ981jT0WPD5s1GeG8vHC--LKCptdTWIMh1Mnxu-0i0?></g></svg>