<?plantuml 1.2026.1?><svg xmlns="http://www.w3.org/2000/svg" xmlns:xlink="http://www.w3.org/1999/xlink" contentStyleType="text/css" data-diagram-type="SEQUENCE" height="1016px" preserveAspectRatio="none" style="width:837px;height:1016px;background:#FFFFFF;" version="1.1" viewBox="0 0 837 1016" width="837px" zoomAndPan="magnify"><defs/><g><rect fill="none" height="309.7051" style="stroke:#000000;stroke-width:1.5;" width="810.5571" x="10" y="609.0781"/><rect fill="none" height="90.8867" style="stroke:#000000;stroke-width:1.5;" width="720.9502" x="20" y="820.8965"/><g class="participant-lifeline" data-entity-uid="part1" data-qualified-name="AGENT" id="part1-lifeline"><g><title>Developer . Agent</title><rect fill="#000000" fill-opacity="0.00000" height="854.2949" width="8" x="91.3164" y="81.4883"/><line style="stroke:#181818;stroke-width:0.5;stroke-dasharray:5,5;" x1="95" x2="95" y1="81.4883" y2="935.7832"/></g></g><g class="participant-lifeline" data-entity-uid="part2" data-qualified-name="PPG" id="part2-lifeline"><g><title>Platform Planning</title><rect fill="#000000" fill-opacity="0.00000" height="854.2949" width="8" x="364.3032" y="81.4883"/><line style="stroke:#181818;stroke-width:0.5;stroke-dasharray:5,5;" x1="368.2598" x2="368.2598" y1="81.4883" y2="935.7832"/></g></g><g class="participant-lifeline" data-entity-uid="part3" data-qualified-name="REGISTRY" id="part3-lifeline"><g><title>Registry</title><rect fill="#000000" fill-opacity="0.00000" height="854.2949" width="8" x="559.5186" y="81.4883"/><line style="stroke:#181818;stroke-width:0.5;stroke-dasharray:5,5;" x1="562.9219" x2="562.9219" y1="81.4883" y2="935.7832"/></g></g><g class="participant-lifeline" data-entity-uid="part4" data-qualified-name="TOOL" id="part4-lifeline"><g><title>Smart Tool</title><rect fill="#000000" fill-opacity="0.00000" height="854.2949" width="8" x="683.0327" y="81.4883"/><line style="stroke:#181818;stroke-width:0.5;stroke-dasharray:5,5;" x1="686.1152" x2="686.1152" y1="81.4883" y2="935.7832"/></g></g><g class="participant participant-head" data-entity-uid="part1" data-qualified-name="AGENT" id="part1-head"><text fill="#000000" font-family="monospace" font-size="14" lengthAdjust="spacing" textLength="124.6328" x="30" y="78.5352">Developer&#160;/&#160;Agent</text><ellipse cx="95.3164" cy="13.5" fill="#E2E2F0" rx="8" ry="8" style="stroke:#181818;stroke-width:0.5;"/><path d="M95.3164,21.5 L95.3164,48.5 M82.3164,29.5 L108.3164,29.5 M95.3164,48.5 L82.3164,63.5 M95.3164,48.5 L108.3164,63.5" fill="none" style="stroke:#181818;stroke-width:0.5;"/></g><g class="participant participant-tail" data-entity-uid="part1" data-qualified-name="AGENT" id="part1-tail"><text fill="#000000" font-family="monospace" font-size="14" lengthAdjust="spacing" textLength="124.6328" x="30" y="948.3184">Developer&#160;/&#160;Agent</text><ellipse cx="95.3164" cy="959.7715" fill="#E2E2F0" rx="8" ry="8" style="stroke:#181818;stroke-width:0.5;"/><path d="M95.3164,967.7715 L95.3164,994.7715 M82.3164,975.7715 L108.3164,975.7715 M95.3164,994.7715 L82.3164,1009.7715 M95.3164,994.7715 L108.3164,1009.7715" fill="none" style="stroke:#181818;stroke-width:0.5;"/></g><g class="participant participant-head" data-entity-uid="part2" data-qualified-name="PPG" id="part2-head"><rect fill="#EAF4FB" height="46.9766" rx="2.5" ry="2.5" style="stroke:#0E2356;stroke-width:0.5;" width="134.0869" x="301.2598" y="33.5117"/><text fill="#000000" font-family="monospace" font-size="14" lengthAdjust="spacing" textLength="120.0869" x="308.2598" y="54.0469">Platform&#160;Planning</text><text fill="#000000" font-family="monospace" font-size="14" lengthAdjust="spacing" textLength="95.8467" x="320.3799" y="70.5352">Gateway&#160;(PPG)</text></g><g class="participant participant-tail" data-entity-uid="part2" data-qualified-name="PPG" id="part2-tail"><rect fill="#EAF4FB" height="46.9766" rx="2.5" ry="2.5" style="stroke:#0E2356;stroke-width:0.5;" width="134.0869" x="301.2598" y="934.7832"/><text fill="#000000" font-family="monospace" font-size="14" lengthAdjust="spacing" textLength="120.0869" x="308.2598" y="955.3184">Platform&#160;Planning</text><text fill="#000000" font-family="monospace" font-size="14" lengthAdjust="spacing" textLength="95.8467" x="320.3799" y="971.8066">Gateway&#160;(PPG)</text></g><g class="participant participant-head" data-entity-uid="part3" data-qualified-name="REGISTRY" id="part3-head"><rect fill="#EAF4FB" height="46.9766" rx="2.5" ry="2.5" style="stroke:#0E2356;stroke-width:0.5;" width="139.1934" x="493.9219" y="33.5117"/><text fill="#000000" font-family="monospace" font-size="14" lengthAdjust="spacing" textLength="54.8447" x="536.0962" y="54.0469">Registry</text><text fill="#000000" font-family="monospace" font-size="14" lengthAdjust="spacing" textLength="125.1934" x="500.9219" y="70.5352">registry.acme.com</text></g><g class="participant participant-tail" data-entity-uid="part3" data-qualified-name="REGISTRY" id="part3-tail"><rect fill="#EAF4FB" height="46.9766" rx="2.5" ry="2.5" style="stroke:#0E2356;stroke-width:0.5;" width="139.1934" x="493.9219" y="934.7832"/><text fill="#000000" font-family="monospace" font-size="14" lengthAdjust="spacing" textLength="54.8447" x="536.0962" y="955.3184">Registry</text><text fill="#000000" font-family="monospace" font-size="14" lengthAdjust="spacing" textLength="125.1934" x="500.9219" y="971.8066">registry.acme.com</text></g><g class="participant participant-head" data-entity-uid="part4" data-qualified-name="TOOL" id="part4-head"><rect fill="#EAF4FB" height="30.4883" rx="2.5" ry="2.5" style="stroke:#0E2356;stroke-width:0.5;" width="87.835" x="643.1152" y="50"/><text fill="#000000" font-family="monospace" font-size="14" lengthAdjust="spacing" textLength="73.835" x="650.1152" y="70.5352">Smart&#160;Tool</text></g><g class="participant participant-tail" data-entity-uid="part4" data-qualified-name="TOOL" id="part4-tail"><rect fill="#EAF4FB" height="30.4883" rx="2.5" ry="2.5" style="stroke:#0E2356;stroke-width:0.5;" width="87.835" x="643.1152" y="934.7832"/><text fill="#000000" font-family="monospace" font-size="14" lengthAdjust="spacing" textLength="73.835" x="650.1152" y="955.3184">Smart&#160;Tool</text></g><rect fill="#EEEEEE" height="3" style="stroke:#EEEEEE;stroke-width:1;" width="830.5571" x="0" y="112.1436"/><line style="stroke:#000000;stroke-width:1;" x1="0" x2="830.5571" y1="112.1436" y2="112.1436"/><line style="stroke:#000000;stroke-width:1;" x1="0" x2="830.5571" y1="115.1436" y2="115.1436"/><rect fill="#EEEEEE" height="23.3105" style="stroke:#000000;stroke-width:2;" width="105.146" x="362.7056" y="101.4883"/><text fill="#000000" font-family="monospace" font-size="13" font-weight="bold" lengthAdjust="spacing" textLength="86.8613" x="368.7056" y="118.0566">Install&#160;(once)</text><g class="message" data-entity-1="part1" data-entity-2="part3" id="msg1"><polygon fill="#0E2356" points="551.5186,152.1094,561.5186,156.1094,551.5186,160.1094,555.5186,156.1094" style="stroke:#0E2356;stroke-width:1;"/><line style="stroke:#0E2356;stroke-width:1;" x1="95.3164" x2="557.5186" y1="156.1094" y2="156.1094"/><text fill="#000000" font-family="monospace" font-size="13" lengthAdjust="spacing" textLength="214.7158" x="102.3164" y="151.3672">apm&#160;install&#160;patch-payment@1.2.0</text></g><g class="message" data-entity-1="part3" data-entity-2="part2" id="msg2"><polygon fill="#0E2356" points="379.3032,196.7305,369.3032,200.7305,379.3032,204.7305,375.3032,200.7305" style="stroke:#0E2356;stroke-width:1;"/><line style="stroke:#0E2356;stroke-width:1;" x1="373.3032" x2="562.5186" y1="200.7305" y2="200.7305"/><text fill="#000000" font-family="monospace" font-size="13" lengthAdjust="spacing" textLength="119.7295" x="385.3032" y="180.6777">revalidate&#160;at&#160;install</text><text fill="#000000" font-family="monospace" font-size="13" lengthAdjust="spacing" textLength="124.3252" x="385.3032" y="195.9883">POST&#160;/validate_skill</text></g><g class="message" data-entity-1="part2" data-entity-2="part1" id="msg3"><polygon fill="#0E2356" points="106.3164,226.041,96.3164,230.041,106.3164,234.041,102.3164,230.041" style="stroke:#0E2356;stroke-width:1;"/><line style="stroke:#0E2356;stroke-width:1;stroke-dasharray:2,2;" x1="100.3164" x2="367.3032" y1="230.041" y2="230.041"/><text fill="#000000" font-family="monospace" font-size="13" lengthAdjust="spacing" textLength="164.4487" x="112.3164" y="225.2988">installed&#160;in&#160;.claude/skills/</text></g><rect fill="#EEEEEE" height="3" style="stroke:#EEEEEE;stroke-width:1;" width="830.5571" x="0" y="258.6963"/><line style="stroke:#000000;stroke-width:1;" x1="0" x2="830.5571" y1="258.6963" y2="258.6963"/><line style="stroke:#000000;stroke-width:1;" x1="0" x2="830.5571" y1="261.6963" y2="261.6963"/><rect fill="#EEEEEE" height="23.3105" style="stroke:#000000;stroke-width:2;" width="88.0454" x="371.2559" y="248.041"/><text fill="#000000" font-family="monospace" font-size="13" font-weight="bold" lengthAdjust="spacing" textLength="69.7607" x="377.2559" y="264.6094">Invocation</text><g class="message" data-entity-1="part1" data-entity-2="part1" id="msg4"><line style="stroke:#0E2356;stroke-width:1;" x1="95.3164" x2="137.3164" y1="302.6621" y2="302.6621"/><line style="stroke:#0E2356;stroke-width:1;" x1="137.3164" x2="137.3164" y1="302.6621" y2="315.6621"/><line style="stroke:#0E2356;stroke-width:1;" x1="96.3164" x2="137.3164" y1="315.6621" y2="315.6621"/><polygon fill="#0E2356" points="106.3164,311.6621,96.3164,315.6621,106.3164,319.6621,102.3164,315.6621" style="stroke:#0E2356;stroke-width:1;"/><text fill="#000000" font-family="monospace" font-size="13" lengthAdjust="spacing" textLength="252.0908" x="102.3164" y="297.9199">/patch-payment&#160;"add&#160;idempotency&#160;key"</text></g><g class="message" data-entity-1="part1" data-entity-2="part2" id="msg5"><polygon fill="#0E2356" points="356.3032,356.2832,366.3032,360.2832,356.3032,364.2832,360.3032,360.2832" style="stroke:#0E2356;stroke-width:1;"/><line style="stroke:#0E2356;stroke-width:1;" x1="95.3164" x2="362.3032" y1="360.2832" y2="360.2832"/><text fill="#000000" font-family="monospace" font-size="13" lengthAdjust="spacing" textLength="82.5513" x="102.3164" y="340.2305">POST&#160;/enrich</text><text fill="#000000" font-family="monospace" font-size="13" lengthAdjust="spacing" textLength="136.4238" x="102.3164" y="355.541">{intent,&#160;repo_context}</text></g><g class="message" data-entity-1="part2" data-entity-2="part1" id="msg6"><polygon fill="#0E2356" points="106.3164,400.9043,96.3164,404.9043,106.3164,408.9043,102.3164,404.9043" style="stroke:#0E2356;stroke-width:1;"/><line style="stroke:#0E2356;stroke-width:1;stroke-dasharray:2,2;" x1="100.3164" x2="367.3032" y1="404.9043" y2="404.9043"/><text fill="#000000" font-family="monospace" font-size="13" lengthAdjust="spacing" textLength="92.5869" x="112.3164" y="384.8516">ADR&#160;invariants</text><text fill="#000000" font-family="monospace" font-size="13" lengthAdjust="spacing" textLength="116.3335" x="112.3164" y="400.1621">(amplifier&#160;context)</text></g><g class="message" data-entity-1="part1" data-entity-2="part1" id="msg7"><line style="stroke:#0E2356;stroke-width:1;" x1="95.3164" x2="137.3164" y1="434.2148" y2="434.2148"/><line style="stroke:#0E2356;stroke-width:1;" x1="137.3164" x2="137.3164" y1="434.2148" y2="447.2148"/><line style="stroke:#0E2356;stroke-width:1;" x1="96.3164" x2="137.3164" y1="447.2148" y2="447.2148"/><polygon fill="#0E2356" points="106.3164,443.2148,96.3164,447.2148,106.3164,451.2148,102.3164,447.2148" style="stroke:#0E2356;stroke-width:1;"/><text fill="#000000" font-family="monospace" font-size="13" lengthAdjust="spacing" textLength="152.2612" x="102.3164" y="429.4727">produce&#160;structured&#160;plan</text></g><g class="message" data-entity-1="part1" data-entity-2="part2" id="msg8"><polygon fill="#0E2356" points="356.3032,487.8359,366.3032,491.8359,356.3032,495.8359,360.3032,491.8359" style="stroke:#0E2356;stroke-width:1;"/><line style="stroke:#0E2356;stroke-width:1;" x1="95.3164" x2="362.3032" y1="491.8359" y2="491.8359"/><text fill="#000000" font-family="monospace" font-size="13" lengthAdjust="spacing" textLength="121.4497" x="102.3164" y="471.7832">POST&#160;/lock_in_plan</text><text fill="#000000" font-family="monospace" font-size="13" lengthAdjust="spacing" textLength="202.6807" x="102.3164" y="487.0938">{plan,&#160;skill_id:&#160;"patch-payment"}</text></g><g class="message" data-entity-1="part2" data-entity-2="part3" id="msg9"><polygon fill="#0E2356" points="551.5186,532.457,561.5186,536.457,551.5186,540.457,555.5186,536.457" style="stroke:#0E2356;stroke-width:1;"/><line style="stroke:#0E2356;stroke-width:1;" x1="368.3032" x2="557.5186" y1="536.457" y2="536.457"/><text fill="#000000" font-family="monospace" font-size="13" lengthAdjust="spacing" textLength="171.2153" x="375.3032" y="516.4043">load&#160;companion&#160;SKILL.rego</text><text fill="#000000" font-family="monospace" font-size="13" lengthAdjust="spacing" textLength="155.5684" x="375.3032" y="531.7148">(skill-specific&#160;plan&#160;rules)</text></g><g class="message" data-entity-1="part2" data-entity-2="part2" id="msg10"><line style="stroke:#0E2356;stroke-width:1;" x1="368.3032" x2="410.3032" y1="581.0781" y2="581.0781"/><line style="stroke:#0E2356;stroke-width:1;" x1="410.3032" x2="410.3032" y1="581.0781" y2="594.0781"/><line style="stroke:#0E2356;stroke-width:1;" x1="369.3032" x2="410.3032" y1="594.0781" y2="594.0781"/><polygon fill="#0E2356" points="379.3032,590.0781,369.3032,594.0781,379.3032,598.0781,375.3032,594.0781" style="stroke:#0E2356;stroke-width:1;"/><text fill="#000000" font-family="monospace" font-size="13" lengthAdjust="spacing" textLength="139.4961" x="375.3032" y="561.0254">evaluate:&#160;ADR&#160;policies</text><text fill="#000000" font-family="monospace" font-size="13" lengthAdjust="spacing" textLength="154.4448" x="375.3032" y="576.3359">+&#160;companion&#160;SKILL.rego</text></g><path d="M10,609.0781 L72.1387,609.0781 L72.1387,616.3887 L62.1387,626.3887 L10,626.3887 L10,609.0781" fill="#EEEEEE" style="stroke:#000000;stroke-width:1.5;"/><rect fill="none" height="309.7051" style="stroke:#000000;stroke-width:1.5;" width="810.5571" x="10" y="609.0781"/><text fill="#000000" font-family="monospace" font-size="13" font-weight="bold" lengthAdjust="spacing" textLength="17.1387" x="25" y="622.6465">alt</text><text fill="#000000" font-family="monospace" font-size="11" font-weight="bold" lengthAdjust="spacing" textLength="99.5103" x="87.1387" y="621.7129">[PLAN_REJECTED]</text><g class="message" data-entity-1="part2" data-entity-2="part1" id="msg11"><polygon fill="#0E2356" points="106.3164,643.6992,96.3164,647.6992,106.3164,651.6992,102.3164,647.6992" style="stroke:#0E2356;stroke-width:1;"/><line style="stroke:#0E2356;stroke-width:1;stroke-dasharray:2,2;" x1="100.3164" x2="367.3032" y1="647.6992" y2="647.6992"/><text fill="#000000" font-family="monospace" font-size="13" lengthAdjust="spacing" textLength="163.4268" x="112.3164" y="642.957">422&#160;{violations,&#160;guidance}</text></g><g class="message" data-entity-1="part1" data-entity-2="part1" id="msg12"><line style="stroke:#0E2356;stroke-width:1;" x1="95.3164" x2="137.3164" y1="677.0098" y2="677.0098"/><line style="stroke:#0E2356;stroke-width:1;" x1="137.3164" x2="137.3164" y1="677.0098" y2="690.0098"/><line style="stroke:#0E2356;stroke-width:1;" x1="96.3164" x2="137.3164" y1="690.0098" y2="690.0098"/><polygon fill="#0E2356" points="106.3164,686.0098,96.3164,690.0098,106.3164,694.0098,102.3164,690.0098" style="stroke:#0E2356;stroke-width:1;"/><text fill="#000000" font-family="monospace" font-size="13" lengthAdjust="spacing" textLength="151.3979" x="102.3164" y="672.2676">self-correct&#160;&#8594;&#160;resubmit</text></g><line style="stroke:#000000;stroke-width:1;stroke-dasharray:2,2;" x1="10" x2="820.5571" y1="699.0098" y2="699.0098"/><text fill="#000000" font-family="monospace" font-size="11" font-weight="bold" lengthAdjust="spacing" textLength="89.7778" x="15" y="709.6445">[PLAN_LOCKED]</text><g class="message" data-entity-1="part2" data-entity-2="part1" id="msg13"><polygon fill="#0E2356" points="106.3164,730.2754,96.3164,734.2754,106.3164,738.2754,102.3164,734.2754" style="stroke:#0E2356;stroke-width:1;"/><line style="stroke:#0E2356;stroke-width:1;stroke-dasharray:2,2;" x1="100.3164" x2="367.3032" y1="734.2754" y2="734.2754"/><text fill="#000000" font-family="monospace" font-size="13" lengthAdjust="spacing" textLength="248.9868" x="112.3164" y="729.5332">200&#160;{status:&#160;PLAN_LOCKED,&#160;ticket:&#160;JWT}</text></g><g class="message" data-entity-1="part1" data-entity-2="part4" id="msg14"><polygon fill="#0E2356" points="675.0327,759.5859,685.0327,763.5859,675.0327,767.5859,679.0327,763.5859" style="stroke:#0E2356;stroke-width:1;"/><line style="stroke:#0E2356;stroke-width:1;" x1="95.3164" x2="681.0327" y1="763.5859" y2="763.5859"/><text fill="#000000" font-family="monospace" font-size="13" lengthAdjust="spacing" textLength="92.0029" x="102.3164" y="758.8438">tool&#160;call&#160;+&#160;JWT</text></g><g class="message" data-entity-1="part4" data-entity-2="part4" id="msg15"><line style="stroke:#0E2356;stroke-width:1;" x1="687.0327" x2="729.0327" y1="792.8965" y2="792.8965"/><line style="stroke:#0E2356;stroke-width:1;" x1="729.0327" x2="729.0327" y1="792.8965" y2="805.8965"/><line style="stroke:#0E2356;stroke-width:1;" x1="688.0327" x2="729.0327" y1="805.8965" y2="805.8965"/><polygon fill="#0E2356" points="698.0327,801.8965,688.0327,805.8965,698.0327,809.8965,694.0327,805.8965" style="stroke:#0E2356;stroke-width:1;"/><text fill="#000000" font-family="monospace" font-size="13" lengthAdjust="spacing" textLength="114.5244" x="694.0327" y="788.1543">verify&#160;ticket&#160;scope</text></g><path d="M20,820.8965 L82.1387,820.8965 L82.1387,828.207 L72.1387,838.207 L20,838.207 L20,820.8965" fill="#EEEEEE" style="stroke:#000000;stroke-width:1.5;"/><rect fill="none" height="90.8867" style="stroke:#000000;stroke-width:1.5;" width="720.9502" x="20" y="820.8965"/><text fill="#000000" font-family="monospace" font-size="13" font-weight="bold" lengthAdjust="spacing" textLength="17.1387" x="35" y="834.4648">alt</text><text fill="#000000" font-family="monospace" font-size="11" font-weight="bold" lengthAdjust="spacing" textLength="55.4136" x="97.1387" y="833.5313">[in&#160;scope]</text><g class="message" data-entity-1="part4" data-entity-2="part1" id="msg16"><polygon fill="#0E2356" points="106.3164,855.5176,96.3164,859.5176,106.3164,863.5176,102.3164,859.5176" style="stroke:#0E2356;stroke-width:1;"/><line style="stroke:#0E2356;stroke-width:1;stroke-dasharray:2,2;" x1="100.3164" x2="686.0327" y1="859.5176" y2="859.5176"/><text fill="#000000" font-family="monospace" font-size="13" lengthAdjust="spacing" textLength="35.877" x="112.3164" y="854.7754">result</text></g><line style="stroke:#000000;stroke-width:1;stroke-dasharray:2,2;" x1="20" x2="740.9502" y1="868.5176" y2="868.5176"/><text fill="#000000" font-family="monospace" font-size="11" font-weight="bold" lengthAdjust="spacing" textLength="78.5308" x="25" y="879.1523">[out&#160;of&#160;scope]</text><g class="message" data-entity-1="part4" data-entity-2="part1" id="msg17"><polygon fill="#0E2356" points="106.3164,899.7832,96.3164,903.7832,106.3164,907.7832,102.3164,903.7832" style="stroke:#0E2356;stroke-width:1;"/><line style="stroke:#0E2356;stroke-width:1;stroke-dasharray:2,2;" x1="100.3164" x2="686.0327" y1="903.7832" y2="903.7832"/><text fill="#000000" font-family="monospace" font-size="13" lengthAdjust="spacing" textLength="136.9126" x="112.3164" y="899.041">OUT_OF_PLAN_SCOPE</text></g><?plantuml-src XLJjRjem5FsVfxYYFrRK0XdhgWcfqw0ag2q214pL92JaEHUmS6pFSMXHrRzxW3tYdcGt2RHGsbMA4bi-v_ZShto0smLpi636e4g0bZPLJiG8TmjKmEYPet8Wr4elaG2GB8MKdaSVPPXbCKGuOwbqeLQknuWOQwKJmpZkO7uolfnRdQheKajjILoutVCH_afHSMnQg-yAo94Vr3zzFdy5D63M2IuCKwxrGlSeQ8PdOUiTahOHslTkQUdx0_NmIzWAmpV0Uwf-kzvkxm1xsk6XN1YsWlENg5sTq6_wlkzvZ3lQbjguGgaDMgX1CwjB2LW2pKxG6tlcEK0e3IHpCsrZe8LIGiqdgiCSth4r70y6dNBEeyK-QuXpaJYxdYYxMLKPZx7ATPmJXa7dQZGU_jXdZMBQmLXhcOF6_NxNyouku4ebZaa9nveIL8QB2y_BdKBbwvCID82PcBghW1hc-A9Ys3gcsBvzhDQhllS49Hev9eR55PCYedYoVjrm9shG7usXjZsQ5dsQCIh4B6vkRD4OqGggNB8qmbeEJMeRrolDcHDQxJlU2jJsF4A9HIGLOMoeT8glOOdhqWwjS5nOGsK5NqpKWr24TQSKYD5JJdE3z-xnm6gpFSp6Zbb1QKucwfZ5HegPeEflEELN_1chevGZKFLIxb9BaHhgWJSiISsNKw6c6OICPP_JOiAd8cf0QI_OqiRZNlcaPX7vYQaNifoDRgwwtIgrZoR3kL0bCSZ9DizzqEz5ObBU2XLUidgcLBCYPgCbzHPIn2Ul2jCqI0U3RhCt7GRNmUKuQ7iUmClqdTNhyB0IMkR5J4vXdb9ZK2i-4lWWRGdAMOLhQv4x-Flx3zKcIN_6mdaUoWIBwxhzovlNBwlxFZnGPxaqQUnYJu7cP8ck0TUtuqTlz-PiJeZfQ6w0Pyr_ac48aHyy0rPenMozqO64q_XdEbaEg8MBFS2MjkCfYq0wEii3qAa3FViVllzzFEs7qzpzwB8_23AgYYW1zFe7?></g></svg>