<?plantuml 1.2026.1?><svg xmlns="http://www.w3.org/2000/svg" xmlns:xlink="http://www.w3.org/1999/xlink" contentStyleType="text/css" data-diagram-type="DESCRIPTION" height="871px" preserveAspectRatio="none" style="width:620px;height:871px;background:#FFFFFF;" version="1.1" viewBox="0 0 620 871" width="620px" zoomAndPan="magnify"><defs/><g><!--cluster DIST--><g class="cluster" data-qualified-name="DIST" data-source-line="16" id="ent0002"><path d="M241.5,6 L361.958,6 A3.75,3.75 0 0 1 364.458,8.5 L371.458,28.4883 L586.5,28.4883 A2.5,2.5 0 0 1 589,30.9883 L589,538.92 A2.5,2.5 0 0 1 586.5,541.42 L241.5,541.42 A2.5,2.5 0 0 1 239,538.92 L239,8.5 A2.5,2.5 0 0 1 241.5,6" fill="#F8FBFF" style="stroke:#00D2DD;stroke-width:1.5;"/><line style="stroke:#00D2DD;stroke-width:1.5;" x1="239" x2="371.458" y1="28.4883" y2="28.4883"/><text fill="#000000" font-family="monospace" font-size="14" font-weight="bold" lengthAdjust="spacing" textLength="119.458" x="243" y="21.5352">1&#160;&#8212;&#160;Distribution</text></g><!--cluster RT--><g class="cluster" data-qualified-name="RT" data-source-line="32" id="ent0013"><path d="M8.5,590.42 L102.0176,590.42 A3.75,3.75 0 0 1 104.5176,592.92 L111.5176,612.9083 L456.5,612.9083 A2.5,2.5 0 0 1 459,615.4083 L459,861.87 A2.5,2.5 0 0 1 456.5,864.37 L8.5,864.37 A2.5,2.5 0 0 1 6,861.87 L6,592.92 A2.5,2.5 0 0 1 8.5,590.42" fill="#F8FBFF" style="stroke:#00D2DD;stroke-width:1.5;"/><line style="stroke:#00D2DD;stroke-width:1.5;" x1="6" x2="111.5176" y1="612.9083" y2="612.9083"/><text fill="#000000" font-family="monospace" font-size="14" font-weight="bold" lengthAdjust="spacing" textLength="92.5176" x="10" y="605.9552">2&#160;&#8212;&#160;Runtime</text></g><!--entity AUTHOR--><g class="entity" data-qualified-name="DIST.AUTHOR" data-source-line="17" id="ent0003"><ellipse cx="371.9968" cy="49.5" fill="#EAF4FB" rx="8" ry="8" style="stroke:#0E2356;stroke-width:0.5;"/><path d="M371.9968,57.5 L371.9968,84.5 M358.9968,65.5 L384.9968,65.5 M371.9968,84.5 L358.9968,99.5 M371.9968,84.5 L384.9968,99.5" fill="none" style="stroke:#0E2356;stroke-width:0.5;"/><text fill="#000000" font-family="monospace" font-size="14" lengthAdjust="spacing" textLength="78.8936" x="332.55" y="114.5352">Skill&#160;Author</text></g><!--entity REPO--><g class="entity" data-qualified-name="DIST.REPO" data-source-line="18" id="ent0004"><path d="M304.05,204.49 C304.05,194.49 372.0017,194.49 372.0017,194.49 C372.0017,194.49 439.9533,194.49 439.9533,204.49 L439.9533,246.4666 C439.9533,256.4666 372.0017,256.4666 372.0017,256.4666 C372.0017,256.4666 304.05,256.4666 304.05,246.4666 L304.05,204.49" fill="#F1F1F1" style="stroke:#181818;stroke-width:0.5;"/><path d="M304.05,204.49 C304.05,214.49 372.0017,214.49 372.0017,214.49 C372.0017,214.49 439.9533,214.49 439.9533,204.49" fill="none" style="stroke:#181818;stroke-width:0.5;"/><text fill="#000000" font-family="monospace" font-size="14" lengthAdjust="spacing" textLength="104.4189" x="314.05" y="232.0252">Skill&#160;Repository</text><text fill="#000000" font-family="monospace" font-size="14" lengthAdjust="spacing" textLength="115.9033" x="314.05" y="248.5134">(GitHub&#160;/&#160;GitLab)</text></g><!--entity LINTER--><g class="entity" data-qualified-name="DIST.LINTER" data-source-line="19" id="ent0005"><rect fill="#EAF4FB" height="52.9766" rx="2.5" ry="2.5" style="stroke:#0E2356;stroke-width:0.5;" width="153.8887" x="295.06" y="333.46"/><text fill="#000000" font-family="monospace" font-size="14" lengthAdjust="spacing" textLength="71.2578" x="305.06" y="356.9952">Skill&#160;Linter</text><text fill="#000000" font-family="monospace" font-size="14" lengthAdjust="spacing" textLength="133.8887" x="305.06" y="373.4834">POST&#160;/validate_skill</text></g><!--entity REGISTRY--><g class="entity" data-qualified-name="DIST.REGISTRY" data-source-line="20" id="ent0006"><path d="M255.4,473.44 C255.4,463.44 327.9967,463.44 327.9967,463.44 C327.9967,463.44 400.5934,463.44 400.5934,473.44 L400.5934,515.4166 C400.5934,525.4166 327.9967,525.4166 327.9967,525.4166 C327.9967,525.4166 255.4,525.4166 255.4,515.4166 L255.4,473.44" fill="#F1F1F1" style="stroke:#181818;stroke-width:0.5;"/><path d="M255.4,473.44 C255.4,483.44 327.9967,483.44 327.9967,483.44 C327.9967,483.44 400.5934,483.44 400.5934,473.44" fill="none" style="stroke:#181818;stroke-width:0.5;"/><text fill="#000000" font-family="monospace" font-size="14" lengthAdjust="spacing" textLength="87.1377" x="265.4" y="500.9752">Skill&#160;Registry</text><text fill="#000000" font-family="monospace" font-size="14" lengthAdjust="spacing" textLength="125.1934" x="265.4" y="517.4634">registry.acme.com</text></g><g class="entity" data-qualified-name="DIST.GMN10" data-source-line="27" id="ent0011"><path d="M435.39,474.12 L435.39,514.7411 L572.6029,514.7411 L572.6029,484.12 L562.6029,474.12 L435.39,474.12" fill="#FFFBE6" style="stroke:#F0A000;stroke-width:0.5;"/><path d="M562.6029,474.12 L562.6029,484.12 L572.6029,484.12 L562.6029,474.12" fill="#FFFBE6" style="stroke:#F0A000;stroke-width:1;"/><text fill="#000000" font-family="monospace" font-size="13" lengthAdjust="spacing" textLength="104.0635" x="441.39" y="491.6884">SKILL_REJECTED:</text><text fill="#000000" font-family="monospace" font-size="13" lengthAdjust="spacing" textLength="116.2129" x="441.39" y="506.9989">stays&#160;in&#160;repository</text></g><!--entity CONSUMER--><g class="entity" data-qualified-name="RT.CONSUMER" data-source-line="33" id="ent0014"><ellipse cx="213.9964" cy="633.92" fill="#EAF4FB" rx="8" ry="8" style="stroke:#0E2356;stroke-width:0.5;"/><path d="M213.9964,641.92 L213.9964,668.92 M200.9964,649.92 L226.9964,649.92 M213.9964,668.92 L200.9964,683.92 M213.9964,668.92 L226.9964,683.92" fill="none" style="stroke:#0E2356;stroke-width:0.5;"/><text fill="#000000" font-family="monospace" font-size="14" lengthAdjust="spacing" textLength="124.6328" x="151.68" y="698.9552">Developer&#160;/&#160;Agent</text></g><!--entity PPG--><g class="entity" data-qualified-name="RT.PPG" data-source-line="34" id="ent0015"><rect fill="#EAF4FB" height="69.4648" rx="2.5" ry="2.5" style="stroke:#0E2356;stroke-width:0.5;" width="150.792" x="239.6" y="778.91"/><text fill="#000000" font-family="monospace" font-size="14" lengthAdjust="spacing" textLength="25.5938" x="249.6" y="802.4452">PPG</text><text fill="#000000" font-family="monospace" font-size="14" lengthAdjust="spacing" textLength="88.9014" x="249.6" y="818.9334">POST&#160;/enrich</text><text fill="#000000" font-family="monospace" font-size="14" lengthAdjust="spacing" textLength="130.792" x="249.6" y="835.4217">POST&#160;/lock_in_plan</text></g><!--entity TOOL--><g class="entity" data-qualified-name="RT.TOOL" data-source-line="35" id="ent0016"><rect fill="#EAF4FB" height="52.9766" rx="2.5" ry="2.5" style="stroke:#0E2356;stroke-width:0.5;" width="159.4189" x="22.29" y="787.15"/><text fill="#000000" font-family="monospace" font-size="14" lengthAdjust="spacing" textLength="73.835" x="32.29" y="810.6852">Smart&#160;Tool</text><text fill="#000000" font-family="monospace" font-size="14" lengthAdjust="spacing" textLength="139.4189" x="32.29" y="827.1734">(verifies&#160;JWT&#160;in-tool)</text></g><!--link AUTHOR to REPO--><g class="link" data-entity-1="ent0003" data-entity-2="ent0004" data-link-type="dependency" data-source-line="22" id="lnk7"><path d="M372,117.76 C372,141.63 372,166.13 372,188.41" fill="none" id="AUTHOR-to-REPO" style="stroke:#0E2356;stroke-width:1;"/><polygon fill="#0E2356" points="372,194.41,376,185.41,372,189.41,368,185.41,372,194.41" style="stroke:#0E2356;stroke-width:1;"/><text fill="#000000" font-family="monospace" font-size="13" lengthAdjust="spacing" textLength="51.7842" x="373" y="161.0584">git&#160;push</text></g><!--link REPO to LINTER--><g class="link" data-entity-1="ent0004" data-entity-2="ent0005" data-link-type="dependency" data-source-line="23" id="lnk8"><path d="M372,256.87 C372,279.94 372,305.31 372,327.16" fill="none" id="REPO-to-LINTER" style="stroke:#0E2356;stroke-width:1;"/><polygon fill="#0E2356" points="372,333.16,376,324.16,372,328.16,368,324.16,372,333.16" style="stroke:#0E2356;stroke-width:1;"/><text fill="#000000" font-family="monospace" font-size="13" lengthAdjust="spacing" textLength="66.1934" x="373" y="300.0284">CI&#160;triggers</text></g><!--link LINTER to REGISTRY--><g class="link" data-entity-1="ent0005" data-entity-2="ent0006" data-link-type="dependency" data-source-line="24" id="lnk9"><path d="M363.41,386.81 C356.16,408.65 347.6507,434.2557 340.0007,457.2957" fill="none" id="LINTER-to-REGISTRY" style="stroke:#0E2356;stroke-width:1;"/><polygon fill="#0E2356" points="338.11,462.99,344.7423,455.709,339.6856,458.2447,337.1498,453.1881,338.11,462.99" style="stroke:#0E2356;stroke-width:1;"/><text fill="#000000" font-family="monospace" font-size="13" lengthAdjust="spacing" textLength="77.4795" x="353.63" y="430.0084">SKILL_VALID</text></g><!--link LINTER to GMN10--><g class="link" data-entity-1="ent0005" data-entity-2="ent0011" data-link-type="association" data-source-line="27" id="lnk12"><path d="M406.31,386.82 C417.45,395.77 429.61,406.14 440,416.44 C458.4,434.67 477.06,457.76 489.45,473.88" fill="none" id="LINTER-GMN10" style="stroke:#0E2356;stroke-width:1;stroke-dasharray:7,7;"/></g><!--link CONSUMER to PPG--><g class="link" data-entity-1="ent0014" data-entity-2="ent0015" data-link-type="dependency" data-source-line="37" id="lnk17"><path d="M189.46,702.05 C182.65,717.33 179.24,734.71 188,748.91 C199.79,768.01 213.8177,779.0213 233.9977,788.5813" fill="none" id="CONSUMER-to-PPG" style="stroke:#0E2356;stroke-width:1;"/><polygon fill="#0E2356" points="239.42,791.15,232.999,783.682,234.9014,789.0094,229.574,790.9118,239.42,791.15" style="stroke:#0E2356;stroke-width:1;"/><text fill="#000000" font-family="monospace" font-size="13" lengthAdjust="spacing" textLength="82.6084" x="189" y="745.4784">intent&#160;+&#160;plan</text></g><!--link PPG to CONSUMER--><g class="link" data-entity-1="ent0015" data-entity-2="ent0014" data-link-type="dependency" data-source-line="38" id="lnk18"><path d="M301.17,778.42 C294.5,763.57 285.81,746.32 276,731.91 C269.03,721.66 264.592,715.8633 256.162,706.5733" fill="none" id="PPG-to-CONSUMER" style="stroke:#0E2356;stroke-width:1;"/><polygon fill="#0E2356" points="252.13,702.13,255.2158,711.483,255.49,705.8328,261.1402,706.107,252.13,702.13" style="stroke:#0E2356;stroke-width:1;"/><text fill="#000000" font-family="monospace" font-size="13" lengthAdjust="spacing" textLength="126.9023" x="287.27" y="745.4784">JWT&#160;capability&#160;ticket</text></g><!--link CONSUMER to TOOL--><g class="link" data-entity-1="ent0014" data-entity-2="ent0016" data-link-type="dependency" data-source-line="39" id="lnk19"><path d="M151.24,680.45 C124.76,690.56 96.52,706.67 81,731.91 C70.76,748.56 74.4716,764.736 82.8116,781.376" fill="none" id="CONSUMER-to-TOOL" style="stroke:#0E2356;stroke-width:1;"/><polygon fill="#0E2356" points="85.5,786.74,85.0433,776.9017,83.2596,782.27,77.8914,780.4863,85.5,786.74" style="stroke:#0E2356;stroke-width:1;"/><text fill="#000000" font-family="monospace" font-size="13" lengthAdjust="spacing" textLength="92.0029" x="82" y="745.4784">tool&#160;call&#160;+&#160;JWT</text></g><!--link REGISTRY to CONSUMER--><g class="link" data-entity-1="ent0006" data-entity-2="ent0014" data-link-type="dependency" data-source-line="42" id="lnk20"><path d="M304.91,525.73 C297.46,535.72 289.25,546.95 282,557.42 C266.64,579.59 253.412,599.9022 240.552,620.1922" fill="none" id="REGISTRY-to-CONSUMER" style="stroke:#0E2356;stroke-width:1;"/><polygon fill="#0E2356" points="237.34,625.26,245.5366,619.7996,240.0167,621.0368,238.7795,615.5169,237.34,625.26" style="stroke:#0E2356;stroke-width:1;"/><text fill="#000000" font-family="monospace" font-size="13" lengthAdjust="spacing" textLength="156.1206" x="283" y="570.9884">apm&#160;install&#160;skill@version</text></g><!--link PPG to REGISTRY--><g class="link" data-entity-1="ent0015" data-entity-2="ent0006" data-link-type="dependency" data-source-line="43" id="lnk21"><path d="M390.88,779.54 C402.96,771.17 414.07,761.03 422,748.91 C464.8,683.5 439.1,652.43 444,574.42 C444.47,566.88 448.49,563.49 444,557.42 C436.82,547.69 429.04,554.34 418,549.42 C403.02,542.74 392.5825,537.1876 378.6925,528.7776" fill="none" id="PPG-to-REGISTRY" style="stroke:#0E2356;stroke-width:1;stroke-dasharray:7,7;"/><polygon fill="#0E2356" points="373.56,525.67,379.1871,533.7531,377.8371,528.2597,383.3305,526.9097,373.56,525.67" style="stroke:#0E2356;stroke-width:1;"/><text fill="#000000" font-family="monospace" font-size="13" lengthAdjust="spacing" textLength="107.8657" x="476.3892" y="661.2284">loads&#160;companion</text><text fill="#000000" font-family="monospace" font-size="13" lengthAdjust="spacing" textLength="164.144" x="448.25" y="676.5389">SKILL.rego&#160;at&#160;lock_in_plan</text></g><?plantuml-src XLJHRjD047ptLwpQ1q0bQIXGeJmWdDXkKqmI9Iu8gL9qSQxEAVQTTRTE524aFe8lv4lOEoV13K6ysRUpCxipPp-3wTOWBq2jkLuBlka2RXIKIsQuWLy_Vi926DHYNg5GyYNWaalGbKHHSCypAo5Bfba12_x8gXmZ9N782Ww5aigKBEKDp9obgqohIYxwAbSQDak1pNggYb99Bd6Asvo3vYaocULDYA-rsjJTvvtmwlNRwqQnl-_l7GcTXtxq9kgTX2gzuFfVZ6CYOXd_Yozw5_MYw0Jm2Lidk0g21cYey0HL5FN2wsDKaoVg-9rEfsb2Yah_VySQTc8_hwodXRDNBk6WaV0PC0F1O9h0Dm-0MGeucwv4deDVuL9f1_3lazlHX00BXcnELsMFcV1I6K5DsmVv_4RWRJM7Iw27cCrVkDP9E1vHuo7hVMSi97Bz8CSZqhvSirmGDvyPMtIDyM2OXASrCxi0AUhTKvkb1M-Jn4xnXlQPVFMejnuSMgttRX3eGYOGoieigUXERAcMec9_0EHCbd5jgBuxhfjhJi9CFmxYUFRPZmU1LP0K7ymLeg9lwl7FrB03JiAxi9-4GTUT6MHR0u8-gODnTCxbml5utnjPNRci9lMdLo_s9AI0htckIgx9S3yZPnscFnfExp-v2HgMZyStUwUvr29TxjzobQvcGixAdDLNWP17QHLC8oHAvPGm_JF4ew0VnTsNXBPe8HtNCIUZKMpjsEixruYC3BD14zC5M162s5DRFK2xZYvb9PkBNE0MKAGhZiTiLeAmLfF0T14kR9_rx93E4Iqh2r8dpmdiBjO7Mi3GhVVi3EtsarnpnHR6RSuaGHwaowzDTqm1GsWwvVq6?></g></svg>