<?plantuml 1.2026.1?><svg xmlns="http://www.w3.org/2000/svg" xmlns:xlink="http://www.w3.org/1999/xlink" contentStyleType="text/css" data-diagram-type="DESCRIPTION" height="628px" preserveAspectRatio="none" style="width:1022px;height:628px;background:#FFFFFF;" version="1.1" viewBox="0 0 1022 628" width="1022px" zoomAndPan="magnify"><defs/><g><!--cluster DIST--><g class="cluster" data-qualified-name="DIST" data-source-line="16" id="ent0002"><path d="M8.5,6 L128.958,6 A3.75,3.75 0 0 1 131.458,8.5 L138.458,28.4883 L353.5,28.4883 A2.5,2.5 0 0 1 356,30.9883 L356,619.45 A2.5,2.5 0 0 1 353.5,621.95 L8.5,621.95 A2.5,2.5 0 0 1 6,619.45 L6,8.5 A2.5,2.5 0 0 1 8.5,6" fill="#F8FBFF" style="stroke:#00D2DD;stroke-width:1.5;"/><line style="stroke:#00D2DD;stroke-width:1.5;" x1="6" x2="138.458" y1="28.4883" y2="28.4883"/><text fill="#000000" font-family="monospace" font-size="14" font-weight="bold" lengthAdjust="spacing" textLength="119.458" x="10" y="21.5352">1&#160;&#8212;&#160;Distribution</text></g><!--cluster RT--><g class="cluster" data-qualified-name="RT" data-source-line="32" id="ent0013"><path d="M382.5,180.49 L476.0176,180.49 A3.75,3.75 0 0 1 478.5176,182.99 L485.5176,202.9783 L830.5,202.9783 A2.5,2.5 0 0 1 833,205.4783 L833,458.71 A2.5,2.5 0 0 1 830.5,461.21 L382.5,461.21 A2.5,2.5 0 0 1 380,458.71 L380,182.99 A2.5,2.5 0 0 1 382.5,180.49" fill="#F8FBFF" style="stroke:#00D2DD;stroke-width:1.5;"/><line style="stroke:#00D2DD;stroke-width:1.5;" x1="380" x2="485.5176" y1="202.9783" y2="202.9783"/><text fill="#000000" font-family="monospace" font-size="14" font-weight="bold" lengthAdjust="spacing" textLength="92.5176" x="384" y="196.0252">2&#160;&#8212;&#160;Runtime</text></g><!--entity AUTHOR--><g class="entity" data-qualified-name="DIST.AUTHOR" data-source-line="17" id="ent0003"><ellipse cx="123.9968" cy="49.5" fill="#EAF4FB" rx="8" ry="8" style="stroke:#0E2356;stroke-width:0.5;"/><path d="M123.9968,57.5 L123.9968,84.5 M110.9968,65.5 L136.9968,65.5 M123.9968,84.5 L110.9968,99.5 M123.9968,84.5 L136.9968,99.5" fill="none" style="stroke:#0E2356;stroke-width:0.5;"/><text fill="#000000" font-family="monospace" font-size="14" lengthAdjust="spacing" textLength="78.8936" x="84.55" y="114.5352">Skill&#160;Author</text></g><!--entity REPO--><g class="entity" data-qualified-name="DIST.REPO" data-source-line="18" id="ent0004"><path d="M56.05,232.74 C56.05,222.74 124.0017,222.74 124.0017,222.74 C124.0017,222.74 191.9533,222.74 191.9533,232.74 L191.9533,274.7166 C191.9533,284.7166 124.0017,284.7166 124.0017,284.7166 C124.0017,284.7166 56.05,284.7166 56.05,274.7166 L56.05,232.74" fill="#F1F1F1" style="stroke:#181818;stroke-width:0.5;"/><path d="M56.05,232.74 C56.05,242.74 124.0017,242.74 124.0017,242.74 C124.0017,242.74 191.9533,242.74 191.9533,232.74" fill="none" style="stroke:#181818;stroke-width:0.5;"/><text fill="#000000" font-family="monospace" font-size="14" lengthAdjust="spacing" textLength="104.4189" x="66.05" y="260.2752">Skill&#160;Repository</text><text fill="#000000" font-family="monospace" font-size="14" lengthAdjust="spacing" textLength="115.9033" x="66.05" y="276.7634">(GitHub&#160;/&#160;GitLab)</text></g><!--entity LINTER--><g class="entity" data-qualified-name="DIST.LINTER" data-source-line="19" id="ent0005"><rect fill="#EAF4FB" height="52.9766" rx="2.5" ry="2.5" style="stroke:#0E2356;stroke-width:0.5;" width="158.2842" x="44.86" y="383.99"/><text fill="#000000" font-family="monospace" font-size="14" lengthAdjust="spacing" textLength="138.2842" x="54.86" y="407.5252">Gate&#160;1&#160;&#8212;&#160;Skill&#160;Linter</text><text fill="#000000" font-family="monospace" font-size="14" lengthAdjust="spacing" textLength="133.8887" x="54.86" y="424.0134">POST&#160;/validate_skill</text></g><!--entity REGISTRY--><g class="entity" data-qualified-name="DIST.REGISTRY" data-source-line="20" id="ent0006"><path d="M194.4,553.97 C194.4,543.97 266.9967,543.97 266.9967,543.97 C266.9967,543.97 339.5934,543.97 339.5934,553.97 L339.5934,595.9466 C339.5934,605.9466 266.9967,605.9466 266.9967,605.9466 C266.9967,605.9466 194.4,605.9466 194.4,595.9466 L194.4,553.97" fill="#F1F1F1" style="stroke:#181818;stroke-width:0.5;"/><path d="M194.4,553.97 C194.4,563.97 266.9967,563.97 266.9967,563.97 C266.9967,563.97 339.5934,563.97 339.5934,553.97" fill="none" style="stroke:#181818;stroke-width:0.5;"/><text fill="#000000" font-family="monospace" font-size="14" lengthAdjust="spacing" textLength="87.1377" x="204.4" y="581.5052">Skill&#160;Registry</text><text fill="#000000" font-family="monospace" font-size="14" lengthAdjust="spacing" textLength="125.1934" x="204.4" y="597.9934">registry.acme.com</text></g><g class="entity" data-qualified-name="DIST.GMN10" data-source-line="27" id="ent0011"><path d="M22.39,554.65 L22.39,595.2711 A0,0 0 0 0 22.39,595.2711 L159.6029,595.2711 A0,0 0 0 0 159.6029,595.2711 L159.6029,564.65 L149.6029,554.65 L98.96,554.65 L118.77,437.22 L90.96,554.65 L22.39,554.65 A0,0 0 0 0 22.39,554.65" fill="#FFFBE6" style="stroke:#F0A000;stroke-width:0.5;"/><path d="M149.6029,554.65 L149.6029,564.65 L159.6029,564.65 L149.6029,554.65" fill="#FFFBE6" style="stroke:#F0A000;stroke-width:0.5;"/><text fill="#000000" font-family="monospace" font-size="13" lengthAdjust="spacing" textLength="104.0635" x="28.39" y="572.2184">SKILL_REJECTED:</text><text fill="#000000" font-family="monospace" font-size="13" lengthAdjust="spacing" textLength="116.2129" x="28.39" y="587.5289">stays&#160;in&#160;repository</text></g><!--entity CONSUMER--><g class="entity" data-qualified-name="RT.CONSUMER" data-source-line="33" id="ent0014"><ellipse cx="638.9964" cy="223.99" fill="#EAF4FB" rx="8" ry="8" style="stroke:#0E2356;stroke-width:0.5;"/><path d="M638.9964,231.99 L638.9964,258.99 M625.9964,239.99 L651.9964,239.99 M638.9964,258.99 L625.9964,273.99 M638.9964,258.99 L651.9964,273.99" fill="none" style="stroke:#0E2356;stroke-width:0.5;"/><text fill="#000000" font-family="monospace" font-size="14" lengthAdjust="spacing" textLength="124.6328" x="576.68" y="289.0252">Developer&#160;/&#160;Agent</text></g><!--entity PPG--><g class="entity" data-qualified-name="RT.PPG" data-source-line="34" id="ent0015"><rect fill="#EAF4FB" height="69.4648" rx="2.5" ry="2.5" style="stroke:#0E2356;stroke-width:0.5;" width="150.792" x="395.6" y="375.74"/><text fill="#000000" font-family="monospace" font-size="14" lengthAdjust="spacing" textLength="25.5938" x="405.6" y="399.2752">PPG</text><text fill="#000000" font-family="monospace" font-size="14" lengthAdjust="spacing" textLength="88.9014" x="405.6" y="415.7634">POST&#160;/enrich</text><text fill="#000000" font-family="monospace" font-size="14" lengthAdjust="spacing" textLength="130.792" x="405.6" y="432.2517">POST&#160;/lock_in_plan</text></g><!--entity TOOL--><g class="entity" data-qualified-name="RT.TOOL" data-source-line="35" id="ent0016"><rect fill="#EAF4FB" height="52.9766" rx="2.5" ry="2.5" style="stroke:#0E2356;stroke-width:0.5;" width="159.4189" x="610.29" y="383.99"/><text fill="#000000" font-family="monospace" font-size="14" lengthAdjust="spacing" textLength="73.835" x="620.29" y="407.5252">Smart&#160;Tool</text><text fill="#000000" font-family="monospace" font-size="14" lengthAdjust="spacing" textLength="139.4189" x="620.29" y="424.0134">(verifies&#160;JWT&#160;in-tool)</text></g><!--link AUTHOR to REPO--><g class="link" data-entity-1="ent0003" data-entity-2="ent0004" data-link-type="dependency" data-source-line="22" id="lnk7"><path d="M124,117.67 C124,148.98 124,187.09 124,216.27" fill="none" id="AUTHOR-to-REPO" style="stroke:#0E2356;stroke-width:1;"/><polygon fill="#0E2356" points="124,222.27,128,213.27,124,217.27,120,213.27,124,222.27" style="stroke:#0E2356;stroke-width:1;"/><text fill="#000000" font-family="monospace" font-size="13" lengthAdjust="spacing" textLength="51.7842" x="125" y="161.0584">git&#160;push</text></g><!--link REPO to LINTER--><g class="link" data-entity-1="ent0004" data-entity-2="ent0005" data-link-type="dependency" data-source-line="23" id="lnk8"><path d="M124,284.93 C124,313.69 124,350.52 124,377.71" fill="none" id="REPO-to-LINTER" style="stroke:#0E2356;stroke-width:1;"/><polygon fill="#0E2356" points="124,383.71,128,374.71,124,378.71,120,374.71,124,383.71" style="stroke:#0E2356;stroke-width:1;"/><text fill="#000000" font-family="monospace" font-size="13" lengthAdjust="spacing" textLength="66.1934" x="125" y="335.5384">CI&#160;triggers</text></g><!--link LINTER to REGISTRY--><g class="link" data-entity-1="ent0005" data-entity-2="ent0006" data-link-type="dependency" data-source-line="24" id="lnk9"><path d="M142.74,437.09 C158.61,458.3 182.33,488.91 205,513.97 C214.04,523.97 220.0672,530.189 229.6872,539.449" fill="none" id="LINTER-to-REGISTRY" style="stroke:#0E2356;stroke-width:1;"/><polygon fill="#0E2356" points="234.01,543.61,230.2999,534.4867,230.4077,540.1425,224.7519,540.2504,234.01,543.61" style="stroke:#0E2356;stroke-width:1;"/><text fill="#000000" font-family="monospace" font-size="13" lengthAdjust="spacing" textLength="77.4795" x="206" y="503.0384">SKILL_VALID</text></g><!--link CONSUMER to PPG--><g class="link" data-entity-1="ent0014" data-entity-2="ent0015" data-link-type="dependency" data-source-line="37" id="lnk17"><path d="M576.45,255.96 C527.29,260.63 461.69,275.88 428,321.97 C416.01,338.37 421.1168,353.8149 433.7468,370.7049" fill="none" id="CONSUMER-to-PPG" style="stroke:#0E2356;stroke-width:1;"/><polygon fill="#0E2356" points="437.34,375.51,435.1537,365.9069,434.3457,371.5057,428.7468,370.6978,437.34,375.51" style="stroke:#0E2356;stroke-width:1;"/><text fill="#000000" font-family="monospace" font-size="13" lengthAdjust="spacing" textLength="82.6084" x="429" y="335.5384">intent&#160;+&#160;plan</text></g><!--link PPG to CONSUMER--><g class="link" data-entity-1="ent0015" data-entity-2="ent0014" data-link-type="dependency" data-source-line="38" id="lnk18"><path d="M497.96,375.53 C512.08,358.65 530.11,338.4 548,321.97 C559.14,311.74 567.0081,305.1775 579.2881,295.9775" fill="none" id="PPG-to-CONSUMER" style="stroke:#0E2356;stroke-width:1;"/><polygon fill="#0E2356" points="584.09,292.38,574.4889,294.575,580.0884,295.3779,579.2855,300.9775,584.09,292.38" style="stroke:#0E2356;stroke-width:1;"/><text fill="#000000" font-family="monospace" font-size="13" lengthAdjust="spacing" textLength="126.9023" x="549" y="335.5384">JWT&#160;capability&#160;ticket</text></g><!--link CONSUMER to TOOL--><g class="link" data-entity-1="ent0014" data-entity-2="ent0016" data-link-type="dependency" data-source-line="39" id="lnk19"><path d="M669.11,292.37 C675.04,301.58 680.5,311.74 684,321.97 C690.79,341.86 692.108,359.731 691.788,377.511" fill="none" id="CONSUMER-to-TOOL" style="stroke:#0E2356;stroke-width:1;"/><polygon fill="#0E2356" points="691.68,383.51,695.8413,374.5834,691.77,378.5108,687.8426,374.4395,691.68,383.51" style="stroke:#0E2356;stroke-width:1;"/><text fill="#000000" font-family="monospace" font-size="13" lengthAdjust="spacing" textLength="92.0029" x="689.23" y="335.5384">tool&#160;call&#160;+&#160;JWT</text></g><!--link CONSUMER to REGISTRY--><g class="link" data-entity-1="ent0014" data-entity-2="ent0006" data-link-type="dependency" data-source-line="42" id="lnk20"><path d="M701.81,265.9 C734.01,275.15 770.46,291.89 790,321.97 C811.06,354.41 944.22,281.61 787,469.21 C730.55,536.57 475.1773,561.3297 345.8673,569.7597" fill="none" id="CONSUMER-to-REGISTRY" style="stroke:#0E2356;stroke-width:1;"/><polygon fill="#0E2356" points="339.88,570.15,349.1212,573.556,344.8694,569.8247,348.6007,565.573,339.88,570.15" style="stroke:#0E2356;stroke-width:1;"/><text fill="#000000" font-family="monospace" font-size="13" lengthAdjust="spacing" textLength="156.1206" x="858.36" y="382.5384">apm&#160;install&#160;skill@version</text><path d="M864.8495,391.2805 L864.8495,446.2805 L1007.8495,446.2805 L1007.8495,401.2805 L997.8495,391.2805 L864.8495,391.2805" fill="#FFFBE6" style="stroke:#F0A000;stroke-width:0.5;"/><path d="M997.8495,391.2805 L997.8495,401.2805 L1007.8495,401.2805 L997.8495,391.2805" fill="#FFFBE6" style="stroke:#F0A000;stroke-width:0.5;"/><text fill="#000000" font-family="monospace" font-size="13" lengthAdjust="spacing" textLength="104.3618" x="870.8495" y="408.8489">Gate&#160;2&#160;&#8212;&#160;install:</text><text fill="#000000" font-family="monospace" font-size="13" lengthAdjust="spacing" textLength="122.1416" x="870.8495" y="424.1595">content&#160;hash&#160;check</text><text fill="#000000" font-family="monospace" font-size="13" lengthAdjust="spacing" textLength="88.4673" x="870.8495" y="439.47">+&#160;revalidation</text></g><!--link PPG to REGISTRY--><g class="link" data-entity-1="ent0015" data-entity-2="ent0006" data-link-type="dependency" data-source-line="49" id="lnk21"><path d="M428.23,445.54 C391.9,474.48 344.9127,511.9012 309.9327,539.7712" fill="none" id="PPG-to-REGISTRY" style="stroke:#0E2356;stroke-width:1;stroke-dasharray:7,7;"/><polygon fill="#0E2356" points="305.24,543.51,314.7716,541.0302,309.1506,540.3943,309.7864,534.7733,305.24,543.51" style="stroke:#0E2356;stroke-width:1;"/><text fill="#000000" font-family="monospace" font-size="13" lengthAdjust="spacing" textLength="170.1045" x="382.21" y="495.5384">Gate&#160;3&#160;&#8212;&#160;loads&#160;companion</text><text fill="#000000" font-family="monospace" font-size="13" lengthAdjust="spacing" textLength="164.144" x="385.1902" y="510.8489">SKILL.rego&#160;at&#160;lock_in_plan</text></g><?plantuml-src XLJHRXen47o_hrYHXxPAGsZIHXKFLO6x8oGK491MbI8XSpXt5dVsoLv0gAhKZ-WNzakwje4UALNVm3ixuvrPtmkOR0to0jIQwxNWcoRWHa6PCSCD_Fhn4nR2e1Rp5GebNmDcN89UIHG53mAp5B9acXMmu4zibMEi90vOmQ5GKfcI9Ro2cRDacMgraekEofM6JIQmMazKKIh99KvmctFGF44cqxmAQMcjDhxxh15TNR-xgHGx-_xsCw6pg1M_ZTideKelkFuNuuY8MCh_uelVn-quFW4yOck4Ls5O0GqKdg2AutPqynnLvOaRhKQZKJKXGQN_FwE7dPWlAFrjeVR69HnM4gu1Cn3s9bFu5W0mIm6roLBaERHMc2dj0As7wUrmJ805GpQdLTbZnhnKHb3Jzb6-x0gyNStX4kX7dyrVkTPnD1fIuo5hg7KPSl0tyIHz8P7hHpaQqZKkromN9CDdnXOTHxytc4QdvLCx2udhtQywImfU9xMTU9T66tyDgDVF01SN7zoTe0cfG2XN9gEYEx4bBqN5JW_8f3Jbsb1zT-oRFITX9lUzVd_skTNlXLP1Kf8mLuYAdjVJdrl33ZYExgBED0gRximWsneGzBeE7j8vbml74toln7Rbp1hxL-W7Eyehv6kUgv9hyhwLaiaEqnaE9W-Vt0qgxez6tRtJN6gHPFj_kKgMCo5dPSxyLX3ok7LIC8qmLIgdiEdp8Pu4VJFklanfYWkaOv_uT3ZiMpls-iur8YF3RD34T0vMX23sr5OFqAQZIrZ9vY8Nk0KKoPBZSpOhGLYhIM1QX7FRPpqxWbMYOcL1wkGvWTrYVQG133s0mAMc9EH2Bad7RQStV8TlEXVypUapcK6IySH2pocwtRPQeaDqWHshNZ_ITxJNZZPNR66ShqnItwDqsr6d3LR04Aev1By1?></g></svg>