<?plantuml 1.2026.1?><svg xmlns="http://www.w3.org/2000/svg" xmlns:xlink="http://www.w3.org/1999/xlink" contentStyleType="text/css" data-diagram-type="DESCRIPTION" height="468px" preserveAspectRatio="none" style="width:621px;height:468px;background:#FFFFFF;" version="1.1" viewBox="0 0 621 468" width="621px" zoomAndPan="magnify"><defs/><g><!--cluster SKILL--><g class="cluster" data-qualified-name="SKILL" data-source-line="16" id="ent0002"><path d="M51.93,199.27 L210.6556,199.27 A3.75,3.75 0 0 1 213.1556,201.77 L220.1556,221.7583 L231.24,221.7583 A2.5,2.5 0 0 1 233.74,224.2583 L233.74,387.77 A2.5,2.5 0 0 1 231.24,390.27 L51.93,390.27 A2.5,2.5 0 0 1 49.43,387.77 L49.43,201.77 A2.5,2.5 0 0 1 51.93,199.27" fill="#F8FBFF" style="stroke:#00D2DD;stroke-width:1.5;"/><line style="stroke:#00D2DD;stroke-width:1.5;" x1="49.43" x2="220.1556" y1="221.7583" y2="221.7583"/><text fill="#000000" font-family="monospace" font-size="14" font-weight="bold" lengthAdjust="spacing" textLength="157.7256" x="53.43" y="214.8052">patch-payment@1.2.0</text></g><!--entity MD--><g class="entity" data-qualified-name="SKILL.MD" data-source-line="17" id="ent0003"><rect fill="#EAF4FB" height="52.9766" rx="2.5" ry="2.5" style="stroke:#0E2356;stroke-width:0.5;" width="152.3027" x="65.43" y="233.78"/><text fill="#000000" font-family="monospace" font-size="14" lengthAdjust="spacing" textLength="61.9541" x="75.43" y="257.3152">SKILL.md</text><text fill="#000000" font-family="monospace" font-size="14" lengthAdjust="spacing" textLength="132.3027" x="75.43" y="273.8034">(semantic&#160;directive)</text></g><!--entity REGO--><g class="entity" data-qualified-name="SKILL.REGO" data-source-line="18" id="ent0004"><rect fill="#EAF4FB" height="52.9766" rx="2.5" ry="2.5" style="stroke:#0E2356;stroke-width:0.5;" width="151.708" x="65.73" y="321.78"/><text fill="#000000" font-family="monospace" font-size="14" lengthAdjust="spacing" textLength="70.9297" x="75.73" y="345.3152">SKILL.rego</text><text fill="#000000" font-family="monospace" font-size="14" lengthAdjust="spacing" textLength="131.708" x="75.73" y="361.8034">(governance&#160;policy)</text></g><!--entity AGENT--><g class="entity" data-qualified-name="AGENT" data-source-line="21" id="ent0005"><rect fill="#EAF4FB" height="52.9766" rx="2.5" ry="2.5" style="stroke:#0E2356;stroke-width:0.5;" width="115.1973" x="474.89" y="233.78"/><text fill="#000000" font-family="monospace" font-size="14" lengthAdjust="spacing" textLength="40.1133" x="484.89" y="257.3152">Agent</text><text fill="#000000" font-family="monospace" font-size="14" lengthAdjust="spacing" textLength="95.1973" x="484.89" y="273.8034">(Claude&#160;Code)</text></g><!--entity SL--><g class="entity" data-qualified-name="SL" data-source-line="22" id="ent0006"><rect fill="#EAF4FB" height="52.9766" rx="2.5" ry="2.5" style="stroke:#0E2356;stroke-width:0.5;" width="131.3574" x="466.81" y="321.78"/><text fill="#000000" font-family="monospace" font-size="14" lengthAdjust="spacing" textLength="71.2578" x="476.81" y="345.3152">Skill&#160;Linter</text><text fill="#000000" font-family="monospace" font-size="14" lengthAdjust="spacing" textLength="111.3574" x="476.81" y="361.8034">Gate&#160;1&#160;-&#160;publish</text></g><!--entity PL--><g class="entity" data-qualified-name="PL" data-source-line="23" id="ent0007"><rect fill="#EAF4FB" height="52.9766" rx="2.5" ry="2.5" style="stroke:#0E2356;stroke-width:0.5;" width="165.1406" x="449.91" y="409.78"/><text fill="#000000" font-family="monospace" font-size="14" lengthAdjust="spacing" textLength="71.5996" x="459.91" y="433.3152">Plan&#160;Linter</text><text fill="#000000" font-family="monospace" font-size="14" lengthAdjust="spacing" textLength="145.1406" x="459.91" y="449.8034">Gate&#160;3&#160;-&#160;lock_in_plan</text></g><g class="entity" data-qualified-name="GMN11" data-source-line="30" id="ent0012"><path d="M68.99,127.31 L68.99,183.2416 A0,0 0 0 0 68.99,183.2416 L137.58,183.2416 L141.58,233.61 L145.58,183.2416 L214.1882,183.2416 A0,0 0 0 0 214.1882,183.2416 L214.1882,137.31 L204.1882,127.31 L68.99,127.31 A0,0 0 0 0 68.99,127.31" fill="#FFFBE6" style="stroke:#F0A000;stroke-width:0.5;"/><path d="M204.1882,127.31 L204.1882,137.31 L214.1882,137.31 L204.1882,127.31" fill="#FFFBE6" style="stroke:#F0A000;stroke-width:0.5;"/><text fill="#000000" font-family="monospace" font-size="13" lengthAdjust="spacing" textLength="124.1982" x="74.99" y="144.8784">durability:&#160;amplifier</text><text fill="#000000" font-family="monospace" font-size="13" lengthAdjust="spacing" textLength="121.7734" x="74.99" y="160.1889">(more&#160;useful&#160;as&#160;the</text><text fill="#000000" font-family="monospace" font-size="13" lengthAdjust="spacing" textLength="105.625" x="74.99" y="175.4995">model&#160;improves)</text></g><g class="entity" data-qualified-name="GMN14" data-source-line="36" id="ent0015"><path d="M33.25,6 L33.25,92.5527 L249.9102,92.5527 L249.9102,16 L239.9102,6 L33.25,6" fill="#FFFBE6" style="stroke:#F0A000;stroke-width:0.5;"/><path d="M239.9102,6 L239.9102,16 L249.9102,16 L239.9102,6" fill="#FFFBE6" style="stroke:#F0A000;stroke-width:1;"/><text fill="#000000" font-family="monospace" font-size="13" lengthAdjust="spacing" textLength="190.6582" x="39.25" y="23.5684">content&#160;may&#160;be&#160;compensatory</text><text fill="#000000" font-family="monospace" font-size="13" lengthAdjust="spacing" textLength="195.6602" x="39.25" y="38.8789">(sunset&#160;once&#160;the&#160;model&#160;honors</text><text fill="#000000" font-family="monospace" font-size="13" lengthAdjust="spacing" textLength="142.3398" x="39.25" y="54.1895">the&#160;invariant&#160;unaided);</text><text fill="#000000" font-family="monospace" font-size="13" lengthAdjust="spacing" textLength="166.8037" x="39.25" y="69.5">the&#160;requirement&#160;to&#160;carry&#160;it</text><text fill="#000000" font-family="monospace" font-size="13" lengthAdjust="spacing" textLength="89.9717" x="39.25" y="84.8105">is&#160;an&#160;amplifier</text></g><!--link MD to AGENT--><g class="link" data-entity-1="ent0003" data-entity-2="ent0005" data-link-type="dependency" data-source-line="25" id="lnk8"><path d="M218.03,260.27 C293.13,260.27 400.72,260.27 468.55,260.27" fill="none" id="MD-to-AGENT" style="stroke:#0E2356;stroke-width:1;"/><polygon fill="#0E2356" points="474.55,260.27,465.55,256.27,469.55,260.27,465.55,264.27,474.55,260.27" style="stroke:#0E2356;stroke-width:1;"/><text fill="#000000" font-family="monospace" font-size="13" lengthAdjust="spacing" textLength="94.6182" x="303.0038" y="241.8384">read&#160;literally&#160;at</text><text fill="#000000" font-family="monospace" font-size="13" lengthAdjust="spacing" textLength="132.8057" x="283.91" y="257.1489">invocation&#160;(planning)</text></g><!--link REGO to SL--><g class="link" data-entity-1="ent0004" data-entity-2="ent0006" data-link-type="dependency" data-source-line="26" id="lnk9"><path d="M217.57,348.27 C289.74,348.27 391.77,348.27 460.42,348.27" fill="none" id="REGO-to-SL" style="stroke:#0E2356;stroke-width:1;"/><polygon fill="#0E2356" points="466.42,348.27,457.42,344.27,461.42,348.27,457.42,352.27,466.42,348.27" style="stroke:#0E2356;stroke-width:1;"/><text fill="#000000" font-family="monospace" font-size="13" lengthAdjust="spacing" textLength="76.5972" x="311.91" y="329.8384">evaluated&#160;at</text><text fill="#000000" font-family="monospace" font-size="13" lengthAdjust="spacing" textLength="70.459" x="314.9791" y="345.1489">publication</text></g><!--link REGO to PL--><g class="link" data-entity-1="ent0004" data-entity-2="ent0007" data-link-type="dependency" data-source-line="27" id="lnk10"><path d="M217.79,371.57 C237.88,377.41 259.63,383.39 279.91,388.27 C336.11,401.79 394.2012,412.9078 443.5812,421.6178" fill="none" id="REGO-to-PL" style="stroke:#0E2356;stroke-width:1;"/><polygon fill="#0E2356" points="449.49,422.66,441.3216,417.1575,444.566,421.7915,439.932,425.0358,449.49,422.66" style="stroke:#0E2356;stroke-width:1;"/><text fill="#000000" font-family="monospace" font-size="13" lengthAdjust="spacing" textLength="138.3853" x="280.91" y="369.8384">loaded&#160;as&#160;extra&#160;policy</text><text fill="#000000" font-family="monospace" font-size="13" lengthAdjust="spacing" textLength="113.2231" x="293.4911" y="385.1489">bundle&#160;at&#160;runtime</text></g><!--link REGO to GMN14--><g class="link" data-entity-1="ent0004" data-entity-2="ent0015" data-link-type="association" data-source-line="36" id="lnk16"><path d="M65.3,330.9 C44.76,321.76 26.06,307.87 18.25,286.77 C6,253.63 6,160.91 18.25,127.77 C23.32,114.08 32.33,102.59 43.26,92.98" fill="none" id="REGO-GMN14" style="stroke:#0E2356;stroke-width:1;stroke-dasharray:7,7;"/></g><?plantuml-src TLFRRjim37tNLn3jmnfWAT9sAuOE69OqSJ4iRODbR-jGC3RZ29L4JvBJ6SF-VPJTYtlPamtod4EAXtm3buuWt6XZtaAyPV1KUGha8aRDBdH1orOY0RI3k24mp9LIGd8LUhHGq1fh4pDsyG8j2Tnng32d7cQ5-KtfkNR5AHlsSBlHiP_FsLRifCeoDeQaZJoYAqqVClQURplsxcXsUFJ-k9SylUTFdXNQdOspTzdaLIZxWlp_51SYX2MzqCi-P9CiUmNuH6qqFPnEUw0BZgz8PTbaTlmSrTV9HkFHQAIKeNM4AFReSXEXq6a-uezILLSSTYgC-MPOOPEi-domVxW_sW4CiFpwPJw7FmhWH_kxRuihjnV8eeiwlvVQqk1dGfzF7u6UIXPeoLlo3brEKB7HUTCXlytEBjLVfHwCWvrnAHzXd1gi2v8v5pHeUnYVpIw-zv7Bj70mrowIlt9d60aEO0XLlJ8wRBg-vtt2mg1xYZyIlE7yvbgxwqgoBManL-fy2iFXfwucdCWcOG56bisZCGsWDAZTblDsls4lKILG3bHwKCjSpeL6MpIrr2bQHjjOHtd4BHBEC1O9581-Huzt8xfoAt5PzXWZ-5e6RKaf9-R2YcDa2xpkHbtK7bTQscjE06rbz5gJb_YUPKzG1rhN9edBsKdKoaGDQ5jvyIGC5Ba2akeBxTOSaAEIWSduB3QmelR6o0MCx9jK8zGkK0HErgQxxkGtShq-I3w5P5JejQmAr0wrl7JmyIxZwLSjkvEsBIrcZjuteADaTG0nw_4r3rt-0m00?></g></svg>