<?xml version="1.0" encoding="UTF-8" standalone="no"?>
<!DOCTYPE svg PUBLIC "-//W3C//DTD SVG 1.1//EN"
 "http://www.w3.org/Graphics/SVG/1.1/DTD/svg11.dtd">
<!-- Generated by graphviz version 2.44.1 (20200629.0846)
 -->
<!-- Pages: 1 -->
<svg width="223pt" height="114pt"
 viewBox="0.00 0.00 223.00 114.00" xmlns="http://www.w3.org/2000/svg" xmlns:xlink="http://www.w3.org/1999/xlink">
<g id="graph0" class="graph" transform="scale(1 1) rotate(0) translate(4 110)">
<polygon fill="white" stroke="transparent" points="-4,4 -4,-110 219,-110 219,4 -4,4"/>
<!-- Peter Gabriel -->
<g id="node1" class="node">
<title>Peter Gabriel</title>
<polygon fill="none" stroke="black" points="9,-84 9,-102 79,-102 79,-84 9,-84"/>
<text text-anchor="start" x="26.5" y="-90.2" font-family="Arial" font-size="11.00" fill="darkgrey">Person</text>
<polygon fill="none" stroke="black" points="9,-66 9,-84 79,-84 79,-66 9,-66"/>
<text text-anchor="start" x="12" y="-72.2" font-family="Arial" font-size="11.00" fill="darkblue">Peter Gabriel</text>
</g>
<!-- So -->
<g id="node3" class="node">
<title>So</title>
<polygon fill="none" stroke="black" points="170,-53 170,-71 207,-71 207,-53 170,-53"/>
<text text-anchor="start" x="173" y="-59.2" font-family="Arial" font-size="11.00" fill="darkgrey">Album</text>
<polygon fill="none" stroke="black" points="170,-35 170,-53 207,-53 207,-35 170,-35"/>
<text text-anchor="start" x="181.5" y="-41.2" font-family="Arial" font-size="11.00" fill="darkblue">So</text>
</g>
<!-- Peter Gabriel&#45;&#45;So -->
<g id="edge2" class="edge">
<title>Peter Gabriel&#45;&#45;So</title>
<path fill="none" stroke="black" d="M87.22,-74.78C111.09,-69.57 140.19,-63.22 160.79,-58.72"/>
<text text-anchor="middle" x="124.5" y="-73" font-family="Helvetica,sans-Serif" font-size="10.00" fill="darkred">Sing</text>
</g>
<!-- Daniel Lanois -->
<g id="node2" class="node">
<title>Daniel Lanois</title>
<polygon fill="none" stroke="black" points="8,-22 8,-40 80,-40 80,-22 8,-22"/>
<text text-anchor="start" x="26.5" y="-28.2" font-family="Arial" font-size="11.00" fill="darkgrey">Person</text>
<polygon fill="none" stroke="black" points="8,-4 8,-22 80,-22 80,-4 8,-4"/>
<text text-anchor="start" x="11" y="-10.2" font-family="Arial" font-size="11.00" fill="darkblue">Daniel Lanois</text>
</g>
<!-- Daniel Lanois&#45;&#45;So -->
<g id="edge1" class="edge">
<title>Daniel Lanois&#45;&#45;So</title>
<path fill="none" stroke="black" d="M88.38,-31.47C112.03,-36.63 140.53,-42.85 160.79,-47.28"/>
<text text-anchor="middle" x="124.5" y="-45" font-family="Helvetica,sans-Serif" font-size="10.00" fill="darkred">Produce</text>
</g>
</g>
</svg>
