<?xml version="1.0" encoding="UTF-8" standalone="no"?>
<!DOCTYPE svg PUBLIC "-//W3C//DTD SVG 1.1//EN"
 "http://www.w3.org/Graphics/SVG/1.1/DTD/svg11.dtd">
<!-- Generated by graphviz version 2.44.1 (20200629.0846)
 -->
<!-- Pages: 1 -->
<svg width="142pt" height="131pt"
 viewBox="0.00 0.00 141.55 131.00" xmlns="http://www.w3.org/2000/svg" xmlns:xlink="http://www.w3.org/1999/xlink">
<g id="graph0" class="graph" transform="scale(1 1) rotate(0) translate(4 127)">
<polygon fill="white" stroke="transparent" points="-4,4 -4,-127 137.55,-127 137.55,4 -4,4"/>
<!-- Peter Gabriel -->
<g id="node1" class="node">
<title>Peter Gabriel</title>
<ellipse fill="none" stroke="black" cx="68.55" cy="-105" rx="57.69" ry="18"/>
<text text-anchor="middle" x="68.55" y="-101.3" font-family="Times,serif" font-size="14.00">Peter Gabriel</text>
</g>
<!-- Artist -->
<g id="node2" class="node">
<title>Artist</title>
<ellipse fill="none" stroke="black" cx="30.55" cy="-18" rx="30.59" ry="18"/>
<text text-anchor="middle" x="30.55" y="-14.3" font-family="Times,serif" font-size="14.00">Artist</text>
</g>
<!-- Peter Gabriel&#45;&gt;Artist -->
<g id="edge1" class="edge">
<title>Peter Gabriel&#45;&gt;Artist</title>
<path fill="none" stroke="black" d="M60.86,-86.8C55.48,-74.78 48.21,-58.51 42.13,-44.92"/>
<polygon fill="black" stroke="black" points="45.24,-43.3 37.97,-35.6 38.85,-46.15 45.24,-43.3"/>
</g>
<!-- So -->
<g id="node3" class="node">
<title>So</title>
<ellipse fill="none" stroke="black" cx="106.55" cy="-18" rx="27" ry="18"/>
<text text-anchor="middle" x="106.55" y="-14.3" font-family="Times,serif" font-size="14.00">So</text>
</g>
<!-- Peter Gabriel&#45;&gt;So -->
<g id="edge2" class="edge">
<title>Peter Gabriel&#45;&gt;So</title>
<path fill="none" stroke="black" d="M76.24,-86.8C81.61,-74.78 88.89,-58.51 94.96,-44.92"/>
<polygon fill="black" stroke="black" points="98.24,-46.15 99.13,-35.6 91.85,-43.3 98.24,-46.15"/>
<text text-anchor="middle" x="101.05" y="-57.8" font-family="Times,serif" font-size="14.00">sing</text>
</g>
</g>
</svg>
