<?xml version="1.0" encoding="UTF-8" standalone="no"?>
<!DOCTYPE svg PUBLIC "-//W3C//DTD SVG 1.1//EN"
 "http://www.w3.org/Graphics/SVG/1.1/DTD/svg11.dtd">
<!-- Generated by graphviz version 2.36.0 (20140111.2315)
 -->
<!-- Title: G Pages: 1 -->
<svg width="3003pt" height="396pt"
 viewBox="0.00 0.00 3003.00 396.00" xmlns="http://www.w3.org/2000/svg" xmlns:xlink="http://www.w3.org/1999/xlink">
<g id="graph0" class="graph" transform="scale(1 1) rotate(0) translate(4 392)">
<title>G</title>
<polygon fill="white" stroke="none" points="-4,4 -4,-392 2999,-392 2999,4 -4,4"/>
<!-- Price1 -->
<g id="node1" class="node"><title>Price1</title>
<ellipse fill="lightblue" stroke="black" cx="180" cy="-106" rx="28.3955" ry="18"/>
<text text-anchor="middle" x="180" y="-102.3" font-family="Times,serif" font-size="14.00">Price</text>
</g>
<!-- p1 -->
<g id="node31" class="node"><title>p1</title>
<ellipse fill="lightpink" stroke="black" cx="30" cy="-18" rx="30.3206" ry="18"/>
<text text-anchor="middle" x="30" y="-14.3" font-family="Times,serif" font-size="14.00">0.012</text>
</g>
<!-- Price1&#45;&gt;p1 -->
<g id="edge33" class="edge"><title>Price1&#45;&gt;p1</title>
<path fill="none" stroke="black" d="M156.875,-95.3589C141.798,-88.7952 121.864,-79.5863 105,-70 88.3359,-60.5272 70.5609,-48.5312 56.4997,-38.5537"/>
<polygon fill="black" stroke="black" points="58.4319,-35.6323 48.2676,-32.6427 54.3491,-41.3183 58.4319,-35.6323"/>
<text text-anchor="middle" x="119" y="-58.3" font-family="Times,serif" font-size="14.00">price</text>
</g>
<!-- Hrs1 -->
<g id="node32" class="node"><title>Hrs1</title>
<ellipse fill="lightpink" stroke="black" cx="106" cy="-18" rx="27" ry="18"/>
<text text-anchor="middle" x="106" y="-14.3" font-family="Times,serif" font-size="14.00">Hrs</text>
</g>
<!-- Price1&#45;&gt;Hrs1 -->
<g id="edge31" class="edge"><title>Price1&#45;&gt;Hrs1</title>
<path fill="none" stroke="black" d="M166.77,-89.6249C155.335,-76.3356 138.647,-56.9416 125.651,-41.8376"/>
<polygon fill="black" stroke="black" points="128.043,-39.2512 118.867,-33.954 122.737,-43.8169 128.043,-39.2512"/>
<text text-anchor="middle" x="161" y="-58.3" font-family="Times,serif" font-size="14.00">unit</text>
</g>
<!-- USD1 -->
<g id="node33" class="node"><title>USD1</title>
<ellipse fill="lightpink" stroke="black" cx="180" cy="-18" rx="28.3955" ry="18"/>
<text text-anchor="middle" x="180" y="-14.3" font-family="Times,serif" font-size="14.00">USD</text>
</g>
<!-- Price1&#45;&gt;USD1 -->
<g id="edge32" class="edge"><title>Price1&#45;&gt;USD1</title>
<path fill="none" stroke="black" d="M180,-87.5966C180,-75.7459 180,-59.8169 180,-46.2917"/>
<polygon fill="black" stroke="black" points="183.5,-46.084 180,-36.084 176.5,-46.084 183.5,-46.084"/>
<text text-anchor="middle" x="204" y="-58.3" font-family="Times,serif" font-size="14.00">currency</text>
</g>
<!-- Price1Description -->
<g id="node34" class="node"><title>Price1Description</title>
<ellipse fill="lightpink" stroke="black" cx="429" cy="-18" rx="202.174" ry="18"/>
<text text-anchor="middle" x="429" y="-14.3" font-family="Times,serif" font-size="14.00">$0.012 per On Demand Linux t2.micro Instance Hour</text>
</g>
<!-- Price1&#45;&gt;Price1Description -->
<g id="edge30" class="edge"><title>Price1&#45;&gt;Price1Description</title>
<path fill="none" stroke="black" d="M204.329,-96.5974C242.806,-83.3079 318.757,-57.0757 371.644,-38.8096"/>
<polygon fill="black" stroke="black" points="372.927,-42.0695 381.237,-35.4966 370.642,-35.453 372.927,-42.0695"/>
<text text-anchor="middle" x="357.5" y="-58.3" font-family="Times,serif" font-size="14.00">description</text>
</g>
<!-- Price21 -->
<g id="node2" class="node"><title>Price21</title>
<ellipse fill="lightblue" stroke="black" cx="1103" cy="-106" rx="28.3955" ry="18"/>
<text text-anchor="middle" x="1103" y="-102.3" font-family="Times,serif" font-size="14.00">Price</text>
</g>
<!-- Hrs21 -->
<g id="node35" class="node"><title>Hrs21</title>
<ellipse fill="lightpink" stroke="black" cx="677" cy="-18" rx="27" ry="18"/>
<text text-anchor="middle" x="677" y="-14.3" font-family="Times,serif" font-size="14.00">Hrs</text>
</g>
<!-- Price21&#45;&gt;Hrs21 -->
<g id="edge34" class="edge"><title>Price21&#45;&gt;Hrs21</title>
<path fill="none" stroke="black" d="M1074.97,-102.813C1025.38,-98.6311 919.115,-88.2525 831,-70 777.556,-58.9295 764.063,-55.2703 713,-36 711.157,-35.3045 709.278,-34.5531 707.394,-33.767"/>
<polygon fill="black" stroke="black" points="708.637,-30.4896 698.076,-29.6439 705.805,-36.891 708.637,-30.4896"/>
<text text-anchor="middle" x="842" y="-58.3" font-family="Times,serif" font-size="14.00">unit</text>
</g>
<!-- USD21 -->
<g id="node36" class="node"><title>USD21</title>
<ellipse fill="lightpink" stroke="black" cx="751" cy="-18" rx="28.3955" ry="18"/>
<text text-anchor="middle" x="751" y="-14.3" font-family="Times,serif" font-size="14.00">USD</text>
</g>
<!-- Price21&#45;&gt;USD21 -->
<g id="edge35" class="edge"><title>Price21&#45;&gt;USD21</title>
<path fill="none" stroke="black" d="M1075.62,-100.919C1020.45,-92.2763 892.365,-70.0804 789,-36 786.741,-35.2553 784.436,-34.4212 782.132,-33.5329"/>
<polygon fill="black" stroke="black" points="783.38,-30.2614 772.802,-29.6669 780.7,-36.7283 783.38,-30.2614"/>
<text text-anchor="middle" x="933" y="-58.3" font-family="Times,serif" font-size="14.00">currency</text>
</g>
<!-- Price21Description -->
<g id="node37" class="node"><title>Price21Description</title>
<ellipse fill="lightpink" stroke="black" cx="1103" cy="-18" rx="305.209" ry="18"/>
<text text-anchor="middle" x="1103" y="-14.3" font-family="Times,serif" font-size="14.00">USD 0.0 per Linux/UNIX (Amazon VPC), t2.micro instance&#45;hour (or partial hour)</text>
</g>
<!-- Price21&#45;&gt;Price21Description -->
<g id="edge36" class="edge"><title>Price21&#45;&gt;Price21Description</title>
<path fill="none" stroke="black" d="M1103,-87.5966C1103,-75.7459 1103,-59.8169 1103,-46.2917"/>
<polygon fill="black" stroke="black" points="1106.5,-46.084 1103,-36.084 1099.5,-46.084 1106.5,-46.084"/>
<text text-anchor="middle" x="1133.5" y="-58.3" font-family="Times,serif" font-size="14.00">description</text>
</g>
<!-- p21 -->
<g id="node38" class="node"><title>p21</title>
<ellipse fill="lightpink" stroke="black" cx="1453" cy="-18" rx="27" ry="18"/>
<text text-anchor="middle" x="1453" y="-14.3" font-family="Times,serif" font-size="14.00">0</text>
</g>
<!-- Price21&#45;&gt;p21 -->
<g id="edge37" class="edge"><title>Price21&#45;&gt;p21</title>
<path fill="none" stroke="black" d="M1130.44,-101.099C1185.72,-92.7807 1313.99,-71.1389 1417,-36 1418.91,-35.3473 1420.86,-34.6218 1422.81,-33.8487"/>
<polygon fill="black" stroke="black" points="1424.6,-36.8854 1432.39,-29.7027 1421.82,-30.4608 1424.6,-36.8854"/>
<text text-anchor="middle" x="1373" y="-58.3" font-family="Times,serif" font-size="14.00">price</text>
</g>
<!-- Price22 -->
<g id="node3" class="node"><title>Price22</title>
<ellipse fill="lightblue" stroke="black" cx="1574" cy="-106" rx="28.3955" ry="18"/>
<text text-anchor="middle" x="1574" y="-102.3" font-family="Times,serif" font-size="14.00">Price</text>
</g>
<!-- p22 -->
<g id="node39" class="node"><title>p22</title>
<ellipse fill="lightpink" stroke="black" cx="1525" cy="-18" rx="27" ry="18"/>
<text text-anchor="middle" x="1525" y="-14.3" font-family="Times,serif" font-size="14.00">124</text>
</g>
<!-- Price22&#45;&gt;p22 -->
<g id="edge38" class="edge"><title>Price22&#45;&gt;p22</title>
<path fill="none" stroke="black" d="M1564.78,-88.8241C1557.6,-76.2114 1547.49,-58.4722 1539.26,-44.0305"/>
<polygon fill="black" stroke="black" points="1542.17,-42.0594 1534.18,-35.1034 1536.08,-45.5248 1542.17,-42.0594"/>
<text text-anchor="middle" x="1568" y="-58.3" font-family="Times,serif" font-size="14.00">price</text>
</g>
<!-- Price22Description -->
<g id="node40" class="node"><title>Price22Description</title>
<ellipse fill="lightpink" stroke="black" cx="1624" cy="-18" rx="53.4184" ry="18"/>
<text text-anchor="middle" x="1624" y="-14.3" font-family="Times,serif" font-size="14.00">Upfront Fee</text>
</g>
<!-- Price22&#45;&gt;Price22Description -->
<g id="edge41" class="edge"><title>Price22&#45;&gt;Price22Description</title>
<path fill="none" stroke="black" d="M1583.4,-88.8241C1590.6,-76.4509 1600.66,-59.144 1608.97,-44.8566"/>
<polygon fill="black" stroke="black" points="1612.12,-46.3903 1614.12,-35.986 1606.07,-42.8719 1612.12,-46.3903"/>
<text text-anchor="middle" x="1634.5" y="-58.3" font-family="Times,serif" font-size="14.00">description</text>
</g>
<!-- Hrs22 -->
<g id="node41" class="node"><title>Hrs22</title>
<ellipse fill="lightpink" stroke="black" cx="1738" cy="-18" rx="41.394" ry="18"/>
<text text-anchor="middle" x="1738" y="-14.3" font-family="Times,serif" font-size="14.00">Quantity</text>
</g>
<!-- Price22&#45;&gt;Hrs22 -->
<g id="edge39" class="edge"><title>Price22&#45;&gt;Hrs22</title>
<path fill="none" stroke="black" d="M1595.71,-94.4556C1600.68,-92.2008 1605.98,-89.9218 1611,-88 1636.2,-78.3454 1644.92,-82.1927 1669,-70 1684.44,-62.1815 1700.08,-50.9547 1712.55,-41.0238"/>
<polygon fill="black" stroke="black" points="1715.12,-43.451 1720.64,-34.4134 1710.69,-38.0303 1715.12,-43.451"/>
<text text-anchor="middle" x="1707" y="-58.3" font-family="Times,serif" font-size="14.00">unit</text>
</g>
<!-- USD22 -->
<g id="node42" class="node"><title>USD22</title>
<ellipse fill="lightpink" stroke="black" cx="1826" cy="-18" rx="28.3955" ry="18"/>
<text text-anchor="middle" x="1826" y="-14.3" font-family="Times,serif" font-size="14.00">USD</text>
</g>
<!-- Price22&#45;&gt;USD22 -->
<g id="edge40" class="edge"><title>Price22&#45;&gt;USD22</title>
<path fill="none" stroke="black" d="M1595.53,-93.9275C1600.51,-91.7001 1605.86,-89.5658 1611,-88 1658.81,-73.4347 1674.38,-85.1673 1722,-70 1748.59,-61.5322 1776.9,-47.2618 1797.27,-35.9663"/>
<polygon fill="black" stroke="black" points="1799.04,-38.9831 1806.03,-31.0173 1795.6,-32.8882 1799.04,-38.9831"/>
<text text-anchor="middle" x="1785" y="-58.3" font-family="Times,serif" font-size="14.00">currency</text>
</g>
<!-- Price3 -->
<g id="node4" class="node"><title>Price3</title>
<ellipse fill="lightblue" stroke="black" cx="2204" cy="-106" rx="28.3955" ry="18"/>
<text text-anchor="middle" x="2204" y="-102.3" font-family="Times,serif" font-size="14.00">Price</text>
</g>
<!-- p3 -->
<g id="node27" class="node"><title>p3</title>
<ellipse fill="lightpink" stroke="black" cx="2091" cy="-18" rx="30.3206" ry="18"/>
<text text-anchor="middle" x="2091" y="-14.3" font-family="Times,serif" font-size="14.00">0.009</text>
</g>
<!-- Price3&#45;&gt;p3 -->
<g id="edge29" class="edge"><title>Price3&#45;&gt;p3</title>
<path fill="none" stroke="black" d="M2184.48,-92.9099C2174.3,-86.4052 2161.76,-78.0776 2151,-70 2138.63,-60.7111 2125.47,-49.6696 2114.64,-40.2397"/>
<polygon fill="black" stroke="black" points="2116.68,-37.3748 2106.86,-33.3984 2112.06,-42.6309 2116.68,-37.3748"/>
<text text-anchor="middle" x="2165" y="-58.3" font-family="Times,serif" font-size="14.00">price</text>
</g>
<!-- Hrs3 -->
<g id="node28" class="node"><title>Hrs3</title>
<ellipse fill="lightpink" stroke="black" cx="2167" cy="-18" rx="27" ry="18"/>
<text text-anchor="middle" x="2167" y="-14.3" font-family="Times,serif" font-size="14.00">Hrs</text>
</g>
<!-- Price3&#45;&gt;Hrs3 -->
<g id="edge27" class="edge"><title>Price3&#45;&gt;Hrs3</title>
<path fill="none" stroke="black" d="M2196.87,-88.4183C2191.54,-76.0451 2184.17,-58.9069 2178.08,-44.7555"/>
<polygon fill="black" stroke="black" points="2181.28,-43.3334 2174.11,-35.5308 2174.85,-46.0999 2181.28,-43.3334"/>
<text text-anchor="middle" x="2200" y="-58.3" font-family="Times,serif" font-size="14.00">unit</text>
</g>
<!-- USD3 -->
<g id="node29" class="node"><title>USD3</title>
<ellipse fill="lightpink" stroke="black" cx="2241" cy="-18" rx="28.3955" ry="18"/>
<text text-anchor="middle" x="2241" y="-14.3" font-family="Times,serif" font-size="14.00">USD</text>
</g>
<!-- Price3&#45;&gt;USD3 -->
<g id="edge28" class="edge"><title>Price3&#45;&gt;USD3</title>
<path fill="none" stroke="black" d="M2211.13,-88.4183C2216.46,-76.0451 2223.83,-58.9069 2229.92,-44.7555"/>
<polygon fill="black" stroke="black" points="2233.15,-46.0999 2233.89,-35.5308 2226.72,-43.3334 2233.15,-46.0999"/>
<text text-anchor="middle" x="2250" y="-58.3" font-family="Times,serif" font-size="14.00">currency</text>
</g>
<!-- Price3Description -->
<g id="node30" class="node"><title>Price3Description</title>
<ellipse fill="lightpink" stroke="black" cx="2550" cy="-18" rx="261.39" ry="18"/>
<text text-anchor="middle" x="2550" y="-14.3" font-family="Times,serif" font-size="14.00">Linux/UNIX (Amazon VPC), t2.micro instance&#45;hours used this month</text>
</g>
<!-- Price3&#45;&gt;Price3Description -->
<g id="edge26" class="edge"><title>Price3&#45;&gt;Price3Description</title>
<path fill="none" stroke="black" d="M2225.6,-94.1511C2230.58,-91.9121 2235.91,-89.7165 2241,-88 2307.61,-65.5421 2384.78,-48.3033 2445.33,-36.6734"/>
<polygon fill="black" stroke="black" points="2446.12,-40.0873 2455.29,-34.7833 2444.81,-33.2102 2446.12,-40.0873"/>
<text text-anchor="middle" x="2389.5" y="-58.3" font-family="Times,serif" font-size="14.00">description</text>
</g>
<!-- Offer1 -->
<g id="node5" class="node"><title>Offer1</title>
<ellipse fill="lightblue" stroke="black" cx="768" cy="-194" rx="29.3479" ry="18"/>
<text text-anchor="middle" x="768" y="-190.3" font-family="Times,serif" font-size="14.00">Offer</text>
</g>
<!-- Offer1&#45;&gt;Price1 -->
<g id="edge22" class="edge"><title>Offer1&#45;&gt;Price1</title>
<path fill="none" stroke="black" d="M739.64,-188.852C643.064,-174.727 326.953,-128.493 217.614,-112.501"/>
<polygon fill="black" stroke="black" points="217.796,-108.991 207.394,-111.007 216.783,-115.917 217.796,-108.991"/>
<text text-anchor="middle" x="543.5" y="-146.3" font-family="Times,serif" font-size="14.00">prices</text>
</g>
<!-- OnDemand -->
<g id="node16" class="node"><title>OnDemand</title>
<ellipse fill="lightpink" stroke="black" cx="700" cy="-106" rx="51.4931" ry="18"/>
<text text-anchor="middle" x="700" y="-102.3" font-family="Times,serif" font-size="14.00">OnDemand</text>
</g>
<!-- Offer1&#45;&gt;OnDemand -->
<g id="edge12" class="edge"><title>Offer1&#45;&gt;OnDemand</title>
<path fill="none" stroke="black" d="M755.528,-177.226C745.464,-164.498 731.124,-146.363 719.539,-131.711"/>
<polygon fill="black" stroke="black" points="722.036,-129.226 713.088,-123.553 716.545,-133.568 722.036,-129.226"/>
<text text-anchor="middle" x="753" y="-146.3" font-family="Times,serif" font-size="14.00">type</text>
</g>
<!-- JRTCKXETXF -->
<g id="node19" class="node"><title>JRTCKXETXF</title>
<ellipse fill="lightpink" stroke="black" cx="836" cy="-106" rx="65.4659" ry="18"/>
<text text-anchor="middle" x="836" y="-102.3" font-family="Times,serif" font-size="14.00">JRTCKXETXF</text>
</g>
<!-- Offer1&#45;&gt;JRTCKXETXF -->
<g id="edge11" class="edge"><title>Offer1&#45;&gt;JRTCKXETXF</title>
<path fill="none" stroke="black" d="M780.472,-177.226C790.472,-164.579 804.693,-146.594 816.24,-131.991"/>
<polygon fill="black" stroke="black" points="819.22,-133.865 822.677,-123.85 813.729,-129.523 819.22,-133.865"/>
<text text-anchor="middle" x="822" y="-146.3" font-family="Times,serif" font-size="14.00">code</text>
</g>
<!-- Offer2 -->
<g id="node6" class="node"><title>Offer2</title>
<ellipse fill="lightblue" stroke="black" cx="1825" cy="-194" rx="29.3479" ry="18"/>
<text text-anchor="middle" x="1825" y="-190.3" font-family="Times,serif" font-size="14.00">Offer</text>
</g>
<!-- Offer2&#45;&gt;Price21 -->
<g id="edge23" class="edge"><title>Offer2&#45;&gt;Price21</title>
<path fill="none" stroke="black" d="M1796.25,-189.576C1683.11,-176.099 1268.51,-126.715 1140.74,-111.496"/>
<polygon fill="black" stroke="black" points="1141,-108.002 1130.66,-110.295 1140.18,-114.953 1141,-108.002"/>
<text text-anchor="middle" x="1545.5" y="-146.3" font-family="Times,serif" font-size="14.00">prices</text>
</g>
<!-- Offer2&#45;&gt;Price22 -->
<g id="edge24" class="edge"><title>Offer2&#45;&gt;Price22</title>
<path fill="none" stroke="black" d="M1797.86,-186.82C1771.15,-180.49 1729.36,-169.912 1694,-158 1656.22,-145.274 1647.56,-139.881 1611,-124 1609.2,-123.219 1607.36,-122.407 1605.5,-121.58"/>
<polygon fill="black" stroke="black" points="1606.79,-118.324 1596.24,-117.4 1603.91,-124.704 1606.79,-118.324"/>
<text text-anchor="middle" x="1710.5" y="-146.3" font-family="Times,serif" font-size="14.00">prices</text>
</g>
<!-- Reserved1 -->
<g id="node17" class="node"><title>Reserved1</title>
<ellipse fill="lightpink" stroke="black" cx="1664" cy="-106" rx="43.319" ry="18"/>
<text text-anchor="middle" x="1664" y="-102.3" font-family="Times,serif" font-size="14.00">Reserved</text>
</g>
<!-- Offer2&#45;&gt;Reserved1 -->
<g id="edge13" class="edge"><title>Offer2&#45;&gt;Reserved1</title>
<path fill="none" stroke="black" d="M1803.62,-181.58C1776.76,-167.233 1730.33,-142.432 1698.44,-125.397"/>
<polygon fill="black" stroke="black" points="1699.92,-122.221 1689.45,-120.596 1696.62,-128.395 1699.92,-122.221"/>
<text text-anchor="middle" x="1771" y="-146.3" font-family="Times,serif" font-size="14.00">type</text>
</g>
<!-- NQ3QZPMQV9 -->
<g id="node20" class="node"><title>NQ3QZPMQV9</title>
<ellipse fill="lightpink" stroke="black" cx="1795" cy="-106" rx="69.3156" ry="18"/>
<text text-anchor="middle" x="1795" y="-102.3" font-family="Times,serif" font-size="14.00">NQ3QZPMQV9</text>
</g>
<!-- Offer2&#45;&gt;NQ3QZPMQV9 -->
<g id="edge14" class="edge"><title>Offer2&#45;&gt;NQ3QZPMQV9</title>
<path fill="none" stroke="black" d="M1815.54,-176.641C1812.5,-170.885 1809.32,-164.283 1807,-158 1804.2,-150.404 1801.9,-141.925 1800.08,-134.096"/>
<polygon fill="black" stroke="black" points="1803.5,-133.348 1797.98,-124.306 1796.66,-134.819 1803.5,-133.348"/>
<text text-anchor="middle" x="1820" y="-146.3" font-family="Times,serif" font-size="14.00">code</text>
</g>
<!-- 3yr2 -->
<g id="node21" class="node"><title>3yr2</title>
<ellipse fill="lightpink" stroke="black" cx="1910" cy="-106" rx="27" ry="18"/>
<text text-anchor="middle" x="1910" y="-102.3" font-family="Times,serif" font-size="14.00">3yr</text>
</g>
<!-- Offer2&#45;&gt;3yr2 -->
<g id="edge15" class="edge"><title>Offer2&#45;&gt;3yr2</title>
<path fill="none" stroke="black" d="M1832.58,-176.55C1838.05,-165.869 1846.18,-152.107 1856,-142 1863.11,-134.685 1872.01,-128.136 1880.53,-122.738"/>
<polygon fill="black" stroke="black" points="1882.4,-125.694 1889.17,-117.544 1878.8,-119.694 1882.4,-125.694"/>
<text text-anchor="middle" x="1914.5" y="-146.3" font-family="Times,serif" font-size="14.00">LeaseContractLength</text>
</g>
<!-- standard2 -->
<g id="node22" class="node"><title>standard2</title>
<ellipse fill="lightpink" stroke="black" cx="1995" cy="-106" rx="39.9464" ry="18"/>
<text text-anchor="middle" x="1995" y="-102.3" font-family="Times,serif" font-size="14.00">standard</text>
</g>
<!-- Offer2&#45;&gt;standard2 -->
<g id="edge16" class="edge"><title>Offer2&#45;&gt;standard2</title>
<path fill="none" stroke="black" d="M1854.56,-193.507C1887.16,-192.52 1939.42,-186.164 1973,-158 1980.41,-151.787 1985.39,-142.618 1988.71,-133.76"/>
<polygon fill="black" stroke="black" points="1992.09,-134.658 1991.79,-124.067 1985.42,-132.538 1992.09,-134.658"/>
<text text-anchor="middle" x="2023" y="-146.3" font-family="Times,serif" font-size="14.00">OfferingClass</text>
</g>
<!-- All Upfront2 -->
<g id="node23" class="node"><title>All Upfront2</title>
<ellipse fill="lightpink" stroke="black" cx="2105" cy="-106" rx="51.4931" ry="18"/>
<text text-anchor="middle" x="2105" y="-102.3" font-family="Times,serif" font-size="14.00">All Upfront</text>
</g>
<!-- Offer2&#45;&gt;All Upfront2 -->
<g id="edge17" class="edge"><title>Offer2&#45;&gt;All Upfront2</title>
<path fill="none" stroke="black" d="M1854.19,-191.439C1910.06,-188.02 2029.66,-178.481 2065,-158 2075.44,-151.952 2084.14,-142.028 2090.74,-132.534"/>
<polygon fill="black" stroke="black" points="2093.73,-134.362 2096.2,-124.059 2087.84,-130.572 2093.73,-134.362"/>
<text text-anchor="middle" x="2126.5" y="-146.3" font-family="Times,serif" font-size="14.00">PurchaseOption</text>
</g>
<!-- Offer3 -->
<g id="node7" class="node"><title>Offer3</title>
<ellipse fill="lightblue" stroke="black" cx="2294" cy="-194" rx="29.3479" ry="18"/>
<text text-anchor="middle" x="2294" y="-190.3" font-family="Times,serif" font-size="14.00">Offer</text>
</g>
<!-- Offer3&#45;&gt;Price3 -->
<g id="edge25" class="edge"><title>Offer3&#45;&gt;Price3</title>
<path fill="none" stroke="black" d="M2278.49,-178.384C2271.86,-172.12 2264.04,-164.714 2257,-158 2247.04,-148.497 2236.07,-137.952 2226.7,-128.929"/>
<polygon fill="black" stroke="black" points="2228.9,-126.187 2219.27,-121.764 2224.04,-131.225 2228.9,-126.187"/>
<text text-anchor="middle" x="2273.5" y="-146.3" font-family="Times,serif" font-size="14.00">prices</text>
</g>
<!-- Reserved2 -->
<g id="node18" class="node"><title>Reserved2</title>
<ellipse fill="lightpink" stroke="black" cx="2294" cy="-106" rx="43.319" ry="18"/>
<text text-anchor="middle" x="2294" y="-102.3" font-family="Times,serif" font-size="14.00">Reserved</text>
</g>
<!-- Offer3&#45;&gt;Reserved2 -->
<g id="edge18" class="edge"><title>Offer3&#45;&gt;Reserved2</title>
<path fill="none" stroke="black" d="M2294,-175.597C2294,-163.746 2294,-147.817 2294,-134.292"/>
<polygon fill="black" stroke="black" points="2297.5,-134.084 2294,-124.084 2290.5,-134.084 2297.5,-134.084"/>
<text text-anchor="middle" x="2306" y="-146.3" font-family="Times,serif" font-size="14.00">type</text>
</g>
<!-- 1yr3 -->
<g id="node24" class="node"><title>1yr3</title>
<ellipse fill="lightpink" stroke="black" cx="2383" cy="-106" rx="27" ry="18"/>
<text text-anchor="middle" x="2383" y="-102.3" font-family="Times,serif" font-size="14.00">3yr</text>
</g>
<!-- Offer3&#45;&gt;1yr3 -->
<g id="edge19" class="edge"><title>Offer3&#45;&gt;1yr3</title>
<path fill="none" stroke="black" d="M2307.45,-177.859C2316.85,-167.49 2329.85,-153.574 2342,-142 2347.19,-137.056 2352.94,-131.937 2358.46,-127.19"/>
<polygon fill="black" stroke="black" points="2360.91,-129.701 2366.28,-120.567 2356.39,-124.36 2360.91,-129.701"/>
<text text-anchor="middle" x="2400.5" y="-146.3" font-family="Times,serif" font-size="14.00">LeaseContractLength</text>
</g>
<!-- standard3 -->
<g id="node25" class="node"><title>standard3</title>
<ellipse fill="lightpink" stroke="black" cx="2481" cy="-106" rx="39.9464" ry="18"/>
<text text-anchor="middle" x="2481" y="-102.3" font-family="Times,serif" font-size="14.00">standard</text>
</g>
<!-- Offer3&#45;&gt;standard3 -->
<g id="edge20" class="edge"><title>Offer3&#45;&gt;standard3</title>
<path fill="none" stroke="black" d="M2316.31,-182.054C2321.67,-179.765 2327.46,-177.573 2333,-176 2387.42,-160.558 2414.06,-192.357 2459,-158 2466.68,-152.128 2471.72,-143.032 2475.01,-134.139"/>
<polygon fill="black" stroke="black" points="2478.42,-134.954 2478.02,-124.366 2471.73,-132.889 2478.42,-134.954"/>
<text text-anchor="middle" x="2510" y="-146.3" font-family="Times,serif" font-size="14.00">OfferingClass</text>
</g>
<!-- All Upfront3 -->
<g id="node26" class="node"><title>All Upfront3</title>
<ellipse fill="lightpink" stroke="black" cx="2591" cy="-106" rx="51.4931" ry="18"/>
<text text-anchor="middle" x="2591" y="-102.3" font-family="Times,serif" font-size="14.00">All Upfront</text>
</g>
<!-- Offer3&#45;&gt;All Upfront3 -->
<g id="edge21" class="edge"><title>Offer3&#45;&gt;All Upfront3</title>
<path fill="none" stroke="black" d="M2316.24,-181.812C2321.61,-179.533 2327.41,-177.406 2333,-176 2380.35,-164.083 2509.15,-181.41 2552,-158 2562.63,-152.19 2571.27,-142.117 2577.69,-132.45"/>
<polygon fill="black" stroke="black" points="2580.73,-134.179 2582.95,-123.819 2574.76,-130.535 2580.73,-134.179"/>
<text text-anchor="middle" x="2614.5" y="-146.3" font-family="Times,serif" font-size="14.00">PurchaseOption</text>
</g>
<!-- PF1 -->
<g id="node8" class="node"><title>PF1</title>
<ellipse fill="lightblue" stroke="black" cx="2537" cy="-370" rx="65.4659" ry="18"/>
<text text-anchor="middle" x="2537" y="-366.3" font-family="Times,serif" font-size="14.00">Product Family</text>
</g>
<!-- Product1 -->
<g id="node9" class="node"><title>Product1</title>
<ellipse fill="lightblue" stroke="black" cx="2456" cy="-282" rx="38.0212" ry="18"/>
<text text-anchor="middle" x="2456" y="-278.3" font-family="Times,serif" font-size="14.00">Product</text>
</g>
<!-- PF1&#45;&gt;Product1 -->
<g id="edge2" class="edge"><title>PF1&#45;&gt;Product1</title>
<path fill="none" stroke="black" d="M2521.38,-352.418C2509.05,-339.322 2491.69,-320.888 2477.95,-306.307"/>
<polygon fill="black" stroke="black" points="2480.15,-303.541 2470.75,-298.661 2475.06,-308.34 2480.15,-303.541"/>
<text text-anchor="middle" x="2527.5" y="-322.3" font-family="Times,serif" font-size="14.00">products</text>
</g>
<!-- Compute Instance -->
<g id="node10" class="node"><title>Compute Instance</title>
<ellipse fill="lightpink" stroke="black" cx="2588" cy="-282" rx="75.0904" ry="18"/>
<text text-anchor="middle" x="2588" y="-278.3" font-family="Times,serif" font-size="14.00">Compute Instance</text>
</g>
<!-- PF1&#45;&gt;Compute Instance -->
<g id="edge1" class="edge"><title>PF1&#45;&gt;Compute Instance</title>
<path fill="none" stroke="black" d="M2547.08,-352.009C2554.41,-339.641 2564.47,-322.675 2572.78,-308.661"/>
<polygon fill="black" stroke="black" points="2575.85,-310.342 2577.94,-299.956 2569.83,-306.772 2575.85,-310.342"/>
<text text-anchor="middle" x="2583.5" y="-322.3" font-family="Times,serif" font-size="14.00">name</text>
</g>
<!-- Product1&#45;&gt;Offer1 -->
<g id="edge8" class="edge"><title>Product1&#45;&gt;Offer1</title>
<path fill="none" stroke="black" d="M2417.98,-279.063C2192.88,-267.595 1037.03,-208.707 807.613,-197.018"/>
<polygon fill="black" stroke="black" points="807.561,-193.511 797.396,-196.498 807.205,-200.502 807.561,-193.511"/>
<text text-anchor="middle" x="1780" y="-234.3" font-family="Times,serif" font-size="14.00">offers</text>
</g>
<!-- Product1&#45;&gt;Offer2 -->
<g id="edge9" class="edge"><title>Product1&#45;&gt;Offer2</title>
<path fill="none" stroke="black" d="M2419.81,-276.067C2309.34,-261.012 1977.15,-215.736 1863.57,-200.256"/>
<polygon fill="black" stroke="black" points="1863.96,-196.778 1853.58,-198.896 1863.02,-203.714 1863.96,-196.778"/>
<text text-anchor="middle" x="2214" y="-234.3" font-family="Times,serif" font-size="14.00">offers</text>
</g>
<!-- Product1&#45;&gt;Offer3 -->
<g id="edge10" class="edge"><title>Product1&#45;&gt;Offer3</title>
<path fill="none" stroke="black" d="M2427.78,-269.584C2412.51,-263.138 2393.46,-254.656 2377,-246 2358.23,-236.132 2337.93,-223.695 2322.11,-213.574"/>
<polygon fill="black" stroke="black" points="2323.66,-210.405 2313.36,-207.919 2319.86,-216.285 2323.66,-210.405"/>
<text text-anchor="middle" x="2393" y="-234.3" font-family="Times,serif" font-size="14.00">offers</text>
</g>
<!-- t2.micro -->
<g id="node11" class="node"><title>t2.micro</title>
<ellipse fill="lightpink" stroke="black" cx="2383" cy="-194" rx="40.4202" ry="18"/>
<text text-anchor="middle" x="2383" y="-190.3" font-family="Times,serif" font-size="14.00">t2.micro</text>
</g>
<!-- Product1&#45;&gt;t2.micro -->
<g id="edge3" class="edge"><title>Product1&#45;&gt;t2.micro</title>
<path fill="none" stroke="black" d="M2442.27,-264.824C2431.26,-251.851 2415.64,-233.454 2403.2,-218.801"/>
<polygon fill="black" stroke="black" points="2405.81,-216.462 2396.67,-211.103 2400.47,-220.992 2405.81,-216.462"/>
<text text-anchor="middle" x="2439" y="-234.3" font-family="Times,serif" font-size="14.00">type</text>
</g>
<!-- US East (N. Virginia) -->
<g id="node12" class="node"><title>US East (N. Virginia)</title>
<ellipse fill="lightpink" stroke="black" cx="2530" cy="-194" rx="88.0886" ry="18"/>
<text text-anchor="middle" x="2530" y="-190.3" font-family="Times,serif" font-size="14.00">US East (N. Virginia)</text>
</g>
<!-- Product1&#45;&gt;US East (N. Virginia) -->
<g id="edge4" class="edge"><title>Product1&#45;&gt;US East (N. Virginia)</title>
<path fill="none" stroke="black" d="M2469.92,-264.824C2480.87,-252.097 2496.31,-234.151 2508.8,-219.64"/>
<polygon fill="black" stroke="black" points="2511.51,-221.849 2515.38,-211.986 2506.21,-217.283 2511.51,-221.849"/>
<text text-anchor="middle" x="2522" y="-234.3" font-family="Times,serif" font-size="14.00">location</text>
</g>
<!-- HZC9FAP4F9Y8JW67 -->
<g id="node13" class="node"><title>HZC9FAP4F9Y8JW67</title>
<ellipse fill="lightpink" stroke="black" cx="2731" cy="-194" rx="94.3628" ry="18"/>
<text text-anchor="middle" x="2731" y="-190.3" font-family="Times,serif" font-size="14.00">HZC9FAP4F9Y8JW67</text>
</g>
<!-- Product1&#45;&gt;HZC9FAP4F9Y8JW67 -->
<g id="edge5" class="edge"><title>Product1&#45;&gt;HZC9FAP4F9Y8JW67</title>
<path fill="none" stroke="black" d="M2485.37,-270.36C2491.51,-268.203 2497.95,-265.989 2504,-264 2560.5,-245.417 2625.49,-225.844 2671.41,-212.31"/>
<polygon fill="black" stroke="black" points="2672.59,-215.611 2681.2,-209.432 2670.62,-208.895 2672.59,-215.611"/>
<text text-anchor="middle" x="2624" y="-234.3" font-family="Times,serif" font-size="14.00">SKU</text>
</g>
<!-- Shared -->
<g id="node14" class="node"><title>Shared</title>
<ellipse fill="lightpink" stroke="black" cx="2878" cy="-194" rx="35.1455" ry="18"/>
<text text-anchor="middle" x="2878" y="-190.3" font-family="Times,serif" font-size="14.00">Shared</text>
</g>
<!-- Product1&#45;&gt;Shared -->
<g id="edge6" class="edge"><title>Product1&#45;&gt;Shared</title>
<path fill="none" stroke="black" d="M2484.38,-269.838C2490.76,-267.643 2497.55,-265.544 2504,-264 2564.15,-249.595 2580.86,-255.395 2642,-246 2727.66,-232.837 2750.52,-235.281 2834,-212 2836.65,-211.262 2839.35,-210.426 2842.06,-209.53"/>
<polygon fill="black" stroke="black" points="2843.5,-212.733 2851.76,-206.091 2841.16,-206.135 2843.5,-212.733"/>
<text text-anchor="middle" x="2777.5" y="-234.3" font-family="Times,serif" font-size="14.00">tenancy</text>
</g>
<!-- Linux -->
<g id="node15" class="node"><title>Linux</title>
<ellipse fill="lightpink" stroke="black" cx="2963" cy="-194" rx="31.2735" ry="18"/>
<text text-anchor="middle" x="2963" y="-190.3" font-family="Times,serif" font-size="14.00">Linux</text>
</g>
<!-- Product1&#45;&gt;Linux -->
<g id="edge7" class="edge"><title>Product1&#45;&gt;Linux</title>
<path fill="none" stroke="black" d="M2484.05,-269.587C2490.51,-267.378 2497.42,-265.337 2504,-264 2634.47,-237.518 2671.77,-268.42 2803,-246 2857.22,-236.737 2870.06,-230.119 2922,-212 2924.27,-211.208 2926.6,-210.356 2928.93,-209.47"/>
<polygon fill="black" stroke="black" points="2930.44,-212.638 2938.46,-205.712 2927.87,-206.126 2930.44,-212.638"/>
<text text-anchor="middle" x="2916" y="-234.3" font-family="Times,serif" font-size="14.00">operatingSystem</text>
</g>
</g>
</svg>
