<?xml version="1.0" encoding="UTF-8" standalone="no"?>
<!DOCTYPE svg PUBLIC "-//W3C//DTD SVG 1.1//EN"
 "http://www.w3.org/Graphics/SVG/1.1/DTD/svg11.dtd">
<!-- Generated by graphviz version 2.36.0 (20140111.2315)
 -->
<!-- Title: G Pages: 1 -->
<svg width="1383pt" height="1523pt"
 viewBox="0.00 0.00 1383.00 1523.00" xmlns="http://www.w3.org/2000/svg" xmlns:xlink="http://www.w3.org/1999/xlink">
<g id="graph0" class="graph" transform="scale(1 1) rotate(0) translate(4 1519)">
<title>G</title>
<polygon fill="white" stroke="none" points="-4,4 -4,-1519 1379,-1519 1379,4 -4,4"/>
<!-- Price1 -->
<g id="node1" class="node"><title>Price1</title>
<ellipse fill="lightblue" stroke="black" cx="340.565" cy="-319.718" rx="28.6953" ry="18"/>
<text text-anchor="middle" x="340.565" y="-316.018" font-family="Times,serif" font-size="14.00">Price</text>
</g>
<!-- p1 -->
<g id="node31" class="node"><title>p1</title>
<ellipse fill="lightpink" stroke="black" cx="227.326" cy="-235.567" rx="30.5947" ry="18"/>
<text text-anchor="middle" x="227.326" y="-231.867" font-family="Times,serif" font-size="14.00">0.012</text>
</g>
<!-- Price1&#45;&gt;p1 -->
<g id="edge33" class="edge"><title>Price1&#45;&gt;p1</title>
<path fill="none" stroke="black" d="M321.866,-305.822C303.535,-292.201 275.392,-271.286 254.574,-255.816"/>
<polygon fill="black" stroke="black" points="256.545,-252.921 246.431,-249.765 252.37,-258.539 256.545,-252.921"/>
<text text-anchor="middle" x="274.22" y="-284.619" font-family="Times,serif" font-size="14.00">price</text>
</g>
<!-- Hrs1 -->
<g id="node32" class="node"><title>Hrs1</title>
<ellipse fill="lightpink" stroke="black" cx="380.386" cy="-190.69" rx="27" ry="18"/>
<text text-anchor="middle" x="380.386" y="-186.99" font-family="Times,serif" font-size="14.00">Hrs</text>
</g>
<!-- Price1&#45;&gt;Hrs1 -->
<g id="edge31" class="edge"><title>Price1&#45;&gt;Hrs1</title>
<path fill="none" stroke="black" d="M346.018,-302.048C352.683,-280.453 364.037,-243.664 371.859,-218.317"/>
<polygon fill="black" stroke="black" points="375.266,-219.148 374.87,-208.561 368.577,-217.084 375.266,-219.148"/>
<text text-anchor="middle" x="347.939" y="-263.982" font-family="Times,serif" font-size="14.00">unit</text>
</g>
<!-- USD1 -->
<g id="node33" class="node"><title>USD1</title>
<ellipse fill="lightpink" stroke="black" cx="296.535" cy="-185.534" rx="28.6953" ry="18"/>
<text text-anchor="middle" x="296.535" y="-181.834" font-family="Times,serif" font-size="14.00">USD</text>
</g>
<!-- Price1&#45;&gt;USD1 -->
<g id="edge32" class="edge"><title>Price1&#45;&gt;USD1</title>
<path fill="none" stroke="black" d="M334.718,-301.899C327.284,-279.242 314.367,-239.877 305.638,-213.276"/>
<polygon fill="black" stroke="black" points="308.849,-211.836 302.406,-203.426 302.198,-214.019 308.849,-211.836"/>
<text text-anchor="middle" x="296.178" y="-261.388" font-family="Times,serif" font-size="14.00">currency</text>
</g>
<!-- Price1Description -->
<g id="node34" class="node"><title>Price1Description</title>
<ellipse fill="lightpink" stroke="black" cx="212.916" cy="-17.8561" rx="202.564" ry="18"/>
<text text-anchor="middle" x="212.916" y="-14.1561" font-family="Times,serif" font-size="14.00">$0.012 per On Demand Linux t2.micro Instance Hour</text>
</g>
<!-- Price1&#45;&gt;Price1Description -->
<g id="edge30" class="edge"><title>Price1&#45;&gt;Price1Description</title>
<path fill="none" stroke="black" d="M333.15,-302.184C311.88,-251.884 250.531,-106.808 224.653,-45.6114"/>
<polygon fill="black" stroke="black" points="227.792,-44.0488 220.674,-36.2016 221.345,-46.7752 227.792,-44.0488"/>
<text text-anchor="middle" x="248.401" y="-162.698" font-family="Times,serif" font-size="14.00">description</text>
</g>
<!-- Price21 -->
<g id="node2" class="node"><title>Price21</title>
<ellipse fill="lightblue" stroke="black" cx="617.699" cy="-872.761" rx="28.6953" ry="18"/>
<text text-anchor="middle" x="617.699" y="-869.061" font-family="Times,serif" font-size="14.00">Price</text>
</g>
<!-- Hrs21 -->
<g id="node35" class="node"><title>Hrs21</title>
<ellipse fill="lightpink" stroke="black" cx="740.356" cy="-849.235" rx="27" ry="18"/>
<text text-anchor="middle" x="740.356" y="-845.535" font-family="Times,serif" font-size="14.00">Hrs</text>
</g>
<!-- Price21&#45;&gt;Hrs21 -->
<g id="edge34" class="edge"><title>Price21&#45;&gt;Hrs21</title>
<path fill="none" stroke="black" d="M645.226,-867.481C662.628,-864.144 685.31,-859.793 704.161,-856.178"/>
<polygon fill="black" stroke="black" points="705.02,-859.577 714.182,-854.256 703.702,-852.702 705.02,-859.577"/>
<text text-anchor="middle" x="663.694" y="-865.63" font-family="Times,serif" font-size="14.00">unit</text>
</g>
<!-- USD21 -->
<g id="node36" class="node"><title>USD21</title>
<ellipse fill="lightpink" stroke="black" cx="711.964" cy="-958.01" rx="28.6953" ry="18"/>
<text text-anchor="middle" x="711.964" y="-954.31" font-family="Times,serif" font-size="14.00">USD</text>
</g>
<!-- Price21&#45;&gt;USD21 -->
<g id="edge35" class="edge"><title>Price21&#45;&gt;USD21</title>
<path fill="none" stroke="black" d="M634.119,-887.61C648.897,-900.975 670.81,-920.792 687.625,-935.998"/>
<polygon fill="black" stroke="black" points="685.652,-938.933 695.416,-943.045 690.347,-933.741 685.652,-938.933"/>
<text text-anchor="middle" x="636.872" y="-915.604" font-family="Times,serif" font-size="14.00">currency</text>
</g>
<!-- Price21Description -->
<g id="node37" class="node"><title>Price21Description</title>
<ellipse fill="lightpink" stroke="black" cx="1069.18" cy="-895.665" rx="305.446" ry="18"/>
<text text-anchor="middle" x="1069.18" y="-891.965" font-family="Times,serif" font-size="14.00">USD 0.0 per Linux/UNIX (Amazon VPC), t2.micro instance&#45;hour (or partial hour)</text>
</g>
<!-- Price21&#45;&gt;Price21Description -->
<g id="edge36" class="edge"><title>Price21&#45;&gt;Price21Description</title>
<path fill="none" stroke="black" d="M646.284,-874.211C684.142,-876.132 754.657,-879.709 827.403,-883.4"/>
<polygon fill="black" stroke="black" points="827.515,-886.91 837.679,-883.921 827.87,-879.919 827.515,-886.91"/>
<text text-anchor="middle" x="706.343" y="-882.605" font-family="Times,serif" font-size="14.00">description</text>
</g>
<!-- p21 -->
<g id="node38" class="node"><title>p21</title>
<ellipse fill="lightpink" stroke="black" cx="717.934" cy="-912.083" rx="27" ry="18"/>
<text text-anchor="middle" x="717.934" y="-908.383" font-family="Times,serif" font-size="14.00">0</text>
</g>
<!-- Price21&#45;&gt;p21 -->
<g id="edge37" class="edge"><title>Price21&#45;&gt;p21</title>
<path fill="none" stroke="black" d="M642.22,-882.38C654.998,-887.393 670.812,-893.597 684.677,-899.036"/>
<polygon fill="black" stroke="black" points="683.77,-902.44 694.357,-902.834 686.326,-895.924 683.77,-902.44"/>
<text text-anchor="middle" x="649.448" y="-894.508" font-family="Times,serif" font-size="14.00">price</text>
</g>
<!-- Price22 -->
<g id="node3" class="node"><title>Price22</title>
<ellipse fill="lightblue" stroke="black" cx="229.732" cy="-873.16" rx="28.6953" ry="18"/>
<text text-anchor="middle" x="229.732" y="-869.46" font-family="Times,serif" font-size="14.00">Price</text>
</g>
<!-- p22 -->
<g id="node39" class="node"><title>p22</title>
<ellipse fill="lightpink" stroke="black" cx="144.599" cy="-873.985" rx="27" ry="18"/>
<text text-anchor="middle" x="144.599" y="-870.285" font-family="Times,serif" font-size="14.00">124</text>
</g>
<!-- Price22&#45;&gt;p22 -->
<g id="edge38" class="edge"><title>Price22&#45;&gt;p22</title>
<path fill="none" stroke="black" d="M200.91,-873.439C194.853,-873.498 188.38,-873.561 182.06,-873.622"/>
<polygon fill="black" stroke="black" points="181.633,-870.126 171.667,-873.723 181.701,-877.126 181.633,-870.126"/>
<text text-anchor="middle" x="184.485" y="-862.331" font-family="Times,serif" font-size="14.00">price</text>
</g>
<!-- Price22Description -->
<g id="node40" class="node"><title>Price22Description</title>
<ellipse fill="lightpink" stroke="black" cx="53.5565" cy="-914.156" rx="53.8905" ry="18"/>
<text text-anchor="middle" x="53.5565" y="-910.456" font-family="Times,serif" font-size="14.00">Upfront Fee</text>
</g>
<!-- Price22&#45;&gt;Price22Description -->
<g id="edge41" class="edge"><title>Price22&#45;&gt;Price22Description</title>
<path fill="none" stroke="black" d="M202.591,-879.476C177.42,-885.333 139.228,-894.22 107.808,-901.532"/>
<polygon fill="black" stroke="black" points="106.817,-898.169 97.87,-903.844 108.403,-904.987 106.817,-898.169"/>
<text text-anchor="middle" x="185.7" y="-894.304" font-family="Times,serif" font-size="14.00">description</text>
</g>
<!-- Hrs22 -->
<g id="node41" class="node"><title>Hrs22</title>
<ellipse fill="lightpink" stroke="black" cx="73.7949" cy="-822.847" rx="41.6928" ry="18"/>
<text text-anchor="middle" x="73.7949" y="-819.147" font-family="Times,serif" font-size="14.00">Quantity</text>
</g>
<!-- Price22&#45;&gt;Hrs22 -->
<g id="edge39" class="edge"><title>Price22&#45;&gt;Hrs22</title>
<path fill="none" stroke="black" d="M203.982,-864.852C180.304,-857.212 144.733,-845.735 116.754,-836.708"/>
<polygon fill="black" stroke="black" points="117.797,-833.367 107.206,-833.627 115.648,-840.029 117.797,-833.367"/>
<text text-anchor="middle" x="149.368" y="-839.58" font-family="Times,serif" font-size="14.00">unit</text>
</g>
<!-- USD22 -->
<g id="node42" class="node"><title>USD22</title>
<ellipse fill="lightpink" stroke="black" cx="120.007" cy="-967.454" rx="28.6953" ry="18"/>
<text text-anchor="middle" x="120.007" y="-963.754" font-family="Times,serif" font-size="14.00">USD</text>
</g>
<!-- Price22&#45;&gt;USD22 -->
<g id="edge40" class="edge"><title>Price22&#45;&gt;USD22</title>
<path fill="none" stroke="black" d="M212.588,-887.894C194.39,-903.532 165.46,-928.393 144.784,-946.161"/>
<polygon fill="black" stroke="black" points="142.334,-943.652 137.031,-952.824 146.896,-948.961 142.334,-943.652"/>
<text text-anchor="middle" x="154.686" y="-920.828" font-family="Times,serif" font-size="14.00">currency</text>
</g>
<!-- Price3 -->
<g id="node4" class="node"><title>Price3</title>
<ellipse fill="lightblue" stroke="black" cx="464.508" cy="-1109.6" rx="28.6953" ry="18"/>
<text text-anchor="middle" x="464.508" y="-1105.9" font-family="Times,serif" font-size="14.00">Price</text>
</g>
<!-- p3 -->
<g id="node27" class="node"><title>p3</title>
<ellipse fill="lightpink" stroke="black" cx="469.066" cy="-1259.92" rx="30.5947" ry="18"/>
<text text-anchor="middle" x="469.066" y="-1256.22" font-family="Times,serif" font-size="14.00">0.009</text>
</g>
<!-- Price3&#45;&gt;p3 -->
<g id="edge29" class="edge"><title>Price3&#45;&gt;p3</title>
<path fill="none" stroke="black" d="M465.058,-1127.74C465.842,-1153.58 467.287,-1201.25 468.211,-1231.73"/>
<polygon fill="black" stroke="black" points="464.713,-1231.84 468.514,-1241.73 471.71,-1231.63 464.713,-1231.84"/>
<text text-anchor="middle" x="452.635" y="-1183.53" font-family="Times,serif" font-size="14.00">price</text>
</g>
<!-- Hrs3 -->
<g id="node28" class="node"><title>Hrs3</title>
<ellipse fill="lightpink" stroke="black" cx="549.673" cy="-1222.05" rx="27" ry="18"/>
<text text-anchor="middle" x="549.673" y="-1218.35" font-family="Times,serif" font-size="14.00">Hrs</text>
</g>
<!-- Price3&#45;&gt;Hrs3 -->
<g id="edge27" class="edge"><title>Price3&#45;&gt;Hrs3</title>
<path fill="none" stroke="black" d="M477.075,-1126.2C491.371,-1145.07 514.852,-1176.08 531.225,-1197.69"/>
<polygon fill="black" stroke="black" points="528.504,-1199.9 537.332,-1205.76 534.084,-1195.67 528.504,-1199.9"/>
<text text-anchor="middle" x="493.15" y="-1165.75" font-family="Times,serif" font-size="14.00">unit</text>
</g>
<!-- USD3 -->
<g id="node29" class="node"><title>USD3</title>
<ellipse fill="lightpink" stroke="black" cx="395.487" cy="-1237.27" rx="28.6953" ry="18"/>
<text text-anchor="middle" x="395.487" y="-1233.57" font-family="Times,serif" font-size="14.00">USD</text>
</g>
<!-- Price3&#45;&gt;USD3 -->
<g id="edge28" class="edge"><title>Price3&#45;&gt;USD3</title>
<path fill="none" stroke="black" d="M455.2,-1126.82C443.519,-1148.43 423.368,-1185.7 409.741,-1210.9"/>
<polygon fill="black" stroke="black" points="406.546,-1209.45 404.868,-1219.91 412.703,-1212.78 406.546,-1209.45"/>
<text text-anchor="middle" x="408.47" y="-1172.66" font-family="Times,serif" font-size="14.00">currency</text>
</g>
<!-- Price3Description -->
<g id="node30" class="node"><title>Price3Description</title>
<ellipse fill="lightpink" stroke="black" cx="539.385" cy="-1496.52" rx="261.854" ry="18"/>
<text text-anchor="middle" x="539.385" y="-1492.82" font-family="Times,serif" font-size="14.00">Linux/UNIX (Amazon VPC), t2.micro instance&#45;hours used this month</text>
</g>
<!-- Price3&#45;&gt;Price3Description -->
<g id="edge26" class="edge"><title>Price3&#45;&gt;Price3Description</title>
<path fill="none" stroke="black" d="M467.97,-1127.49C479.894,-1189.11 519.337,-1392.93 533.91,-1468.23"/>
<polygon fill="black" stroke="black" points="530.537,-1469.23 535.874,-1478.38 537.41,-1467.9 530.537,-1469.23"/>
<text text-anchor="middle" x="470.44" y="-1301.66" font-family="Times,serif" font-size="14.00">description</text>
</g>
<!-- Offer1 -->
<g id="node5" class="node"><title>Offer1</title>
<ellipse fill="lightblue" stroke="black" cx="387.065" cy="-481.042" rx="29.795" ry="18"/>
<text text-anchor="middle" x="387.065" y="-477.342" font-family="Times,serif" font-size="14.00">Offer</text>
</g>
<!-- Offer1&#45;&gt;Price1 -->
<g id="edge22" class="edge"><title>Offer1&#45;&gt;Price1</title>
<path fill="none" stroke="black" d="M381.911,-463.161C373.845,-435.18 358.177,-380.82 348.615,-347.645"/>
<polygon fill="black" stroke="black" points="351.875,-346.318 345.742,-337.679 345.149,-348.257 351.875,-346.318"/>
<text text-anchor="middle" x="348.763" y="-409.203" font-family="Times,serif" font-size="14.00">prices</text>
</g>
<!-- OnDemand -->
<g id="node16" class="node"><title>OnDemand</title>
<ellipse fill="lightpink" stroke="black" cx="437.854" cy="-345.218" rx="51.9908" ry="18"/>
<text text-anchor="middle" x="437.854" y="-341.518" font-family="Times,serif" font-size="14.00">OnDemand</text>
</g>
<!-- Offer1&#45;&gt;OnDemand -->
<g id="edge12" class="edge"><title>Offer1&#45;&gt;OnDemand</title>
<path fill="none" stroke="black" d="M393.704,-463.286C402.288,-440.331 417.33,-400.104 427.441,-373.066"/>
<polygon fill="black" stroke="black" points="430.826,-374.005 431.05,-363.412 424.27,-371.553 430.826,-374.005"/>
<text text-anchor="middle" x="398.572" y="-421.976" font-family="Times,serif" font-size="14.00">type</text>
</g>
<!-- JRTCKXETXF -->
<g id="node19" class="node"><title>JRTCKXETXF</title>
<ellipse fill="lightpink" stroke="black" cx="254.051" cy="-391.959" rx="65.7887" ry="18"/>
<text text-anchor="middle" x="254.051" y="-388.259" font-family="Times,serif" font-size="14.00">JRTCKXETXF</text>
</g>
<!-- Offer1&#45;&gt;JRTCKXETXF -->
<g id="edge11" class="edge"><title>Offer1&#45;&gt;JRTCKXETXF</title>
<path fill="none" stroke="black" d="M366.863,-467.513C345.799,-453.406 312.434,-431.06 287.443,-414.323"/>
<polygon fill="black" stroke="black" points="289.243,-411.316 278.987,-408.659 285.348,-417.132 289.243,-411.316"/>
<text text-anchor="middle" x="314.153" y="-444.718" font-family="Times,serif" font-size="14.00">code</text>
</g>
<!-- Offer2 -->
<g id="node6" class="node"><title>Offer2</title>
<ellipse fill="lightblue" stroke="black" cx="410.66" cy="-838.435" rx="29.795" ry="18"/>
<text text-anchor="middle" x="410.66" y="-834.735" font-family="Times,serif" font-size="14.00">Offer</text>
</g>
<!-- Offer2&#45;&gt;Price21 -->
<g id="edge23" class="edge"><title>Offer2&#45;&gt;Price21</title>
<path fill="none" stroke="black" d="M439.885,-843.281C476.594,-849.367 539.648,-859.821 579.967,-866.505"/>
<polygon fill="black" stroke="black" points="579.509,-869.977 589.947,-868.16 580.654,-863.071 579.509,-869.977"/>
<text text-anchor="middle" x="493.426" y="-858.693" font-family="Times,serif" font-size="14.00">prices</text>
</g>
<!-- Offer2&#45;&gt;Price22 -->
<g id="edge24" class="edge"><title>Offer2&#45;&gt;Price22</title>
<path fill="none" stroke="black" d="M381.992,-843.938C351.018,-849.882 301.533,-859.38 267.429,-865.925"/>
<polygon fill="black" stroke="black" points="266.538,-862.532 257.377,-867.855 267.857,-869.407 266.538,-862.532"/>
<text text-anchor="middle" x="308.21" y="-858.731" font-family="Times,serif" font-size="14.00">prices</text>
</g>
<!-- Reserved1 -->
<g id="node17" class="node"><title>Reserved1</title>
<ellipse fill="lightpink" stroke="black" cx="319.73" cy="-740.019" rx="43.5923" ry="18"/>
<text text-anchor="middle" x="319.73" y="-736.319" font-family="Times,serif" font-size="14.00">Reserved</text>
</g>
<!-- Offer2&#45;&gt;Reserved1 -->
<g id="edge13" class="edge"><title>Offer2&#45;&gt;Reserved1</title>
<path fill="none" stroke="black" d="M396.051,-822.623C381.555,-806.934 359.135,-782.668 342.339,-764.49"/>
<polygon fill="black" stroke="black" points="344.882,-762.085 335.525,-757.115 339.741,-766.835 344.882,-762.085"/>
<text text-anchor="middle" x="357.195" y="-797.357" font-family="Times,serif" font-size="14.00">type</text>
</g>
<!-- NQ3QZPMQV9 -->
<g id="node20" class="node"><title>NQ3QZPMQV9</title>
<ellipse fill="lightpink" stroke="black" cx="571.332" cy="-785.823" rx="69.5877" ry="18"/>
<text text-anchor="middle" x="571.332" y="-782.123" font-family="Times,serif" font-size="14.00">NQ3QZPMQV9</text>
</g>
<!-- Offer2&#45;&gt;NQ3QZPMQV9 -->
<g id="edge14" class="edge"><title>Offer2&#45;&gt;NQ3QZPMQV9</title>
<path fill="none" stroke="black" d="M437.192,-829.748C459.181,-822.547 491.123,-812.088 518.321,-803.182"/>
<polygon fill="black" stroke="black" points="519.686,-806.418 528.1,-799.98 517.507,-799.766 519.686,-806.418"/>
<text text-anchor="middle" x="464.757" y="-820.265" font-family="Times,serif" font-size="14.00">code</text>
</g>
<!-- 3yr2 -->
<g id="node21" class="node"><title>3yr2</title>
<ellipse fill="lightpink" stroke="black" cx="304.601" cy="-808.99" rx="27" ry="18"/>
<text text-anchor="middle" x="304.601" y="-805.29" font-family="Times,serif" font-size="14.00">3yr</text>
</g>
<!-- Offer2&#45;&gt;3yr2 -->
<g id="edge15" class="edge"><title>Offer2&#45;&gt;3yr2</title>
<path fill="none" stroke="black" d="M383.347,-830.852C370.012,-827.15 353.815,-822.653 339.585,-818.703"/>
<polygon fill="black" stroke="black" points="340.213,-815.245 329.641,-815.942 338.34,-821.989 340.213,-815.245"/>
<text text-anchor="middle" x="302.966" y="-828.578" font-family="Times,serif" font-size="14.00">LeaseContractLength</text>
</g>
<!-- standard2 -->
<g id="node22" class="node"><title>standard2</title>
<ellipse fill="lightpink" stroke="black" cx="310.739" cy="-913.547" rx="40.0939" ry="18"/>
<text text-anchor="middle" x="310.739" y="-909.847" font-family="Times,serif" font-size="14.00">standard</text>
</g>
<!-- Offer2&#45;&gt;standard2 -->
<g id="edge16" class="edge"><title>Offer2&#45;&gt;standard2</title>
<path fill="none" stroke="black" d="M391.866,-852.563C377.231,-863.564 356.655,-879.031 339.888,-891.635"/>
<polygon fill="black" stroke="black" points="337.409,-889.12 331.519,-897.927 341.615,-894.716 337.409,-889.12"/>
<text text-anchor="middle" x="327.877" y="-875.899" font-family="Times,serif" font-size="14.00">OfferingClass</text>
</g>
<!-- All Upfront2 -->
<g id="node23" class="node"><title>All Upfront2</title>
<ellipse fill="lightpink" stroke="black" cx="543.422" cy="-923.442" rx="51.9908" ry="18"/>
<text text-anchor="middle" x="543.422" y="-919.742" font-family="Times,serif" font-size="14.00">All Upfront</text>
</g>
<!-- Offer2&#45;&gt;All Upfront2 -->
<g id="edge17" class="edge"><title>Offer2&#45;&gt;All Upfront2</title>
<path fill="none" stroke="black" d="M431.404,-851.718C452.319,-865.109 484.948,-886.001 509.606,-901.79"/>
<polygon fill="black" stroke="black" points="507.985,-904.908 518.294,-907.353 511.76,-899.013 507.985,-904.908"/>
<text text-anchor="middle" x="427.005" y="-880.554" font-family="Times,serif" font-size="14.00">PurchaseOption</text>
</g>
<!-- Offer3 -->
<g id="node7" class="node"><title>Offer3</title>
<ellipse fill="lightblue" stroke="black" cx="436.1" cy="-926.865" rx="29.795" ry="18"/>
<text text-anchor="middle" x="436.1" y="-923.165" font-family="Times,serif" font-size="14.00">Offer</text>
</g>
<!-- Offer3&#45;&gt;Price3 -->
<g id="edge25" class="edge"><title>Offer3&#45;&gt;Price3</title>
<path fill="none" stroke="black" d="M438.928,-945.055C443.905,-977.072 454.261,-1043.69 460.156,-1081.61"/>
<polygon fill="black" stroke="black" points="456.697,-1082.14 461.692,-1091.49 463.614,-1081.07 456.697,-1082.14"/>
<text text-anchor="middle" x="433.042" y="-1002.13" font-family="Times,serif" font-size="14.00">prices</text>
</g>
<!-- Reserved2 -->
<g id="node18" class="node"><title>Reserved2</title>
<ellipse fill="lightpink" stroke="black" cx="331.366" cy="-1013.02" rx="43.5923" ry="18"/>
<text text-anchor="middle" x="331.366" y="-1009.32" font-family="Times,serif" font-size="14.00">Reserved</text>
</g>
<!-- Offer3&#45;&gt;Reserved2 -->
<g id="edge18" class="edge"><title>Offer3&#45;&gt;Reserved2</title>
<path fill="none" stroke="black" d="M418.333,-941.48C402.065,-954.863 377.733,-974.878 358.94,-990.338"/>
<polygon fill="black" stroke="black" points="356.504,-987.81 351.005,-996.866 360.951,-993.216 356.504,-987.81"/>
<text text-anchor="middle" x="376.637" y="-969.709" font-family="Times,serif" font-size="14.00">type</text>
</g>
<!-- 1yr3 -->
<g id="node24" class="node"><title>1yr3</title>
<ellipse fill="lightpink" stroke="black" cx="467.412" cy="-1041.31" rx="27" ry="18"/>
<text text-anchor="middle" x="467.412" y="-1037.61" font-family="Times,serif" font-size="14.00">3yr</text>
</g>
<!-- Offer3&#45;&gt;1yr3 -->
<g id="edge19" class="edge"><title>Offer3&#45;&gt;1yr3</title>
<path fill="none" stroke="black" d="M440.992,-944.747C446.048,-963.223 454.005,-992.306 459.866,-1013.73"/>
<polygon fill="black" stroke="black" points="456.539,-1014.83 462.554,-1023.55 463.291,-1012.98 456.539,-1014.83"/>
<text text-anchor="middle" x="508.929" y="-983.038" font-family="Times,serif" font-size="14.00">LeaseContractLength</text>
</g>
<!-- standard3 -->
<g id="node25" class="node"><title>standard3</title>
<ellipse fill="lightpink" stroke="black" cx="544.444" cy="-1025.33" rx="40.0939" ry="18"/>
<text text-anchor="middle" x="544.444" y="-1021.63" font-family="Times,serif" font-size="14.00">standard</text>
</g>
<!-- Offer3&#45;&gt;standard3 -->
<g id="edge20" class="edge"><title>Offer3&#45;&gt;standard3</title>
<path fill="none" stroke="black" d="M453.029,-942.25C470.682,-958.293 498.564,-983.631 518.897,-1002.11"/>
<polygon fill="black" stroke="black" points="516.799,-1004.93 526.553,-1009.07 521.506,-999.752 516.799,-1004.93"/>
<text text-anchor="middle" x="447.963" y="-960.979" font-family="Times,serif" font-size="14.00">OfferingClass</text>
</g>
<!-- All Upfront3 -->
<g id="node26" class="node"><title>All Upfront3</title>
<ellipse fill="lightpink" stroke="black" cx="368.788" cy="-1062.18" rx="51.9908" ry="18"/>
<text text-anchor="middle" x="368.788" y="-1058.48" font-family="Times,serif" font-size="14.00">All Upfront</text>
</g>
<!-- Offer3&#45;&gt;All Upfront3 -->
<g id="edge21" class="edge"><title>Offer3&#45;&gt;All Upfront3</title>
<path fill="none" stroke="black" d="M427.438,-944.277C415.99,-967.29 395.704,-1008.07 382.25,-1035.12"/>
<polygon fill="black" stroke="black" points="378.951,-1033.89 377.631,-1044.4 385.219,-1037.01 378.951,-1033.89"/>
<text text-anchor="middle" x="361.344" y="-978.496" font-family="Times,serif" font-size="14.00">PurchaseOption</text>
</g>
<!-- PF1 -->
<g id="node8" class="node"><title>PF1</title>
<ellipse fill="lightblue" stroke="black" cx="514.098" cy="-508.094" rx="65.7887" ry="18"/>
<text text-anchor="middle" x="514.098" y="-504.394" font-family="Times,serif" font-size="14.00">Product Family</text>
</g>
<!-- Product1 -->
<g id="node9" class="node"><title>Product1</title>
<ellipse fill="lightblue" stroke="black" cx="464.902" cy="-684.627" rx="38.1938" ry="18"/>
<text text-anchor="middle" x="464.902" y="-680.927" font-family="Times,serif" font-size="14.00">Product</text>
</g>
<!-- PF1&#45;&gt;Product1 -->
<g id="edge2" class="edge"><title>PF1&#45;&gt;Product1</title>
<path fill="none" stroke="black" d="M509.018,-526.321C500.394,-557.27 482.834,-620.282 472.661,-656.783"/>
<polygon fill="black" stroke="black" points="469.194,-656.189 469.881,-666.761 475.937,-658.068 469.194,-656.189"/>
<text text-anchor="middle" x="467.34" y="-595.352" font-family="Times,serif" font-size="14.00">products</text>
</g>
<!-- Compute Instance -->
<g id="node10" class="node"><title>Compute Instance</title>
<ellipse fill="lightpink" stroke="black" cx="633.402" cy="-324.42" rx="75.2868" ry="18"/>
<text text-anchor="middle" x="633.402" y="-320.72" font-family="Times,serif" font-size="14.00">Compute Instance</text>
</g>
<!-- PF1&#45;&gt;Compute Instance -->
<g id="edge1" class="edge"><title>PF1&#45;&gt;Compute Instance</title>
<path fill="none" stroke="black" d="M525.755,-490.148C546.87,-457.64 591.538,-388.871 616.18,-350.934"/>
<polygon fill="black" stroke="black" points="619.186,-352.732 621.698,-342.439 613.315,-348.918 619.186,-352.732"/>
<text text-anchor="middle" x="555.467" y="-424.341" font-family="Times,serif" font-size="14.00">name</text>
</g>
<!-- Product1&#45;&gt;Offer1 -->
<g id="edge8" class="edge"><title>Product1&#45;&gt;Offer1</title>
<path fill="none" stroke="black" d="M457.994,-666.56C444.285,-630.703 413.573,-550.376 397.431,-508.155"/>
<polygon fill="black" stroke="black" points="400.686,-506.869 393.845,-498.778 394.148,-509.368 400.686,-506.869"/>
<text text-anchor="middle" x="411.713" y="-591.157" font-family="Times,serif" font-size="14.00">offers</text>
</g>
<!-- Product1&#45;&gt;Offer2 -->
<g id="edge9" class="edge"><title>Product1&#45;&gt;Offer2</title>
<path fill="none" stroke="black" d="M458.574,-702.571C449.142,-729.314 431.328,-779.83 420.279,-811.161"/>
<polygon fill="black" stroke="black" points="416.973,-810.01 416.948,-820.605 423.575,-812.338 416.973,-810.01"/>
<text text-anchor="middle" x="423.426" y="-760.666" font-family="Times,serif" font-size="14.00">offers</text>
</g>
<!-- Product1&#45;&gt;Offer3 -->
<g id="edge10" class="edge"><title>Product1&#45;&gt;Offer3</title>
<path fill="none" stroke="black" d="M462.737,-702.834C457.752,-744.76 445.434,-848.364 439.458,-898.621"/>
<polygon fill="black" stroke="black" points="435.956,-898.434 438.25,-908.777 442.907,-899.26 435.956,-898.434"/>
<text text-anchor="middle" x="435.098" y="-804.527" font-family="Times,serif" font-size="14.00">offers</text>
</g>
<!-- t2.micro -->
<g id="node11" class="node"><title>t2.micro</title>
<ellipse fill="lightpink" stroke="black" cx="589.606" cy="-576.262" rx="40.8928" ry="18"/>
<text text-anchor="middle" x="589.606" y="-572.562" font-family="Times,serif" font-size="14.00">t2.micro</text>
</g>
<!-- Product1&#45;&gt;t2.micro -->
<g id="edge3" class="edge"><title>Product1&#45;&gt;t2.micro</title>
<path fill="none" stroke="black" d="M483.302,-668.637C504.363,-650.336 539.037,-620.206 563.029,-599.357"/>
<polygon fill="black" stroke="black" points="565.469,-601.874 570.721,-592.673 560.877,-596.59 565.469,-601.874"/>
<text text-anchor="middle" x="511.166" y="-637.797" font-family="Times,serif" font-size="14.00">type</text>
</g>
<!-- US East (N. Virginia) -->
<g id="node12" class="node"><title>US East (N. Virginia)</title>
<ellipse fill="lightpink" stroke="black" cx="292.323" cy="-581.589" rx="88.2844" ry="18"/>
<text text-anchor="middle" x="292.323" y="-577.889" font-family="Times,serif" font-size="14.00">US East (N. Virginia)</text>
</g>
<!-- Product1&#45;&gt;US East (N. Virginia) -->
<g id="edge4" class="edge"><title>Product1&#45;&gt;US East (N. Virginia)</title>
<path fill="none" stroke="black" d="M440.906,-670.3C412.084,-653.092 363.409,-624.03 329.662,-603.881"/>
<polygon fill="black" stroke="black" points="331.377,-600.829 320.997,-598.708 327.789,-606.84 331.377,-600.829"/>
<text text-anchor="middle" x="363.284" y="-640.89" font-family="Times,serif" font-size="14.00">location</text>
</g>
<!-- HZC9FAP4F9Y8JW67 -->
<g id="node13" class="node"><title>HZC9FAP4F9Y8JW67</title>
<ellipse fill="lightpink" stroke="black" cx="704.98" cy="-633.618" rx="94.4839" ry="18"/>
<text text-anchor="middle" x="704.98" y="-629.918" font-family="Times,serif" font-size="14.00">HZC9FAP4F9Y8JW67</text>
</g>
<!-- Product1&#45;&gt;HZC9FAP4F9Y8JW67 -->
<g id="edge5" class="edge"><title>Product1&#45;&gt;HZC9FAP4F9Y8JW67</title>
<path fill="none" stroke="black" d="M500.068,-677.155C534.505,-669.838 588.021,-658.468 631.727,-649.182"/>
<polygon fill="black" stroke="black" points="632.694,-652.554 641.748,-647.052 631.239,-645.707 632.694,-652.554"/>
<text text-anchor="middle" x="551.898" y="-666.968" font-family="Times,serif" font-size="14.00">SKU</text>
</g>
<!-- Shared -->
<g id="node14" class="node"><title>Shared</title>
<ellipse fill="lightpink" stroke="black" cx="558.424" cy="-660.006" rx="35.194" ry="18"/>
<text text-anchor="middle" x="558.424" y="-656.306" font-family="Times,serif" font-size="14.00">Shared</text>
</g>
<!-- Product1&#45;&gt;Shared -->
<g id="edge6" class="edge"><title>Product1&#45;&gt;Shared</title>
<path fill="none" stroke="black" d="M498.401,-675.808C504.524,-674.196 510.977,-672.497 517.291,-670.835"/>
<polygon fill="black" stroke="black" points="518.252,-674.201 527.032,-668.27 516.47,-667.432 518.252,-674.201"/>
<text text-anchor="middle" x="497.096" y="-662.121" font-family="Times,serif" font-size="14.00">tenancy</text>
</g>
<!-- Linux -->
<g id="node15" class="node"><title>Linux</title>
<ellipse fill="lightpink" stroke="black" cx="503.691" cy="-588.577" rx="31.6951" ry="18"/>
<text text-anchor="middle" x="503.691" y="-584.877" font-family="Times,serif" font-size="14.00">Linux</text>
</g>
<!-- Product1&#45;&gt;Linux -->
<g id="edge7" class="edge"><title>Product1&#45;&gt;Linux</title>
<path fill="none" stroke="black" d="M472.198,-666.56C477.977,-652.25 486.143,-632.03 492.711,-615.765"/>
<polygon fill="black" stroke="black" points="496.059,-616.82 496.559,-606.237 489.569,-614.199 496.059,-616.82"/>
<text text-anchor="middle" x="436.454" y="-644.963" font-family="Times,serif" font-size="14.00">operatingSystem</text>
</g>
</g>
</svg>
