<?plantuml 1.2026.1?><svg xmlns="http://www.w3.org/2000/svg" xmlns:xlink="http://www.w3.org/1999/xlink" contentStyleType="text/css" data-diagram-type="DESCRIPTION" height="524px" preserveAspectRatio="none" style="width:746px;height:524px;background:#FFFFFF;" version="1.1" viewBox="0 0 746 524" width="746px" zoomAndPan="magnify"><defs/><g><!--cluster LOOP--><g class="cluster" data-qualified-name="LOOP" data-source-line="14" id="ent0002"><path d="M8.5,6 L130.0381,6 A3.75,3.75 0 0 1 132.5381,8.5 L139.5381,28.4883 L501.5,28.4883 A2.5,2.5 0 0 1 504,30.9883 L504,267.45 A2.5,2.5 0 0 1 501.5,269.95 L8.5,269.95 A2.5,2.5 0 0 1 6,267.45 L6,8.5 A2.5,2.5 0 0 1 8.5,6" fill="#F8FBFF" style="stroke:#00D2DD;stroke-width:1.5;"/><line style="stroke:#00D2DD;stroke-width:1.5;" x1="6" x2="139.5381" y1="28.4883" y2="28.4883"/><text fill="#000000" font-family="monospace" font-size="14" font-weight="bold" lengthAdjust="spacing" textLength="120.5381" x="10" y="21.5352">The&#160;agentic&#160;loop</text></g><!--entity CAP--><g class="entity" data-qualified-name="LOOP.CAP" data-source-line="15" id="ent0003"><rect fill="#EAF4FB" height="52.9766" rx="2.5" ry="2.5" style="stroke:#0E2356;stroke-width:0.5;" width="192.8945" x="210.55" y="41"/><text fill="#000000" font-family="monospace" font-size="14" lengthAdjust="spacing" textLength="53.6826" x="220.55" y="64.5352">Capture</text><text fill="#000000" font-family="monospace" font-size="14" lengthAdjust="spacing" textLength="172.8945" x="220.55" y="81.0234">(the&#160;context&#160;is&#160;born&#160;here)</text></g><!--entity PLAN--><g class="entity" data-qualified-name="LOOP.PLAN" data-source-line="16" id="ent0004"><rect fill="#EAF4FB" height="36.4883" rx="2.5" ry="2.5" style="stroke:#0E2356;stroke-width:0.5;" width="48.2051" x="79.9" y="49.24"/><text fill="#000000" font-family="monospace" font-size="14" lengthAdjust="spacing" textLength="28.2051" x="89.9" y="72.7752">Plan</text></g><!--entity ACT--><g class="entity" data-qualified-name="LOOP.ACT" data-source-line="17" id="ent0005"><rect fill="#EAF4FB" height="36.4883" rx="2.5" ry="2.5" style="stroke:#0E2356;stroke-width:0.5;" width="42.0664" x="21.97" y="129.23"/><text fill="#000000" font-family="monospace" font-size="14" lengthAdjust="spacing" textLength="22.0664" x="31.97" y="152.7652">Act</text></g><!--entity OBS--><g class="entity" data-qualified-name="LOOP.OBS" data-source-line="18" id="ent0006"><rect fill="#EAF4FB" height="52.9766" rx="2.5" ry="2.5" style="stroke:#0E2356;stroke-width:0.5;" width="186.1543" x="117.92" y="200.98"/><text fill="#000000" font-family="monospace" font-size="14" lengthAdjust="spacing" textLength="55.3984" x="127.92" y="224.5152">Observe</text><text fill="#000000" font-family="monospace" font-size="14" lengthAdjust="spacing" textLength="166.1543" x="127.92" y="241.0034">(gap&#160;vs.&#160;captured&#160;intent)</text></g><!--entity GATE--><g class="entity" data-qualified-name="GATE" data-source-line="25" id="ent0010"><rect fill="#FFE0E0" height="52.9766" rx="2.5" ry="2.5" style="stroke:#0E2356;stroke-width:0.5;" width="191.0625" x="265.47" y="347.95"/><text fill="#000000" font-family="monospace" font-size="14" lengthAdjust="spacing" textLength="62.1592" x="275.47" y="371.4852">Late&#160;gate</text><text fill="#000000" font-family="monospace" font-size="14" lengthAdjust="spacing" textLength="171.0625" x="275.47" y="387.9734">(CI,&#160;code&#160;review,&#160;staging)</text></g><g class="entity" data-qualified-name="GMN15" data-source-line="34" id="ent0016"><path d="M292.84,461.93 L292.84,517.8616 A0,0 0 0 0 292.84,517.8616 L429.1515,517.8616 A0,0 0 0 0 429.1515,517.8616 L429.1515,471.93 L419.1515,461.93 L365,461.93 L361,401.18 L357,461.93 L292.84,461.93 A0,0 0 0 0 292.84,461.93" fill="#FFFBE6" style="stroke:#F0A000;stroke-width:0.5;"/><path d="M419.1515,461.93 L419.1515,471.93 L429.1515,471.93 L419.1515,461.93" fill="#FFFBE6" style="stroke:#F0A000;stroke-width:0.5;"/><text fill="#000000" font-family="monospace" font-size="13" lengthAdjust="spacing" textLength="115.3115" x="298.84" y="479.4984">same&#160;information,</text><text fill="#000000" font-family="monospace" font-size="13" lengthAdjust="spacing" textLength="110.5825" x="298.84" y="494.8089">wrong&#160;side&#160;of&#160;the</text><text fill="#000000" font-family="monospace" font-size="13" lengthAdjust="spacing" textLength="91.7998" x="298.84" y="510.1195">loop&#160;boundary</text></g><!--link CAP to PLAN--><g class="link" data-entity-1="ent0003" data-entity-2="ent0004" data-link-type="dependency" data-source-line="20" id="lnk7"><path d="M210.12,67.49 C182.94,67.49 161.76,67.49 134.58,67.49" fill="none" id="CAP-to-PLAN" style="stroke:#0E2356;stroke-width:1;"/><polygon fill="#0E2356" points="128.58,67.49,137.58,71.49,133.58,67.49,137.58,63.49,128.58,67.49" style="stroke:#0E2356;stroke-width:1;"/></g><!--link PLAN to ACT--><g class="link" data-entity-1="ent0004" data-entity-2="ent0005" data-link-type="dependency" data-source-line="21" id="lnk8"><path d="M90.16,86.18 C80.18,98.95 70.456,111.3735 60.486,124.1235" fill="none" id="PLAN-to-ACT" style="stroke:#0E2356;stroke-width:1;"/><polygon fill="#0E2356" points="56.79,128.85,65.4849,124.2242,59.87,124.9112,59.1829,119.2963,56.79,128.85" style="stroke:#0E2356;stroke-width:1;"/></g><!--link ACT to OBS--><g class="link" data-entity-1="ent0005" data-entity-2="ent0006" data-link-type="dependency" data-source-line="22" id="lnk9"><path d="M61.25,166.22 C63.44,167.94 65.71,169.57 68,170.98 C86.83,182.56 102.894,190.2699 123.554,198.3699" fill="none" id="ACT-to-OBS" style="stroke:#0E2356;stroke-width:1;"/><polygon fill="#0E2356" points="129.14,200.56,122.221,193.5509,124.485,198.7349,119.3009,200.9989,129.14,200.56" style="stroke:#0E2356;stroke-width:1;"/></g><!--link OBS to PLAN--><g class="link" data-entity-1="ent0006" data-entity-2="ent0004" data-link-type="dependency" data-source-line="27" id="lnk11"><path d="M128.55,200.49 C116.01,192.95 104.7,183.29 97,170.98 C80.73,144.97 87.5316,113.3114 95.0216,91.6214" fill="none" id="OBS-to-PLAN" style="stroke:#B00020;stroke-width:1;"/><polygon fill="#B00020" points="96.98,85.95,90.2614,93.1514,95.348,90.6761,97.8233,95.7627,96.98,85.95" style="stroke:#B00020;stroke-width:1;"/><text fill="#000000" font-family="monospace" font-size="13" lengthAdjust="spacing" textLength="161.7192" x="98" y="137.5484">signal&#160;1&#160;-&#160;tool-level&#160;error</text><text fill="#000000" font-family="monospace" font-size="13" lengthAdjust="spacing" textLength="93.4819" x="132.1187" y="152.8589">the&#160;how&#160;failed:</text><text fill="#000000" font-family="monospace" font-size="13" lengthAdjust="spacing" textLength="123.9063" x="116.9065" y="168.1695">re-plan,&#160;same&#160;cycle</text></g><!--link OBS to CAP--><g class="link" data-entity-1="ent0006" data-entity-2="ent0003" data-link-type="dependency" data-source-line="28" id="lnk12"><path d="M242.32,200.68 C251.5,191.97 260.95,181.71 268,170.98 C283.68,147.11 292.7255,121.7902 298.8955,100.1402" fill="none" id="OBS-to-CAP" style="stroke:#0F7B0F;stroke-width:1;"/><polygon fill="#0F7B0F" points="300.54,94.37,294.2265,101.9291,299.1696,99.1785,301.9202,104.1217,300.54,94.37" style="stroke:#0F7B0F;stroke-width:1;"/><text fill="#000000" font-family="monospace" font-size="13" lengthAdjust="spacing" textLength="166.2705" x="297.7262" y="137.5484">signal&#160;2&#160;-&#160;intent-level&#160;gap</text><text fill="#000000" font-family="monospace" font-size="13" lengthAdjust="spacing" textLength="179.0229" x="291.35" y="152.8589">new&#160;knowledge&#160;enriches&#160;the</text><text fill="#000000" font-family="monospace" font-size="13" lengthAdjust="spacing" textLength="140.9053" x="310.4088" y="168.1695">context:&#160;new&#160;full&#160;cycle</text></g><!--link OBS to GATE--><g class="link" data-entity-1="ent0006" data-entity-2="ent0010" data-link-type="dependency" data-source-line="30" id="lnk13"><path d="M237.82,254.38 C265.04,280.69 302.6259,317.0201 329.8459,343.3301" fill="none" id="OBS-to-GATE" style="stroke:#0E2356;stroke-width:1;"/><polygon fill="#0E2356" points="334.16,347.5,330.4687,338.369,330.5649,344.0251,324.9088,344.1212,334.16,347.5" style="stroke:#0E2356;stroke-width:1;"/><text fill="#000000" font-family="monospace" font-size="13" lengthAdjust="spacing" textLength="70.4526" x="300.44" y="299.5184">result&#160;exits</text><text fill="#000000" font-family="monospace" font-size="13" lengthAdjust="spacing" textLength="52.1968" x="309.5679" y="314.8289">the&#160;loop</text></g><!--link GATE to CAP--><g class="link" data-entity-1="ent0010" data-entity-2="ent0003" data-link-type="dependency" data-source-line="31" id="lnk14"><path d="M390.38,347.67 C440.67,300.41 532.87,197.95 479,123.98 C461.27,99.62 438.4395,87.3053 409.5895,79.4553" fill="none" id="GATE-to-CAP" style="stroke:#808080;stroke-width:1;stroke-dasharray:7,7;"/><polygon fill="#808080" points="403.8,77.88,411.4341,84.1026,408.6246,79.1928,413.5345,76.3833,403.8,77.88" style="stroke:#808080;stroke-width:1;"/><text fill="#000000" font-family="monospace" font-size="13" lengthAdjust="spacing" textLength="245.667" x="492.52" y="217.5284">signal&#160;3&#160;-&#160;the&#160;verdict&#160;lands&#160;outside&#160;the</text><text fill="#000000" font-family="monospace" font-size="13" lengthAdjust="spacing" textLength="236.3042" x="497.2014" y="232.8389">observation&#160;horizon;&#160;it&#160;re-enters&#160;as&#160;a</text><text fill="#000000" font-family="monospace" font-size="13" lengthAdjust="spacing" textLength="196.1997" x="517.2536" y="248.1495">new&#160;intent,&#160;carried&#160;by&#160;a&#160;human</text></g><?plantuml-src TLHHQzj037xthn3DmpP8YfTkNSbWOAVn69GcqBmrVRZOYdtKbipT9Muszj-diztLwJe2JdBwz7tI9vtVmRemY61rJggqOt3jNuCJ96UEKBCcPuF0FcggbL4LPBXJ-z8bJEvMLGWL4zjQfJZ0R5Nwc1lUKpRdaWqqXNR3UCfLpIGAT-vOUhNKAShB8IGoXfikUnGkfXUVBmV1-ND-_4fej8YIJqdy9fHDXkP_Z2iXKZd-mvTS9N6Il04yOGklfzVN0z0jkpUeaYHUNBv63NcIC0h3C0ZgJWFErWM2_22dKoYPwpDG5cwMonNy2k35HJYRgzhj3MxelPEKL6Q3JmwqXIqRWW8DVcXpvz7gD75LAceZgvlezZGKfQwDHFFrQM2vjMWENYnNDHpiEQITV0QoB0Bfj9RnNI298WaJe_F2JRuzg_YlbyDEG9ulHpxtTn0CH6-KGyZb8RBp7sEf9_EBSz3OZC4wbMlAEztlqNhXtLw42_5Ic61oFuh5s6duq9S0itxXuIDCm36Nan8FM0BArfaDUHCBRc2dT8dPR4Do7sfnIfJyogV7L7QrPmwJBt6OU6RVwL_YgH1tRlJKujM621ju96w4LUQBP7HQe9LB9strKvk11-tsPTdhT48PDoGQRNCpQTpA7GHyqivsvVhr2Dhe-VteAlIVX_DNDLtuPWLxG9Ffr85qb5dWlRDQp6oBu7QsoccMjM6ZVp9z1Utw5m8QwnrMNIDTUp8APOoMuM-FeA3OLug2W6ItPVcSumfurvOjCsxTqxHZKxKIOpbh35CERGK2b2Bap3SZsN9tb3a6I1bulk0F?></g></svg>