<svg xmlns="http://www.w3.org/2000/svg" xmlns:xlink="http://www.w3.org/1999/xlink" contentStyleType="text/css" data-diagram-type="DESCRIPTION" height="865px" preserveAspectRatio="none" style="width:707px;height:865px;background:#FFFFFF;" version="1.1" viewBox="0 0 707 865" width="707px" zoomAndPan="magnify"><defs/><g><!--entity orch--><g class="entity" data-entity="orch" data-source-line="6" data-uid="ent0002" id="entity_orch"><rect fill="#0E2356" height="58.1358" rx="7" ry="7" style="stroke:#000000;stroke-width:1;" width="142.0795" x="384" y="12"/><text fill="#FFFFFF" font-family="Helvetica" font-size="14" font-weight="bold" lengthAdjust="spacing" textLength="122.0795" x="394" y="36.9659">Orchestrateur Go</text><text fill="#FFFFFF" font-family="Helvetica" font-size="14" lengthAdjust="spacing" textLength="114.6736" x="394" y="56.0339">(code pur, pas IA)</text></g><!--entity outliner--><g class="entity" data-entity="outliner" data-source-line="8" data-uid="ent0003" id="entity_outliner"><rect fill="#DAF6F9" height="77.2038" rx="7" ry="7" style="stroke:#000000;stroke-width:1;" width="152.1595" x="379" y="131"/><text fill="#000000" font-family="Helvetica" font-size="14" font-weight="bold" lengthAdjust="spacing" textLength="58.3238" x="389" y="155.9659">Outliner</text><text fill="#000000" font-family="Helvetica" font-size="14" lengthAdjust="spacing" textLength="54.8098" x="450.9638" y="155.9659">(Sonnet)</text><text fill="#000000" font-family="Helvetica" font-size="14" lengthAdjust="spacing" textLength="132.1595" x="389" y="175.0339">Analyse la demande</text><text fill="#000000" font-family="Helvetica" font-size="14" lengthAdjust="spacing" textLength="113.4276" x="389" y="194.1018">sans le catalogue</text></g><!--entity selector--><g class="entity" data-entity="selector" data-source-line="10" data-uid="ent0004" id="entity_selector"><rect fill="#DAF6F9" height="77.2038" rx="7" ry="7" style="stroke:#000000;stroke-width:1;" width="207.1233" x="351.5" y="269"/><text fill="#000000" font-family="Helvetica" font-size="14" font-weight="bold" lengthAdjust="spacing" textLength="56.9098" x="361.5" y="293.9659">Selector</text><text fill="#000000" font-family="Helvetica" font-size="14" lengthAdjust="spacing" textLength="54.8098" x="422.0498" y="293.9659">(Sonnet)</text><text fill="#000000" font-family="Helvetica" font-size="14" lengthAdjust="spacing" textLength="187.1233" x="361.5" y="313.0339">Matching besoins/templates</text><text fill="#000000" font-family="Helvetica" font-size="14" lengthAdjust="spacing" textLength="115.3316" x="361.5" y="332.1018">dans le catalogue</text></g><!--entity w1--><g class="entity" data-entity="w1" data-source-line="12" data-uid="ent0005" id="entity_w1"><rect fill="#6E7B9A" height="58.1358" rx="7" ry="7" style="stroke:#000000;stroke-width:1;" width="119.4136" x="395.5" y="407"/><text fill="#FFFFFF" font-family="Helvetica" font-size="14" font-weight="bold" lengthAdjust="spacing" textLength="89.3757" x="405.5" y="431.9659">Writer Haiku</text><text fill="#FFFFFF" font-family="Helvetica" font-size="14" lengthAdjust="spacing" textLength="99.4136" x="405.5" y="451.0339">(slides simples)</text></g><!--entity w2--><g class="entity" data-entity="w2" data-source-line="13" data-uid="ent0006" id="entity_w2"><rect fill="#6E7B9A" height="58.1358" rx="7" ry="7" style="stroke:#000000;stroke-width:1;" width="139.5875" x="12" y="407"/><text fill="#FFFFFF" font-family="Helvetica" font-size="14" font-weight="bold" lengthAdjust="spacing" textLength="97.4116" x="22" y="431.9659">Writer Sonnet</text><text fill="#FFFFFF" font-family="Helvetica" font-size="14" lengthAdjust="spacing" textLength="119.5875" x="22" y="451.0339">(slides complexes)</text></g><!--entity w3--><g class="entity" data-entity="w3" data-source-line="14" data-uid="ent0007" id="entity_w3"><rect fill="#6E7B9A" height="58.1358" rx="7" ry="7" style="stroke:#000000;stroke-width:1;" width="139.5875" x="550" y="407"/><text fill="#FFFFFF" font-family="Helvetica" font-size="14" font-weight="bold" lengthAdjust="spacing" textLength="97.4116" x="560" y="431.9659">Writer Sonnet</text><text fill="#FFFFFF" font-family="Helvetica" font-size="14" lengthAdjust="spacing" textLength="119.5875" x="560" y="451.0339">(slides complexes)</text></g><!--entity reviewer--><g class="entity" data-entity="reviewer" data-source-line="16" data-uid="ent0008" id="entity_reviewer"><rect fill="#00D2DD" height="77.2038" rx="7" ry="7" style="stroke:#000000;stroke-width:1;" width="148.1135" x="323" y="544"/><text fill="#000000" font-family="Helvetica" font-size="14" font-weight="bold" lengthAdjust="spacing" textLength="64.6798" x="333" y="568.9659">Reviewer</text><text fill="#000000" font-family="Helvetica" font-size="14" lengthAdjust="spacing" textLength="43.3018" x="401.3197" y="568.9659">(Opus)</text><text fill="#000000" font-family="Helvetica" font-size="14" lengthAdjust="spacing" textLength="119.8675" x="333" y="588.0339">Extended thinking</text><text fill="#000000" font-family="Helvetica" font-size="14" lengthAdjust="spacing" textLength="128.1135" x="333" y="607.1018">Boucle de feedback</text></g><!--entity executor--><g class="entity" data-entity="executor" data-source-line="18" data-uid="ent0009" id="entity_executor"><rect fill="#E7E9EE" height="58.1358" rx="7" ry="7" style="stroke:#000000;stroke-width:1;" width="134.8136" x="329.5" y="682"/><text fill="#000000" font-family="Helvetica" font-size="14" font-weight="bold" lengthAdjust="spacing" textLength="61.6978" x="339.5" y="706.9659">Executor</text><text fill="#000000" font-family="Helvetica" font-size="14" lengthAdjust="spacing" textLength="114.8136" x="339.5" y="726.0339">Google Slides API</text></g><!--entity formatter--><g class="entity" data-entity="formatter" data-source-line="20" data-uid="ent0010" id="entity_formatter"><rect fill="#E7E9EE" height="58.1358" rx="7" ry="7" style="stroke:#000000;stroke-width:1;" width="190.1974" x="302" y="801"/><text fill="#000000" font-family="Helvetica" font-size="14" font-weight="bold" lengthAdjust="spacing" textLength="92.8756" x="312" y="825.9659">FormatAgent</text><text fill="#000000" font-family="Helvetica" font-size="14" lengthAdjust="spacing" textLength="170.1974" x="312" y="845.0339">Corrections deterministes</text></g><g class="entity" data-entity="GMN25" data-source-line="40" data-uid="ent0026" id="entity_GMN25"><path d="M566,145 L566,165.5 L531.14,169.5 L566,173.5 L566,194.118 A7,7 0 0 0 573,201.118 L692.9961,201.118 A7,7 0 0 0 699.9961,194.118 L699.9961,148 L689.9961,138 L573,138 A7,7 0 0 0 566,145" fill="#FFFFFF" style="stroke:#000000;stroke-width:1;"/><path d="M689.9961,138 L689.9961,144.5 A3.5,3.5 0 0 0 693.4961,148 L699.9961,148 L689.9961,138" fill="#FFFFFF" style="stroke:#000000;stroke-width:1;"/><text fill="#000000" font-family="Helvetica" font-size="13" lengthAdjust="spacing" textLength="112.0731" x="572" y="156.897">Isole du catalogue</text><text fill="#000000" font-family="Helvetica" font-size="13" lengthAdjust="spacing" textLength="112.9961" x="572" y="174.603">pour eviter le biais</text><text fill="#000000" font-family="Helvetica" font-size="13" lengthAdjust="spacing" textLength="93.6131" x="572" y="192.309">de disponibilite</text></g><g class="entity" data-entity="GMN28" data-source-line="46" data-uid="ent0029" id="entity_GMN28"><path d="M187.5,420.5 L187.5,432 L152.12,436 L187.5,440 L187.5,451.912 A7,7 0 0 0 194.5,458.912 L353.5351,458.912 A7,7 0 0 0 360.5351,451.912 L360.5351,423.5 L350.5351,413.5 L194.5,413.5 A7,7 0 0 0 187.5,420.5" fill="#FFFFFF" style="stroke:#000000;stroke-width:1;"/><path d="M350.5351,413.5 L350.5351,420 A3.5,3.5 0 0 0 354.0351,423.5 L360.5351,423.5 L350.5351,413.5" fill="#FFFFFF" style="stroke:#000000;stroke-width:1;"/><text fill="#000000" font-family="Helvetica" font-size="13" lengthAdjust="spacing" textLength="152.0351" x="193.5" y="432.397">Goroutines + semaphore</text><text fill="#000000" font-family="Helvetica" font-size="13" lengthAdjust="spacing" textLength="147.8621" x="193.5" y="450.103">Prompt caching partage</text></g><!--link orch to outliner--><g class="link" data-entity-1="orch" data-entity-2="outliner" data-source-line="22" data-uid="lnk11" id="link_orch_outliner"><path d="M455,70.07 C455,87.98 455,105.4 455,124.9" fill="none" id="orch-to-outliner" style="stroke:#000000;stroke-width:1;"/><polygon fill="#000000" points="455,130.9,459,121.9,455,125.9,451,121.9,455,130.9" style="stroke:#000000;stroke-width:1;"/></g><!--link outliner to selector--><g class="link" data-entity-1="outliner" data-entity-2="selector" data-source-line="23" data-uid="lnk12" id="link_outliner_selector"><path d="M455,208.02 C455,226.89 455,243.71 455,262.63" fill="none" id="outliner-to-selector" style="stroke:#000000;stroke-width:1;"/><polygon fill="#000000" points="455,268.63,459,259.63,455,263.63,451,259.63,455,268.63" style="stroke:#000000;stroke-width:1;"/></g><!--link selector to w1--><g class="link" data-entity-1="selector" data-entity-2="w1" data-source-line="25" data-uid="lnk13" id="link_selector_w1"><path d="M455,346.11 C455,365.63 455,383.07 455,400.98" fill="none" id="selector-to-w1" style="stroke:#000000;stroke-width:1;"/><polygon fill="#000000" points="455,406.98,459,397.98,455,401.98,451,397.98,455,406.98" style="stroke:#000000;stroke-width:1;"/></g><!--link selector to w2--><g class="link" data-entity-1="selector" data-entity-2="w2" data-source-line="26" data-uid="lnk14" id="link_selector_w2"><path d="M351.1,343.74 C287.62,365.27 213.812,390.2926 157.742,409.3126" fill="none" id="selector-to-w2" style="stroke:#000000;stroke-width:1;"/><polygon fill="#000000" points="152.06,411.24,161.8679,412.1368,156.795,409.6338,159.298,404.5609,152.06,411.24" style="stroke:#000000;stroke-width:1;"/></g><!--link selector to w3--><g class="link" data-entity-1="selector" data-entity-2="w3" data-source-line="27" data-uid="lnk15" id="link_selector_w3"><path d="M504.06,346.11 C529.52,365.63 555.3284,385.4193 578.6884,403.3293" fill="none" id="selector-to-w3" style="stroke:#000000;stroke-width:1;"/><polygon fill="#000000" points="583.45,406.98,578.7414,398.3296,579.482,403.9378,573.8739,404.6784,583.45,406.98" style="stroke:#000000;stroke-width:1;"/></g><!--link w1 to reviewer--><g class="link" data-entity-1="w1" data-entity-2="reviewer" data-source-line="29" data-uid="lnk16" id="link_w1_reviewer"><path d="M435.05,465.26 C429.25,474.43 423.32,484.86 419,495 C412.45,510.4 408.8437,522.3501 405.3237,537.7901" fill="none" id="w1-to-reviewer" style="stroke:#000000;stroke-width:1;"/><polygon fill="#000000" points="403.99,543.64,409.8904,535.7543,405.1014,538.7651,402.0905,533.976,403.99,543.64" style="stroke:#000000;stroke-width:1;"/></g><!--reverse link w1 to reviewer--><g class="link" data-entity-1="w1" data-entity-2="reviewer" data-source-line="33" data-uid="lnk20" id="link_w1_reviewer"><path d="M441.4457,470.7685 C432.4457,493.1985 422.01,519.2 412.13,543.79" fill="none" id="w1-backto-reviewer" style="stroke:#000000;stroke-width:1;stroke-dasharray:7.0,7.0;"/><polygon fill="#000000" points="443.68,465.2,436.6162,472.0631,441.8181,469.8404,444.0408,475.0422,443.68,465.2" style="stroke:#000000;stroke-width:1;"/><text fill="#000000" font-family="Helvetica" font-size="13" lengthAdjust="spacing" textLength="55.601" x="433" y="509.897">feedback</text></g><!--link w2 to reviewer--><g class="link" data-entity-1="w2" data-entity-2="reviewer" data-source-line="30" data-uid="lnk17" id="link_w2_reviewer"><path d="M133.11,465.13 C161.35,480.28 197.25,498.9 230,514 C259.96,527.81 288.0115,539.4908 317.2015,551.0508" fill="none" id="w2-to-reviewer" style="stroke:#000000;stroke-width:1;"/><polygon fill="#000000" points="322.78,553.26,315.8851,546.2272,318.1313,551.419,312.9395,553.6652,322.78,553.26" style="stroke:#000000;stroke-width:1;"/></g><!--reverse link w2 to reviewer--><g class="link" data-entity-1="w2" data-entity-2="reviewer" data-source-line="34" data-uid="lnk22" id="link_w2_reviewer"><path d="M157.9816,463.877 C183.9316,473.557 207.77,483.09 234,495 C266.38,509.7 301.32,527.92 330.52,543.83" fill="none" id="w2-backto-reviewer" style="stroke:#000000;stroke-width:1;stroke-dasharray:7.0,7.0;"/><polygon fill="#000000" points="152.36,461.78,159.3944,468.6733,157.0447,463.5275,162.1904,461.1778,152.36,461.78" style="stroke:#000000;stroke-width:1;"/><text fill="#000000" font-family="Helvetica" font-size="13" lengthAdjust="spacing" textLength="55.601" x="272" y="509.897">feedback</text></g><!--link w3 to reviewer--><g class="link" data-entity-1="w3" data-entity-2="reviewer" data-source-line="31" data-uid="lnk18" id="link_w3_reviewer"><path d="M576.74,465.03 C542.03,487.52 498.0348,516.0264 459.9448,540.7164" fill="none" id="w3-to-reviewer" style="stroke:#000000;stroke-width:1;"/><polygon fill="#000000" points="454.91,543.98,464.6379,542.4412,459.1057,541.2604,460.2865,535.7281,454.91,543.98" style="stroke:#000000;stroke-width:1;"/></g><!--link reviewer to executor--><g class="link" data-entity-1="reviewer" data-entity-2="executor" data-source-line="36" data-uid="lnk23" id="link_reviewer_executor"><path d="M397,621.11 C397,640.63 397,658.07 397,675.98" fill="none" id="reviewer-to-executor" style="stroke:#000000;stroke-width:1;"/><polygon fill="#000000" points="397,681.98,401,672.98,397,676.98,393,672.98,397,681.98" style="stroke:#000000;stroke-width:1;"/></g><!--link executor to formatter--><g class="link" data-entity-1="executor" data-entity-2="formatter" data-source-line="37" data-uid="lnk24" id="link_executor_formatter"><path d="M397,740.02 C397,758.41 397,776.37 397,794.8" fill="none" id="executor-to-formatter" style="stroke:#000000;stroke-width:1;"/><polygon fill="#000000" points="397,800.8,401,791.8,397,795.8,393,791.8,397,800.8" style="stroke:#000000;stroke-width:1;"/></g><!--SRC=[hPHDSvim48Rl-XNR-9BG9etjrXcdCvqXDKvyQ9E93xrmaM4D6Wk9qKVi_likO32ntLkvCEokdfNUVT47bsE1K4ek5BCReKfkU04hdcmoexrAVsYf3GpczTEhI77DlNHphTmlJeGdb6_eHC9xDQyDm2WqCFp2cC74SPL9X8iWU3P9ZjOPxj0RUDH14AlBHAUq6My-GSajBCAh2w2tfb8Ot4QZyTV9DuSxTx_DXSDZe7TIKAiWWCkbLWhTLQn2nUKVYo0vxRZWAiLOMQuiq9g4Eovrvh5fibyEWraudyodH_GbIlhKx-a_kKjoeJ9OeTL2sSyE2vBIeOrLUhQBtMF-qUMteNCPUE9Yusj1h1GfqZ91NBID7DiX32RHtSCqx8jnZjDij0zAT0NQTQZH_qEDpw7UirxnJU2s6T5pwIr96EqSqbHIS2GaEIUBrOFs2TMJ4zQ8QMN5ke7PBoOdtCv6izaHEzfXuki1nUfHwogwR3OQlYng0EuhO13THTCeEWBCjIcu2pDKzJ79jrLQQ1fZYYH18PImDDgQjQwBAs4wMEtIwrHlrVNtpasiirMRQHt0MEU5DhKTdecDpiJ6Z949sizM64RJF8sDJsEia_B6bpTLNxZlj3v9Zlh9GxQbjggoJjusqsd4cD8EmOWiTw3N1t405bPNe_Q7tuI2fQORWVfKyb9s9RYm52P3fCAMMecLa9Mvo3XGaO_vf1dGZKBtbwCs5ZwIw0KlSsqg-eiXupfgsFowT5KvdlLWVm40]--></g></svg>