<svg xmlns="http://www.w3.org/2000/svg" xmlns:xlink="http://www.w3.org/1999/xlink" contentStyleType="text/css" data-diagram-type="DESCRIPTION" height="865px" preserveAspectRatio="none" style="width:710px;height:865px;background:#FFFFFF;" version="1.1" viewBox="0 0 710 865" width="710px" zoomAndPan="magnify"><defs/><g><!--entity orch--><g class="entity" data-entity="orch" data-source-line="6" data-uid="ent0002" id="entity_orch"><rect fill="#0E2356" height="58.1358" rx="7" ry="7" style="stroke:#000000;stroke-width:1;" width="136.5215" x="368" y="12"/><text fill="#FFFFFF" font-family="Helvetica" font-size="14" font-weight="bold" lengthAdjust="spacing" textLength="113.3716" x="378" y="36.9659">Go Orchestrator</text><text fill="#FFFFFF" font-family="Helvetica" font-size="14" lengthAdjust="spacing" textLength="116.5215" x="378" y="56.0339">(pure code, no AI)</text></g><!--entity outliner--><g class="entity" data-entity="outliner" data-source-line="8" data-uid="ent0003" id="entity_outliner"><rect fill="#DAF6F9" height="77.2038" rx="7" ry="7" style="stroke:#000000;stroke-width:1;" width="156.8635" x="358" y="131"/><text fill="#000000" font-family="Helvetica" font-size="14" font-weight="bold" lengthAdjust="spacing" textLength="58.3238" x="368" y="155.9659">Outliner</text><text fill="#000000" font-family="Helvetica" font-size="14" lengthAdjust="spacing" textLength="54.8098" x="429.9638" y="155.9659">(Sonnet)</text><text fill="#000000" font-family="Helvetica" font-size="14" lengthAdjust="spacing" textLength="136.8635" x="368" y="175.0339">Analyzes the request</text><text fill="#000000" font-family="Helvetica" font-size="14" lengthAdjust="spacing" textLength="127.5535" x="368" y="194.1018">without the catalog</text></g><!--entity selector--><g class="entity" data-entity="selector" data-source-line="10" data-uid="ent0004" id="entity_selector"><rect fill="#DAF6F9" height="77.2038" rx="7" ry="7" style="stroke:#000000;stroke-width:1;" width="205.5553" x="333.5" y="269"/><text fill="#000000" font-family="Helvetica" font-size="14" font-weight="bold" lengthAdjust="spacing" textLength="56.9098" x="343.5" y="293.9659">Selector</text><text fill="#000000" font-family="Helvetica" font-size="14" lengthAdjust="spacing" textLength="54.8098" x="404.0498" y="293.9659">(Sonnet)</text><text fill="#000000" font-family="Helvetica" font-size="14" lengthAdjust="spacing" textLength="185.5553" x="343.5" y="313.0339">Matches needs to templates</text><text fill="#000000" font-family="Helvetica" font-size="14" lengthAdjust="spacing" textLength="89.3197" x="343.5" y="332.1018">in the catalog</text></g><!--entity w1--><g class="entity" data-entity="w1" data-source-line="12" data-uid="ent0005" id="entity_w1"><rect fill="#6E7B9A" height="58.1358" rx="7" ry="7" style="stroke:#000000;stroke-width:1;" width="112.7076" x="380" y="407"/><text fill="#FFFFFF" font-family="Helvetica" font-size="14" font-weight="bold" lengthAdjust="spacing" textLength="89.3757" x="390" y="431.9659">Writer Haiku</text><text fill="#FFFFFF" font-family="Helvetica" font-size="14" lengthAdjust="spacing" textLength="92.7076" x="390" y="451.0339">(simple slides)</text></g><!--entity w2--><g class="entity" data-entity="w2" data-source-line="13" data-uid="ent0006" id="entity_w2"><rect fill="#6E7B9A" height="58.1358" rx="7" ry="7" style="stroke:#000000;stroke-width:1;" width="124.9856" x="12" y="407"/><text fill="#FFFFFF" font-family="Helvetica" font-size="14" font-weight="bold" lengthAdjust="spacing" textLength="97.4116" x="22" y="431.9659">Writer Sonnet</text><text fill="#FFFFFF" font-family="Helvetica" font-size="14" lengthAdjust="spacing" textLength="104.9856" x="22" y="451.0339">(complex slides)</text></g><!--entity w3--><g class="entity" data-entity="w3" data-source-line="14" data-uid="ent0007" id="entity_w3"><rect fill="#6E7B9A" height="58.1358" rx="7" ry="7" style="stroke:#000000;stroke-width:1;" width="124.9856" x="528" y="407"/><text fill="#FFFFFF" font-family="Helvetica" font-size="14" font-weight="bold" lengthAdjust="spacing" textLength="97.4116" x="538" y="431.9659">Writer Sonnet</text><text fill="#FFFFFF" font-family="Helvetica" font-size="14" lengthAdjust="spacing" textLength="104.9856" x="538" y="451.0339">(complex slides)</text></g><!--entity reviewer--><g class="entity" data-entity="reviewer" data-source-line="16" data-uid="ent0008" id="entity_reviewer"><rect fill="#00D2DD" height="77.2038" rx="7" ry="7" style="stroke:#000000;stroke-width:1;" width="139.8675" x="308.5" y="544"/><text fill="#000000" font-family="Helvetica" font-size="14" font-weight="bold" lengthAdjust="spacing" textLength="64.6798" x="318.5" y="568.9659">Reviewer</text><text fill="#000000" font-family="Helvetica" font-size="14" lengthAdjust="spacing" textLength="43.3018" x="386.8197" y="568.9659">(Opus)</text><text fill="#000000" font-family="Helvetica" font-size="14" lengthAdjust="spacing" textLength="119.8675" x="318.5" y="588.0339">Extended thinking</text><text fill="#000000" font-family="Helvetica" font-size="14" lengthAdjust="spacing" textLength="95.1296" x="318.5" y="607.1018">Feedback loop</text></g><!--entity executor--><g class="entity" data-entity="executor" data-source-line="18" data-uid="ent0009" id="entity_executor"><rect fill="#E7E9EE" height="58.1358" rx="7" ry="7" style="stroke:#000000;stroke-width:1;" width="134.8136" x="311" y="682"/><text fill="#000000" font-family="Helvetica" font-size="14" font-weight="bold" lengthAdjust="spacing" textLength="61.6978" x="321" y="706.9659">Executor</text><text fill="#000000" font-family="Helvetica" font-size="14" lengthAdjust="spacing" textLength="114.8136" x="321" y="726.0339">Google Slides API</text></g><!--entity formatter--><g class="entity" data-entity="formatter" data-source-line="20" data-uid="ent0010" id="entity_formatter"><rect fill="#E7E9EE" height="58.1358" rx="7" ry="7" style="stroke:#000000;stroke-width:1;" width="185.4094" x="286" y="801"/><text fill="#000000" font-family="Helvetica" font-size="14" font-weight="bold" lengthAdjust="spacing" textLength="92.8756" x="296" y="825.9659">FormatAgent</text><text fill="#000000" font-family="Helvetica" font-size="14" lengthAdjust="spacing" textLength="165.4094" x="296" y="845.0339">Deterministic corrections</text></g><g class="entity" data-entity="GMN25" data-source-line="40" data-uid="ent0026" id="entity_GMN25"><path d="M550.5,145 L550.5,165.5 L515.17,169.5 L550.5,173.5 L550.5,194.118 A7,7 0 0 0 557.5,201.118 L695.0201,201.118 A7,7 0 0 0 702.0201,194.118 L702.0201,148 L692.0201,138 L557.5,138 A7,7 0 0 0 550.5,145" fill="#FFFFFF" style="stroke:#000000;stroke-width:1;"/><path d="M692.0201,138 L692.0201,144.5 A3.5,3.5 0 0 0 695.5201,148 L702.0201,148 L692.0201,138" fill="#FFFFFF" style="stroke:#000000;stroke-width:1;"/><text fill="#000000" font-family="Helvetica" font-size="13" lengthAdjust="spacing" textLength="130.5201" x="556.5" y="156.897">Isolated from catalog</text><text fill="#000000" font-family="Helvetica" font-size="13" lengthAdjust="spacing" textLength="117.0001" x="556.5" y="174.603">to avoid availability</text><text fill="#000000" font-family="Helvetica" font-size="13" lengthAdjust="spacing" textLength="24.869" x="556.5" y="192.309">bias</text></g><g class="entity" data-entity="GMN28" data-source-line="46" data-uid="ent0029" id="entity_GMN28"><path d="M172,420.5 L172,432 L137.03,436 L172,440 L172,451.912 A7,7 0 0 0 179,458.912 L338.0351,458.912 A7,7 0 0 0 345.0351,451.912 L345.0351,423.5 L335.0351,413.5 L179,413.5 A7,7 0 0 0 172,420.5" fill="#FFFFFF" style="stroke:#000000;stroke-width:1;"/><path d="M335.0351,413.5 L335.0351,420 A3.5,3.5 0 0 0 338.5351,423.5 L345.0351,423.5 L335.0351,413.5" fill="#FFFFFF" style="stroke:#000000;stroke-width:1;"/><text fill="#000000" font-family="Helvetica" font-size="13" lengthAdjust="spacing" textLength="152.0351" x="178" y="432.397">Goroutines + semaphore</text><text fill="#000000" font-family="Helvetica" font-size="13" lengthAdjust="spacing" textLength="143.1821" x="178" y="450.103">Shared prompt caching</text></g><!--link orch to outliner--><g class="link" data-entity-1="orch" data-entity-2="outliner" data-source-line="22" data-uid="lnk11" id="link_orch_outliner"><path d="M436.5,70.07 C436.5,87.98 436.5,105.4 436.5,124.9" fill="none" id="orch-to-outliner" style="stroke:#000000;stroke-width:1;"/><polygon fill="#000000" points="436.5,130.9,440.5,121.9,436.5,125.9,432.5,121.9,436.5,130.9" style="stroke:#000000;stroke-width:1;"/></g><!--link outliner to selector--><g class="link" data-entity-1="outliner" data-entity-2="selector" data-source-line="23" data-uid="lnk12" id="link_outliner_selector"><path d="M436.5,208.02 C436.5,226.89 436.5,243.71 436.5,262.63" fill="none" id="outliner-to-selector" style="stroke:#000000;stroke-width:1;"/><polygon fill="#000000" points="436.5,268.63,440.5,259.63,436.5,263.63,432.5,259.63,436.5,268.63" style="stroke:#000000;stroke-width:1;"/></g><!--link selector to w1--><g class="link" data-entity-1="selector" data-entity-2="w1" data-source-line="25" data-uid="lnk13" id="link_selector_w1"><path d="M436.5,346.11 C436.5,365.63 436.5,383.07 436.5,400.98" fill="none" id="selector-to-w1" style="stroke:#000000;stroke-width:1;"/><polygon fill="#000000" points="436.5,406.98,440.5,397.98,436.5,401.98,432.5,397.98,436.5,406.98" style="stroke:#000000;stroke-width:1;"/></g><!--link selector to w2--><g class="link" data-entity-1="selector" data-entity-2="w2" data-source-line="26" data-uid="lnk14" id="link_selector_w2"><path d="M333.36,344.51 C279.97,363.15 213.73,386.29 154.5,407 C148.94,408.94 148.8321,408.9748 143.0421,411.0048" fill="none" id="selector-to-w2" style="stroke:#000000;stroke-width:1;"/><polygon fill="#000000" points="137.38,412.99,147.1966,413.787,142.0984,411.3357,144.5497,406.2376,137.38,412.99" style="stroke:#000000;stroke-width:1;"/></g><!--link selector to w3--><g class="link" data-entity-1="selector" data-entity-2="w3" data-source-line="27" data-uid="lnk15" id="link_selector_w3"><path d="M482.29,346.11 C506.05,365.63 529.9431,385.2622 551.7531,403.1722" fill="none" id="selector-to-w3" style="stroke:#000000;stroke-width:1;"/><polygon fill="#000000" points="556.39,406.98,551.9731,398.1771,552.5259,403.8069,546.8961,404.3596,556.39,406.98" style="stroke:#000000;stroke-width:1;"/></g><!--link w1 to reviewer--><g class="link" data-entity-1="w1" data-entity-2="reviewer" data-source-line="29" data-uid="lnk16" id="link_w1_reviewer"><path d="M416.55,465.26 C410.75,474.43 404.82,484.86 400.5,495 C393.95,510.4 390.3437,522.3501 386.8237,537.7901" fill="none" id="w1-to-reviewer" style="stroke:#000000;stroke-width:1;"/><polygon fill="#000000" points="385.49,543.64,391.3904,535.7543,386.6014,538.7651,383.5905,533.976,385.49,543.64" style="stroke:#000000;stroke-width:1;"/></g><!--reverse link w1 to reviewer--><g class="link" data-entity-1="w1" data-entity-2="reviewer" data-source-line="33" data-uid="lnk20" id="link_w1_reviewer"><path d="M422.9457,470.7685 C413.9457,493.1985 403.51,519.2 393.63,543.79" fill="none" id="w1-backto-reviewer" style="stroke:#000000;stroke-width:1;stroke-dasharray:7.0,7.0;"/><polygon fill="#000000" points="425.18,465.2,418.1162,472.0631,423.3181,469.8404,425.5408,475.0422,425.18,465.2" style="stroke:#000000;stroke-width:1;"/><text fill="#000000" font-family="Helvetica" font-size="13" lengthAdjust="spacing" textLength="55.601" x="414.5" y="509.897">feedback</text></g><!--link w2 to reviewer--><g class="link" data-entity-1="w2" data-entity-2="reviewer" data-source-line="30" data-uid="lnk17" id="link_w2_reviewer"><path d="M122.39,465.09 C149.12,480.31 183.23,499.02 214.5,514 C244.77,528.5 273.4197,540.6603 302.7497,552.4003" fill="none" id="w2-to-reviewer" style="stroke:#000000;stroke-width:1;"/><polygon fill="#000000" points="308.32,554.63,301.4509,547.572,303.6781,552.772,298.4781,554.9991,308.32,554.63" style="stroke:#000000;stroke-width:1;"/></g><!--reverse link w2 to reviewer--><g class="link" data-entity-1="w2" data-entity-2="reviewer" data-source-line="34" data-uid="lnk22" id="link_w2_reviewer"><path d="M142.7654,462.6617 C168.2754,472.6717 192.28,482.68 218.5,495 C250.08,509.84 284.21,527.98 312.8,543.82" fill="none" id="w2-backto-reviewer" style="stroke:#000000;stroke-width:1;stroke-dasharray:7.0,7.0;"/><polygon fill="#000000" points="137.18,460.47,144.097,467.4811,141.8345,462.2964,147.0192,460.0339,137.18,460.47" style="stroke:#000000;stroke-width:1;"/><text fill="#000000" font-family="Helvetica" font-size="13" lengthAdjust="spacing" textLength="55.601" x="255.5" y="509.897">feedback</text></g><!--link w3 to reviewer--><g class="link" data-entity-1="w3" data-entity-2="reviewer" data-source-line="31" data-uid="lnk18" id="link_w3_reviewer"><path d="M549.86,465.06 C528.63,479.69 502.19,497.86 478.5,514 C464.22,523.73 453.7331,530.8432 439.3331,540.5632" fill="none" id="w3-to-reviewer" style="stroke:#000000;stroke-width:1;"/><polygon fill="#000000" points="434.36,543.92,444.0575,542.2001,438.5042,541.1226,439.5817,535.5693,434.36,543.92" style="stroke:#000000;stroke-width:1;"/></g><!--link reviewer to executor--><g class="link" data-entity-1="reviewer" data-entity-2="executor" data-source-line="36" data-uid="lnk23" id="link_reviewer_executor"><path d="M378.5,621.11 C378.5,640.63 378.5,658.07 378.5,675.98" fill="none" id="reviewer-to-executor" style="stroke:#000000;stroke-width:1;"/><polygon fill="#000000" points="378.5,681.98,382.5,672.98,378.5,676.98,374.5,672.98,378.5,681.98" style="stroke:#000000;stroke-width:1;"/></g><!--link executor to formatter--><g class="link" data-entity-1="executor" data-entity-2="formatter" data-source-line="37" data-uid="lnk24" id="link_executor_formatter"><path d="M378.5,740.02 C378.5,758.41 378.5,776.37 378.5,794.8" fill="none" id="executor-to-formatter" style="stroke:#000000;stroke-width:1;"/><polygon fill="#000000" points="378.5,800.8,382.5,791.8,378.5,795.8,374.5,791.8,378.5,800.8" style="stroke:#000000;stroke-width:1;"/></g><!--SRC=[hPHFRzf04CNl-occuPBG9WhG9aegLQB591nQgd3eXSl67kmLwnrtTnn8Ftt71ZlywwqSa3mp_9xdxLlUSOOvGc6rSIeiZIkqrpaywtYPUYfTyeqiUUYCwy_EH88BNLeUa-CVMWYFQ5-GJQntPfus0E_GG- -ZKXvZrYwr26VTxWF1rCSP1lQQoNUxStTUb1uXfWG_W2COJYxEG0SW6OFETTGVVBhvpBZc-rLc60zuqvAj4QLk5yvdv1ponTmDdRQlVp20h0aUVvSYDtShmncLN1TZpTfIkX7Q8g0p6evlndS72ZEqyaZx2jyrLqk0Gqn4Xe0n5pSPmzmPToGHjen_IFpoifY7HssMPUr8C4932DOa63Psh7hGkObklzuDTyquXTcyPCs9gUAizq7z_mKQd0BjavxmnU1gSppJeWnYNRHcT0acOf9n4ffqxiRYOfKzi4H5pVRRtqa0haVzqUW06wqnBhVnUI2gghFwpM3uSr83S3i1dUWskekY0y2OVAvvcAAhznkXx9iRPu9aMQBegs53BjIiHJrSETB2wd1U9hHobr_Q0AasIKsdENUbsWGqhLNlHAr_eZPGIiw-UMoCKNACnxN1SKsrLbwLnLMb2_Ums1f-rEplDj-w3RLnLRNsDftM8wKSiTmwasOCj7Wp1s0IgBeY2ImyvStzaBfS7_r29f5lRQn-DjRmgzIVZGvAiW8LyP0hNW4yaFnRiU03l1UpSrrav54Qiqnx4If4g62HYYLhwHlhBm00]--></g></svg>